<?xml version="1.0" standalone="no"?>
<!DOCTYPE svg PUBLIC "-//W3C//DTD SVG 1.1//EN" "http://www.w3.org/Graphics/SVG/1.1/DTD/svg11.dtd" >
<svg xmlns="http://www.w3.org/2000/svg">
<metadata></metadata>
<defs>
<font id="dimensions_oneregular" horiz-adv-x="804" >
<font-face units-per-em="2048" ascent="1638" descent="-410" />
<missing-glyph horiz-adv-x="776" />
<glyph horiz-adv-x="0" />
<glyph horiz-adv-x="682" />
<glyph unicode=" "  horiz-adv-x="776" />
<glyph unicode="&#x09;" horiz-adv-x="776" />
<glyph unicode="&#xa0;" horiz-adv-x="776" />
<glyph unicode="!" horiz-adv-x="587" d="M231 270q-20 -9 -64 -55t-44 -65q0 -23 16 -54t31 -37q28 -8 39 -8q57 0 117 72q30 35 30 61q0 24 -32 60q-27 39 -50 39q-10 0 -43 -13zM299 334q26 -3 69.5 -54t53.5 -92l12 31q10 27 10 39q0 23 -41 64q-40 43 -65 43q-19 0 -37 -15q-14 -11 -14 -14q0 -2 12 -2z M330 985l-4 148h-19q-35 0 -99 -6t-73 -7q0 -109 21.5 -247t25.5 -236q3 -97 9 -128.5t24 -31.5q9 0 39 15l51 26q11 5 19 102t8 236q0 84 -2 129zM459 1229q-17 0 -42 -40t-30 -73q-6 -44 -6 -248q0 -297 8 -297q16 8 29 19q22 19 39.5 114.5t17.5 190.5q0 41 -2 59 q-3 29 -4.5 136.5t-9.5 138.5zM422 1298q-4 11 -107 15q-13 0 -31 1t-24 1q-32 0 -45 -5.5t-31 -23.5q-22 -22 -22 -31q0 -11 4 -24t4 -17q0 -6 -6 -12q0 -4 84 -4h108q20 22 43 54.5t23 45.5zM262 399q-1 5 18.5 10.5l39 11t18.5 11.5q-3 10 -16 10q-18 0 -74.5 -21.5 t-71.5 -21.5q-2 0 -4.5 1t-3.5 1h-29q-1 20 -3.5 77.5t-4.5 94t-5 85.5t-7.5 85.5t-9.5 59.5q-27 113 -43 385v14q0 37 21.5 65t82.5 72l55 39q13 -1 52.5 -2.5t70.5 -3t66 -4.5t55.5 -8.5t22.5 -13.5q18 -21 28 -21q6 0 6 -39q0 -29 -4 -96t-4 -80l2 -10q4 -43 4 -133 q0 -162 -20 -338q-3 -30 -16 -52t-27 -34t-33 -30t-31 -36q-22 -39 -22 -53t20 -14q30 -17 67.5 -63.5t37.5 -98.5q0 -60 -61.5 -132.5t-133.5 -97.5q-71 -24 -92 -24q-9 0 -41 8q-63 19 -98 94q0 4 -4 8q-9 21 -9 35t17 49q10 19 14 38.5t8.5 29.5t20.5 18q11 1 63 57 t64 56q14 0 14 12z" />
<glyph unicode="&#x22;" horiz-adv-x="899" d="M520 731q0 -8 12 -8q6 0 22.5 7t33.5 7q9 0 13.5 24t10.5 103q8 94 15 138t24 94q2 4 2 14q0 19 -18 31t-43 12q-31 0 -47 -16q-2 -2 -4.5 -4t-4 -3.5t-3.5 -3t-3 -4.5t-2 -5.5t-2 -9l-2 -13t-2 -18.5t-2.5 -24t-3.5 -32q0 -9 -4 -33q-8 -71 -8 -117q0 -40 8 -71 q10 -42 10 -58q0 -8 -2 -10zM750 1176q-5 1 -17 -26t-25.5 -64t-19.5 -48q-5 -8 -15.5 -98.5t-10.5 -136.5l4 -27q11 0 39 47q9 16 18 80.5t17 141t10 90.5q2 10 2 28q0 13 -2 13zM717 1255q-4 -2 -15 -2q-12 0 -42 6.5t-44 6.5q-8 0 -20 -4q-6 -2 -18 -14t-20.5 -23 t-6.5 -11q2 -4 76 -8q7 0 19 -1t16 -1q37 0 59 19t22 30q0 7 -10 7q-1 0 -16 -5zM631 680q-12 0 -77 -14.5t-85 -14.5h-8q-25 6 -25 29q0 15 10 25q17 17 17 49q0 21 -10 28q-11 6 -11 52q0 40 9 90q14 75 14 166q0 44 -6 59q0 1 -1 3t-1 3q0 15 21.5 49.5t50 73t34.5 49.5 h39q157 0 203 -14q21 -6 28 -11.5t7 -15.5q0 -2 -1 -6t-1 -6q-47 -227 -56 -342q-8 -95 -20 -125q-14 -38 -59.5 -82.5t-71.5 -44.5zM233 733l21 309q0 2 1 7.5t1 7.5q4 40 4 49q0 20 -5.5 28.5t-18.5 8.5q-12 0 -56 -13q-1 0 -4 -1t-4 -1l-49 -14l4 -100q9 -264 31 -283 q9 -6 24 -6q3 0 51 8zM311 811q0 16 15 20q17 6 34 240q4 74 11 92q2 4 2 13q0 8 -6 8q-8 0 -27 -19q-13 -13 -19 -53.5t-24 -228.5q-2 -10 -2 -33q0 -32 6 -41q7 -10 8 -10q2 0 2 12zM354 1264q0 8 -51 8q-34 0 -49 -5.5t-37 -27.5q-36 -36 -33 -39l60 -4h22q24 0 35.5 5.5 t26.5 23.5q26 30 26 39zM311 698q0 -19 -10 -26q-7 -4 -58.5 -8.5t-97.5 -4.5q-61 0 -61 7l-4 42q-2 36 -6 150q-7 211 -11 236q-2 6 -2 18q0 26 18 53t66 78l80 82h41q105 0 121 10q8 4 16 4q15 0 32.5 -9t21.5 -21q0 -1 1 -3t1 -3q0 -13 -13 -39q-8 -16 -20 -148 q-4 -40 -9 -105t-8 -89.5t-11 -62.5t-21 -61.5t-35 -47.5q-31 -35 -31 -52z" />
<glyph unicode="#" horiz-adv-x="1652" d="M1618 422q-4 -3 -7 -28t-3 -36q0 -3 -3.5 -6t-8.5 -6.5t-7 -5.5q2 -4 2 -16t-1 -18t-7.5 -10.5t-19.5 -4.5q-15 0 -29.5 -10t-26.5 -11q-13 -2 -37.5 -17t-50.5 -15q-43 0 -43 -13q0 -7 17 -14q16 -6 16 -29q0 -20 -16 -26q-17 -7 -17 -45q0 -25 10 -25q13 0 13 -14 q0 -9 -7.5 -21t-17.5 -18q-20 -12 -60.5 -33.5t-72 -40.5t-57.5 -39q-30 -24 -39 -24q-3 0 -23 8q-12 6 -35 6q-27 0 -93.5 -14.5t-90.5 -14.5h-67q2 13 10 82.5t14 95.5q10 52 10 64q0 19 -10.5 24t-40.5 5h-51q-3 -6 -17 -39t-25.5 -54.5t-18.5 -25.5q-9 0 -9 -15 q0 -14 -41 -32t-59 -62q-21 -43 -53 -43q-15 0 -45 15q-37 18 -217 24q1 10 3 43t5 56t8 30q8 20 18.5 77t14.5 73q6 24 6 39q0 28 -33 28q-29 0 -88 -18q-13 -4 -37 -12.5t-39.5 -12.5t-27.5 -4q-25 0 -38 22t-14 76v19q0 110 9 123q10 9 59 38.5t64 45.5q19 20 35.5 24 t70.5 4q43 0 59.5 3.5t20.5 13.5q2 4 2 14q0 8 -2 10q-7 7 -131 11q-78 1 -104.5 5t-34.5 15q-15 23 -15 39q0 32 41 100q12 20 22.5 42t21.5 38t40 47q35 38 52.5 49t39.5 11h15q14 -2 47 -2q17 0 56 1t56 1h27q27 95 53 131q61 89 297 256l182 -37q27 -4 43.5 -15.5 t16.5 -23.5q0 -2 -4 -10q-8 -11 -8 -31q0 -13 -19.5 -34t-19.5 -36q0 -5 -4.5 -28.5t-4.5 -34.5q0 -16 9 -16q12 0 12 10t34.5 48t43.5 38t34 25t37 46q10 19 76 19q8 0 30.5 -1t37.5 -1q97 -3 134.5 -11.5t37.5 -29.5q0 -8 -5.5 -20t-8.5 -15q-9 -12 -9 -29t9 -51 q9 -40 16.5 -51.5t28.5 -15.5q17 -4 22.5 -9.5t7.5 -19.5q23 -11 27 -18q4 -8 9 -33t5 -35q0 -1 3 -39.5t3 -56.5q0 -21 -4 -21q-2 1 -3 -9l-1 -46q0 -43 -4 -59q-9 -30 -51 -46q-29 -43 -88 -43q-6 0 -17.5 1t-15.5 1q-22 0 -28.5 -5.5t-6.5 -20.5q0 -13 7.5 -17t29.5 -4 q49 0 135 -14q0 -2 15.5 -30t15.5 -60q0 -43 -4 -45zM1108 1010q0 -18 -11.5 -35.5t-11.5 -38.5q0 -49 -55 -49q-20 0 -47 6q-18 4 -51 4h-41q-21 0 -30 7t-9 30q0 22 8 55q8 39 8 74q0 16 -2 18q-3 9 -26.5 15t-48.5 6t-31 -4q-10 -4 -68 -4h-82v-35q0 -60 -14 -62 q-16 -8 -16 -24t-16 -68t-29 -82q-11 -22 -41 -22h-11q-5 0 -21.5 1t-27.5 1q-54 0 -207 -6q-3 -7 -15 -28t-21 -38.5t-11 -23.5q0 -5 23 -5h37q49 0 116.5 -8t85.5 -16q17 -10 17 -27q0 -18 -19 -86q-12 -50 -12 -86q0 -44 -13 -55.5t-55 -11.5h-41q-64 0 -217 -25 q-6 0 -18 -32.5t-12 -49.5q0 -14 32 -14q38 0 70 16t139 19h68q29 0 35.5 -4t9.5 -19v-8q0 -23 -18 -89.5t-19 -70.5q0 -3 -9 -58.5t-9 -74.5q6 -4 56 -12t56 -13q13 -8 29 -8q33 0 46.5 32t12 71.5t1.5 80.5t16 54t160 20q90 4 100 4q51 0 70 -16q18 -18 18 -84 q0 -51 -12 -119q-11 -57 -11 -63q42 2 102.5 13.5t82.5 27.5q10 13 10 131q0 95 11.5 122t51.5 27q24 0 48 8.5t61 10.5q65 5 84.5 14.5t32.5 46.5q6 18 6 31q0 19 -26 24t-111 5q-19 0 -47.5 -1t-38.5 -1q-32 0 -46 7t-14 29q0 19 8 43q11 25 25 105q9 55 16.5 69.5 t34.5 28.5q44 23 135 23q63 0 78 -15q6 -6 13 -6q6 0 12 6q4 4 4 15q0 22 -17 52.5t-30 29.5h-88q-44 0 -61 6t-25 20q-6 12 -6 37q0 63 24 84q10 9 15.5 34.5t11.5 33.5q8 8 8 18q0 22 -33 38.5t-65 23.5q-22 0 -47 -28.5t-25 -51.5zM698 588q4 12 14.5 35t14.5 37.5 t4 33.5q0 25 -4 41l107 -8q81 -6 106 -15.5t25 -37.5q0 -13 -7 -41q-15 -69 -24 -193q-14 -6 -174 -6h-90v10q0 8 -1 27t-1 27q0 23 6 32q9 13 24 58zM1171 74q0 -84 11 -84q10 0 71 37q40 27 50 39t10 38q0 34 22 74q13 26 13 33q0 6 -9 6q-5 0 -30 -5t-43 -5 q-62 0 -78.5 -24.5t-16.5 -108.5zM1575 915q4 0 6 -2v27q-4 17 -6 31h-8q-15 0 -58 16q-19 8 -41 8q-26 0 -26 -16q0 -8 -12 -8q-18 -9 -39 -25t-45.5 -38t-36.5 -31l75 -13q34 -6 60 -6q69 0 104 41q16 16 27 16zM729 1180q0 -2 27 -2q38 0 65 2q61 3 81.5 7.5t37.5 18.5 q27 27 27 41q0 12 -17 19q-19 8 -43 8q-54 0 -116 -47q-62 -44 -62 -47zM1411 1194q-27 6 -92 6q-87 0 -98 -8q-17 -14 -17 -21q0 -14 72 -38l72 -25q65 75 63 86zM1337 561q19 0 19 19q0 2 -1 7.5t-1 8.5q-2 19 -9 26t-24 7q-19 0 -49 -6q-27 -6 -36 -20t-9 -42q0 -5 1 -21 t1 -24q6 3 31.5 15.5t45 20.5t31.5 9zM815 573q78 45 78 60q0 17 -59 20l-48 6q-7 0 -24 -50t-17 -64q12 0 70 28zM934 993q0 -13 3.5 -17.5t16.5 -4.5q17 0 27 2q31 3 38.5 8t10.5 25q0 2 1 6t1 6q0 16 -20 16q-31 0 -31 45q0 11 4 39q2 12 2 29q0 16 -4 16q-12 0 -31 -71 q-18 -74 -18 -99zM1407 516q-6 -7 -40 -10t-34 -19q0 -12 51.5 -13.5t53.5 -8.5q9 -12 32 -12q27 0 54 13t28 32q-6 6 -10 6q0 -2 -6 -2q-9 0 -53.5 9t-61.5 9q-10 0 -14 -4zM1475 336q12 0 42 10t44 10l16 54l-2 28q-3 -2 -11.5 -5t-11.5 -5q-11 -4 -31.5 -12.5t-25.5 -9.5 q-10 -3 -20.5 -24.5t-10.5 -35.5q0 -8 2 -10h9zM1565 729l12 8q4 32 4 49v66q-7 -8 -25 -18q-25 -17 -30.5 -28.5t-5.5 -45.5q3 -47 14 -47q6 0 18 8zM700 145q-7 7 -18 7q-28 0 -39 -21q-12 -24 -12 -47q0 -17 6.5 -28t17.5 -11q8 0 17 6q9 4 19.5 34.5t10.5 49.5 q0 8 -2 10zM494 901q0 14 -15 14q-9 0 -53 -14q-15 -10 -39 -10q-13 0 -39 4t-37 4q-28 0 -39 -16l-22 -23q67 11 166 19q78 6 78 22zM1448 1087q-6 11 -14 11q-14 0 -52 -41q-39 -45 -39 -56q0 -4 5 -4q6 0 34 19q2 2 12.5 8.5t15.5 10t13.5 11t13 13t8 13.5t3.5 15z M270 481q33 5 33 13q0 5 -12.5 9.5t-26.5 4.5q-26 0 -35 -12q-4 -8 -4 -11q0 -8 15 -8q6 0 30 4zM848 506q22 0 22 12q0 10 -20 10q-7 0 -13 -4.5t-6 -9.5q0 -8 17 -8zM338 483q2 -4 6 -4q6 0 12 6.5t6 12.5q0 5 -8 8q-18 0 -18 -14q0 -7 2 -9z" />
<glyph unicode="$" horiz-adv-x="1208" d="M707 291q12 0 37.5 15t35.5 28q15 19 15 45q0 13 -9 22q-1 0 -8 3t-15 5.5t-15 4.5q-8 2 -19 2q-8 0 -12.5 -5t-9.5 -18q-11 -25 -11 -65q0 -37 11 -37zM842 334q-9 -6 -14 -22.5t-9 -20.5q-10 0 -41 -27q-26 -26 -63 -26q-32 0 -55 20t-23 51q0 13 2 21q4 20 4 28 q0 31 -10 54q-6 15 -6 26q0 9 4 15t12.5 9.5t16.5 5t21.5 3.5t20.5 4q14 4 37 4q22 0 39 -9.5t43 -35.5q37 -37 37 -67q0 -20 -16 -33zM471 885q0 17 -7 27t-18 10q-4 0 -22 -9q-16 -8 -16 -22q0 -19 22 -33q12 -10 25 -10q16 0 16 37zM358 854q-8 16 -8 37q0 38 34 63 t81 25q14 0 22 -2l54 -8q-5 -104 -11 -144q-2 -12 -11 -18t-38 -10q-8 -2 -24 -2q-72 0 -99 59zM707 -16q0 -56 16 -56q14 0 53 39q33 33 33 45q0 10 -6 19q-18 22 -41 22q-37 -2 -46 -13t-9 -56zM287 420q0 -9 47 -53q29 -28 41.5 -35.5t32.5 -7.5q2 0 10 1t14 1 q35 1 44.5 6t12.5 20q0 2 1.5 5.5t1.5 4.5q0 15 -25 21q-15 0 -68 39.5t-57 40.5q-9 -2 -32 -19.5t-23 -23.5zM752 731v-10q0 -37 7.5 -49t49.5 -41q64 -39 72 -39q10 0 10 -8q4 -11 52.5 -66.5t49.5 -56.5q10 -17 13 -17q4 0 4 25q-1 47 -67 119.5t-130 105.5zM956 926 q4 -11 15 -11q14 0 45.5 16.5t38.5 16.5q12 3 16 12t5.5 26t4.5 26q4 12 4 14q0 6 -6 6q-13 0 -59 -37q-64 -50 -64 -69zM367 1120q13 0 52 16.5t58 16.5q26 0 36.5 15.5t10.5 52.5q0 18 -26 18h-9q-39 -1 -103 -52t-64 -77q0 -10 16 -10q9 0 14 10t15 10zM786 1186 q22 0 88.5 -54t96.5 -98q77 47 82 66q0 22 -23.5 52t-50.5 42q-16 7 -76 43l-6 4q-25 19 -35 19q-12 0 -31.5 -13.5t-27.5 -13.5q-45 -23 -45 -37q0 -10 28 -10zM649 1315q-21 0 -29 -16t-14 -19q-11 -9 -17.5 -36t-11 -69.5t-6.5 -52.5q-6 -53 -24 -53q-7 0 -15 8 q-13 13 -49 13q-37 0 -67 -15q-71 -39 -95.5 -75t-25.5 -107v-12q0 -124 61 -170q8 -6 30 -29t41 -36t38 -13q6 0 6 -6q0 -10 25 -17q61 -15 61 -161q0 -52 -9 -108t-20 -71q-5 -8 -79 -8q-78 0 -91 8q-12 6 -32.5 24t-52.5 49t-35 34q-65 -45 -99 -72q-24 -17 -24 -35 q0 -17 48.5 -67.5t63.5 -50.5q14 0 29 -15t51 -24t76 -9q35 0 57 5q50 8 62 8q8 0 10 -2q3 -3 8 -101.5t12 -99.5q4 -4 31 -4q36 0 90 6v41q0 103 13 135q7 19 19.5 23t55.5 4q83 0 141.5 43.5t78.5 118.5q10 38 10 63q0 71 -74 145q-50 50 -102 84.5t-72 34.5 q-15 0 -27 53.5t-12 110.5q0 45 10 72q13 29 13 106q15 -3 71.5 -10.5t77.5 -15.5q9 -9 16 -9q20 0 35 35q8 19 8 31q0 14 -12 35q-28 47 -93 83t-124 38q-20 0 -23.5 8.5t-3.5 50.5q0 61 11 90q4 16 4 19q0 10 -25 10zM823 1356q0 53 -12 53q-6 0 -43 -29q-27 -24 -27 -61 q0 -7 2 -26t2 -31q9 5 28.5 14.5t27 15.5t15 22t7.5 42zM756 1456q-7 10 -15 10q-4 0 -15 -3.5t-21 -4.5q-14 -2 -43 -27.5t-29 -39.5l2 -7q2 -2 8 -2q24 0 69.5 25.5t45.5 42.5zM1030 303q0 -38 -66 -127.5t-94 -89.5q-12 0 -12 -57q0 -38 -5.5 -51.5t-27.5 -30.5 q-7 -5 -31.5 -28t-37.5 -32q-29 -26 -51.5 -31.5t-106.5 -5.5h-49q-56 0 -67.5 7.5t-14.5 40.5q0 22 -6 59q0 3 -1 9t-1 9q-5 36 -10 48t-15 12h-14q-38 0 -101 13t-92 28q-49 24 -94 64.5t-57 70.5q-15 37 -15 55q0 31 32.5 66.5t119.5 101.5q122 94 154 94q13 -4 55 -43 q43 -43 63 -43q17 0 17 25q0 33 -12.5 59t-32.5 35q-58 26 -114 71.5t-56 65.5q0 13 -8 13q-24 35 -38 97.5t-14 131.5q0 115 31 170q39 74 108.5 129.5t129.5 56.5q28 2 35.5 5t7.5 16q0 3 -1 9.5t-1 10.5q0 3 -1 8t-1 7q0 24 24 45q9 6 54.5 58.5t70.5 55.5q8 2 45 2 q128 0 141 -10q5 -3 9 -88q2 -58 5.5 -74t20.5 -28q40 -32 94 -62q40 -22 68 -50t29 -50q0 -17 28 -37q15 -10 20 -17.5t5 -25.5q0 -1 -4 -51q-6 -64 -25 -93t-61 -38q-20 -5 -48.5 -21t-68.5 -16q-23 0 -37 2q-89 8 -108 14q-4 2 -11 2q-14 0 -20 -18q-4 -12 -4 -21 q0 -25 26.5 -48t92.5 -58q27 -13 84.5 -71.5t78.5 -92.5q23 -41 23 -106q0 -59 -18 -97q-19 -34 -19 -55z" />
<glyph unicode="%" horiz-adv-x="1472" d="M1018 319q-3 15 -8 15t-10 -10.5t-5 -26.5q0 -39 25 -47q15 -6 22 -6t7 6q0 7 -15 33.5t-16 35.5zM1102 301q9 0 15.5 17t6.5 38q0 35 -20 41q-9 6 -14 6q-7 0 -13 -20q-2 -6 -2 -18q0 -22 8.5 -43t18.5 -21zM1012 449q12 12 39 12q35 0 75.5 -18.5t53.5 -43.5 q4 -6 4 -24q0 -43 -35.5 -102.5t-73.5 -82.5q-13 -8 -33 -8q-35 0 -68 24.5t-36 55.5q-4 14 -4 37q0 16 5.5 28t17 28t18.5 32q14 31 37 62zM317 709q-37 63 -53 63q-6 0 -8 -10q-2 -2 -2 -8q0 -17 19.5 -35.5t33.5 -18.5q10 0 10 9zM365 846q4 20 4 24q0 11 -5 18t-12 7 q-11 0 -22 -14t-11 -33q0 -6 5 -21q9 -49 20 -49q15 0 21 68zM424 852q-9 0 -16 -57q-5 -34 -16.5 -65.5t-36.5 -56t-58 -24.5q-45 0 -45 8q0 11 -14 11q-12 0 -25.5 27.5t-13.5 52.5q2 50 42.5 121.5t88.5 82.5q9 2 19.5 4t17 3.5t10.5 1.5q20 0 37 -25q16 -29 16 -66 q0 -18 -6 -18zM1122 76q18 17 29 37t37 45q67 64 67 209q0 38 -9 54.5t-54 61.5q-39 39 -65 56.5t-52 17.5q-31 0 -66.5 -25t-90.5 -83q-72 -75 -72 -189q0 -62 27.5 -110.5t80.5 -67.5q76 -27 111 -27q36 0 57 21zM1350 416q0 54 -14.5 79.5t-61.5 51.5q-56 32 -111 37 l56 -52q57 -56 77.5 -92.5t20.5 -83.5q0 -16 -8 -82q15 26 22 41t13 42t6 59zM877 727q0 15 27 58t28 49q5 14 37.5 67t38.5 70q7 20 25 38t18 40q0 18 -13 18l-16 -4q-16 -4 -23 -4q-20 0 -60.5 12t-57.5 12q-14 0 -23 -6q-33 -18 -127 -50t-141 -32q-15 0 -21 2 q-109 8 -145 19q-61 20 -100 20q-31 0 -50 -8q-55 -24 -84 -70t-61 -151q-10 -38 -10 -68q0 -85 43 -147q15 -13 21 -23.5t12.5 -16.5t29.5 -17q34 -15 66 -15q81 0 129 45q11 11 76 140q24 49 24 100q0 34 -2 57v12q0 16 5.5 21t23.5 8h12q16 0 16 -6q0 -18 33 -18 q35 0 84 22q83 41 105 41q12 0 20 -8q8 -5 8 -10q0 -4 -16 -41q-18 -38 -70.5 -121.5t-70.5 -120.5q-29 -57 -72 -121.5t-78 -132.5q-13 -25 -61 -103t-72 -139l55 -14q1 0 4.5 -1t4.5 -1q47 -12 67 -12q19 0 28 8.5t19 32.5q18 45 66.5 124t56.5 95q110 215 162 282 q29 42 29 68zM481 1120q-45 0 -61.5 -4t-16.5 -16q0 -6 40.5 -19t86.5 -20q10 -2 25 -2q23 0 23 12q0 7 -17 31q-13 18 -80 18zM952 735q-23 -61 -77 -132t-84 -140q-11 -24 -49 -91t-48 -98q0 -16 -8 -16q-6 0 -24.5 -32.5t-18.5 -45.5l4 -6q19 0 65 52.5t46 76.5 q0 10 14 10q11 0 26 39.5t15 67.5q0 20 15 35t20 28q4 10 31 57.5t30 63.5q0 9 71 108t116 154q22 27 39 61.5t36 57.5q17 21 50 84.5t55 87.5q10 7 10 25q0 14 -8 14q-5 0 -12 -8t-11 -19q-6 -16 -29 -34.5t-47 -32.5t-44 -31.5t-21 -32.5q-5 -15 -33 -48.5t-30 -57.5 q0 -20 -17 -37q-14 -11 -48 -77t-34 -83zM1210 1200q7 10 7 12q0 5 -13 5h-16q-36 -1 -65 -6.5t-43.5 -10t-42 -15.5t-42.5 -16q-32 -8 -32 -18q0 -12 77 -12h21q51 0 73 4t36 15t40 42zM575 768q0 -1 1.5 -4t1.5 -4q0 -13 -13.5 -38t-13.5 -36q0 -6 -12.5 -22t-12.5 -23 q-1 -8 -19 -30t-18 -33q0 -18 -33 -49t-73 -52q-46 -22 -104 -22q-61 0 -84 20q-71 62 -97 101t-35 98q-2 8 -2 28q0 59 19.5 143.5t44.5 127.5q35 63 153 134.5t189 74.5h29q44 0 70 -12t59 -46q47 -47 61 -47q27 0 79 20t71 38q40 35 57 45q33 21 108.5 51.5t96.5 30.5 q26 0 39 10q17 10 45 10q30 0 93.5 -10.5t78.5 -11.5q15 0 24 -9q-6 -43 -55.5 -117t-62.5 -112q-4 -10 -14 -16.5t-13 -14.5q0 -8 -37.5 -67.5t-54.5 -77.5q-59 -65 -64 -90q-3 -13 -14.5 -19.5t-11.5 -19.5q0 -17 -11 -17q-16 0 -30.5 -22t-21.5 -44l-7 -22q2 0 7 -1t7 -1 q41 0 62 17q19 16 90 16q60 0 84 -12q31 -17 53 -17t66 -48.5t55 -82.5q6 -21 6 -47q0 -61 -27 -131t-49 -78q-6 0 -11 -5.5t-5 -12.5q-11 -24 -36 -52.5t-59 -62.5t-48 -49q-34 -39 -50 -47t-57 -8q-55 0 -119 24.5t-96 57.5q-58 61 -61 131q-1 11 -7.5 17.5t-13.5 6.5 q-14 0 -14 -18q0 -10 -15.5 -14.5t-15.5 -14.5q0 -9 -42 -43.5t-91 -64.5q-34 -19 -102 -19q-43 0 -50 10q-5 6 -64.5 17t-60.5 26q-4 6 -4 27q0 39 15 39q8 5 18 28t16 31q29 41 86.5 146t86.5 147q38 54 84 139.5t69 122.5q25 42 25 60q0 6 -4 6q-6 0 -25 -16 q-17 -17 -55 -21q-31 -2 -42.5 -11.5t-11.5 -35.5z" />
<glyph unicode="&#x26;" horiz-adv-x="1591" d="M367 389q0 29 -7 29q-8 0 -24.5 -42t-18.5 -59q0 -18 12.5 -54t18.5 -38q14 0 66 -9t78 -9q21 0 36 6t15 10q0 1 -17 8q-60 20 -109.5 69t-49.5 89zM424 408q0 -28 8 -40.5t41 -35.5q64 -45 131 -45q39 0 39 20q0 13 -14 27q-22 22 -54 75t-45 91q-8 21 -13.5 29t-14.5 8 q-8 0 -25 -7q-19 -4 -36 -44t-17 -78zM575 571q0 -23 22.5 -70.5t33.5 -47.5q8 0 8 -19q0 -15 37.5 -57.5t50.5 -42.5q4 -2 4 -10q0 -10 -7 -21.5t-15 -11.5q-6 0 -10.5 -4.5t-4.5 -10.5q0 -25 -62 -71t-112 -58q-2 0 -7.5 -1t-8.5 -1q-39 0 -110.5 14.5t-86.5 26.5 q-13 9 -30 51t-17 78q0 25 8 41q17 34 17 52q0 23 62.5 88.5t103.5 85.5q45 20 59 39q5 12 16 12q16 0 32.5 -23.5t16.5 -38.5zM586 1016q-1 -4 -32.5 -20.5t-31.5 -32.5q1 -27 18 -42.5t40 -15.5t41 14.5t24 41.5q2 6 2 14q0 17 -22 31q-27 18 -35 18q-4 0 -4 -8zM543 1077 q0 13 16 13q21 0 55.5 -16.5t57.5 -39.5q39 -39 39 -71q0 -42 -68 -89q-42 -28 -68 -28q-33 0 -81 45q-35 32 -35 61q0 31 47 78q37 41 37 47zM1335 109q14 0 72 30q33 18 44.5 34t14.5 52v27q0 27 -12 27q-11 0 -43 -19q-76 -47 -76 -96q-4 -27 -8 -31q-6 -6 -6 -14 q0 -10 14 -10zM1188 375q-37 24 -49 24q-11 0 -21 -14q-38 -65 -35 -68q1 -1 5 -2.5t10.5 -5t11.5 -6.5q24 -12 156 -12q80 0 80 8q-16 12 -78 38t-80 38zM1307 657q12 6 12 15q0 6 -8.5 11t-21.5 9t-26 6.5t-25 5t-15 3.5q-2 0 -6.5 1t-6.5 1q-25 0 -55 -27 q-18 -15 -18 -23q0 -13 34 -32q35 -21 54 -21q20 0 45 25q26 26 37 26zM813 743q0 -10 -16 -10q-17 0 -17 -26t14.5 -62t36.5 -61q7 -8 12.5 -31.5t20.5 -30.5q6 -6 17 -6q18 0 34.5 22t16.5 42q0 13 -10 18q-9 9 -18.5 22.5t-15.5 25.5l-16 32t-16 31q-26 47 -37 47 q-6 0 -6 -13zM381 700q-30 0 -79.5 -28.5t-49.5 -46.5q0 -11 -14 -11q-13 -2 -49 -68t-42 -69q-8 -8 -13 -30t-15 -89v-10q0 -69 49 -176q19 -41 63 -90t62 -49q6 0 31 -21q78 -55 165 -55q38 0 78 16q36 15 113.5 70t110.5 90q24 27 43 27q20 0 45 -25q30 -27 86 -54.5 t94 -33.5q8 -2 26 -2q38 0 85.5 10.5t66.5 22.5q20 16 41 78q14 47 14 57q0 23 -28 23q-1 0 -31 -5h-14q-43 0 -110 16.5t-85 33.5q-12 12 -12 22q0 6 6 21q20 51 121 163q1 2 8 9q31 36 31 47q0 17 -43 45l-43 28q-25 -24 -70 -60.5t-78 -68.5q-45 -45 -65 -45 q-26 1 -57 39.5t-56 100.5q-17 45 -47 84q-25 31 -25 55q0 12 11 12q10 0 59 47t49 56q0 12 12 24q29 29 29 84q0 34 -12 74l-4 12q-19 63 -26.5 77t-27.5 23q-10 4 -18 11t-8 12q0 10 -33.5 19.5t-67.5 9.5q-18 0 -26 -2q-10 -2 -29 -2q-17 0 -20 6q-7 10 -41 10 q-35 0 -56 -12q-35 -23 -75 -66.5t-43 -64.5q-1 -13 -14 -61t-13 -75q0 -36 18 -57q22 -49 64 -82q31 -24 31 -37q0 -5 -13 -18q-21 -21 -59 -21zM684 1253q0 -10 35 -18q24 -6 64 -33.5t73 -60.5q14 -14 34.5 -88.5t20.5 -112.5v-8q0 -14 7 -14q8 0 24 22q21 21 21 86 q0 44 -11 66q-12 31 -56 72.5t-85 62.5q-71 33 -113 33q-14 0 -14 -7zM891 43q-7 -1 -30.5 21t-31.5 22q-14 -2 -42.5 -28t-28.5 -38q0 -6 -15 -9t-16 -9q0 -8 -35 -27l-84 -47q-56 -30 -129 -30q-55 0 -107 17.5t-87 49.5q-25 25 -39 25q-25 0 -78 65t-70 117 q-37 107 -37 168q0 22 7 57q10 55 51.5 142t68.5 110q10 8 33.5 27.5t42 33.5t37.5 25q37 21 37 37q0 11 -12 23q-14 14 -27.5 58t-13.5 77q0 53 23 128t40 75q10 0 35 36q15 24 49 44t98 46.5t82 34.5q42 17 82 17q72 0 146.5 -34.5t127 -99.5t52.5 -141q0 -4 -1 -11 t-1 -11v-76l-68 -72q-37 -40 -49 -56t-12 -28q0 -4 4 -16q10 -26 51 -89t47 -63q18 8 88 73t80 65q33 20 49 20q10 0 25 -6q36 -12 61 -12q35 0 89.5 -20.5t54.5 -33.5q0 -12 -34.5 -45.5t-57.5 -40.5q-21 -7 -90.5 -78t-69.5 -85q8 -12 88 -47.5t115 -41.5q15 -3 46 -5.5 t54.5 -6.5t36.5 -12q4 -12 4 -35q0 -29 -6 -97t-6 -69l-103 -53q-198 -100 -321 -100q-87 0 -174 43q-20 16 -29 16z" />
<glyph unicode="'" horiz-adv-x="557" d="M373 1077q-18 0 -31 -112l-6 -54q36 80 41 127q2 8 2 23q0 16 -6 16zM315 1118q0 12 -34 12q-31 0 -79 -7.5t-69 -14.5v-35q0 -67 8 -146.5t19 -119.5q3 -14 14 -14q7 0 25 8t26 8h8q13 0 18.5 16t10.5 19q10 10 25 112.5t18 110.5q10 25 10 51zM291 1196q32 0 52 12 t41 38t30 34h-205l-33 -47q-22 -31 -22 -45q0 -8 12 -8t33 6q33 10 92 10zM78 969q0 26 -9.5 79t-9.5 76q0 45 25 70q10 21 47 67t45 60q0 10 12 23.5t23 13.5q9 0 18 -12q8 -11 84 -11h88q86 0 93 -10q0 -2 1 -6t1 -6q0 -26 -33 -120t-33 -142q0 -96 -12 -130.5t-49 -66.5 q-38 -33 -47 -55q-5 -13 -57.5 -37t-82.5 -25q-7 0 -24.5 -6t-24.5 -6q-8 0 -12 4q-12 10 -27.5 99.5t-15.5 140.5z" />
<glyph unicode="(" horiz-adv-x="1019" d="M502 -63q0 -10 28 -17q4 -2 15 -2q18 0 43 19q30 24 30 32t-18 8q-16 0 -36 17t-34 20q-28 8 -28 19q0 10 -10 10q-12 0 -76 68.5t-64 81.5q-14 55 -28 55q-8 0 -13 -10q-6 -9 -6 -27q0 -32 31 -111q16 -44 74 -84q56 -38 74 -54t18 -25zM688 1057q-14 0 -45 -21.5 t-37 -21.5q-19 0 -88 -71.5t-69 -90.5q0 -10 -11 -10q-10 0 -18 -25q-3 -14 -35.5 -53.5t-32.5 -58.5q0 -29 -10 -46q-15 -31 -29 -82.5t-14 -74.5q0 -10 4 -10q8 0 43 79q23 51 96.5 160.5t120.5 163.5q14 16 32 40.5t54 59.5q47 47 47 58q0 4 -8 4zM233 831 q0 -12 -19 -44.5t-26 -32.5q-10 0 -10 -27q0 -25 -14 -65q-21 -52 -33 -135t-12 -156q0 -49 6 -76q40 -181 74 -199q10 -2 27.5 -46t21.5 -48q71 -88 143 -133q47 -27 68 -27q16 0 16 13q0 26 -47 67q-154 137 -166 182q-28 114 -31 279v31q0 84 10.5 136.5t37.5 117.5 q5 14 12 36.5t14 38t21 35.5q26 43 26 47q0 8 51 73.5t74 86.5q57 53 76.5 68.5t34.5 19.5q22 6 22 19q0 9 -12 12q-38 10 -80 10q-21 0 -33 -4q-34 -13 -143 -134.5t-109 -144.5zM737 1147q15 14 45.5 22.5t48.5 18.5q-10 4 -25.5 9.5t-22.5 8t-19 4.5t-25 2q-34 0 -80 -10 q-65 -12 -65 -26q0 -11 45 -17q51 -7 66 -18q6 -6 12 -6q8 0 20 12zM911 1141q0 -8 -10 -8q-24 0 -148 -117t-180 -195q-19 -26 -44.5 -56.5t-41 -53.5t-32.5 -60l-43 -80q-29 -46 -45.5 -99.5t-16.5 -94.5q0 -39 17 -53q15 -15 22 -48q9 -53 65.5 -115.5t112.5 -84.5 q15 -6 54.5 -34.5t66.5 -35.5q17 -6 17 -29q0 -31 -25 -47q-8 -4 -28 -20t-29 -19q-9 0 -65 -54.5t-56 -63.5q0 -11 -23 -11t-59.5 13.5t-36.5 21.5q-1 5 -8.5 10t-15 7.5t-7.5 3.5q0 12 -41 30q-34 16 -71.5 66t-67.5 103.5t-39 62.5q-17 17 -27 55q-28 94 -36.5 132 t-8.5 75q0 39 2 66q9 142 50 294q11 39 57 127.5t70 114.5q26 26 26 31q0 6 68.5 74t89.5 81q17 11 25.5 23.5t10.5 21t14.5 18.5t37.5 19q27 9 46 19.5t36 15t59 8.5q71 7 74 13q4 4 21 4q31 0 38 -10q5 -7 41 -15q65 -10 87.5 -18.5t33.5 -26.5q10 -17 10 -20 q0 -10 -20 -19q-27 -15 -27 -22z" />
<glyph unicode=")" horiz-adv-x="825" d="M537 190q1 7 10.5 24.5t9.5 39.5q0 37 18 78q13 37 13 94q0 96 -29 231t-76 254q-13 36 -47 86t-43 50q-8 0 -8 12q-4 10 -26.5 35t-59.5 63.5t-39 40.5l-115 -74q36 -34 99.5 -99.5t83.5 -98.5q10 -17 24 -34.5t21.5 -30t11.5 -30.5q0 -18 12 -30q18 -18 30.5 -141.5 t12.5 -247.5q0 -114 -12 -148q-46 -108 -72 -143q-9 -11 -44.5 -58t-63.5 -75q-49 -46 -49 -60q0 -13 28 -41q37 -37 64 -37q25 0 69 50q68 79 122.5 168t54.5 122zM623 274q0 -20 -16 -60.5t-17 -57.5q0 -27 -8 -27q-15 -17 -55 -89.5t-46 -78.5q-8 -12 -8 -20q4 -3 34 24 t56 58q20 23 55 96.5t35 91.5q0 13 11 20q34 72 34 258q0 103 -11 204t-28 153q-12 41 -44.5 115t-41.5 86q-4 5 -52 80.5t-75 99.5q-46 43 -73 43q-16 0 -35 -19q-10 -10 -10 -16q0 -9 51 -66q59 -63 59 -71t19 -27q45 -52 62.5 -78.5t17.5 -44.5q0 -13 10 -26.5t10 -28.5 q0 -22 10 -39q15 -24 27.5 -72.5t24 -107t18.5 -82.5q10 -30 10 -133q0 -83 -10 -113q-14 -40 -14 -72zM233 938q2 4 -86.5 96.5t-85.5 100.5q0 12 30 36.5t44 24.5q18 0 90 45.5t121 81.5q15 12 41 12q18 0 51 -21t33 -32q0 -10 14 -10q11 0 54.5 -56.5t68.5 -107.5 q8 -17 20 -31t18.5 -24.5t6.5 -26.5q0 -9 24.5 -65.5t43.5 -90.5q11 -22 27 -150t16 -198q0 -76 -13.5 -164.5t-27.5 -124.5q-9 -19 -30.5 -75.5t-51.5 -122.5q-19 -39 -113 -123.5t-149 -110.5q-12 -6 -26.5 -14t-22.5 -12.5t-17.5 -7.5t-17.5 -3q-18 0 -37.5 14.5 t-62.5 55.5q-57 57 -70 57q-10 0 -10 23t88 111q62 60 96.5 115.5t79.5 152.5l6 12q0 10 1 32t1 34q0 120 -12.5 239.5t-32.5 149.5q-8 13 -16 43q-6 26 -39.5 75.5t-44.5 49.5q-9 0 -9 10z" />
<glyph unicode="*" horiz-adv-x="1079" d="M358 588q0 14 -4 14q-5 0 -32 -18q-21 -15 -21 -23q0 -6 12 -6q15 0 30 8.5t15 24.5zM621 602q-14 23 -27 23q-16 0 -16 -37q0 -21 2 -33q3 -47 18 -47q11 0 22 21.5t11 43.5q0 21 -10 29zM887 637q0 15 19.5 53t19.5 53q0 20 -23 23q-16 0 -16 -39q0 -32 -19 -76 q-12 -24 -12 -39q0 -8 6 -8q8 0 12 4q13 9 13 29zM733 809q14 0 40.5 -16t35.5 -17q12 0 12 8q0 17 -33 43q-33 23 -40 23q-9 0 -21 -12t-12 -21q0 -8 18 -8zM713 1116q6 9 6 12q0 5 -6 5q-8 0 -18 -5.5t-13 -11.5q-6 -9 -6 -12q0 -4 6 -4q8 0 18 5t13 11zM369 1092 q0 37 -21 49q-12 6 -16 6t-11 -9t-18 -10q-20 -3 -20 -14q0 -15 36 -35q38 -20 41 -20q9 0 9 33zM897 1030q21 24 21 57q0 4 -1.5 13t-1.5 14v64q-55 -55 -55 -107q0 -55 14 -55q9 0 23 14zM831 1176q0 8 -6 8q-2 0 -53 -23q-29 -15 -29 -22q0 -6 11 -6q20 0 34 14 q8 8 24 13t19 16zM174 1034q-10 -11 -22 -23.5t-15.5 -17t-3.5 -8.5q0 -6 21 -18l34 -25q21 -15 40.5 -31t32 -24.5t36.5 -20.5q29 -14 29 -32q1 -12 -77.5 -96.5t-78.5 -92.5q-7 -20 -18 -20t-11 -9q0 -12 22.5 -37t37.5 -38l57 57q122 119 158 119q11 0 14 -12q2 -6 2 -23 q0 -26 -10 -91.5t-10 -82.5q0 -32 5 -38t32 -11q27 -6 43 -6q22 0 27 19t7 89v86q0 34 4.5 48t20.5 14q17 0 65 -25q31 -18 73 -33.5t69 -29.5q10 -5 12 -5q13 0 22.5 12t19 36.5t11.5 27.5q-56 50 -82 56q-37 8 -72.5 25.5t-45.5 29.5q-2 2 -2 10q0 19 30 46.5t45 31.5 q16 3 56 30.5t53 30.5q12 2 12 23q0 10 -5 37t-5 39q-1 10 -5.5 14t-15.5 4h-8q-33 -5 -82 -23.5t-82 -39.5q-30 -21 -41 -21q-9 0 -24 12q-33 20 -33 58q0 25 12 90q13 63 13 90q0 8 -2 10q-20 15 -54 15q-24 0 -30 -15q-9 -10 -18 -75t-9 -109q0 -21 2 -31 q0 -13 -13.5 -35t-27.5 -22q-17 0 -113 67l-59 41zM670 1296q0 9 -13 9t-32 -13q-12 -9 -26.5 -66t-14.5 -98q0 -12 4 -12q6 0 28 19q21 15 25 29.5t4 36.5t10 44q15 37 15 51zM616 1362q0 6 -12 6q-28 0 -55 -18q-29 -19 -29 -27t25 -8q17 0 44 18t27 29zM713 1196 q5 1 63.5 28t83.5 27q42 0 55 13q4 4 15 4q20 0 43.5 -15.5t23.5 -33.5q-18 -45 -18 -80q0 -11 3 -46t3 -65q0 -17 -42.5 -43.5t-47.5 -36.5q-9 -10 -28.5 -17t-32.5 -15.5t-13 -26.5q0 -15 33.5 -35t58.5 -20q2 0 5 1t4 1q4 2 12 2q14 0 31.5 -14.5t29.5 -14.5q25 0 25 -16 q0 -17 -37 -78q-43 -71 -43 -97q0 -25 -24.5 -50.5t-59.5 -35.5q-28 -8 -35 -8q-15 0 -55 21q-54 26 -61 26q-10 0 -17 -43q-4 -27 -19.5 -44t-38.5 -33t-34 -31q-13 -19 -25 -25t-32 -6q-6 0 -60 4q-3 0 -9 1t-9 1q-44 4 -66 8.5t-33 16.5t-12.5 23.5t-1.5 41.5v33 q-128 -62 -139 -65q-15 5 -64.5 56.5t-52.5 53.5q-24 21 -24 31q0 12 48.5 79t80.5 97q43 40 43 47q0 8 -82 68l-17 12q-68 51 -75 61q-5 7 -5 13q0 7 10.5 18.5t10.5 18.5v6q25 39 45 49q10 2 15 18t10 19q10 0 14 28q3 21 11.5 27t41.5 10q55 8 86 25q17 10 35 10 q10 0 14 -4t6 -4q9 0 16 26t7 66q0 24 7 35t28 22q11 7 90 50q53 30 92 30q4 0 16 -1t19 -1q131 -13 131 -47q0 -5 -12 -33q-47 -86 -47 -131q0 -12 6 -12z" />
<glyph unicode="+" horiz-adv-x="1140" d="M705 236q2 -6 2 -15q0 -5 -3.5 -17t-3.5 -22q-1 -8 -57 -64t-57 -65q-3 -26 -41 -26q-23 0 -74.5 13t-64.5 13q-36 0 -66 13q-14 5 -18.5 10.5t-4.5 21.5q0 29 17 113q7 34 12.5 67.5t11 76.5t9.5 69q-13 -2 -62 -5.5t-84.5 -8.5t-44.5 -11q-17 -13 -115 -24 q3 59 21.5 150.5t34.5 131.5q17 18 52.5 33.5t59.5 30.5q38 24 61 31.5t60 7.5h31v194l51 33q65 48 149.5 77.5t153.5 29.5q5 0 15 -1t14 -1q8 -2 24 -2q28 0 39 14q7 10 19 10q10 0 16 -4q19 -10 19 -16q0 -5 -25 -41q-22 -31 -36.5 -79.5t-14.5 -86.5q0 -39 16 -49 q3 -7 60 -7q16 0 54.5 1.5t57.5 1.5q82 0 82 -9q2 -6 2 -20q0 -21 -9 -83t-9 -83q0 -3 1 -8.5t1 -7.5q4 -24 4 -31q0 -10 -3 -15.5t-12 -12t-14 -11.5q-48 -31 -87.5 -64.5t-45.5 -48.5q-4 -12 -19 -16t-53 -4q-66 0 -83 -17.5t-25 -89.5q0 -18 -2 -26q-6 -41 -16 -51z M440 905v-71q0 -188 -10 -222q-8 -20 -80 -20t-129 10q-32 4 -41 4q-10 0 -14 -4q-15 -25 -25 -69t-10 -76q32 6 149.5 17.5t151.5 17.5h10q29 0 29 -21q0 -14 -18 -35q-23 -23 -46 -124.5t-26 -186.5q98 -27 143 -27q2 0 6 1t5 1q5 1 10 176.5t10 176.5q4 7 68.5 12t70.5 8 q6 4 68 8q53 3 64.5 11t17.5 45l4 24q4 28 4 35q0 18 -14 21.5t-66 3.5h-37q-89 2 -109.5 5t-39.5 21q-25 22 -25 41q0 11 15.5 35t15.5 45v18q0 20 14.5 57t14.5 58q-9 17 -27 17q-6 0 -30.5 -4t-43.5 -5zM913 743q23 11 23 19q0 7 -84 10q-9 0 -23 1t-18 1q-30 0 -45.5 -6 t-42.5 -25q-45 -33 -45 -47q0 -16 84 -16q50 0 73 8t42 27t36 28zM629 178q4 4 16 8l25 52q2 4 4 10q-4 10 -4 45q0 11 4 47l6 59h-82v-131q0 -96 4 -106q7 0 27 16zM1001 659q0 64 -8 64q-3 0 -9 -3.5t-16 -9.5t-18 -10q-23 -12 -30 -30t-7 -50t-4 -49q-4 -16 -4 -20 q0 -12 8 -12q13 0 52 28q26 20 31 33.5t5 58.5zM684 795q14 12 32 19.5t23 18.5t9 48q9 76 12 86q2 6 2 16q0 6 -4 6q-7 0 -43 -28q-17 -15 -28 -39t-15 -43.5t-9.5 -54t-9.5 -52.5zM682 1008q25 22 25 28q0 4 -9 4q-26 0 -127 -43q-36 -14 -36 -24q0 -4 2 -6q4 -4 16 -4 q25 0 65.5 14t63.5 31zM381 680q0 18 -43 18q-29 0 -53.5 -9t-24.5 -23q0 -7 31 -7h26q64 3 64 21z" />
<glyph unicode="," horiz-adv-x="722" d="M217 -76q20 0 70 55.5t67 96.5q3 6 14.5 30t15 32.5t12 30t12 35.5t8 34.5t6.5 40.5q2 14 2 34q0 38 -18 49.5t-64 16.5h-8q-14 2 -49 2q-45 0 -92 -4.5t-52 -9.5q-4 -7 -20 -166q8 1 27 2.5t35 3t33.5 4t29.5 5.5t16 7q3 6 8 6q9 0 21 -12q12 -6 12 -27q0 -16 -7 -38 t-16.5 -43.5t-9.5 -22.5q-9 -7 -27.5 -56t-27.5 -55q-16 -10 -16 -28q0 -23 18 -23zM571 391q2 12 2 33q0 18 -4 18q-7 -2 -38.5 -17.5t-38.5 -21.5q-1 -9 -8 -76t-14.5 -110t-16.5 -57q-4 -12 -4 -15q0 -4 4 -4q9 0 55 56q32 41 41.5 70.5t21.5 123.5zM567 506q11 7 11 10 q0 12 -35 12q-17 0 -23 -6q-7 -7 -96 -14q-45 -4 -77 -13t-49 -18.5t-50 -30.5h8q124 -11 150 -20q2 -2 6 -2q15 0 77.5 40t77.5 42zM510 106q-19 -21 -38 -49.5t-60 -68.5q-52 -52 -115 -89.5t-98 -37.5q-29 0 -70 15.5t-49 29.5q-4 8 -4 12q0 15 49 51q24 19 65 83t41 83 q0 4 -43 4h-61q-39 0 -52.5 8.5t-13.5 36.5q0 1 9 66q10 48 10 88q0 16 -2 22q-4 12 -4 17q0 18 16 35t41 33t29 20q37 19 39 20q63 41 109 59.5t100 24.5q116 11 141 11q59 0 88 -23q25 -22 25 -31q0 -2 -9 -20q-18 -38 -41 -225q-9 -72 -102 -175z" />
<glyph unicode="-" d="M125 410h18q42 0 90.5 16t131.5 16q119 0 137 7t18 40q0 34 -56 47t-114 13q-20 0 -76 -6q-4 0 -14 -1t-16 -1q-12 -2 -29.5 -2t-27 -1t-20.5 -5.5t-17.5 -16t-10.5 -31.5q0 -6 -4 -18zM639 598q-10 -11 -26 -13.5t-22.5 -12t-6.5 -44.5q0 -31 3 -42t13 -11t33 10 q25 12 33 62q2 12 2 31q0 30 -13 30q-9 0 -16 -10zM250 612q0 -8 33 -8q25 0 41 2q36 4 53 4q38 0 80 -10q27 -8 49 -8q12 0 14 4q6 9 49 35q5 3 12 9t11.5 10.5t3.5 4.5l-168 -8q-113 -5 -145.5 -11t-32.5 -24zM676 442q-20 0 -37.5 -11.5t-23.5 -19t-21 -28.5h-72 q-263 0 -299 -16q-7 -6 -46 -14t-44 -27q-13 -25 -27 -25q-11 0 -32 21q-13 16 -13 32q0 15 13 88q5 27 9 56.5t5.5 43t8 29t18.5 27.5q32 15 157 102h74q191 0 223 11q40 12 93 12q81 0 81 -35q0 -1 -1 -3.5t-1 -4.5q-18 -69 -18 -143q0 -27 6 -39q4 -12 4 -17 q0 -17 -15.5 -28t-41.5 -11z" />
<glyph unicode="." horiz-adv-x="616" d="M293 254q-18 0 -32 9.5t-19 10.5q-5 -1 -18 -10.5t-23 -9.5q-17 0 -49.5 -40.5t-32.5 -76.5q0 -12 8 -28q37 -64 117 -64h8q43 1 66.5 17t46.5 59q12 24 12 35q0 14 -12 41q-13 35 -27.5 46t-44.5 11zM414 227q0 -11 16 -43q11 -14 16 -14q6 0 27 18q27 24 27 41 q0 14 -19 43q-38 56 -100 76q-35 12 -47 12q-11 0 -31 -10q-18 -9 -18 -18q0 -12 45 -29q84 -34 84 -76zM401 57q-15 -8 -25.5 -23t-31.5 -28q-39 -22 -98 -22q-82 0 -127 36q-58 43 -58 107q0 39 21 98q10 33 66.5 83.5t127.5 90.5q47 21 62 21q120 -32 168.5 -75 t48.5 -118q-2 -29 -7 -40.5t-26 -28.5q-12 -9 -56 -50t-65 -51z" />
<glyph unicode="/" horiz-adv-x="954" d="M584 1014q-53 0 -74 -9.5t-21 -33.5q0 -17 -44 -110t-46 -109q-4 -34 -31 -80t-34 -74q-24 -88 -68 -185t-57 -134q-29 -76 -49 -115q-27 -52 -27 -78q0 -20 14 -20q3 0 39 10t50 10q11 0 14 -6q3 -12 12 -12q21 0 47 63q29 63 29 80q2 7 13.5 28.5t13.5 51.5 q3 32 31 101.5t32 82.5q1 13 124 278q61 132 56 132q1 4 21 52.5t24 76.5h-69zM762 1069q-17 -17 -46 -80t-62 -145t-46 -109q-26 -56 -70.5 -160.5t-74.5 -166.5q-27 -55 -39.5 -118t-32.5 -108q-10 -20 -10 -30q0 -11 10 -11q12 0 12 13q20 49 72.5 165.5t92.5 213 t63 169.5q5 17 33 76t30 84q2 18 34.5 90t35.5 86q2 6 2 17q0 14 -4 14zM731 1122q0 11 -67 11q-94 0 -115 -15q-14 -8 -14 -18q0 -19 59 -25h16q38 0 74.5 13.5t46.5 33.5zM694 729q-15 -74 -77.5 -223.5t-73.5 -181.5q-3 -8 -45.5 -95t-44.5 -100q-1 -12 -9 -21.5 t-14 -9.5q-15 0 -55 -43q-28 -29 -40 -36t-42 -7h-25q-20 4 -32 4q-20 0 -62 -6t-59 -6q-26 0 -39 9t-13 34q0 14 11 51q10 33 31 78.5t28 67.5q2 10 13.5 26t13.5 39q8 44 16 58q72 137 119 286q8 27 22 47.5t21 51.5q14 55 47 121.5t51 117.5q8 21 8 33q0 7 -6 10 q-12 3 -12 15q0 23 42.5 68t74.5 71h88q119 0 139 10q17 10 41 10q42 0 63 -24q19 -19 19 -25q0 -5 -7 -13.5t-7 -12.5q-23 -30 -44.5 -70.5t-21.5 -52.5q0 -9 -27.5 -69.5t-27.5 -68.5q-1 -15 -17 -49t-18 -49q-3 -17 -15 -25t-14 -20z" />
<glyph unicode="0" horiz-adv-x="1026" d="M334 829q-14 0 -31 -94t-18 -186v-19q0 -111 19.5 -171t68.5 -93q24 -18 80 -18q25 0 43 6q16 6 16 12q0 11 -33 25q-39 18 -74.5 58t-48.5 85q-15 55 -18 228q0 167 -4 167zM514 991q-42 0 -60 -13t-36 -65q-21 -65 -21 -231q0 -124 18.5 -215.5t59.5 -99.5q17 0 17 -11 q0 -12 40 -12q27 0 35.5 7t22.5 40q8 18 20 89t25 89q6 9 6 82q0 76 -6.5 158t-16.5 102l-4 9q-11 25 -19.5 37t-29 23t-51.5 11zM410 1034q40 19 100 19q61 0 86 -19q24 -18 51 -56.5t33 -66.5q10 -23 10 -133q0 -192 -20 -297q-32 -169 -77.5 -228.5t-146.5 -62.5h-12 q-69 0 -104.5 22.5t-61.5 82.5q-10 20 -14.5 31t-9.5 22t-7 22.5t-4.5 19t-3 26t-1 28.5t-1.5 41.5t-2 51.5q0 15 -1 37t-1 30q0 42 4 62t12.5 44.5t14.5 57.5q19 98 59.5 169t96.5 97zM254 1014q0 -7 -21 -45q-31 -53 -63.5 -155t-32.5 -159q0 -18 -10 -73q-8 -58 -8 -90 q0 -113 37 -220t96 -153q58 -49 158 -49q91 0 165 39q27 13 46.5 27t19.5 20q0 13 30.5 52.5t41.5 39.5q14 0 52.5 96.5t55.5 173.5q19 93 19 174q0 141 -45 230q-41 84 -91 145t-98 86q-44 23 -92 23q-38 0 -55 -17q-12 -14 -39 -15.5t-43 -10.5q-26 -15 -74.5 -62 t-48.5 -57zM555 1229q34 0 77.5 -24.5t72.5 -53.5q11 -3 50.5 -63t47.5 -64q2 3 11 -12q35 -57 59 -138q9 -29 10 -47q3 -63 12 -63q8 0 8 43v20q-3 62 -15 126t-26 94l-16 30q-6 11 -23 43t-26.5 47.5t-29 41.5t-37.5 39t-44.5 23.5t-56.5 10.5q-18 0 -58 -8 q-55 -12 -55 -31q0 -14 39 -14zM727 160q0 -10 -50 -53.5t-87 -65.5q-70 -39 -166 -39q-66 0 -127 21q-59 19 -83.5 41.5t-84.5 111.5q-29 42 -48.5 134t-19.5 177q0 7 1 20t1 19q6 75 28.5 192t33.5 128q10 10 10 39q2 32 52 118t102 146q57 64 140.5 120.5t127.5 61.5 q21 4 27 10q7 7 28 7q28 0 63.5 -8t51.5 -19q123 -83 156 -178q11 -33 29 -71.5t32 -82.5q21 -65 21 -203q0 -110 -17 -217q-12 -63 -53 -160.5t-68 -127.5q-100 -112 -100 -121z" />
<glyph unicode="1" horiz-adv-x="772" d="M168 893q5 0 65 49q55 41 68 41q4 0 12 -4q17 -10 17 -29q0 -17 -17 -41q-23 -50 -33 -127.5t-15.5 -197t-10.5 -174.5q-4 -62 -4 -226v-61q0 -18 -6 -33q-2 -4 -2 -10q0 -15 21.5 -21t74.5 -6q34 0 44 4.5t17 24.5q11 26 11 104q0 172 19 407t46 394q2 11 4 24t3 20.5 t1 12.5q0 15 -10 25q-14 14 -94 21q-6 0 -17 1t-16 1q-49 0 -83 -16.5t-85 -61.5q-33 -26 -33 -43q0 -3 1 -7t2 -9.5t2 -10.5q0 -1 1 -3t1 -3q11 -45 16 -45zM559 803q5 44 28 157t25 181q-29 -7 -41.5 -30t-29.5 -101q-11 -54 -16.5 -91.5t-9.5 -85.5t-9 -85 q-31 -238 -37 -424q-2 -49 -2 -115q0 -62 8 -62q21 21 43 316q5 70 11.5 122.5t15 111t14.5 106.5zM514 1212q-12 2 -35 2q-18 0 -31 -2.5t-23.5 -9.5t-16 -12t-16 -16.5t-15.5 -16.5q0 -4 74 -4q25 0 43 2.5t33 9.5t22 11.5t23 17.5t22 18h-80zM625 840q0 -31 -15.5 -92 t-15.5 -97q0 -44 -12 -76q-14 -37 -21 -204q-5 -120 -12.5 -174t-14.5 -69.5t-32 -42t-47 -62.5q-9 -17 -29 -20t-113 -3q-88 0 -118.5 5.5t-30.5 25.5q0 12 8 28q12 33 23 263q22 466 36 516q2 6 2 14t-4 8q-7 0 -32 -31q-26 -32 -60 -32q-16 0 -22 14q-1 6 -15 74.5 t-26 97.5q-13 37 -13 49q0 17 11.5 23t40.5 8q32 1 96 42.5t135 106.5q40 38 64 53t51 15q18 0 28 -2q6 -4 23 -4q12 0 36 5t36 5q8 0 16 -4q8 -8 47 -8q25 0 45.5 -19.5t20.5 -42.5q0 -15 -13 -28q-10 -4 -23.5 -63t-25 -124t-14.5 -73q-10 -27 -10 -82z" />
<glyph unicode="2" horiz-adv-x="1198" d="M1040 252q0 51 -8 51q-14 0 -42.5 -29.5t-37.5 -52.5q-16 -43 -16 -90q0 -22 6 -22q8 0 53 45q30 29 37.5 45.5t7.5 52.5zM1038 383q-2 10 -51 10q-52 0 -112.5 -11t-69.5 -24q-7 -10 -21 -10q-6 0 -8 2q-1 0 -3.5 1t-4.5 1q-9 0 -36 -13.5t-27 -23.5q0 -4 2 -6 q8 -8 114 -8q80 0 102.5 4.5t61.5 30.5q23 15 38.5 29t14.5 18zM381 1085q-44 -8 -58 -12.5t-29.5 -18t-29.5 -22.5q-81 -55 -106 -106q-11 -22 -11 -25q0 -8 25 -33q23 -20 33 -20q15 0 61 49q20 21 59 36t72 15q19 0 31 -6l51 -24q57 -27 86 -78.5t29 -116.5 q0 -74 -37 -151t-106 -140q-86 -76 -131 -109.5t-89 -54.5q-56 -26 -72.5 -45.5t-25.5 -68.5q-12 -48 -12 -66q0 -25 14 -25q116 17 168 17q72 0 176 -8q3 0 8.5 -1t8.5 -1q47 -3 120.5 -9t114.5 -8t84 -2h35q0 1 1 4t1 4q25 109 25 136q0 9 -3 18q-9 31 -124 31 q-22 0 -61 -1t-52 -1q-84 2 -103.5 5.5t-19.5 20.5q0 22 66 88q58 58 108 152q29 60 34 87.5t5 129.5q0 89 -3.5 124.5t-18.5 74.5q-23 58 -63 99t-87 56q-59 19 -123 19q-25 0 -29 -4q-5 -5 -22 -9zM625 1165q-66 0 -66 -16q0 -7 25 -16q63 -23 110 -69t64 -101 q33 -116 33 -250q0 -116 -25 -168l-57 -146q47 34 69 61.5t41 86.5l35 88q16 40 16 141q0 84 -12 139q-13 59 -53 123.5t-80 94.5q-27 20 -46.5 26t-53.5 6zM545 1219q15 10 61 10q72 0 113 -21q63 -31 120 -109.5t97 -170.5q-1 -19 -5 -100t-9 -135.5t-13 -65.5 q-15 -19 -27 -65t-20 -62q-16 -29 -16 -39q0 -15 31 -15q18 0 45 3q46 4 65 4q96 0 135 -27q17 -11 17 -18q0 -4 -3 -11t-3 -10q-3 -2 -7 -6t-4 -6q-27 -54 -32 -203l-103 -100q-103 -103 -131 -103q-9 0 -14 8q-5 7 -58 11q-418 22 -487 22q-41 0 -55 -2q-130 -10 -146 -10 t-23.5 3.5t-9 8t-2.5 17.5v20q0 37 19 119q15 73 39 101.5t98 58.5q27 11 80 56t72 54q18 8 61 56.5t70 93.5q32 56 32 135q0 49 -16 78q-21 36 -59 57t-82 23h-15q-25 0 -39 -10t-51 -52l-57 -63l-59 47q-45 35 -62.5 55.5t-17.5 40.5q0 16 8 29q20 38 89.5 101t115.5 85 q155 74 198 84t60 23z" />
<glyph unicode="3" horiz-adv-x="940" d="M479 272q-3 10 -33 15t-66.5 7t-45.5 5q-5 2 -17.5 5.5t-22.5 7t-15 7.5q-11 7 -33 7t-39 -6.5t-17 -16.5q0 -12 27 -12t57 -17q29 -16 123 -16q82 0 82 14zM788 377q-6 0 -9 -5t-4 -16l-1 -12v-14q0 -17 4 -17t10.5 19t6.5 33q0 12 -7 12zM780 483q0 -73 23 -73 q10 0 10 92q0 75 -15 118.5t-55 84.5q-26 26 -45 26q-13 0 -28 -12q-19 -13 -19 -25q0 -14 35 -41q35 -26 64.5 -79.5t29.5 -90.5zM414 782q6 6 6 17q-10 0 -40 -19t-36 -28q49 12 70 30zM457 979q0 -8 14 -8q11 0 33 -43q14 -25 14 -56q0 -39 -37 -100q-23 -38 -72 -63.5 t-106 -30.5q-26 -3 -34.5 -9t-14.5 -28q-4 -24 -4 -27q0 -18 18 -18q14 0 35 6q49 14 107 14q48 0 80 -10t32 -28q0 -16 8 -19q14 -6 38.5 -53.5t27.5 -73.5q4 -39 18 -57q11 -11 11 -15t-4 -4q-10 0 -35 -41q-30 -49 -99 -114h-34q-161 0 -193 18q-19 10 -59 14 q-3 0 -9 1.5t-8 1.5q-12 0 -18.5 -7t-15.5 -28q-15 -30 -15 -47q0 -2 1 -5t1 -4q2 -2 2 -6q0 -5 -5 -13l-5 -7q0 -9 22 -25.5t39 -17.5q17 0 21 -13q4 -11 100 -18q49 -6 72 -6q25 0 42.5 6.5t61.5 28.5q85 40 148 106q57 59 74.5 104.5t17.5 141.5q0 81 -25 127t-84 74 q-53 26 -53 35q0 8 -16 8q-12 0 -12 10q0 11 13.5 26.5t31.5 22.5q30 12 66.5 52t51.5 77q17 43 17 72q0 78 -90 162q-19 18 -30.5 28t-24 17.5t-17 10t-23 10t-28.5 11.5q-33 13 -60 13q-34 0 -133 -17q-89 -14 -121 -26.5t-32 -36.5q0 -12 10 -39q9 -20 34 -26t140 -17 q41 -5 78 -18t37 -23zM555 1208q11 -2 23 -7t25.5 -15t23.5 -17.5t25 -22.5l22 -22t22.5 -23.5t18.5 -19.5q55 -55 55 -143v-16q18 24 29.5 67.5t11.5 87.5q0 26 -8 58q-15 45 -70 92.5t-110 60.5q-66 17 -123 17q-82 0 -142 -29q-51 -23 -51 -37q0 -6 15 -6q14 0 24 2 q41 6 82 6q74 0 90 -16q21 -17 37 -17zM786 199q-43 -48 -84 -77t-108 -65l-10 -6q-74 -41 -123.5 -56t-128.5 -15q-100 0 -107 10t-24 10q-22 0 -79 37t-61 55q0 2 -1 5t-1 5q0 23 18 79t19 69q4 42 52.5 89t74.5 60q14 0 78 -22q67 -23 156 -23q35 0 59 8q16 5 16 35 q0 52 -34 107t-86 55q-18 0 -39 -5.5t-48.5 -14.5t-43.5 -13q-42 -10 -52 -10q-14 0 -34 10q-16 8 -21.5 13.5t-5.5 15.5q0 7 4 27q5 12 5 57t6 80t26 35q21 4 104 53.5t99 54.5q32 11 32 25q0 12 -20 35q-13 18 -26.5 22t-51.5 4q-47 0 -100 17q-27 10 -37 10q-7 0 -19 -6 t-14 -8q-12 -9 -20 -9q-6 0 -17 11t-40 92t-29 100q0 30 86 72q40 19 102 59t102 60q45 22 93 22q34 0 57 -2q97 -4 154 -24.5t110 -67.5q54 -49 76 -88t22 -92q0 -31 -10 -86q-12 -67 -23.5 -97.5t-33.5 -52.5q-49 -52 -49 -67q0 -11 24 -35l8 -8q37 -35 63 -95.5 t28 -113.5v-13q0 -81 -30.5 -186t-62.5 -141z" />
<glyph unicode="4" horiz-adv-x="1253" d="M494 582q0 -5 -6 -12.5t-11.5 -12.5t-5.5 -6q0 -12 12 -12q9 0 13 2q24 8 53 8h8q14 0 19 10t8 43q0 3 11 57.5t11 71.5q0 10 -4 10q-12 0 -60 -69.5t-48 -89.5zM590 852q6 27 33 27q17 0 31 -10.5t14 -22.5t-15 -21q-8 -5 -8 -10q0 -6 6 -12q8 -11 8 -72q0 -63 -8 -74 q-7 -10 -14 -88q-6 -57 -16.5 -71.5t-47.5 -14.5h-16q-22 0 -100 -8q-20 -2 -49 -2q-39 0 -39 19q0 13 16 45q19 40 73.5 113.5t78.5 111.5q13 13 33 47t20 43zM848 201v-64q3 2 18.5 10.5t21.5 13.5t16.5 14.5t15 20t4.5 23.5q0 35 -21 47q-23 13 -31 13q-24 0 -24 -78z M1053 506q0 -8 -31 -23q-16 -6 -21.5 -11t-5.5 -15q0 -12 6 -39q0 -1 4 -16.5t9.5 -29.5t9.5 -14q13 0 48.5 23.5t45.5 40.5q4 8 4 22q0 22 -5.5 50.5t-8.5 31.5q-2 2 -8 2q-13 0 -30 -7.5t-17 -14.5zM1055 610q-21 0 -37 4t-25 4q-67 0 -157 -100q16 -1 44 -3.5t40 -2.5 q44 0 94 37q59 44 59 55q0 6 -18 6zM580 1020q-4 -5 -20 -27l-24 -33t-21 -32.5t-23 -42.5q-24 -52 -39.5 -76t-53.5 -68q-24 -27 -24 -36q-10 -28 -60 -92.5t-90 -106.5q-86 -92 -96 -170q-2 -10 -2 -27q0 -12 4 -17t16 -5q24 0 70 14q31 8 53 8q8 0 24 -1t25 -1q25 0 39 4 q20 4 45 4q57 0 119 -12q17 -3 21 -12t4 -39q0 -22 -9.5 -81t-9.5 -83v-12q3 -27 35 -27q15 0 35 5t40 12t24 8q20 10 38 10h21q17 0 27 2q20 4 27 32.5t13 125.5q1 13 2.5 23t2 17t4.5 12.5t5.5 8.5t8 7t9 5l12.5 5t14 6q16 8 43 8q12 0 18 -2q10 -2 23 -2q8 0 11.5 3.5 t4 9.5t0.5 22q0 41 -19.5 58t-68.5 17q-5 0 -15 -1t-16 -1q-18 -2 -43 -2q-34 0 -34 13q0 450 -7 550q-1 21 -6 36.5t-10 17.5q-1 0 -5.5 1t-6.5 1q-29 0 -82 -14.5t-53 -22.5zM815 700q0 -108 16 -108q8 0 27 31q0 1 1 2t1 2q19 30 19 82q0 38 -13 231q-2 8 -2 39 q0 27 2 84.5t2 69.5v12q-5 0 -14.5 -4.5t-17.5 -9t-19 -11t-14 -8.5q12 -242 12 -412zM633 1126q0 -8 49 -8q34 0 53 8t56 39q45 36 45 45q0 2 -11 2q-85 -6 -108.5 -13t-48.5 -32q-35 -35 -35 -41zM770 29q-47 0 -90 -15q-72 -22 -160 -22q-31 0 -37 4q-12 0 -12 57 q0 34 5 105t5 84q-41 6 -90 6q-47 0 -149 -7.5t-148 -7.5h-33v46q0 73 17.5 116t73.5 105q46 51 110.5 141t89.5 137q22 24 41.5 53t47.5 77.5t38 64.5q26 40 36.5 73.5t26.5 60.5t66 75q63 60 81.5 72.5t51.5 15.5q15 1 46 5t58 6.5t50 2.5q47 0 72 -10q10 -5 10 -27 q0 -25 -14 -43q-33 -41 -33 -231q0 -70 2 -109l8 -184l86 -8q24 -4 33 -4q79 -8 100 -15.5t21 -34.5q0 -20 -2 -34v-11q-2 -14 -2 -45q0 -51 8 -84t8 -51q0 -13 -6 -17t-25 -7q-26 -5 -89.5 -48.5t-76.5 -66.5q-7 -11 -22 -62t-37 -63q-12 -6 -40 -33t-58 -48t-56 -21 q-2 0 -6 1t-6 1z" />
<glyph unicode="5" horiz-adv-x="1103" d="M444 270q-16 0 -73 11q-102 18 -127 18q-20 0 -31 -8q-18 -15 -18 -23q0 -14 53 -32q55 -19 108 -19q48 0 80 14q27 13 27 27q0 12 -19 12zM408 897q0 -1 -1 -4t-1 -4q0 -24 29.5 -34.5t62.5 -10.5q57 0 184 -121q76 -73 97 -119t22 -147v-101q55 100 55 201q0 44 -16 90 q-32 81 -102 152.5t-142 89.5q-28 7 -55 24t-74 17q-42 0 -50.5 -5t-8.5 -28zM500 1102h-47q-15 0 -49.5 2t-51.5 2q-50 0 -79 -17.5t-33 -66.5v-21q-2 -23 -23.5 -116.5t-21.5 -124.5q0 -19 6 -25q1 0 24.5 6.5t38.5 6.5q20 0 41 -9q35 -14 62 -14q29 0 80 -33t73 -65 q39 -60 49.5 -97t16.5 -141l6 -94l-64 -64q-51 -49 -68 -58t-73 -13q-16 -2 -43 -2q-24 0 -42 3t-42 9.5t-39 9.5q-31 7 -47 19q-4 4 -10 4q-10 0 -17.5 -13t-7.5 -32q0 -23 -12 -35q-6 -6 -6 -12q0 -25 76 -47t168 -23q62 0 87 5t64 26q98 52 137.5 101.5t73.5 158.5 q21 75 21 131q0 62 -18 112.5t-50 73.5q-23 15 -23 27q-2 11 -66 56.5t-81 45.5q-18 0 -48.5 12.5t-55.5 14.5q-48 8 -56 16q-4 4 -4 27q0 33 9 75.5t20 55.5q14 20 47 20q20 0 67 -6q18 -2 58 -2q20 0 56.5 1t53.5 1q61 0 93 -14q21 -12 30 -12q4 0 6.5 2.5t3.5 9t1.5 13.5 t1 20t2.5 24q2 12 2 29q0 25 -13 25q-4 0 -11 -1.5t-11 -1.5q-9 0 -14 5q-7 10 -248 10zM967 1178q-2 0 -47 -31q-31 -23 -49.5 -53t-18.5 -56q0 -45 45 -45q34 2 50 25t20 82q2 20 2 55q0 23 -2 23zM846 1165l61 56q-188 -2 -272 -2h-117q-84 0 -127.5 -8t-50.5 -33 q45 -13 399 -13h107zM1022 1087q0 -73 -10.5 -98.5t-40.5 -25.5q-13 0 -32 -15.5t-34 -15.5q-8 0 -14 2q-12 4 -17 4q-19 0 -32 -20q-13 -19 -29 -19q-8 0 -76 14l-18 2q0 -5 47 -49q63 -57 91.5 -102.5t45.5 -116.5q15 -62 15 -86q0 -23 -9 -69q-15 -82 -22 -108t-15 -26 q-9 0 -16 -22q-17 -60 -113 -160.5t-143 -126.5q-9 -5 -38 -23t-45.5 -26t-48 -16.5t-65.5 -8.5q-200 0 -342 74q0 54 25.5 144.5t42.5 99.5q4 0 53 39q42 37 86 37q28 0 72 -15q61 -22 147 -22q41 0 41 8q2 10 2 37q0 72 -29.5 146t-76.5 102q-30 20 -83.5 35.5t-88.5 15.5 q-17 0 -21 -2q-67 -29 -92 -29q-2 0 -4.5 1t-3.5 1q-12 3 -12 47q0 30 8 35q11 18 22.5 90.5t18.5 91.5q16 47 20 146q1 57 6 77.5t17 26.5q25 13 182 121h41q180 0 207 6q2 2 47 2q81 0 213.5 -6t136.5 -10t4 -17q0 -16 -6 -34q-14 -44 -14 -136z" />
<glyph unicode="6" horiz-adv-x="1181" d="M563 545q-43 18 -53 18q-11 0 -23 -24q-12 -27 -12 -66q0 -62 30.5 -121.5t78.5 -83.5q20 -10 28 -10q11 0 29 12q37 24 37 72q0 50 -33 115q-21 43 -36 58.5t-46 29.5zM424 551q16 24 16 41q0 8 -4 8q-12 0 -45 -41q-35 -45 -44 -72.5t-11 -87.5v-12q0 -59 14.5 -90 t50.5 -53q15 -9 45.5 -16t51.5 -7q20 0 20 6l-35 45q-33 37 -48 77t-21 102q-2 16 -2 45q0 38 12 55zM313 545q-1 4 38 48t38 48q0 10 19 14q6 2 22 2q31 0 65.5 -14.5t53.5 -34.5q9 -9 61 -26q35 -12 48.5 -24t27.5 -42q5 -13 11 -24t11 -17t7 -6q6 0 6 -8v-10 q0 -18 10 -41q10 -20 10 -56q0 -33 -11 -62t-30 -42q-10 -8 -22 -26t-24.5 -29t-30.5 -11q-3 0 -39 -12q-52 -18 -109 -18q-61 0 -88 22q-12 9 -30 22t-24.5 17.5t-18.5 15t-15 15.5t-9.5 17t-8 21.5t-4 27.5t-3 36.5t-0.5 46.5v37q0 42 4 58.5t15 27.5q20 17 20 27z M991 424q0 11 -5 22t-9 11q-6 0 -6 -21q0 -8 -15.5 -53t-15.5 -61q0 -13 12 -13q12 5 25.5 43t13.5 72zM991 522q0 47 -36.5 120.5t-75.5 107.5q-6 6 -20.5 19t-21 18.5t-20.5 15t-25.5 15t-29.5 12t-39 10.5l-35 6q-33 8 -45 8q-4 0 -10.5 -4t-9.5 -4q-19 -11 -19 -17 q0 -9 29 -24t112 -53q54 -25 126.5 -94t82.5 -119q12 -52 27 -52q10 0 10 35zM758 1040q12 18 12 29q0 4 -4 4q-12 0 -131 -94q-74 -59 -74 -80q0 -8 12 -8q9 0 15 2q41 9 60.5 22t37 36t31.5 36q22 18 41 53zM172 209q0 -22 36.5 -56t86.5 -59q51 -24 80 -30t112 -7h64 q45 0 73.5 10.5t120.5 57.5q13 5 31 16q51 26 80 67.5t29 88.5q0 45 16 88q12 35 12 70q0 77 -39 125q-43 52 -103.5 94.5t-92.5 42.5q-12 0 -34.5 9t-35.5 19q-60 43 -114 43q-15 0 -27 -8q-9 -6 -14 -6q-9 0 -17 8q-14 11 -14 29q0 23 22.5 54.5t54.5 63.5t36 38 q18 25 86 75t75 56q18 15 45 24q23 7 23 15q0 9 -45 26q-38 15 -55 15q-21 0 -86 -33q-47 -24 -135.5 -106t-163.5 -173q-125 -148 -156 -403v-21q0 -54 14.5 -134.5t24.5 -84.5q10 -3 10 -14zM831 1192q9 0 71.5 26.5t72.5 26.5q16 0 16 10q-2 5 -43 10.5t-85.5 10 t-49.5 6.5q-21 0 -63.5 -16t-42.5 -25q0 -8 52 -28.5t72 -20.5zM1120 1270q0 -22 -19.5 -47t-45.5 -35q-36 -15 -119.5 -75.5t-110.5 -92.5q-53 -59 -61 -66q-29 -26 -29 -39q0 -16 41 -22q43 -7 43 -14q0 -11 15 -11q13 0 73.5 -64t85.5 -104q58 -99 58 -239 q0 -114 -41 -172q-6 -6 -6 -25q0 -21 -64.5 -78.5t-108.5 -76.5q-26 -11 -88.5 -46.5t-115.5 -53t-117 -17.5q-43 0 -66 4q-14 2 -37.5 5.5t-31.5 4.5t-24 3.5t-21.5 3.5t-17 4t-16.5 5t-15 5.5t-18.5 7.5t-20.5 10q-57 29 -106.5 95t-61.5 130q-13 73 -13 158q0 81 11 107 q6 10 24 90q9 43 47 132.5t52 100.5q82 97 185 199t146 119q34 13 45 24t11 29q0 22 34 42t127 56q27 10 58 10q38 0 188 -18q75 -8 103 -18t28 -31z" />
<glyph unicode="7" horiz-adv-x="1075" d="M573 391q0 -15 -31.5 -83t-31.5 -81q0 -18 -13 -34t-16 -41q-2 -14 -2 -31t13 -17q10 0 14.5 4.5t5.5 10t6.5 11t16.5 7.5q21 3 46 86t33 92q7 15 25.5 62t35 81t34.5 60q25 36 65 126.5t60 121.5q1 2 6 14t9.5 23.5t4.5 15.5q-15 0 -57.5 -37t-65.5 -71 q-37 -58 -97.5 -180t-60.5 -140zM727 868v27q-2 34 -6 48.5t-8 17.5t-16.5 7.5t-24.5 12.5q-11 8 -45 8q-29 0 -47 -2q-118 -11 -443 -16q-1 -7 -3.5 -30.5t-4.5 -45t-2 -33.5v-10q35 0 158.5 13.5t171.5 13.5h53q63 0 68 -13q4 -12 4 -18q0 -12 -6 -21.5t-13 -9.5 q-8 -4 -12 -21t-12 -24q-18 -13 -46.5 -84.5t-48.5 -134.5q-5 -15 -15.5 -47.5t-13.5 -41.5t-10.5 -34.5t-11.5 -39.5t-11 -41.5t-14 -56.5t-16 -69q-21 -86 -67 -170q4 -1 20.5 -3.5t32 -4.5t27.5 -2q20 0 24 4q8 8 27 70q58 189 76 219q15 22 22 59q6 30 77.5 178.5 t86.5 163.5q49 49 49 131zM795 848q1 0 8.5 5t23 15.5t29.5 18.5q43 29 53 43.5t19 66.5q12 78 12 103q0 26 -12 26q-17 0 -70 -36q-40 -27 -50 -41.5t-17 -63.5q-7 -44 -7 -78q0 -59 11 -59zM848 1180q-46 6 -80 6q-38 0 -102 -15q-56 -14 -115 -14t-121 -16 q-87 -21 -131 -27q-1 0 -3 -1t-3 -1q-30 -5 -65 -29t-35 -41q10 -16 90 -16q40 0 67 6q55 11 201 15q106 5 133 10t57 26q62 40 90 50q46 22 46 32q0 12 -29 15zM68 883q6 25 8 63t9 62.5t30 44.5q80 72 114.5 90.5t128.5 40.5q116 27 195.5 32t181.5 33q24 6 43 6 q12 0 43.5 -4t57.5 -4h20q9 0 22 1t19 1q37 0 50.5 -11t13.5 -44q0 -1 -9 -84q-11 -109 -18 -135q-2 -6 -2 -17q0 -14 18 -20q21 -6 21 -18q0 -16 -33 -52q-50 -52 -95.5 -120.5t-62.5 -118.5q-9 -30 -58.5 -119t-59.5 -129q-14 -49 -43 -119q-17 -38 -17 -49q0 -6 6 -12 q8 -5 8 -13q0 -21 -69 -67q-45 -29 -137 -121l-13 -12l-12 -13q-176 20 -195 33q-14 8 -14 37t17 43q23 23 86 238q38 132 79 254t60 159q28 54 28 70q0 14 -26 14q-23 0 -37 -2q-24 -3 -65.5 -9.5t-72.5 -10t-69 -4.5q-61 -4 -76 -13q-20 -10 -34 -10q-22 0 -35 17.5 t-13 48.5q0 15 7 43z" />
<glyph unicode="8" horiz-adv-x="978" d="M362 225q11 0 11 13q0 16 -17 26q-18 2 -18 180v13q-49 -109 -49 -146q0 -2 1 -5.5t1 -4.5q4 -20 31.5 -48t39.5 -28zM487 471q-25 10 -41 10q-15 0 -28 -16q-15 -18 -15 -94q0 -73 15 -88q35 -41 71 -41q19 0 33 14q12 7 21 20t12 23t8.5 31.5t7.5 29.5q0 24 -28.5 62.5 t-55.5 48.5zM403 547q51 0 106 -23t69 -49q7 -14 15 -25.5t13 -21.5t10 -31q7 -21 7 -39q0 -68 -68 -145q-33 -35 -49 -44.5t-47 -12.5q-53 -4 -62 -11q-4 -2 -8 -2q-3 0 -9.5 8.5t-19.5 8.5q-28 0 -66 34.5t-50 71.5q-8 21 -8 45q0 21 12 70q11 47 23 69.5t42 51.5 q29 27 47 36t43 9zM459 819q33 11 33 41q0 27 -25 60q-23 26 -51 26q-40 0 -49 -45q-2 -6 -2 -20q0 -29 19.5 -47.5t49.5 -18.5q9 0 25 4zM555 854q0 -22 -39 -61q-27 -27 -42 -34t-48 -7q-36 0 -48.5 5.5t-31.5 30.5q-35 47 -35 97q0 32 21.5 71t52.5 39q35 15 43 15 q5 0 11.5 -6.5t6.5 -8.5q11 -11 37 -20q20 -4 46 -48.5t26 -72.5zM711 635q10 -3 24.5 -24t28 -46t18.5 -30q14 -14 25.5 -64.5t11.5 -93.5q0 -4 -1 -12.5t-1 -12.5q-2 -10 -2 -24q0 -19 6 -19q3 0 8 7.5t10 23t9 33.5q8 33 8 73q0 129 -76 193q-49 43 -61 43q-6 0 -8 -2 q-15 -6 -15 -25q0 -20 15 -20zM256 1055q-12 0 -29 -43.5t-22 -83.5v-13q0 -40 14.5 -95.5t32.5 -84.5q13 -19 51 -49q18 -11 28.5 -27.5t10.5 -29.5q0 -17 -16 -17q-33 0 -85.5 -31t-80.5 -67q-15 -20 -28 -72t-13 -92q0 -3 1 -9t1 -9q6 -46 29.5 -102t48.5 -83 q33 -34 100.5 -62.5t126.5 -31.5q5 0 14 -1t13 -1q91 0 157 72q21 24 41.5 35t40.5 35q74 86 74 192q0 76 -41 135q-9 12 -18.5 27t-14 21t-13.5 16t-20.5 19.5t-31.5 23.5l-13 10q-43 28 -43 41t39 24q51 15 89 70t38 111q0 12 -4 28q-8 34 -22 61.5t-28.5 46.5t-39 35.5 t-42.5 25.5t-50 19t-51.5 14.5t-57.5 12.5t-57 13q-11 -2 -45 -22.5t-51 -37.5q-24 -24 -33 -24zM696 1118q-33 29 -71 49.5t-56 20.5q-6 0 -8 -2q-6 -6 -6 -10q0 -5 7 -9.5t30 -15.5q57 -26 118.5 -92t82.5 -129q-4 66 -23 102t-74 86zM432 -12h-10q-32 0 -51.5 4.5 t-40.5 14t-33 13.5q-15 0 -52 18.5t-42 27.5q-4 8 -17 8q-18 1 -50 56t-54 114q-19 53 -19 116q0 87 37 161.5t93 107.5l40 26q-36 45 -65 120t-29 128q0 3 1 9.5t1 9.5q34 226 312 311q47 12 88 12q61 0 116.5 -25.5t94.5 -65.5t65 -87t35 -94q2 -10 2 -29 q0 -49 -25.5 -104t-60.5 -99l10 -10q33 -34 47.5 -50t37.5 -47t30 -54q25 -64 25 -146q0 -30 -7 -33q-10 -7 -10 -43q0 -41 -25 -87t-47 -46q-14 0 -46.5 -43t-51.5 -45q-14 0 -24 -24q-12 -24 -33.5 -39.5t-89.5 -48.5q-46 -24 -73 -30.5t-79 -6.5z" />
<glyph unicode="9" horiz-adv-x="976" d="M500 920q-34 24 -47 24t-21.5 -18.5t-19.5 -65.5q-17 -73 -17 -94q0 -28 12.5 -49.5t43.5 -50.5q32 -30 46 -41t25 -11q10 0 27 17q41 50 41 114q0 51 -24 98.5t-66 76.5zM385 969q0 8 -14 8q-21 0 -27 -12l-4 -9q0 -2 -4 -6q-62 -111 -62 -178v-14q1 -6 2.5 -19.5 t2 -16.5t2 -12.5t3 -11.5t4.5 -9.5t6 -10.5t9 -10t12.5 -12.5t16.5 -14.5q55 -51 76 -51q18 0 18 6q0 10 -35 45q-39 45 -49 74q-4 16 -4 35q0 49 12 118t23 80q12 12 12 21zM553 956q10 0 14.5 -15.5t10.5 -16.5q6 0 14 -19q0 -1 30.5 -61t30.5 -80q0 -29 -19 -87t-30 -63 q-14 -7 -14 -20q-9 -24 -65.5 -45t-110.5 -21q-51 0 -66 21q-12 18 -26 18q-12 2 -45.5 36.5t-45.5 58.5q-18 37 -18 94q0 79 38 158t83 112q19 16 53 16q59 0 115 -53q13 -13 29 -23t22 -10zM692 291q0 -6 2 -6q7 0 25 31.5t20 43.5q-3 11 -6 11q-4 0 -10 -9 q-11 -14 -21 -37.5t-10 -33.5zM213 565q3 -8 21 -25t36 -31.5t44 -34.5t32 -25q111 0 162 4v-35q-10 -54 -76 -123.5t-131 -112.5q-19 -7 -64 -40t-47 -40q19 -8 57.5 -17.5t89 -20t62.5 -13.5q13 0 97 80q19 19 35.5 36.5t27.5 29.5t23.5 28.5t18.5 23.5t18 26t15 24 t17.5 29.5t18.5 31.5q10 13 39 103q63 195 63 301q0 78 -29.5 142.5t-93.5 133.5q-31 34 -76.5 56t-80.5 22q-27 0 -39 -12q-6 -6 -11 -6t-8 6q-9 12 -28 12q-34 0 -89.5 -32t-105.5 -82q-47 -47 -65 -94t-27 -146q-2 -20 -2 -47q0 -25 6.5 -40t30.5 -50q1 -2 6 -10t8 -12 t8.5 -10.5t9.5 -10t9.5 -6.5t11.5 -3t6 -10zM567 1176q0 -3 12.5 -12.5t28.5 -18.5q28 -15 77.5 -61.5t53.5 -63.5q2 -7 29 -39t27 -45q0 -14 18 -66q12 -34 12 -63q0 -8 -8 -78q-23 -180 -53 -264q-23 -59 -23 -72q0 -8 9 -8q12 0 44.5 86.5t32.5 118.5q0 28 17 59 q14 25 14 129q0 147 -22 199q-49 120 -150 172q-61 33 -106 33q-13 0 -13 -6zM549 82q-12 0 -12 -8q-5 -7 -37.5 -27t-38.5 -35q-12 -26 -53 -26q-34 0 -106.5 20.5t-86.5 22.5q-61 9 -95 28t-34 41q0 28 49 49q86 40 184.5 119.5t98.5 108.5q0 10 -43 10q-42 0 -94 35 q-78 52 -116.5 88.5t-70.5 87.5q-23 36 -28 58.5t-5 80.5q0 115 34 198.5t108 145.5q59 50 151.5 94.5t175.5 63.5q30 6 50 6q18 0 65 -12q74 -23 140 -77t96 -118q37 -75 37 -202q0 -9 -2 -29.5t-3 -28.5v-24q-10 -138 -49.5 -249t-128.5 -270q-21 -36 -81 -82t-105 -69z " />
<glyph unicode=":" horiz-adv-x="569" d="M233 41q54 0 86.5 36t32.5 93q0 32 -8 59q-9 30 -17 40t-28 14q-27 6 -47 6q-34 0 -58 -16.5t-55 -57.5q-16 -19 -16 -49q0 -45 34 -85t76 -40zM389 266q0 -14 11.5 -25.5t11.5 -27.5v-47l20 27q21 24 21 71q0 23 -11 49q-12 19 -43 35q-8 5 -33 11t-44 6q-25 0 -25 -13 q0 -11 22 -20q31 -11 50.5 -29t19.5 -37zM475 356q3 -6 10.5 -17t11.5 -18t7.5 -21.5t3.5 -33.5q0 -47 -36.5 -119.5t-61.5 -72.5q-8 0 -21 -8.5t-22 -20.5q-23 -29 -60.5 -46t-77.5 -17q-14 0 -22 2q-43 6 -62 18t-51 53q-33 42 -33 97q0 46 27 90q13 20 22 43.5t19.5 35.5 t38.5 27q15 9 40.5 26t41 25.5t42 17.5t56.5 11q125 -33 127 -72zM311 696q-7 26 -19.5 42t-23.5 16q-7 0 -14 -11q-3 -6 -14 -6q-7 0 -9 2q-1 0 -4 1t-4 1q-19 0 -40.5 -18.5t-30.5 -42.5q-7 -18 -7 -29q0 -37 25.5 -67.5t56.5 -30.5q13 0 25 6q9 5 23.5 19.5t25.5 29.5 q21 30 21 45q0 6 -11 43zM356 745q0 -17 16 -42t27 -25q10 0 18.5 24t8.5 50v12q-3 20 -35 47t-57 27q-12 0 -21 -9q-8 -5 -8 -10q0 -8 23 -28q28 -25 28 -46zM193 823l8 4q14 7 42 25.5t51.5 28.5t49.5 10q43 0 84 -35q45 -41 55 -82q4 -12 4 -37q0 -65 -81 -123 q-33 -23 -64.5 -55t-67.5 -53q-34 -17 -57 -17q-39 0 -71 27.5t-48 67.5q-10 25 -10 55q0 29 21 84q13 34 29.5 53.5t54.5 46.5z" />
<glyph unicode=";" horiz-adv-x="724" d="M244 -47l-4 -6q-12 -24 -18.5 -45t-13 -34t-24.5 -34q-12 -15 -12 -22q0 -15 55 -19h17q72 0 102 62q38 71 55 86q14 11 40 84.5t32 117.5q4 28 4 33q0 19 -14 33t-103 14q-58 0 -141 -6q-43 -3 -57.5 -18.5t-14.5 -59.5v-24l5 -56l53 -6q61 -3 61 -37q0 -8 -22 -63z M598 270q-6 -3 -15.5 -7t-14 -6.5t-11 -7t-9 -10.5t-6 -15.5t-4.5 -23t-1 -32.5q0 -31 -5.5 -57.5t-16 -56t-13.5 -40.5q0 -8 4 -8q6 0 26 23q30 35 43 69t19 99q4 46 4 73zM260 324q-9 0 -27 -14t-18 -25q0 -4 2 -6h10q8 0 35.5 3t42.5 3q13 0 29 -4q2 0 10.5 -2.5 t13.5 -2.5q18 0 21 7q3 6 43 6h45q47 0 70 18q28 22 28 31q0 8 -18 8q-25 0 -60 14q-43 17 -73 17q-40 0 -92 -27q-46 -26 -62 -26zM567 410q19 0 44 -16t30 -17q23 0 23 -86q0 -9 -1 -20t-2 -26.5t-2 -25.5q-8 -141 -63 -201q-18 -22 -18 -30q0 -9 -70 -77t-94 -81 q-31 -19 -31 -31q0 -14 -12 -14q-10 0 -31 -25q-22 -28 -104 -28q-64 0 -117.5 18.5t-57.5 50.5q0 17 9 17q15 0 45 33.5t49 70.5q24 50 24 64t-24 14q-1 0 -3 1t-3 1q-28 8 -39.5 15.5t-19 29.5t-7.5 66q0 35 5.5 62.5t15 54t12.5 40.5q3 15 16 34.5t21 19.5q3 0 43 24 q43 27 71 42.5t70 29.5t80 14q41 0 84 -14q23 -10 57 -10zM362 565q13 29 13 53q0 39 -25.5 64t-62.5 25q-35 0 -68 -23q-49 -34 -49 -84q0 -29 14 -57q20 -45 58 -45q21 0 61 16q48 19 59 51zM332 766q19 0 56.5 -45.5t37.5 -67.5q3 -26 10 -26q9 0 21 31.5t12 50.5 q0 21 -10 34.5t-43 36.5q-23 17 -62 17q-22 0 -28 -6q-9 -9 -9 -15q0 -10 15 -10zM242 442q-43 0 -56.5 5.5t-33.5 31.5q-43 59 -43 119q0 20 6 41q9 34 76.5 107t89.5 73q16 0 16 10q0 9 35 21q12 4 37 4q70 0 145 -84q21 -24 21 -70q0 -34 -10 -51.5t-58 -70.5 q-70 -78 -118 -107t-107 -29z" />
<glyph unicode="&#x3c;" horiz-adv-x="1275" d="M1116 367q0 63 -8 63q-13 -3 -23 -7.5t-17.5 -13t-12 -13t-9 -19.5t-5.5 -19t-5.5 -25t-5.5 -26q-4 -16 -4 -37q0 -16 8 -16q10 0 41 22q27 18 33 32t8 59zM578 700q-17 0 -54 -20t-37 -29q0 -8 42.5 -22t43.5 -17q5 -8 27 -8q31 -7 98 -40t93 -42q73 -28 127 -57 q4 -4 6 -4q52 -27 69 -27q16 0 54 23t38 41t-45 30q-59 15 -107 36t-108 34q-45 9 -81 23t-66 20q-19 4 -52.5 30t-47.5 29zM383 668q6 0 58.5 33t58.5 32q36 14 356 148q53 24 84 24q16 0 21.5 4.5t5.5 22.5q0 4 -1 14t-1 17q-1 14 -2 35.5t-1.5 33.5t-3.5 25t-10.5 18.5 t-19.5 5.5q-25 0 -76 -26q-260 -137 -352 -166q-60 -20 -167.5 -76.5t-164.5 -79.5v-203q59 -6 97 -19.5t104 -51.5q43 -24 138.5 -56.5t102.5 -35.5q47 -18 97.5 -36.5t73.5 -26.5t47 -17.5t38 -16t27 -14.5q39 -20 47 -20q7 0 12 10q17 34 17 59q0 47 -54.5 86t-179.5 84 q-26 10 -59.5 31.5t-65.5 28.5q-18 4 -50.5 19.5t-51.5 16.5q-15 1 -57 18t-56 17q-8 0 -14 13t-6 28q0 18 8 21zM436 971q-12 0 -31.5 -16.5t-33.5 -16.5q-19 0 -62.5 -26.5t-81.5 -61.5q-22 -22 -22 -27q0 -4 10 -4q17 0 60.5 20.5t50.5 32.5q9 13 22 13q91 30 253 110 t216 101q39 15 78 41.5t39 38.5q0 10 -8 10q-6 0 -33 -17q-8 -6 -16 -6h-11q-2 0 -10 -8q-12 -9 -38.5 -14.5t-39.5 -12.5q-22 -14 -86.5 -39.5t-95.5 -48.5q-56 -39 -72 -39q-8 0 -43.5 -15t-44.5 -15zM1034 1176q-20 0 -20 -48q0 -13 1.5 -28.5t3 -26.5t1.5 -12 q5 -96 14 -96q16 0 62 39q31 28 41 40.5t10 26.5q0 13 -2 19q-1 5 -3 24t-4 34t-5.5 33t-7 30.5t-7.5 15.5q-7 0 -33.5 -18.5t-29.5 -24.5q-3 -8 -21 -8zM338 410q-6 0 -65 26.5t-68 26.5q-19 0 -60 23t-43 34v12q0 43 2 154q0 32 -3.5 39.5t-16.5 7.5q-23 0 -23 21 q0 17 19 39q14 16 92.5 79t89.5 74q19 19 118.5 57.5t117.5 49.5q55 34 187.5 93.5t150.5 59.5q10 0 76 28t100 46q19 8 35 8q6 0 16 -1t16 -1q14 0 29 6q12 4 20 4q34 0 48 -24q4 -7 20 -109t18 -131q0 -14 -20 -22q-10 -4 -88 -74q-55 -52 -84.5 -68t-69.5 -16 q-19 0 -46.5 -15.5t-41.5 -17.5q-24 -2 -58 -21t-56 -24q-91 -25 -91 -49q0 -3 5 -8q9 -11 61.5 -30t75.5 -19q27 0 198 -62q8 -3 71.5 -34t82.5 -31q21 -6 27 -11t6 -18q0 -2 -1 -7.5t-1 -8.5q-4 -111 -12 -156t-25 -68.5t-64 -54.5q-48 -30 -63 -55q-6 -19 -25 -19 q-27 0 -89 35t-64 35q-7 4 -27 13.5t-28 13.5t-24.5 10t-33.5 10q-42 9 -80.5 23t-38.5 20q0 10 -20 10q-23 0 -128 38.5t-108 47.5q-4 11 -16 11z" />
<glyph unicode="=" horiz-adv-x="1122" d="M838 408q-8 12 -47.5 15t-194.5 3h-174q-67 0 -141 -8q-3 0 -8.5 -1t-8.5 -1q-92 -11 -98 -17q-14 -14 -14 -59q0 -25 6 -37t60.5 -15t281.5 -3h331q13 39 13 86q0 25 -6 37zM907 313q5 0 51 33q19 16 25.5 23t11 17t4.5 24q0 2 -1 10t-1 14q0 2 -1 5.5t-1 4.5 q-6 50 -18 50q-7 0 -18 -10.5t-17 -10.5q-17 -13 -23.5 -32t-11.5 -60q-4 -36 -4 -47q0 -21 4 -21zM928 539h-88q-106 0 -210 -6.5t-196 -6.5q-115 0 -142 -2.5t-52 -19.5q-32 -19 -39 -33q3 -6 22 -6q23 0 114.5 12t127.5 12q25 0 33 -2q27 -6 106 -6q74 0 111 2q8 0 23 1 t22 1q3 0 29.5 0.5t35.5 2t28.5 5t33.5 11.5t26 20zM1022 571q37 0 37 -96q0 -20 -2 -53.5t-2 -44.5q-1 -25 -9.5 -36.5t-39.5 -33.5q-20 -12 -35 -26.5t-15 -20.5q0 -10 -28 -22q-29 -11 -404 -11q-161 0 -235 2h-13q-24 0 -190 -12q-16 0 -20.5 4.5t-4.5 14.5q0 18 17 26 q14 2 14 70v10q0 31 6 43q2 4 2 12q0 16 -6 19q-12 9 -12 18q0 27 84 80q84 54 96 66q15 10 39 10q12 0 45 -5t55 -5q103 0 288.5 7t189.5 11q2 0 5 1t5 1q8 0 28 -6t35 -6q22 0 40 -7.5t30 -9.5zM580 825q-81 0 -128.5 -0.5t-80 -1t-63.5 -4t-43 -4.5t-57 -8.5l-69 -11.5 q0 -41 4 -111q37 2 196 6.5t301 10.5t187 12v22q0 47 -6 90h-241zM881 803v-80l28 10q47 19 57.5 31t10.5 49q0 21 -0.5 33.5t-3.5 30t-10 26t-19 8.5q-16 0 -33 -12q-21 -14 -25.5 -27.5t-4.5 -68.5zM836 948q-20 0 -96 -5.5t-167 -8.5q-166 -4 -241.5 -13.5t-128.5 -31.5 q-31 -15 -31 -23q0 -6 16 -6q7 0 31 4q25 7 191.5 14t285.5 7h52q28 0 42.5 5.5t36.5 24.5q29 26 29 29q0 4 -20 4zM1040 750q-26 -24 -42.5 -36t-42.5 -26t-42 -24q-32 -19 -57 -19h-25q-73 6 -219 6q-287 0 -415 -24q-8 -4 -23 -4q-18 0 -46 12.5t-36 13.5 q-11 5 -14.5 22.5t-3.5 69.5v25q0 119 26 119q15 0 56 41q30 30 49 37.5t78 11.5q43 4 191.5 9.5t269.5 12t135 13.5q8 4 32 4q69 0 86 -10q15 -19 21.5 -61t11 -102t10.5 -91z" />
<glyph unicode="&#x3e;" horiz-adv-x="1245" d="M604 496q10 0 10 8q0 15 -14 20q-37 0 -88.5 -21.5t-77.5 -27.5q-58 -14 -118.5 -37.5t-96 -44t-35.5 -28.5q0 -5 9 -5q27 0 158 42t196 73q53 21 57 21zM1030 690q-16 0 -16 -74q0 -25 2 -45q0 -16 12 -16q11 0 30.5 10.5t38 24t21.5 14.5q-6 115 -16 131q-1 0 -3 1 t-3 1q-11 0 -32 -23.5t-34 -23.5zM592 336q27 20 150.5 77.5t166.5 71.5q14 0 27.5 42t13.5 85q-1 26 -10 42t-17 21t-33.5 14t-35.5 13q-11 4 -106.5 41t-161.5 68q-71 35 -184 74.5t-181 75.5q-7 10 -14 10q-17 0 -30 -45t-13 -105q0 -31 16 -43t72 -28q23 -7 49.5 -27 t58.5 -29q37 -12 83 -36.5t89 -36.5q31 -8 78.5 -27.5t85.5 -26.5q46 -8 52 -20q2 -2 6 -15t4 -22q0 -12 -8 -12q-121 -42 -271 -111q-30 -13 -61.5 -19.5t-63.5 -21.5q-50 -24 -88 -33q-70 -21 -93.5 -31t-32 -19.5t-11.5 -33.5q-4 -20 -4 -57q0 -41 8 -49q27 2 101.5 36 t80.5 36q43 16 79.5 44t99.5 48q57 20 98 49zM1073 842q-30 0 -83.5 26.5t-82.5 26.5q-14 3 -55 17t-68 18q-39 6 -115 38.5t-122 39.5q-27 4 -72.5 18t-95 30.5t-64.5 20.5q-11 -2 -38 -27t-27 -34q0 -12 24 -19q9 -3 84.5 -34.5t87.5 -34.5q35 -9 111.5 -48.5t150.5 -71.5 t119 -32q12 0 64.5 -21.5t79.5 -21.5q24 0 39 12q82 66 82 86q0 11 -19 11zM995 463q-6 -3 -17 -24t-34 -21q-1 0 -7 1t-13 1q-59 0 -428 -189l-8 -4l-7 -3.5t-4 -2.5q-51 -27 -196 -100q-52 -25 -71.5 -34t-42 -16.5t-36.5 -7.5q-23 0 -65 31q0 1 -1.5 60.5t-1.5 95.5 q0 73 5 78q6 6 33 36t48 51.5t48 42t45 21.5q20 0 74 19.5t65 19.5q25 0 68.5 15t46.5 24q1 6 -57.5 36t-139 66t-139.5 58q-33 12 -46.5 28.5t-13.5 49.5l9 79q6 44 6 80q0 21 -2 25t-2 10q0 14 21.5 24t25.5 23q5 15 31.5 34t60.5 37t43 26q21 14 26 14q4 0 35 -17 q23 -14 48.5 -19t46.5 -17q14 -8 116 -32.5t117 -33.5q14 -14 35 -14q11 -2 27 -12.5t36 -10.5q26 0 128 -32.5t188 -67.5q50 -21 68 -37t18 -43q0 -18 -6 -45q-9 -34 -9 -59t9 -66q6 -34 6 -55q0 -26 -9.5 -36.5t-31.5 -10.5q-13 0 -76.5 -38t-69.5 -38z" />
<glyph unicode="?" horiz-adv-x="978" d="M465 203q-21 6 -43 6q-45 0 -76.5 -28t-44.5 -72q-4 -24 -4 -27q0 -15 14 -23q18 -12 49 -12q32 0 63 11.5t44 29.5q14 17 14 64q0 46 -16 51zM580 285q0 10 -13 10q-15 0 -39 -12t-24 -21q0 -11 20 -31q23 -23 23 -55q0 -26 6 -26q5 0 14 6q21 14 42.5 42.5t21.5 49.5 q0 23 -31 26q-20 0 -20 11zM578 90q-11 0 -54 -31.5t-43 -40.5q0 -11 -33.5 -21.5t-64.5 -10.5q-3 0 -8.5 1t-7.5 1t-5.5 1t-5.5 1q-29 5 -44.5 9t-35 14.5t-28 29t-8.5 47.5q0 47 19.5 92t47.5 62q3 1 11 6.5t14 7.5q97 62 162 76q56 12 71 12q33 0 53 -20q43 -25 60.5 -42 t17.5 -38q0 -19 -16 -45q-18 -28 -55.5 -69.5t-46.5 -41.5zM616 594q-6 24 -34 24q-24 0 -39 -18q-13 -8 -13 -43q0 -20 4.5 -56.5t4.5 -39.5l26 14q20 10 36.5 43.5t16.5 61.5q0 2 -1 7t-1 7zM342 600q0 -10 -16.5 -76t-16.5 -90q0 -17 6 -20q2 0 49.5 15t69.5 15l33 -4v84 q0 45 3 62.5t10 27t30 29.5q16 12 72.5 64t83.5 69q26 17 49.5 63t29.5 93q3 15 3 33q0 69 -34.5 136t-90.5 103q-29 19 -111 19q-84 0 -84 -11q0 -9 -51 -16q-45 -6 -116 -53t-71 -70q0 -8 -16 -16q-16 -6 -16 -31q0 -29 22 -51q21 -21 31 -21q13 0 43 37q36 42 89 68 t99 26q25 0 43 -6q33 -12 64 -36.5t31 -38.5q0 -15 12 -27q10 -10 10 -59q0 -64 -14 -95q-12 -23 -51 -65.5t-48 -42.5q-5 0 -44 -26.5t-46 -26.5q-15 0 -36 -22.5t-21 -39.5zM772 1124q10 -3 18.5 -57t8.5 -115q0 -84 -17 -123q76 80 76 170q0 28 -10 66q-11 38 -28.5 78.5 t-26.5 44.5q-9 3 -9 16q0 15 -28 38.5t-62 37.5q-40 16 -76 16q-22 0 -22 -10q0 -5 25 -12q26 -6 78 -52t59 -71q8 -27 14 -27zM406 1276q6 0 109 43t108 43q24 0 78 -19.5t69 -33.5q27 -26 63.5 -73t36.5 -56q0 -14 15 -37q33 -51 33 -142q0 -14 -5 -49q-8 -41 -41.5 -106 t-48.5 -66h-3t-2.5 -0.5t-3 -1.5l-3 -2t-4.5 -3.5t-5.5 -4.5t-7 -6t-8.5 -7.5t-11 -9.5t-13 -12q-64 -53 -64 -71q-1 -9 -11.5 -32t-10.5 -42v-33q0 -104 -41 -106q-29 -11 -78 -56q-43 -43 -63 -43q-12 0 -27 15q-8 16 -37 16q-24 0 -79 -16.5t-70 -16.5h-35q-2 14 -2 41 q0 82 30 191q0 1 1 4t1 4q0 53 82 117q31 24 51.5 34.5t36.5 21t48 42.5q36 38 44.5 53t8.5 45q0 61 -37 94t-88 33q-28 0 -70.5 -23t-42.5 -38q0 -7 -16 -17.5t-17 -17.5q-2 -19 -51 -68l-57 43q-58 43 -82.5 68t-24.5 43t29 37q25 17 57.5 51t32.5 43q0 8 15 8q9 0 36 27 q17 19 87.5 55.5t87.5 36.5z" />
<glyph unicode="@" horiz-adv-x="1523" d="M803 698q-7 13 -17 13q-15 0 -30 -24.5t-15 -45.5q0 -15 11 -20q6 -3 10 -3q17 0 32 19.5t15 40.5q0 11 -6 20zM803 786q6 0 28.5 -26t34.5 -47q4 -8 4 -19q0 -30 -26 -71t-56 -58q-1 0 -3 -1t-3 -1q-21 -12 -30 -12q-7 0 -29 16q-37 27 -37 66q0 49 62 108q45 45 55 45z M1313 258q-9 21 -21 21q-10 0 -41 -27q-18 -15 -18 -23q0 -4 8 -16q12 -18 29 -18q18 0 35 20q14 17 14 27q0 7 -6 16zM1352 627q-2 -6 -2 -13q0 -6 2 -6q3 0 8.5 10t5.5 17q0 6 -6 6q-5 0 -8 -14zM883 162q44 0 101 16.5t89 38.5l8 8q0 6 -43 6q-47 0 -84 -2 q-55 -2 -116 -2q-18 0 -133 11q-28 4 -70.5 18t-93 34t-58.5 23q-11 5 -24 17.5t-33 23.5q-22 12 -30.5 22.5t-13.5 31.5t-11 34q-39 84 -43 215q-3 58 -6 58q-4 0 -11 -21q-10 -27 -10 -65q0 -31 2 -51q17 -209 182 -297l107 -58q41 -23 132 -42t159 -19zM1049 930l4 12 q0 6 -6 6q-7 0 -23.5 -9.5t-30 -19t-14.5 -8.5q-6 -6 -6 -174q0 -169 6 -184q9 -25 33 -25q17 0 35 15q16 13 16 28q0 14 -16 64q-13 41 -13 94q0 41 2 68q8 119 13 133zM1137 940q-12 29 -25 29q-5 0 -10 -8q-6 -9 -17 -130q-6 -64 -6 -96q0 -40 8 -61q5 -9 13.5 -22 t9.5 -13q17 4 29 67t12 132q0 74 -14 102zM827 981q0 12 -6.5 16t-23.5 4q-25 0 -54.5 -10t-29.5 -22q0 -11 53 -11q39 0 50 4.5t11 18.5zM999 993q0 7 -20 19q-8 4 -14 4q-10 0 -19.5 -7.5t-9.5 -15.5q0 -7 8 -12q4 -4 21 -4q13 0 23.5 4.5t10.5 11.5zM459 928 q-3 0 -6.5 -4.5t-3.5 -8.5q0 -15 -31 -61q-23 -34 -28 -57.5t-5 -102.5q0 -37 1 -61t4.5 -45t5.5 -30t10 -34t12 -39q11 -39 45 -76.5t67 -46.5q16 -4 87.5 -33t101.5 -32q136 -16 162 -16q10 0 10 2q-3 4 -43 33t-43 44q-6 27 -21 27q-8 0 -18 -10q-7 -7 -39 -13t-65 -6 q-34 0 -52 7q-83 39 -121 106q-18 35 -18 117q0 78 16 121q9 21 13 38t5 23.5t10.5 20.5t31.5 36q15 15 24 52q7 29 67.5 86.5t100.5 74.5q35 15 76 15q37 0 64 -11q15 -6 26 -6t35 17q28 22 55 22q4 0 9.5 -4t5.5 -6q0 -5 8.5 -10.5t15.5 -5.5q8 0 8 8q-4 21 -77 51.5 t-113 30.5q-15 0 -18 -6q-109 -23 -204 -64t-130 -98q-11 -20 -23.5 -32.5t-17.5 -12.5zM352 887q17 32 108.5 125t143.5 108q13 0 73.5 21t94.5 37q32 14 80 14q74 0 137 -29q65 -30 105.5 -72.5t93.5 -134.5q24 -44 24 -127q0 -61 -12.5 -119t-32.5 -85q-6 -6 -30 -54 q-20 -43 -41.5 -64.5t-55.5 -31.5q-24 -6 -43 -6q-37 0 -59 35q-12 20 -15 58.5t-3 172.5v203h-13q-49 0 -49 -27q0 -32 -20 -32q-14 0 -27 10q-22 14 -55 14q-80 0 -154 -83t-74 -193q0 -4 1 -13.5t1 -13.5v-96l41 -35q52 -43 95 -43q26 0 79 16q59 19 84 19q15 -8 23 -43 q5 -23 15.5 -36t35.5 -26q35 -18 64 -18q46 0 114 45q42 29 104 84t62 65q0 4 27 48q53 83 53 245q0 136 -41 189q-4 4 -14.5 22t-14.5 23q-42 63 -113 129t-143 88q-98 29 -198 29q-117 0 -187 -33q-124 -51 -151 -78q-27 -24 -80 -59q-62 -42 -123 -104.5t-80 -102.5 q-4 -10 -25 -37.5t-26 -46.5q-5 -20 -12.5 -46t-11 -39.5t-6.5 -33.5t-3 -41q0 -55 23 -184q20 -106 28.5 -134t34.5 -69q34 -55 79.5 -95t119.5 -81q129 -73 220.5 -98.5t234.5 -26.5h14q85 0 151 18t136 58l10 6q58 34 65 44q3 5 3 11q0 9 -17 33l-24 37 q-9 -2 -48.5 -22.5t-87 -45.5t-63.5 -33h-55q-293 0 -414 93q-44 32 -59 32q-17 0 -57.5 33t-61.5 62q-35 53 -48 91t-22 117q-6 50 -6 93q0 104 43 174q19 31 29 57q2 11 13.5 16t12.5 17zM1214 1204q0 -3 27.5 -32.5t26.5 -34.5q0 -4 9 -18.5t21 -28.5q80 -96 80 -244v-33 q-2 -27 -4 -56.5t-3 -45t-1 -23.5q0 -16 6 -16q7 5 11 28t12 27q6 6 6 64q0 65 -2 112q-5 162 -27 213q-7 19 -16 33t-14 14t-9 4.5t-4 10.5q0 5 -27.5 35.5t-62.5 64.5q-67 65 -112.5 94t-83.5 29q-24 0 -31 10t-64 10q-45 0 -61 -8q-15 -6 -111 -25.5t-114 -29.5l-19 -21 q7 0 60 17q35 14 98 14q140 0 248 -51q37 -17 98 -60.5t63 -52.5zM1085 324q1 -4 -6 -8.5t-15.5 -8t-15.5 -7.5t-6 -7q2 -2 17 -2q22 0 80.5 11t66.5 11q26 0 64 21q22 14 43 14q20 0 20 -14q0 -10 33 -43q29 -29 29 -53q0 -27 -27 -48q-24 -18 -90 -84q-85 -84 -215 -133 t-260 -49q-57 0 -117 13q-20 4 -51.5 10t-42 8.5t-32 8.5t-38 13t-41.5 18.5t-59 29.5l-107 55q-41 22 -114.5 93t-73.5 89q0 19 -10 19q-6 -1 -15 32t-17.5 67t-12.5 36q-11 7 -11 196q0 168 15 219t103 178q6 8 9 13q24 35 52 65.5t47.5 48.5t58 51.5t60.5 53.5 q96 87 173 127.5t226 79.5q33 8 56.5 16.5t32.5 12.5t17.5 7t16.5 3q17 0 61 -8l103 -19q71 -11 202 -139q92 -92 92 -107q0 -10 16.5 -22t16.5 -21q0 -11 17 -32q16 -16 24 -199q4 -90 4 -111q0 -71 -12 -111t-55 -132q-27 -56 -47 -81.5t-60 -58.5q-33 -28 -82 -51.5 t-71 -40.5q-30 -20 -35 -20q-17 0 -17 -10z" />
<glyph unicode="A" horiz-adv-x="1181" d="M631 535q0 30 -2 30q-94 -46 -94 -59q0 -6 28 -6h21q34 3 40.5 8t6.5 27zM590 612l6 4q18 15 18 23q0 3 -8 23q-8 16 -16 16q-9 0 -16 -14.5t-7 -28.5q0 -2 1 -5.5t1 -4.5q3 -23 6 -23q5 0 15 10zM606 782q12 0 29.5 -34.5t17.5 -53.5q0 -20 15 -35q10 -10 17 -57.5 t7 -93.5q0 -52 -8 -57q-26 -13 -186 -13h-49q-3 12 -3 27q0 40 29.5 94.5t32.5 81.5q4 26 15.5 45.5t11.5 44.5v14q0 41 38 41q9 0 33 -4zM449 219q0 -8 -11 -8q-5 0 -23 -36.5t-18 -43.5q0 -6 21 -6q34 7 46 17t22.5 37.5t21.5 45.5q18 30 18 41q0 13 -12 13 q-18 0 -41.5 -21t-23.5 -39zM739 309q0 -38 32 -111t32 -110q0 -16 119 -16h65q-4 35 -30.5 106.5t-32.5 104.5q-3 19 -15 41.5t-18 44.5q-16 61 -81 267.5t-69 244.5q-10 57 -34 110l-5 10q-10 22 -15.5 28.5t-16.5 6.5q-7 0 -47 -10h-25q-96 -21 -96 -57q1 -8 -26.5 -74 t-26.5 -74q0 -9 -16.5 -27.5t-16.5 -27.5q-25 -73 -86.5 -194t-85.5 -181q-12 -31 -23 -31q-10 0 -10 -12q0 -16 -78 -178q-9 -17 -25 -32.5t-25 -30t-9 -37.5q0 -7 55 -7q110 0 162 11q10 2 8 4l4 8q110 202 150 238q3 14 49 19t101 7t67 6q2 0 6 1t6 1q24 0 40.5 -14 t16.5 -35zM924 483q0 -22 14.5 -52.5t15.5 -43.5q1 -19 12 -33t13 -32q3 -19 33.5 -104t36.5 -93q3 -3 30 27q25 25 25 49q0 5 -4 37q-5 46 -32 107.5t-34 100.5q-9 44 -16 56q-9 18 -47 132t-45 148q-5 21 -23.5 81t-31.5 112.5t-13 85.5q0 20 -13 59t-24 39q-7 0 -12 -16 q-2 -7 -34 -25.5t-32 -40.5q0 -10 9 -28q22 -39 37.5 -94t15.5 -85q1 -37 21 -91t24 -68q11 -45 39 -113t35 -115zM764 1192h-49q-33 0 -52 -8t-42 -37q-5 -7 -11.5 -15t-10.5 -13t-7.5 -10.5t-5.5 -9t-2 -5.5q2 -2 8 -2q19 0 54.5 9t49.5 19q33 22 68 72zM395 49 q-16 -5 -27.5 -18t-25.5 -22t-41 -9q-17 0 -27 2h-22q-55 0 -141 -8q-53 -6 -76 -6q-26 0 -31 8q-4 8 -4 16q0 39 23 80q120 224 389 795q3 5 20 45q27 58 27 119q0 15 71.5 84.5t69.5 74.5q0 35 121 35q91 0 104 10q10 5 23 5q8 0 14 -3q12 -6 21 -31t24 -96q3 -14 12 -58 t13 -61t12.5 -56.5t14 -61t14.5 -56.5t16.5 -59.5t17 -54.5t19.5 -57q14 -32 14 -56q0 -11 28 -74t28 -77q0 -25 27.5 -94t31.5 -101q6 -39 16 -49q11 -5 11 -18q0 -28 -43 -68t-43 -55q0 -9 -16.5 -20.5t-16.5 -20.5q0 -15 -24 -21t-93 -6h-43q-105 2 -134.5 14t-29.5 54 q0 26 -25.5 101t-27.5 83q-5 20 -8 25.5t-12 5.5q-2 0 -14 -1t-21 -1q-18 0 -33 -19.5t-28 -49t-17 -34.5q-7 -10 -12 -34.5t-14 -40.5t-29 -19q-36 -4 -59 -14.5t-23 -18.5t-21 -8z" />
<glyph unicode="B" horiz-adv-x="1122" d="M457 242q-24 0 -58 -20t-34 -34q5 -10 63 -10q61 0 66 10q8 8 42 12t44 13q8 8 8 10q0 8 -47 13q-50 6 -84 6zM651 315q0 52 -94 103q-27 16 -61 16q-15 0 -21 -6q-14 -24 -14 -88q0 -25 4 -27q9 -4 84.5 -11t83.5 -11q4 -2 8 -2q10 0 10 26zM350 264q12 0 38 66t26 94 q0 12 -17 12q-16 0 -22 -12q-10 -12 -31 -115q0 -10 -2 -14q-2 -6 -2 -16q0 -15 10 -15zM371 494q32 4 53 4q56 0 110.5 -12t77.5 -31q56 -42 79.5 -79t25.5 -83q0 -2 1 -5t1 -5q0 -41 -60.5 -91.5t-101.5 -52.5q-47 -7 -53 -16q-5 -8 -66 -8q-90 0 -114 12l-39 18 q-23 10 -23 76q0 55 23 113q11 27 15.5 70.5t17.5 63.5t53 26zM403 657q13 7 41.5 13t42.5 24q1 3 3 5.5t3 4.5l2 4t1 3q0 4 -13 4h-8q-28 -2 -44.5 -8t-35.5 -25q-24 -21 -24 -31q0 -4 6 -4t26 10zM520 797q0 28 -20 28q-11 0 -18 -6t-7 -14t17 -25q20 -8 22 -8q6 0 6 25z M414 811q0 21 -5 28t-18 7q-17 0 -22 -16.5t-7 -61.5q0 -29 5 -29q4 0 24 17q23 23 23 55zM385 911h8q20 0 41.5 -4t32 -7t33 -11.5t26.5 -9.5q21 -7 39.5 -29.5t18.5 -50.5q0 -6 -9 -33q-10 -48 -29.5 -86.5t-31.5 -38.5q-14 0 -14 -14t-29 -21q-48 -9 -95.5 -23t-53.5 -20 q-8 -8 -29 -8q-15 0 -28 4.5t-13 11.5q0 15 13 42.5t20 27.5q5 5 14.5 122.5t13.5 123.5q4 17 15.5 20.5t56.5 3.5zM776 555q37 -8 101 -60.5t71 -99.5q11 -70 25 -98q4 21 16 33q17 11 17 61q0 57 -21 98q-44 82 -92 107q-42 20 -74 20q-30 0 -49 -16q-18 -15 -18 -29 q0 -16 24 -16zM770 100q-1 6 15.5 15.5t33 19.5t15.5 17q0 15 8 18q8 4 32 51q21 41 21 86q0 52 -23 96.5t-59 61.5q-57 26 -121 51q-17 6 -29 15.5t-12 15.5q0 16 72 92q67 70 83.5 97t16.5 65q0 35 -25.5 78t-47.5 43q-8 4 -22 21t-26 22q-20 9 -47.5 25t-42 21.5 t-52 11.5t-97.5 7q-56 1 -114 7.5t-81 6.5q-27 0 -67 -6q-25 -241 -25 -610v-72q0 -75 -14 -157.5t-15 -149.5h263q57 0 99.5 0.5t82.5 2t61.5 4.5t20.5 7q4 9 48 20.5t48 16.5zM682 1051q14 0 48 -26.5t40 -27.5q7 0 31 -24q17 -17 24 -17q4 0 4 7q0 9 -16 38 q-27 42 -111 92.5t-143 59.5q-62 10 -106 10q-71 0 -117 -22l-6 -4q-31 -15 -31 -19q0 -2 16 -8q21 -6 136 -10q178 -6 200 -33q12 -16 31 -16zM975 621q0 -17 30.5 -45.5t32.5 -45.5q0 -13 11 -24q12 -12 12 -90q0 -89 -14 -109q-8 -12 -25.5 -42t-28 -47t-29.5 -38 t-38 -33q-60 -35 -60 -55q-3 -8 -27 -18.5t-28 -18.5l-29 -14q-68 -34 -115.5 -40.5t-236.5 -6.5h-158q-118 0 -149.5 3t-46.5 13q-15 9 -15 19q0 6 13 32q12 29 18.5 76t18.5 203q12 152 26 704q2 38 7 48.5t28 17.5q38 14 66 33q71 44 124.5 65t116.5 21q31 0 47 -2 q66 -9 155 -46t89 -55q0 -10 14 -10q19 0 52.5 -39t46.5 -78q16 -46 26 -61q9 -9 9 -49q0 -55 -13 -84q-1 -2 -16.5 -31t-24 -50t-8.5 -34q0 -9 59.5 -37t59.5 -32z" />
<glyph unicode="C" horiz-adv-x="1222" d="M981 360q0 -14 -6 -14q-9 0 -28 -34.5t-19 -49.5q0 -14 29 -73.5t36 -59.5q5 0 60 55q45 42 45 58q0 7 -17 23t-26 38t-35 55q-13 19 -27 19q-12 0 -12 -17zM356 463q0 -41 5.5 -56.5t25.5 -37.5q87 -90 272 -90q53 0 80 4q70 8 90 8q22 2 50 26.5t28 44.5q0 13 -4 13 l-12 -8q-5 -11 -19 -11q-4 0 -12 2t-12 2t-12 -4q-9 -12 -50 -12q-57 0 -144.5 21t-145.5 51q-67 36 -140 112v-65zM637 51h16q54 0 88.5 5t70 15t62.5 15q14 0 20 11t17 12q11 0 11 6t-4 12q-9 14 -44 94h-180q-130 0 -163 4.5t-78 26.5q-86 41 -124 99t-38 149v28 q1 41 36.5 119t69.5 115q29 32 72.5 61t62.5 29q23 0 54 14q71 31 157 31q21 0 27 -2q20 -4 29 -4q21 0 35 11t34 40q27 38 27 57q0 15 -18 21l-56 22q-46 19 -168 19q-61 0 -86 -4q-28 -3 -84 -26.5t-73 -26.5q-16 0 -43 -23q-150 -127 -150 -145q0 -17 -8 -17 q-14 0 -40 -72t-36 -143q-22 -150 -22 -178q0 -12 8 -20q12 -8 12 -44t29 -88.5t65 -83.5q44 -38 75.5 -55t131.5 -55q51 -20 85 -24.5t120 -4.5zM956 936q100 59 103 151q-28 -5 -67 -49.5t-48 -85.5l-2 -22q5 0 14 6zM997 1167q-44 13 -110 13q-74 0 -153.5 -12 t-115.5 -29q196 -22 308 -72q6 4 36 23t49.5 34t20.5 23q-4 12 -35 20zM874 23q-28 -4 -67.5 -14t-82 -16.5t-103.5 -6.5q-88 0 -119 5.5t-90 31.5q-32 14 -55.5 21t-32.5 9t-25.5 10t-44.5 27q-38 25 -64 49t-69 74q-35 38 -47.5 90t-12.5 154q0 158 39 273t123 204 q9 9 53 57.5t77.5 82t54.5 48.5q16 4 59 26t68 26q33 6 77 25t95 26q33 4 36 10q6 6 74 6q148 0 174 -16q9 -6 55 -17.5t54 -21.5q0 -10 14 -10q20 -5 32.5 -18t12.5 -32q0 -27 -29 -53q-14 -13 -27 -49.5t-13 -60.5q0 -6 -7 -14t-16 -11q-26 -8 -89.5 -58t-88.5 -61 q-15 -6 -41 -6q-50 0 -88 18q-15 5 -31 5q-34 0 -76.5 -8.5t-52.5 -18.5t-43 -10q-17 0 -40.5 -15.5t-29.5 -17.5q-10 0 -36 -53q-31 -54 -31 -115q0 -46 20 -66q50 -54 142 -87t184 -33q50 0 94 12q62 20 141 20q23 0 31 -2q5 0 19.5 -16.5t25.5 -38.5q23 -42 38 -65 t19.5 -27t10 -14t14.5 -33q2 -4 2 -12q0 -20 -53 -76q-61 -65 -61 -68q0 -18 -24.5 -28.5t-47.5 -10.5t-54.5 -14t-46.5 -16z" />
<glyph unicode="D" horiz-adv-x="1107" d="M600 324q-8 8 -94 8h-74l-53 -49q-8 -8 -22.5 -24.5t-10.5 -16.5q10 3 92 16q48 6 105 30t57 36zM502 817q-9 0 -11.5 -32t-5.5 -183q0 -22 -0.5 -63t-1 -54.5t-2 -37t-5 -37t-9.5 -27.5q85 16 168 16q29 0 50.5 16t21.5 36q0 17 15 55.5t15 64.5q0 15 -2 21 q-14 74 -48 116.5t-114 79.5q-63 29 -71 29zM391 365q18 -4 29.5 128.5t11.5 270.5q0 17 -1 44t-1 36q-23 4 -76 4q-1 -9 -3.5 -41.5t-4.5 -62.5t-2 -48t2 -22t2 -29q0 -30 -9 -136t-9 -144q0 -40 6 -46q44 45 55 46zM492 881q0 -7 30 -15q44 -11 106.5 -46t90.5 -66 q38 -43 55 -90q19 -49 19 -109q0 -58 -17 -72q-16 -16 -16 -28q0 -18 -29.5 -70t-50.5 -70q-93 -82 -117 -92q-24 -9 -106 -27.5t-95 -21.5q-1 0 -3 -1t-3 -1q-31 -8 -45 -8q-15 0 -28 18q-17 11 -17 92q0 50 7.5 142t7.5 104q0 39 3 172t3 189q49 18 98 18q22 0 64.5 -4.5 t42.5 -13.5zM469 995q-131 15 -180 15q-23 0 -25 -2q-2 -3 -45 -10.5t-45 -10.5q-16 -16 -16 -133q0 -35 2 -47q4 -28 4 -43q0 -31 -6 -49q-6 -22 -10.5 -298.5t-14.5 -297.5q-6 -30 -6 -51q0 -13 2 -15q24 -8 72 -8q47 0 153 11.5t144 11.5q122 0 230.5 73t184.5 176 q1 3 10 21t11.5 24.5t10.5 24.5t11.5 28.5l9.5 28.5t8.5 31.5t4.5 30.5t2 33q0 27 -6 51q-27 130 -77 208t-148 130q-52 27 -107.5 40.5t-173.5 26.5zM997 758q1 -9 17 -48.5t16 -62.5q0 -5 3 -14t6.5 -15t4.5 -6q7 0 7 11q0 4 -1.5 13.5l-4.5 28.5t-5 37q-33 205 -209 316 q-64 41 -145 72.5t-143 31.5q-32 0 -140 -13t-108 -22q0 -5 61 -12q31 -3 147 -18t154 -17q10 0 16.5 -9t16.5 -9q8 0 54 -21.5t55 -21.5q7 1 29.5 -21t29.5 -22q8 0 47 -39.5t39 -48.5q0 -6 10.5 -14t10.5 -19q0 -12 15.5 -30.5t16.5 -26.5zM997 352q1 -6 -26 -46t-27 -44 q-28 -36 -97.5 -101.5t-115.5 -84.5q-16 -7 -39.5 -23t-42.5 -16h-12q-4 2 -10 2q-14 0 -17 -8q-19 -8 -123 -15t-125 -14q-46 -16 -167 -16q-108 0 -119 22q-15 15 -15 33q0 5 1.5 13t3.5 21t4 23q11 66 18 299q15 627 45 662q30 33 109.5 63.5t175.5 48.5q132 21 145 21 t21 -8q7 -10 26 -10q30 0 109 -30t135 -63q65 -37 119.5 -94t83.5 -121q18 -39 32.5 -115t14.5 -130q0 -34 -6 -46q-15 -26 -15 -59q0 -15 -10 -29.5t-10 -33.5t-17 -40t-20 -30q-3 -12 -15 -17.5t-14 -13.5z" />
<glyph unicode="E" horiz-adv-x="1042" d="M725 711q0 -6 10 -6q7 0 23 4t18 4q17 0 17 -17q-5 -15 -5 -84q0 -132 9 -141q6 -6 67 -6q42 0 53.5 -4t20.5 -23q6 -9 6 -26q0 -19 -9 -71t-9 -73q0 -17 6 -26q6 -21 6 -43q0 -27 -9 -46.5t-24 -23.5q-21 -6 -61.5 -44t-40.5 -52q0 -12 -27 -31q-5 -10 -35 -10 q-22 0 -79.5 9t-77.5 9q-19 0 -25 -4q-25 -6 -96 -6q-50 0 -66 -6q-12 -4 -16 -4q-8 0 -19 7t-20 7q-2 0 -18 -4l-86 -14q-86 -15 -125 -15q-34 0 -37 11q-15 12 -15 30q0 11 2 17q10 41 18.5 189.5t8.5 281.5q0 75 -2 104q-2 47 -8 187.5t-8 216.5q60 60 108 118 q21 23 36.5 29t66.5 12q90 11 141 13t244 2q134 0 200 -2t87 -5.5t24 -11.5q2 -2 2 -10q0 -11 -8 -23q-12 -12 -12 -71q0 -27 6 -68q0 -1 1 -4t1 -4v-37q4 -28 4 -35q0 -17 -8.5 -28t-42.5 -41l-13 -13q-50 -43 -73 -73q-29 -33 -41 -33q-5 0 -13 4q-22 12 -217 12 q-23 0 -28 -14q36 -4 43 -4q5 -1 38.5 -3t40.5 -3q6 -1 22.5 -1.5t30 -1t13.5 -1.5zM750 1001h-21q-11 -1 -23.5 -2t-19.5 -1.5t-12 -0.5q-8 0 -39 7q-4 2 -12 2q-14 0 -17 -9q0 -9 -76 -14t-157 -8.5t-88 -9.5q-41 -11 -150 -11q-4 -62 -4 -98q0 -38 4 -96q12 -216 12 -398 q0 -85 -14 -197.5t-14 -123.5q-4 -8 -4 -10q0 -4 10 -4q15 0 94 12q7 0 23 4q12 2 235 11.5t236 11.5q14 7 14 96q0 66 -3.5 81t-21.5 21q-4 4 -28 4q-19 0 -65.5 -4t-61.5 -4q-13 0 -17 2l-3 1q-3 1 -7 1q-30 0 -101.5 -13.5t-76.5 -19.5q-7 -10 -20 -10q-9 0 -18.5 6 t-12.5 15q-2 4 -2 14q0 16 9 46.5t9 39.5q0 22 27 57q18 24 31 29.5t51 7.5h16q21 0 41.5 -6t32.5 -6l72 10q24 7 24 47q0 9 -1 28.5t-1 27.5q0 22 -8 30q-3 6 -37 6q-38 0 -86 -7.5t-63 -16.5q-1 0 -4.5 -1t-4.5 -1q-27 -10 -43 -10q-35 0 -35 61v59q0 34 3 58 q4 39 14 55.5t39 24.5t94 8q70 0 115 -2l188 -6q-6 38 -6 79q0 44 12 66q15 30 15 39q0 22 -43 22zM846 1116q0 8 -350 8q-93 0 -95 -2t-84 -6q-118 -3 -118 -33q0 -11 -20.5 -28.5t-20.5 -30.5q6 -6 61 -6q77 0 88 8q32 8 180.5 18.5t214.5 12.5q97 2 144 59zM360 328 q0 -18 2 -23.5t11 -5.5q10 0 18 2q21 5 156.5 18.5t179.5 14.5q22 1 66.5 26.5t44.5 36.5q0 4 -4 4q-54 7 -89 7q-65 0 -83 -15q-16 -14 -91 -14h-88q-88 0 -104 -8q-19 -9 -19 -43zM870 350q-6 1 -40.5 -26t-38.5 -27q-7 0 -7 -49q0 -42 4.5 -85t10.5 -44q15 0 33.5 15.5 t30 30.5t11.5 17l10 48q9 47 9 75q0 45 -23 45zM831 836q5 0 52 38q32 24 32 60q0 10 -5 39.5t-5 54.5q0 53 -12 53q-10 0 -23.5 -25.5t-19.5 -56.5q-7 -42 -16 -51q-11 -7 -11 -65q0 -47 8 -47zM668 473q36 11 46.5 24t10.5 52v29l-4 67q-7 -8 -25.5 -26t-27 -28.5t-17 -30 t-8.5 -40.5v-26q0 -25 8 -25q5 0 17 4zM618 618q10 1 24 8t23 14t26 21.5t22 18.5q-9 1 -30.5 1.5t-38 1.5t-23.5 3l-103 8q-2 -1 -30 -11.5t-33 -14.5l-33 -23q-12 -9 -25.5 -23.5t-13.5 -21.5q0 -4 6 -4q47 0 229 22zM426 688q4 3 10.5 7.5t10.5 7t9 6.5t8 6.5t5.5 5.5 t4 5.5t1.5 4.5q0 9 -37 14q-6 3 -14 3q-22 0 -36.5 -22t-14.5 -50q0 -14 8 -14q6 0 45 26z" />
<glyph unicode="F" horiz-adv-x="1081" d="M459 258q2 27 2 61q0 32 -5 41t-18 11h-8q-10 0 -13.5 -16t-8.5 -76q-9 -112 -13 -136q-2 -8 -2 -22q0 -17 8 -17t31 23q14 15 19 39t8 92zM797 569q2 8 2 21q0 18 -11 18q-13 0 -43 -24q-26 -23 -32 -64q-2 -10 -2 -26q0 -13 6 -13t28 19q10 9 21 16t15 10t8 13t8 30z M457 606q0 -4 8 -4t14 2q10 5 117.5 6.5t114.5 16.5q18 12 18 18q0 5 -6 8q-12 6 -50 11.5t-71 5.5q-23 0 -43 -4q-28 -6 -65 -28t-37 -32zM500 745q0 22 -3.5 28.5t-17.5 6.5q-3 0 -39 -4q-2 0 -6 -1t-6 -1l-37 -4v-76q0 -51 17 -53q16 0 16 8q0 9 37 35q23 15 31 27t8 34z M348 334q-10 8 -10 69v29h285q0 23 13 51.5t15 40.5q0 13 -26.5 21t-61.5 8q-33 0 -49 -4q-27 -6 -74 -6q-55 0 -86 8q-12 3 -15 15t-3 65v182q53 1 125.5 15t161.5 14h51q77 0 90.5 4.5t13.5 32.5q0 25 8 61l7 47h-271q-98 0 -141 2q-29 2 -80 2q-124 0 -135 -43 q-12 -43 -16.5 -258t-6.5 -237q-15 -201 -18 -406l82 8q74 6 101.5 16t27.5 29v17q0 36 10 106t10 99q0 8 -8 12zM840 846q3 -1 44.5 28t41.5 31q3 0 10 58q4 24 4 28q0 29 -16 29q-14 0 -34.5 -20.5t-31.5 -38.5q-7 -13 -14.5 -47.5t-7.5 -55.5q0 -12 4 -12zM879 1051 q13 0 35 23t22 34q-5 8 -41 8q-27 0 -33 -6h-8q-71 0 -290.5 -20.5t-233.5 -20.5q0 -20 278 -20q212 0 232 -13q9 -6 14 -6q6 0 12.5 10.5t12.5 10.5zM995 932q11 0 11 -10q0 -12 -13 -25q-24 -24 -65 -54t-49 -30t-13.5 -15.5t-15.5 -15.5q-6 0 -11 -4t-5 -8q0 -10 -19 -10 q-21 0 -33 12t-84 12h-22q-57 -2 -79.5 -6t-29.5 -14q-12 -15 -12 -23q0 -11 61 -14q52 0 146 -20q58 -12 76 -23.5t18 -38.5q0 -19 -6 -49q-6 -27 -6 -43q0 -18 10 -31q8 -12 8 -20q0 -12 -10 -20.5t-25 -8.5q-2 2 -8 2q-5 0 -15.5 -8t-21.5 -8q-8 0 -36 -21t-58 -49 q-76 -70 -100 -70q-13 0 -13 21q0 20 -26 20t-32.5 -23t-6.5 -114q0 -141 -39 -141q-8 0 -47 -31q-21 -18 -44 -26t-65 -13q-179 -17 -188 -57q-3 -13 -13.5 -20t-21.5 -7t-20 7t-9 20q-2 18 -2 70q0 108 17 379t18 307q6 303 60 329q6 2 51.5 43t54.5 41q61 0 162 12 t252 17q153 7 158 12q4 4 24 4q31 0 73 -6.5t60 -15.5q31 -3 31 -49q0 -47 -23 -99q-14 -31 -14 -51q0 -16 10 -16z" />
<glyph unicode="G" horiz-adv-x="1261" d="M618 301q-31 0 -96 31.5t-102 62.5q-4 4 -17.5 14t-17.5 14t-12.5 14t-14 21.5t-10.5 28.5q-24 78 -33 78q-6 0 -6 -26v-17q0 -74 26.5 -128t74.5 -79q132 -69 196 -69q32 0 47 18q9 9 9 19q0 18 -44 18zM1116 645q-11 0 -41.5 -33t-40.5 -57t-12 -111.5t-6 -107.5 q-4 -28 -4 -39q0 -24 8 -64q0 -1 1 -4t1 -4q10 9 31 27.5t25 23t16 22.5t13.5 31t6.5 45t6 68t2 95v43q0 65 -6 65zM924 688q-22 0 -43.5 -8t-31.5 -15t-31.5 -25t-26.5 -22q58 -14 112 -14q69 0 98 23q60 49 62 63q0 4 -19.5 8t-39.5 4q-21 0 -23 -4q-10 -10 -57 -10z M993 948q14 0 26 7.5t54 43.5q35 27 35 48q0 8 -8 8q-18 0 -60 -37q-61 -52 -61 -64q0 -6 14 -6zM377 1012q-22 0 -63 -33t-64 -68q-106 -157 -125 -284q-8 -49 -8 -131q0 -76 7.5 -146.5t18.5 -93.5q53 -105 167.5 -159t267.5 -54q50 0 102 6q198 23 250 62q12 9 17 35.5 t11 107.5q9 129 9 154q0 24 -6 67v6q-3 22 -5 33t-9.5 17.5t-10 7.5t-20 2t-25.5 2q-110 15 -139 18q-5 -38 -16 -115.5t-15 -117.5q-15 -143 -59 -146h-19q-93 0 -190.5 40t-153.5 100q-55 64 -55 190q0 128 57 236q14 28 61.5 71t96.5 76q43 27 119 27q69 0 221 -31l39 -8 q12 0 54 51t42 65q0 11 -23.5 28.5t-52.5 27.5q-21 7 -116 13.5t-160 6.5q-37 0 -41 -2t-39.5 -12.5t-68 -22t-34.5 -16.5q-7 -10 -22 -10zM504 1124q0 -2 8 -2q5 0 33 4q40 7 86 7q91 0 191 -19t130 -43q23 -20 33 -20q9 0 27 12q30 18 98 76q-53 21 -136 38t-157 17 q-44 0 -92 -10q-6 -1 -73 -12t-105 -22t-43 -26zM1161 1026q0 -30 -7 -41t-32 -20q-19 -6 -56 -36.5t-50 -35.5q-14 0 -60 -43q-44 -41 -75 -41q-24 0 -56 14q-35 14 -87.5 26.5t-78.5 12.5q-25 0 -30 8q-2 4 -15 4q-33 0 -93 -31t-60 -52q0 -8 -27 -35q-27 -31 -45 -101 q-14 -61 -14 -67q0 -13 16 -56q23 -57 99 -110t135 -53q23 3 30.5 11t16.5 40q8 14 10.5 68t8.5 99.5t22 49.5q29 14 75 51q57 42 102.5 56t133.5 14h27q123 -4 133 -10q8 -8 8 -43q0 -25 -5 -80.5t-5 -71.5v-33q0 -66 -13 -167.5t-28 -102.5q-33 -24 -82 -76t-49 -61 q0 -29 -86.5 -64t-208.5 -55q-114 -19 -158 -19q-40 0 -123 17q-74 15 -170.5 60.5t-105.5 70.5q-14 28 -29 43q-40 45 -53.5 102t-14.5 195v16q0 73 10 155t21 103q54 107 62 127q32 79 96.5 154t128.5 117q28 18 54 32t58.5 24t52.5 16.5t63.5 13t61 9t75 9t77.5 8.5h10 q37 0 122 -14.5t128 -28.5q73 -24 96 -36.5t23 -30.5q0 -11 -2 -15q-4 -14 -20.5 -41t-16.5 -55z" />
<glyph unicode="H" horiz-adv-x="1306" d="M461 193q0 16 16 85t17 84q0 15 -31 15q-36 0 -39 -10q-4 -9 -9 -80.5t-5 -116.5q0 -29 2 -29q19 0 34 16t15 36zM629 653q12 -2 33 -2q34 0 46 15t21 51l4 14h-268l-62 -61q110 0 226 -17zM301 1024h-139q-9 -126 -19 -445.5t-18 -433.5v-86h10q19 0 86 4.5t92 4.5 q27 0 27 -5q2 0 7 76t11.5 176t8.5 127h28q64 0 150 15q39 8 59 8q12 0 35 -9t66 -10q72 -3 77 -8q2 -2 2 -90q0 -44 -0.5 -106.5t-1 -108.5t-0.5 -49q0 -10 19 -14l108 -11q46 -4 58 -4q34 0 45.5 12t11.5 46q0 11 -4 61q-2 23 -2 115q0 161 7.5 376.5t16.5 260.5q0 2 1 6 t1 6q2 10 4 21t3.5 17.5t1.5 10.5q0 11 -6 14t-23 3t-34 8t-23 8q-9 0 -21 -6q-13 -8 -51 -8q-1 0 -109 8q0 -2 -1 -5t-1 -5q-18 -88 -18 -144q0 -29 6 -47q12 -32 12 -74q0 -39 -12 -80q-16 -48 -25 -58.5t-40 -10.5h-21q-108 6 -391 6q0 3 -6 29.5t-6 40.5q0 15 6 24t6 23 q0 10 -6 22q-8 3 -8 51q0 102 20 238zM1169 1055v16q0 16 -6 16q-8 0 -17 -19.5t-9 -37.5q0 -3 -13 -12q-15 -7 -17.5 -56.5t-8.5 -60.5q-7 -21 -17 -248.5t-10 -365.5q0 -66 2 -78q7 -48 14 -45q8 7 42 48t51 64q-1 35 -8 291t-7 365q0 77 4 123zM442 1079v19q-6 22 -12 22 q-4 0 -9 -3t-14 -9t-16 -10q-47 -29 -47 -267q0 -81 6 -102q2 -10 12 -10q9 0 22 11.5t13 21.5q4 10 18.5 15t14.5 21q0 2 -1 6t-1 7v12q0 25 7 130t7 136zM1141 1147q-16 12 -125 12q-8 0 -24.5 -1t-24.5 -1q-49 -3 -65.5 -9.5t-41.5 -31.5q-31 -31 -31 -39t23 -8 q7 0 39.5 2t56.5 2h117q76 59 76 74zM375 1153q0 10 -27 10q-45 0 -84 -22q-22 -11 -33.5 -22.5t-11.5 -18.5q0 -10 27 -10q23 0 59.5 17t36.5 28q0 6 16.5 8.5t16.5 9.5zM61 129q0 84 6.5 132.5t6.5 137.5q0 131 12 181q6 24 6 47q0 18 -5 54t-5 56q0 31 8 64q16 69 16 139 q0 38 -4 49.5t-18 16.5q-23 7 -23 18q0 26 99 102q41 34 123 88q30 15 118 15q76 0 97 -12l14 -9q12 -6 12 -10q0 -1 -0.5 -2.5t-1.5 -5t-2 -6.5l-6 -15q-10 -26 -12.5 -151.5t-7.5 -147.5q-9 -30 -9 -47q0 -24 19.5 -30.5t75.5 -6.5q88 0 109.5 7.5t21.5 44.5q0 5 -1 16.5 t-1 17.5q0 4 -1 12t-1 11q0 27 9 60t9 51v16q-4 4 -4 10q0 20 37 55t78 67t45 40q17 15 33 20t59 5q8 0 35.5 -1t46.5 -1q101 -3 127 -7.5t43 -21.5q20 -20 20 -37q0 -12 -6 -39q-16 -91 -16 -319q0 -233 12 -437q4 -58 4 -71q0 -51 -22 -56q-22 -11 -52 -57.5t-43 -60.5 q-14 -14 -24.5 -34t-10.5 -30q0 -33 -33.5 -42t-156.5 -9h-86q-73 0 -80 12q-6 21 -6 96q0 55 8 283q-32 -4 -57 -4q-36 0 -49 8q-12 6 -23 6t-26 -6q-17 -8 -23.5 -22.5t-9.5 -55.5q-3 -38 -16 -67.5t-13 -57.5q0 -19 -9.5 -31.5t-39.5 -37.5q-43 -32 -61 -68 q-7 -17 -13 -26t-18.5 -14t-22 -6t-36 -2.5t-48.5 -4.5q-22 -2 -54 -5t-54.5 -5t-32.5 -4q-8 -2 -23 -2q-27 0 -35 28t-8 119z" />
<glyph unicode="I" horiz-adv-x="673" d="M367 956q-1 0 -3.5 -1t-3.5 -1q-11 0 -14 14t-5 27.5t-9 12.5q-13 -3 -92 -7h-17q-22 0 -33.5 -2t-21.5 -13.5t-10 -33.5q0 -16 -2 -28q-6 -56 -14 -358.5t-13 -354.5q-4 -45 -4 -109q0 -43 4 -45q2 -2 14 -2q22 0 82 13q61 13 74 21t18 34q3 19 15 39t12 51q0 50 12 68 q8 2 12.5 149.5t7.5 302.5t7 166q4 36 4 39q0 11 -4.5 14.5t-15.5 3.5zM498 293v8q1 37 26 307t25 393q0 115 -19 115q-13 0 -43 -35q-32 -37 -32 -67q-25 -186 -25 -410q0 -243 -10 -301q-19 -114 -19 -121q0 -10 3 -12t10 -2q6 0 11 4t5 8q2 7 35 47t33 66zM193 1069 q0 -16 20 -16q5 0 37 4q13 2 37.5 4.5t33.5 3.5t25.5 4t26 7.5t23 11.5t28.5 18q49 33 57 33q5 0 18 15.5t13 25.5q0 4 -2 6q-19 8 -37 8t-59.5 -11.5t-69.5 -11.5q-39 0 -55.5 -7t-48.5 -34q-19 -17 -33 -35t-14 -26zM559 279q0 -38 -31 -72q-143 -153 -157 -180 q-6 -11 -9.5 -15.5t-9.5 -8t-16 -3.5q-7 0 -35 4q-3 0 -10 1t-10 1q-24 0 -81 -8t-79 -8q-17 0 -23 2q-11 3 -24 30.5t-13 51.5l15 338l6 153q15 415 24 475q7 43 28 62q2 2 7 6l17 16q45 46 68.5 67.5t44.5 32t32.5 11t43.5 3t67 9.5q12 6 55 6q96 0 131 -14q2 0 4 -3.5 t3.5 -11t2.5 -18t1.5 -25t0.5 -29.5v-34q0 -75 -4.5 -188.5t-9 -189.5t-6.5 -91q-33 -297 -33 -370z" />
<glyph unicode="J" horiz-adv-x="972" d="M352 104q0 21 -22 21q-18 -1 -41 -19t-23 -30q0 -9 -26 -35q-29 -29 -29 -35q0 -4 8 -4q13 0 57 18q28 12 52 38.5t24 45.5zM160 -262h53q89 0 136.5 22.5t129.5 104.5q45 44 72.5 105t48.5 161q24 112 32.5 203t14 216.5t15.5 229.5q12 150 12 215v9q-10 10 -148 10 q-35 0 -37 -2q-6 -6 -6 -35q0 -42 11 -49q6 -3 6 -33q0 -23 -2 -35q-4 -25 -4 -86q0 -36 3 -118t3 -121q0 -57 -6 -103q-1 -8 -7 -60.5t-10.5 -87t-13 -75.5t-17.5 -57q-8 -15 -19 -39.5t-18 -39.5t-22 -35t-35 -36l-6 -6q-36 -29 -57.5 -40.5t-55.5 -14.5q-47 -3 -64 -26 t-17 -65q0 -16 4 -54t4 -58zM834 981q4 50 4 53q0 29 -13 29q-20 -2 -51 -36t-37 -62q-17 -68 -31 -353t-20 -340l-20 -174q77 168 77 201q3 14 10 48.5t9.5 50t7.5 46t8 64t6 76.5q7 103 26 226t24 171zM776 1106q29 23 29 33q0 4 -4.5 6.5t-15 3.5t-22 1.5t-31.5 2 t-36 2.5q-62 4 -67 4q-25 0 -39 -5t-35 -21q-33 -23 -33 -35q0 -18 117 -21h49q37 0 51.5 5t36.5 24zM418 1112q23 13 60 37t59 37t52.5 24t57.5 11h8q10 -3 67.5 -7.5t109.5 -11.5t59 -16q18 -13 18 -31q0 -15 -2 -31q-9 -96 -36.5 -306t-36.5 -331q-19 -238 -112.5 -411 t-285.5 -324q-53 -42 -91 -58t-87 -16q-20 0 -41 3q-67 4 -111.5 22t-44.5 39q0 11 15 20q15 12 22 78q7 78 17 109t30 51q23 22 47 58.5t56 70.5q40 41 55 53.5t29 12.5q10 0 16 -2q2 0 7 -1.5t7 -1.5q28 0 41 30.5t21 109.5q10 127 10 383q0 306 -16 399z" />
<glyph unicode="K" horiz-adv-x="1267" d="M477 268q0 55 -4.5 78t-17.5 23q-10 0 -47 -29q-19 -15 -26 -23.5t-7 -21.5t6 -37q3 -16 7 -104t11 -105q7 0 52 29q38 26 38 43q0 2 -4 18q-8 36 -8 129zM969 416q0 5 -28.5 31.5t-27.5 35.5q-10 20 -46.5 68.5t-51.5 83.5q-35 76 -45 76q-11 0 -51.5 -38t-40.5 -48 q0 -6 27 -64t26 -67q11 -28 44 -79.5t48 -82.5q49 -102 88 -148l7 -8q11 -12 39.5 -53.5t60.5 -71.5q44 48 74 70q24 19 24 26q0 8 -8 13q-20 20 -43 78q-27 71 -52 118t-34 47q-10 0 -10 13zM504 434q-1 -7 65 -97.5t64 -98.5q0 -15 22 -33q15 -13 34.5 -46.5t19.5 -45.5 q0 -11 37 -46t57 -42q6 -2 20 -2q22 0 70.5 9.5t54.5 10.5q-16 20 -44.5 52t-48 58t-40.5 64q-16 29 -39.5 66t-48 83t-68.5 140q-10 22 -23.5 43t-20.5 33t-7 24q0 19 20 45.5t72 77.5q38 37 123.5 115t126.5 123l27 37h-96q-151 0 -174 -33q-41 -58 -153 -177t-128 -137 q-38 -45 -59 -45q-10 32 -18.5 174t-8.5 205q-50 4 -102 4q-53 0 -66 -8q-14 -8 -14 -78q0 -17 4 -123q6 -117 6 -313q0 -86 -2 -88q-6 -44 -31 -336q19 0 78 -3t90 -3h23q1 28 4.5 64.5t3.5 52.5q0 43 -12 90l-13 78q8 7 34 33t44 42.5t43.5 32t44.5 15.5q11 0 17 -2 q12 -4 12 -15zM510 1147q-5 0 -51 -39.5t-53 -50.5q-9 -12 -9 -80q0 -73 8.5 -150t18.5 -77q13 0 41 32q22 25 27 49t8 121q4 141 10 166q2 8 2 21q0 8 -2 8zM795 1077q16 -4 196 -4h62q2 5 11 23.5t15.5 33t7.5 19.5q-4 6 -59 6h-45q-47 0 -53 6q-4 2 -10 2q-22 0 -70 -37 q-55 -44 -55 -49zM444 1180q-10 10 -28 10q-8 0 -31.5 -3.5t-40.5 -4.5q-47 -3 -63 -12t-52 -50q-46 -53 -49 -59q4 -4 31 -4q18 0 50 2t34 2q31 5 76 41q75 57 75 72q0 4 -2 6zM1087 1038q3 -2 -65.5 -72t-137.5 -139.5t-67 -70.5q0 -17 39.5 -89.5t58.5 -93.5 q22 -24 37 -48.5t47 -59.5q39 -40 72.5 -100t42.5 -107q3 -13 22 -34.5t19 -39.5q-2 -4 -2 -8q0 -8 14 -8h11q12 0 19 -8t7 -19q0 -18 -18 -24q-17 -6 -64 -44t-73 -65q-14 -14 -36 -20.5t-73 -10.5q-74 -6 -111 -6q-43 0 -65 10.5t-53 41.5q-25 26 -55 80t-48 73 q-18 22 -18 29q0 11 -18.5 30t-26.5 19l-2 -2q-5 -3 -13 -62q-4 -32 -4 -36q0 -21 15 -27q18 -6 18 -25q0 -13 -10.5 -26.5t-28.5 -20.5q-37 -19 -37 -28q0 -6 -21.5 -10t-21.5 -15q0 -13 -33.5 -29t-58.5 -16q-8 0 -16 4q-13 10 -105 10h-67q-57 0 -74.5 8t-17.5 37 q0 11 4 47q39 240 39 484q0 19 -1 62t-1 67q-1 51 -1 100t-0.5 75.5t0 52.5t-1.5 38t-2.5 22.5t-6 17t-9.5 10.5t-14 12q-6 3 -13 10q25 24 45.5 50.5t51.5 57.5q21 22 56 62t54 59q259 9 267 10q7 0 25 -10t18 -20q0 -6 -3 -9q-9 -31 -16 -331q5 6 36.5 40.5t50.5 60 t20 40.5q0 17 43.5 53.5t92.5 73t56 49.5q31 31 47 31q7 0 19 -4q7 -2 23 -3.5t41 -3.5t40 -3q24 -2 54.5 -4t46 -3.5t30.5 -4t21 -7t6 -12.5q0 -19 -45 -70q-54 -64 -54 -78z" />
<glyph unicode="L" horiz-adv-x="1099" d="M969 258v51q0 49 -8 49q-7 0 -29 -22l-39 -31q-26 -20 -30.5 -35.5t-6.5 -76.5v-27q0 -64 18 -64q13 0 35 19q10 8 24.5 18t18.5 14t9.5 17t6.5 32.5t1 55.5zM788 399q-20 17 -79 17q-47 0 -70 -10q-26 -13 -72 -13q-29 0 -46 -7.5t-42 -31.5q-39 -39 -37 -43 q6 -3 172 -10h29q39 -2 88 -2q38 0 54.5 4.5t37.5 18.5q53 36 84 75q-60 -6 -76 -6q-32 0 -43 8zM365 963q8 40 8 49q0 15 -10 21.5t-37 6.5h-9q-32 -2 -96.5 -12t-70.5 -14q-17 -130 -17 -228q0 -42 3.5 -160.5t4.5 -215.5q3 -331 19 -347q9 -9 115 -15.5t214 -6.5 q91 0 132 6q37 6 73 6q23 0 29 -2q27 -6 49 -6q29 0 29 14q0 7 -2 9q-6 12 -6 65v55q0 22 -4 28t-19 9q-60 11 -223 11q-69 0 -109 -5q-27 -6 -49 -6q-38 0 -52.5 24t-14.5 85q0 18 4 76q5 70 9.5 108t7 75.5t5.5 137.5q8 193 17 232zM465 1096q-13 0 -25 -21.5t-12 -46.5 q0 -94 -12 -106q-8 -8 -27 -445q-2 -27 -2 -71q0 -56 4 -56q9 0 44 39t44 60q7 -7 15.5 153.5t15.5 327t10 168.5q2 4 2 10q0 12 -10 12q-8 0 -18 -10q-14 -14 -29 -14zM420 1176q-14 -2 -31.5 -4t-28.5 -3.5t-20 -1.5q-16 0 -41 7q-1 0 -4.5 1t-5.5 1q-17 0 -36.5 -8.5 t-19.5 -16.5q0 -7 -32 -27q-31 -19 -31 -30q0 -9 10 -9q9 0 15 2q32 9 104 9q40 0 66 7.5t54.5 24.5t37.5 21q12 0 18 16q2 2 2 9q0 6 -14 6q-3 0 -43 -4zM721 -14h-6q-203 -9 -506 -9q-148 0 -148 7q0 17 9 30t20 13q14 0 14 16q0 15 -12 18q-8 3 -8 82v58q2 139 2 420v423 q0 38 6 49.5t39 34.5q58 42 82 107q148 -8 152 -8q38 0 53 6q19 8 69 8q82 0 111 -16q23 -13 23 -29q0 -14 -21 -20q-12 -5 -16 -16t-4 -42q0 -82 -12.5 -295.5t-12.5 -287.5q0 -42 4 -78q9 0 68.5 5t89.5 5q46 0 65 -8t56 -8q13 0 59 4q25 4 61 4q78 0 78 -39 q-3 -6 -4 -79.5t-4.5 -141t-13.5 -64.5q-7 -5 -13 -24t-26 -19t-60.5 -34.5t-48.5 -57.5q-3 -10 -27 -21.5t-24 -21.5q0 -14 -10 -14q-13 0 -33 20q-23 23 -51 23z" />
<glyph unicode="M" horiz-adv-x="1587" d="M397 117q5 3 16.5 5t15 7.5t3.5 20.5q0 34 12 75q2 5 4.5 13t4.5 13t2 9t-2 6q-20 33 -37 68.5t-24.5 50t-12.5 14.5q-12 0 -27 -84q-4 0 -4 -14q0 -25 17 -103t32 -81zM330 1061q-27 0 -27 -8q-9 -9 -94 -9h-74q4 -156 4 -241q0 -344 -24 -639q-2 -10 -2 -29 q0 -16 2 -41.5t2 -34.5q3 -3 25.5 -7.5t43.5 -4.5q96 0 111 12q16 13 16 99q0 41 -8 41q-6 0 -6 49q0 85 10 102q8 12 15 115q5 115 28 115q15 0 42 -48t62 -111.5t64 -88.5q2 -2 8 -16.5t15 -34.5t18 -33q22 -34 37 -71t19 -57l4 -20q12 -20 20 -20q12 0 58.5 51.5 t52.5 71.5q8 27 20 33q13 4 79.5 104t66.5 115q0 11 11.5 15.5t14.5 18.5q6 23 36 53.5t50 35.5q1 0 3 1t3 1q15 0 15 -95v29q-8 -359 -9 -367q-2 -16 -2 -43q0 -35 9 -41q17 -10 106 -10q54 0 66 6q10 6 13.5 23t8.5 70q4 48 11 114.5t10.5 104.5t7.5 111.5t6 168.5 q9 302 16 377h-104h-30.5t-28.5 -1t-25.5 -2t-19.5 -2.5t-13 -4.5t-4 -6q-3 -13 -15 -19.5t-18 -19.5q-89 -184 -291 -502q-27 -42 -40 -48q-5 -3 -11 -3q-21 0 -43 35q-12 20 -37 45q-9 9 -36 62t-27 63q0 16 -8 16q-12 0 -23 51q-5 26 -39.5 86t-38.5 70q0 18 -43 113 q-30 67 -41 83.5t-28 16.5zM1327 557q0 -41 -15.5 -197.5t-15.5 -197.5q0 -29 7 -29t35.5 48.5t31.5 49.5q22 15 29.5 61t9.5 161q2 116 14.5 231t16.5 215q8 170 12 186q2 4 2 13q0 16 -12 16q-11 0 -47 -22q-35 -23 -35 -25q-35 -293 -35 -449q0 -10 1 -30.5t1 -30.5z M637 567q3 -17 57 -71l25 30q24 27 24 47q0 15 -14 29q-11 11 -14.5 19t-7 20.5t-11.5 26.5q-123 222 -135 315q-5 38 -11 58t-17 43.5t-19 45.5q-15 48 -39 48q-12 0 -29 -15.5t-20 -21.5q-23 -33 -23 -41q0 -5 11 -31q209 -454 223 -502zM1155 1104q24 -6 51 -6 q64 0 131.5 27t89.5 61q1 2 -2.5 4t-10.5 3.5t-16.5 2.5t-21.5 2h-10q-48 0 -127 -43q-84 -45 -84 -51zM399 1200q0 10 -6 10q-4 -1 -31.5 -4t-52.5 -7t-28 -7q-12 -12 -45 -29q-54 -28 -54 -39q0 -10 64 -10q52 0 68.5 6t45.5 33q39 39 39 47zM918 367q0 -15 -22 -41 t-22 -43q-7 -18 -45 -65t-47 -66q-19 -40 -78 -99t-79 -59q-19 0 -37 35q-42 73 -84 131q-25 -67 -47 -76q-18 -7 -25 -14q-11 -12 -55.5 -44t-57.5 -36q-10 -4 -53 -4q-25 0 -80.5 2t-76.5 2q-23 0 -31 -2v557q2 506 8 556q3 30 16 44q19 20 79 51t77 45q23 17 45.5 23.5 t73.5 9.5l86 8q8 4 12 4q14 0 43 -10q22 -7 27.5 -15t5.5 -30q0 -45 33 -132t37 -124q4 -35 26 -86t54 -109.5t40 -77.5q11 -25 23.5 -43t17.5 -18q22 7 73.5 99.5t100 186t60.5 99.5q10 5 10 18q1 9 16 21t15 25q0 18 15.5 37.5t27.5 19.5q11 0 123 57q80 42 107.5 50 t88.5 8q35 0 51 -0.5t35.5 -4t27 -12t7.5 -22.5q0 -21 -14 -49q-16 -34 -27 -239.5t-18 -240.5q-10 -55 -15.5 -230.5t-7.5 -199.5q-3 -4 -68.5 -103.5t-86.5 -121.5l-43 -45h-127q-88 0 -110 3t-30 17q-8 16 -8 95q0 25 4 139q2 57 2 147q0 62 -2 62q-10 0 -24.5 -16.5 t-18.5 -34.5q-3 -14 -14.5 -21t-13.5 -18z" />
<glyph unicode="N" horiz-adv-x="1366" d="M420 432q-9 21 -19 21q-16 0 -16 -58q0 -31 4 -47q8 -39 8 -168v-69q43 10 55.5 35.5t28.5 119.5q0 2 1 7.5t1 7.5q2 12 2 30q0 25 -26 60q-33 42 -39 61zM868 281q-22 0 -93 71.5t-124 145.5q-12 20 -29 37t-26 20q-31 32 -125 223.5t-111 214.5q-4 2 -8 2 q-21 0 -78.5 -11t-78.5 -19q-22 -6 -33 -78q-30 -329 -53 -842h38q84 0 164 6l4 8q31 83 31 138q0 27 -2 41q-8 79 -8 159q0 125 18 152q10 14 21 14q28 0 94 -90q40 -54 76.5 -114t71 -101.5t118.5 -124.5q75 -73 105 -93t63 -20q6 0 30 -8t40 -8q12 0 18 2q23 5 32 12.5 t15 28.5q20 87 25 358.5t12 354.5q12 132 12 194v9q0 8 -34 8q-73 0 -131 -15q-6 -32 -9 -72.5t-4 -66.5t-2 -107.5t-2 -123.5q-3 -187 -10 -246t-27 -59zM1208 1040q-5 -11 -19 -14t-25 -9.5t-11 -27.5q0 -37 -15 -139t-18 -137q-10 -130 -10 -443q0 -118 4 -118 q12 6 37 45q49 71 49 301q0 46 3 144t3 140v68q0 74 25 168q2 6 2 18q0 23 -10 23q-5 0 -15 -19zM655 885q-13 20 -20.5 41.5t-24.5 40.5q-10 2 -49.5 76.5t-48.5 74.5q-13 0 -47 -22.5t-43 -38.5q-2 -2 -2 -10q0 -25 102 -244q53 -116 156 -244q147 -174 170 -174q4 4 4 16 q0 52 -92 240q-20 39 -50.5 121.5t-54.5 122.5zM1042 1024q32 0 51 11.5t34 27t30 20.5q17 6 17 13q0 11 -37.5 20.5t-57.5 9.5q-18 0 -58 -38.5t-40 -53.5q7 -10 61 -10zM426 1147q0 6 -29 6t-47 -6q-3 -1 -16 -7l-32.5 -15t-35.5 -17q-46 -22 -72 -42.5t-26 -31.5 q0 -8 12 -8q14 0 49 12q55 19 80 19q19 0 68 38t49 52zM791 -23q0 11 -54 62q-182 174 -182 188q-4 11 -8 11q-5 0 -10 -6.5t-5 -16.5q0 -21 -11.5 -52t-12.5 -57q-2 -40 -6 -44q-5 -3 -10 -3q-3 0 -23 4q-2 0 -5 1.5t-5 1.5q-19 0 -39 -13t-46 -39.5t-30 -29.5h-276 q-7 0 -7 65q0 218 31 666q8 118 10 108q11 61 11 115q0 66 -11 66q-5 0 -8.5 8t-3.5 18q0 29 57 70q36 27 105 62.5t108 47.5q28 7 117 7h35q63 0 72 -15q2 -2 2 -8q0 -11 -8 -23q-5 -10 -5 -12q0 -19 37 -78q6 -11 27 -46.5t26.5 -45t21.5 -37t22.5 -41.5t19 -39 t22.5 -48.5t21 -51.5q22 -22 38.5 -63t23.5 -70t10 -29q7 0 12 123q0 15 4 101q6 120 11 149.5t22 46.5l151 156q60 -2 131.5 -10t96.5 -19q14 -6 19 -13.5t5 -25.5q0 -9 -1.5 -23.5t-5 -41t-5.5 -49.5q-49 -426 -49 -779q-19 -32 -66 -97t-71 -118l-33 -71l-109 4 q-163 6 -163 34z" />
<glyph unicode="O" horiz-adv-x="1306" d="M879 715q0 8 -58 61t-78 62l-53 28q-34 21 -59 21q-35 0 -74 -39q-74 -78 -102.5 -130t-28.5 -116q0 -5 1 -16t1 -17q6 -75 29 -124t73 -93q74 -65 136 -65q69 0 157 94q47 53 66.5 88t32.5 96q6 27 6 41q0 20 -23 56q-26 46 -26 53zM492 889q-37 0 -108.5 -92 t-80.5 -152q-4 -22 -10 -33q-4 -8 -4 -22q0 -35 12 -91.5t25 -82.5q20 -39 55 -80q22 -25 78 -57.5t76 -32.5q6 0 6 4q0 8 -25.5 34t-56.5 48q-13 11 -53 76q-35 52 -35 149q0 70 18 135t47 94q15 15 23 35.5t28 38.5q21 21 21 25t-16 4zM825 836q23 0 92.5 -92t69.5 -121 q-3 -98 -18 -111q-17 -13 -17 -33q0 -37 -94.5 -143.5t-146.5 -128.5q-27 -13 -123 -21q-54 -4 -64 -4q-40 0 -90 27q-36 11 -89 68.5t-60 62.5q-11 0 -11 16q-2 14 -19.5 55.5t-18.5 65.5q-1 23 -2.5 31.5t-4 18.5t-4.5 30q0 28 18 84t40 98q12 21 12 39q0 20 72.5 90 t105.5 82q37 13 72 13q85 0 180 -56q80 -44 84 -57q7 -14 16 -14zM823 102q30 -1 95 68.5t79 112.5q0 6 21 34q75 109 84 299q2 33 2 76q0 33 -5.5 52.5t-21.5 52.5q-21 40 -84.5 113.5t-109.5 109.5q-23 17 -83.5 38t-82.5 21q-2 -2 -6 -2q-8 0 -11 6q-3 9 -14 9t-45 -12.5 t-49 -12.5q-8 0 -12 2q-6 2 -17 2q-20 0 -57 -15.5t-53 -15.5q-24 0 -42 -15t-32 -21q-33 -15 -97 -90.5t-94 -133.5q-35 -66 -49 -118.5t-14 -118.5q0 -8 1 -25t1 -26q3 -73 10 -103.5t35 -85.5q26 -53 45.5 -76t63.5 -55q35 -26 67 -39t49 -24q32 -22 100.5 -35t139.5 -13 q105 0 149 27q21 14 37 14zM1071 907q66 -110 66 -262q0 -139 -46 -276t-79 -166q-1 -1 15.5 10.5t33 24t16.5 14.5l12 20q12 19 29.5 54t34.5 80t29 109.5t12 131.5q0 51 -10 119q-4 27 -16 57t-33 72t-25 51q-23 55 -119 126t-164 83q-43 9 -43 19q0 6 -8 6q-9 0 -27 -6 t-37.5 -14t-21.5 -9q29 -4 75 -23.5t73 -21.5q26 0 45 -14q17 -13 103 -94t85 -91zM1126 246q0 -11 -79 -89.5t-103 -90.5q-66 -34 -162 -55t-180 -21q-46 0 -80 6q-51 10 -133.5 43.5t-124.5 60.5q-96 61 -149.5 170t-53.5 240q0 78 21 160q9 37 45.5 111.5t62.5 109.5 q68 89 132.5 141t173.5 103q35 16 54.5 29.5t34 21.5t50.5 18q14 4 58.5 20.5t70.5 16.5q24 0 61 -12q148 -55 246.5 -140.5t124.5 -185.5q26 -101 35 -131q14 -49 14 -121q0 -94 -24.5 -192.5t-63.5 -159.5q-31 -52 -31 -53z" />
<glyph unicode="P" horiz-adv-x="1028" d="M453 608q32 0 75 28.5t45 49.5q0 8 -12 8q-21 0 -57 -18t-49 -37q-17 -23 -17 -27t15 -4zM578 797q-30 24 -52 24q-21 0 -30 -24q-9 -27 -9 -29q0 -27 50 -27h10q57 3 57 23q0 10 -26 33zM422 823q-21 0 -25 -12q-12 -46 -12 -121q0 -29 4 -33q2 -2 6 -2q14 0 27 30 t16 73q2 16 2 37q0 18 -3.5 23t-14.5 5zM670 760q0 -51 -19 -87.5t-63 -68.5q-45 -33 -98 -52.5t-95 -19.5q-33 0 -49 11q-18 12 -18 123q0 69 7.5 126.5t20.5 61.5q20 10 35 25q16 16 58 16q86 0 169 -55q36 -24 44 -36t8 -44zM381 80q11 0 35 24q20 20 25 43t5 107v123 h-36q-22 0 -27 -8q-8 -11 -8 -172q0 -117 6 -117zM897 840q0 -15 2 -15q8 0 8 19q0 8 -6 8q-4 0 -4 -12zM864 926q13 0 13 4q0 5 -6.5 11.5t-10.5 6.5q-3 0 -6 -6q0 -9 10 -16zM700 506q13 16 29.5 25t28.5 32q20 36 51 70q35 44 35 115q0 61 -29 124q-20 44 -37 57.5 t-94 45.5l-12 6q-22 10 -63.5 14.5t-59.5 10.5q2 3 -52.5 8t-133 8.5t-134.5 3.5q-89 0 -82 -10q-6 -6 -13 -352.5t-7 -610.5q46 -4 106 -4q67 0 72 10q2 4 3 11t1.5 26t1 43.5t2 74t4.5 105.5q1 11 1 31t0.5 27.5t3.5 20t9 17t16.5 11t27.5 8.5t41 2h28q55 0 82 4t53 14.5 t52 16.5q41 7 69 35zM281 1094q74 -1 204 -21.5t223.5 -41t90.5 -23.5q0 6 -30.5 28.5t-39.5 24.5q-8 1 -71.5 27t-79.5 26q-32 0 -74 10q-73 17 -176 17q-37 0 -39 -4q-6 -9 -39 -17q-31 -5 -31 -14q0 -12 62 -12zM750 467q-9 0 -21 -16.5t-22 -16.5q-15 0 -15 -8 q0 -7 -55.5 -17.5t-56.5 -17.5q-7 -10 -33 -10q-19 0 -23.5 -14t-9.5 -80q-3 -32 -7 -67.5t-5.5 -56.5t-1.5 -52q0 -24 -54.5 -63.5t-60.5 -55.5q-20 -29 -33 -29q-12 0 -26 14q-15 11 -31 11q-13 0 -51 -6q-20 -5 -47 -5t-62 7q-1 0 -4 1t-4 1q-40 6 -54 26.5t-14 57.5 q0 12 2 42t2 48q0 85 8.5 326.5t8.5 320.5q0 54 -2 70v24q0 30 10 195q3 7 59 34.5t60 32.5q18 13 49 25q19 8 104 8q134 0 230 -14q27 -3 98.5 -34t83.5 -34q5 0 42 -27t46 -26q10 -3 15.5 -20t15.5 -23q17 -13 47 -76q29 -66 29 -113q0 -84 -86 -204q-22 -29 -31 -52 q-8 -20 -16 -20q-8 1 -22.5 -19.5t-31.5 -42.5t-30 -24z" />
<glyph unicode="Q" horiz-adv-x="1351" d="M852 319q-13 18 -17.5 55.5t-11.5 53.5q-13 29 -22 29q-15 0 -15 -45q0 -18 7 -62q8 -50 13.5 -69t14.5 -19t29 17q14 11 14 16q0 6 -12 24zM668 424q16 0 56 37.5t40 50.5q-5 8 -12 8q-10 0 -54 -41q-45 -42 -45 -49q0 -6 15 -6zM424 801q-9 0 -50.5 -64.5t-54.5 -101.5 q-12 -37 -12 -86q0 -75 25.5 -152.5t66.5 -117.5q28 -28 80.5 -54t81.5 -26q23 0 23 12q0 8 -2 16q-9 40 -17 49t-35 9q-22 0 -35 8t-32 31q-30 40 -43.5 65.5t-28.5 73.5q-22 74 -22 115q0 54 45 167q12 30 12 50q0 6 -2 6zM637 494q33 23 48 41t42 34q28 17 68 17 q29 0 48 -11t19 -32q0 -2 -1 -5.5t-1 -5.5q0 -23 19 -75.5t20 -59.5q6 -26 10 -26q5 0 11 18q22 64 22 152q0 67 -18 94q-15 38 -49.5 80.5t-49.5 42.5q-3 2 -33.5 23.5t-60.5 35.5q-71 33 -82 39q-17 10 -26 10q-13 0 -52 -20l-6 -4q-41 -22 -76.5 -79t-50.5 -126 q-4 -28 -4 -47q0 -57 18.5 -118t47.5 -91q28 -31 37 -31q6 0 6 10v15q0 23 25.5 55.5t68.5 63.5zM860 819q3 1 5.5 -4t3 -11t3 -11t5.5 -5q19 -6 59 -62t45 -81q7 -37 16 -37q7 0 7 -45q0 -76 -13 -133q-7 -31 -40.5 -99.5t-41.5 -68.5q-3 0 -6.5 -4t-3.5 -8q0 -10 -45 -42 t-59 -32q-13 0 -35.5 52t-26.5 100q-2 41 -22 41q-7 0 -29.5 -11.5t-34.5 -11.5q-13 -3 -15.5 -10t-2.5 -35q0 -21 12 -58.5t12 -58.5q0 -8 -4 -28q-5 -20 -9.5 -26.5t-14.5 -6.5q-11 0 -19 2q-135 25 -215 57q-18 7 -18 21q-3 7 -42.5 55.5t-43.5 73.5q-6 38 -27 59 q-14 11 -14 98q0 139 24 189q16 33 31 52.5t29 43.5q23 40 51.5 71.5t40.5 31.5q8 4 22.5 32t28.5 33q19 8 49 8q79 0 201 -61q107 -56 119 -68q4 -4 10 -4t8 2zM1040 88q-14 23 -28 23q-9 0 -29.5 -16t-34.5 -21q-37 -12 -37 -33t37 -45q7 -5 33.5 -29t52 -40.5t45.5 -16.5 t33 16q14 21 14 25q0 8 -18 14q-12 5 -26 29t-42 94zM485 1014q-9 -5 -59.5 -25t-65.5 -39q0 -8 -14 -8q-17 0 -57.5 -49.5t-77.5 -114.5q-40 -71 -63 -155t-23 -158q0 -67 16 -103q46 -111 74 -141q78 -94 160 -147q32 -20 58 -24.5t114 -6.5q127 -4 135 -12q9 -9 25 -49 q15 -39 76.5 -100.5t109.5 -86.5q39 -20 53 -20q16 0 33 10q38 22 55 35.5t17 25.5q0 18 -39 41q-43 25 -112.5 80.5t-86.5 85.5q-1 1 40.5 32t83.5 62.5t42 32.5q0 6 31 35t30 33q8 16 28 53t38 73t31 70q0 1 1 3.5t1 3.5q18 49 24 74.5t6 64.5q0 6 -1 24t-1 29 q-3 82 -7.5 104t-26.5 50q-35 45 -100 105t-99 77q-10 4 -51 27t-77 37t-67 14q-32 0 -55 -17q-31 -22 -51 -22q-14 0 -21 10q-5 8 -30 8q-55 0 -97 -22zM768 1114q15 -1 76.5 -28t73.5 -29q17 -2 23.5 -14.5t16.5 -14.5q22 0 128 -99.5t106 -119.5q0 -18 16 -31q6 -6 13 -6 q4 0 4 8q0 3 -4 27q-12 106 -45 139q-17 17 -17 27q0 9 -72 59.5t-94 54.5q-15 3 -32 15t-41 12q-20 0 -73 14.5t-73 14.5q-10 0 -18 -4q-8 -8 -8 -13q0 -12 20 -12zM412 1061q30 3 83.5 43t84.5 43q98 49 215 49q104 0 205.5 -40t173.5 -112q53 -51 73.5 -93.5t30.5 -123.5 q12 -83 12 -153q0 -118 -35.5 -214t-113.5 -192q-66 -82 -66 -102q0 -8 13.5 -29.5t21.5 -46.5q7 -26 34.5 -61t39.5 -35q20 0 63 -37q-53 -47 -73 -49q-7 2 -21 -22.5t-27 -50t-18 -25.5q-11 0 -53 -39q-71 -68 -109 -68q-18 0 -59 18.5t-41 26.5t-12 8q-24 0 -79 52.5 t-87 105.5q-25 40 -50 50t-110 11q-56 1 -84.5 8t-73.5 29q-166 79 -260 320q-27 74 -27 135q0 32 6 68t12.5 60.5t19.5 66.5t18 61q6 23 14.5 38.5t19 30t15.5 23.5q0 19 50.5 82t84.5 86q19 13 33 26.5t14 18.5q0 8 6 8q5 0 9 -2q7 0 23.5 13.5t23.5 13.5z" />
<glyph unicode="R" horiz-adv-x="1165" d="M465 614q36 0 74.5 35t38.5 84q0 26 -13.5 54t-25.5 28q-5 0 -7 -2q-8 -8 -8 -61q0 -36 -6.5 -53t-32.5 -44q-30 -35 -30 -37q0 -4 10 -4zM469 776q-3 49 -6.5 60t-20.5 14q-2 0 -4.5 1t-3.5 1q-10 0 -13.5 -15t-6.5 -69v-25q0 -57 8 -57q5 2 15.5 5t13 4.5t8.5 5 t7.5 8.5t3 13.5t1.5 20.5q0 3 -1 14t-1 19zM373 889q28 22 73 22q46 0 91 -22.5t69 -59.5q27 -41 27 -94q0 -58 -31 -100q-34 -43 -62.5 -57.5t-88.5 -22.5q-32 -4 -43 -4q-35 0 -47.5 13.5t-12.5 47.5q0 15 4 93q6 18 6 38q0 17 -5 50t-5 47q0 35 25 49zM414 324 q-8 0 -8 -80t18 -80q12 0 39 24l26 25q-1 1 -21.5 34.5t-34 53t-19.5 23.5zM897 166q63 -66 84 -66q6 0 6 6q0 24 -49 76q-38 44 -74 103q-10 17 -29 44t-31.5 51t-23.5 62q-15 50 -26 50q-8 0 -25 -17q-20 -20 -20 -43q0 -18 19.5 -51t21.5 -53q16 -36 36 -58t53.5 -49.5 t57.5 -54.5zM117 119v-64h18q43 0 45 11q0 6 43 6h27q6 0 18 -1t15 -1q22 0 34 2.5t17.5 12.5t6.5 19t2 34.5t3 45.5q0 3 1 8.5t1 8.5q20 186 33 229q3 14 14 14q24 0 72 -69q40 -64 75.5 -129.5t35.5 -77.5q8 -18 36.5 -58t36.5 -63h97q159 0 159 10t-36 53t-66 68 q-109 92 -109 109q0 10 -17.5 48t-25.5 44q-14 8 -14 57q0 31 8 39q61 64 125 137q12 14 21.5 63t9.5 103q0 48 -25.5 103.5t-60.5 81.5q-81 62 -234 65q1 1 -3 2h-11q-67 0 -190 -14.5t-127 -32.5q-3 -14 -11 -269.5t-16 -271.5q-8 -39 -8 -219v-104zM266 1133 q0 -11 -14 -11q-15 0 -33 -18q-6 -6 -6 -8q0 -13 201 -13q160 0 195 -3t77 -23q95 -45 139 -127.5t47 -208.5q13 23 18.5 35.5t10 36.5t4.5 55v16q-3 267 -305 285q-177 10 -231 10q-103 0 -103 -26zM848 442q0 -14 33.5 -70t81.5 -122q24 -36 118 -133q23 -23 23 -39 q0 -23 -41 -23q-23 0 -47 -16.5t-31 -38.5q3 -9 -67 -13t-168.5 -5t-116.5 -2q-47 49 -125 167q-28 -20 -68.5 -54t-44.5 -46q0 -25 -41 -35t-141 -12h-57q-79 0 -86 12q-9 50 -9 138q0 96 12.5 334t12.5 325q0 89 5.5 168.5t10.5 91.5q7 20 54.5 55.5t119.5 75.5 q32 18 60 22.5t113 6.5h20q113 0 197 -18t170 -60q35 -17 68 -67.5t52 -114.5q19 -65 19 -82q0 -19 -12 -72q0 -2 -1 -5t-1 -5q-13 -62 -36.5 -101.5t-80.5 -101.5q-25 -25 -25 -47q0 -17 2 -33q3 -25 15 -44t12 -36z" />
<glyph unicode="S" horiz-adv-x="1052" d="M563 338l8 4q-30 15 -75 29.5t-79 31t-67 48.5q-18 18 -43 18q-27 0 -47 -23q-12 -12 -12 -20q0 -2 1 -4.5t4 -5.5l5.5 -5.5l8 -8l9.5 -9.5q38 -32 74.5 -47t95.5 -24q22 -5 46 -5q27 0 71 21zM543 922q-15 0 -24 -9.5t-9 -23.5q0 -16 8 -29q10 -20 57 -53.5t89 -52.5 q60 -28 106 -70t61 -82q9 -25 20.5 -44t17 -35t8.5 -52q7 -55 14 -55q22 0 22 82q0 86 -24 151q-18 47 -42 77t-118 118q-56 52 -67 65q-10 12 -32 20.5t-40 8.5q-16 0 -19 -6q-10 -10 -28 -10zM158 295q0 -19 -21.5 -54.5t-21.5 -56.5q0 -28 188 -110q64 -28 90.5 -36.5 t55.5 -8.5q5 0 15.5 1t16.5 1q26 1 47 4.5t42.5 12.5t30.5 13.5t34 20t31 18.5q10 6 26.5 15l22 12t15.5 10.5t15 15t12 19.5t15 29q9 18 28.5 48.5t27.5 54t8 58.5q0 3 -5 48q-7 86 -22 108q-14 21 -14 35q0 26 -36.5 66.5t-80.5 62.5q-78 38 -138 85.5t-71 78.5 q-12 38 -12 59q0 27 18 45q13 13 64.5 31t76.5 18q9 0 11 -2q7 -6 37.5 -13t46.5 -7q8 0 8 2q0 7 20 59q13 37 13 47q0 11 -7 11t-20 -13q-2 -4 -10 -4q-11 0 -25 11q-23 16 -67 24q-78 8 -107 8q-103 0 -180 -45q-32 -18 -52 -74t-20 -120q0 -20 4 -56q3 -17 54.5 -63.5 t68.5 -46.5q3 2 76 -47.5t76 -48.5q14 0 49 -51t47 -89q17 -55 35 -78q10 -13 10 -26q0 -25 -22 -25q-6 0 -20 -13.5t-26 -31.5q-21 -28 -32.5 -36t-40.5 -9q-9 0 -26 -1t-25 -1q-62 0 -107 15.5t-123 62.5q-52 27 -63 27q-19 0 -19 -37q0 -15 -10.5 -20t-11.5 -13zM784 991 q0 -8 9 -8q18 0 49 25q41 35 54.5 54.5t18.5 47.5l1 9q2 9 2 14q0 14 -9 14q-22 -2 -73.5 -66t-51.5 -90zM823 1245q-18 0 -36 5t-23 10q-14 14 -127 14q-56 0 -80 -6q-32 -9 -85.5 -35t-78.5 -45q-22 -19 -22 -29q0 -6 8 -6q6 0 18 6q40 21 133 21q41 0 56 -6 q33 -12 123 -23q50 -6 69 -6q27 0 56 16q53 33 53 58q0 26 -64 26zM590 -14q0 -7 -38 -13t-83 -6q-59 0 -86 8q-54 12 -153 58.5t-134 75.5q-22 17 -28.5 30.5t-6.5 38.5q0 39 50 155t67 116q18 8 52 38.5t46 38.5q28 21 43 21q23 0 87 -58q24 -21 39 -28.5t35 -13t40 -15.5 q32 -14 49 -14q19 0 19 16q0 18 -21 55q-19 33 -98.5 94.5t-155.5 100.5q-51 26 -70.5 54.5t-41.5 95.5q-6 21 -6 49q0 39 11 83.5t23 69.5q15 30 15 51q0 30 65 95q45 47 90.5 73t130.5 56q53 20 138 20q66 0 94 -14q26 -13 83.5 -27t90.5 -30l6 -5q30 -14 38.5 -23 t8.5 -30q0 -20 -6 -63q0 -3 -1 -11t-1 -12q-6 -44 -21 -74.5t-32 -31.5q-17 -9 -51 -39t-56 -43q-19 -10 -34 -22t-15 -15q4 -9 43 -39q42 -35 83.5 -87.5t53.5 -88.5q23 -59 23 -135q0 -134 -64 -232q-16 -24 -41 -67.5t-40.5 -68t-46 -56t-70.5 -56.5q-20 -12 -39 -23.5 t-27 -16.5t-16.5 -10t-13 -7t-9.5 -4q-18 -7 -18 -14z" />
<glyph unicode="T" horiz-adv-x="1257" d="M786 688h-108q0 -12 1 -35t1 -35q0 -47 -3 -137t-3 -131q0 -116 18 -182q4 -12 4 -18q0 -5 -2 -18.5t-2 -18.5q0 -11 6 -11t19 13q10 0 18.5 34.5t13.5 89.5t8.5 105.5t5.5 102t3 59.5q11 119 20 182zM514 63q81 0 96.5 3.5t18.5 23.5q2 12 2 45q0 35 -5 126.5t-5 133.5 q0 30 4 66q6 44 6 80q0 37 -8 69q-7 16 -7 33q0 5 1 14.5t1 14.5q0 12 -4 20t-4 13q0 10 13 26q15 20 38.5 23.5t145.5 3.5h166v30q0 98 10 146q4 12 4 16q0 27 -61 27q-25 0 -76.5 -5t-67.5 -5h-10q-199 12 -366 12q-203 0 -275 -27v-104v-19v-38q0 -26 3.5 -36t15.5 -10 q7 0 18.5 3.5t19.5 6.5l9 3q34 12 127 12h71q50 0 64 -3.5t14 -21.5t-8 -51l-6 -26q-16 -83 -30.5 -303t-14.5 -289q0 -13 100 -13zM1036 807q7 0 32 15.5t40 29.5q17 14 25 131q2 29 2 68q0 47 -13 47q-10 0 -45 -41q-23 -27 -29 -49.5t-12 -96.5v-8q-4 -54 -4 -65 q0 -31 4 -31zM180 1034q0 -4 8 -4q15 0 33 6q42 11 162 11q35 0 89.5 -1t169 -2.5t226.5 -3.5q123 0 138 11q12 10 29.5 36.5t17.5 34.5q-10 6 -90 6h-64q-79 0 -94 5q-8 2 -33 2q-40 0 -74 -9q-34 -6 -125 -6q-49 0 -111.5 1.5t-106.5 3t-48 1.5q-12 0 -69.5 -41t-57.5 -51 zM1130 788q-12 -9 -25.5 -15t-24.5 -14.5t-27 -27.5l-35 -43h-178q-8 -47 -15 -237.5t-14 -237.5q0 -3 -1 -8t-1 -8q0 -18 6 -21q10 -5 10 -16q0 -19 -39 -58q-29 -28 -49.5 -40t-50.5 -39q-40 -37 -55 -37q-5 0 -17 4q-23 10 -137 10q-79 0 -101 6t-22 31q0 7 4 35 q7 50 19.5 275t15.5 360h-28q-102 0 -185 -17l-26 -6q-46 -8 -50 -8q-21 0 -26 24q-2 14 -4 82q0 5 -1 18t-1 19q-2 36 -4.5 74t-4.5 59.5t-2 24.5q0 13 62 83t74 70q5 1 12.5 5.5t17.5 12l18 13.5t18 14.5t13 10.5h41q29 0 111 -1t127 -1q166 0 186 10q13 8 41 8 q17 0 23 -2q32 -6 184 -14q120 -7 163.5 -21t43.5 -45q-4 -28 -4 -159v-79t-5.5 -41.5t-8.5 -20.5t-19.5 -12t-28.5 -20z" />
<glyph unicode="U" horiz-adv-x="1181" d="M731 926q0 -45 -5 -94.5t-17 -107t-19.5 -92t-24.5 -100t-20 -79.5q-6 -24 -19.5 -39.5t-13.5 -40.5q0 -42 -47.5 -80.5t-95.5 -38.5q-14 0 -20 2q-24 6 -75.5 51.5t-51.5 59.5q0 27 -24.5 73.5t-29.5 65.5q-4 24 -4 98q0 96 6 139q19 127 19 154q0 32 -15 41 q-9 7 -12.5 19.5t-3 23t-3 19t-13.5 8.5q-9 0 -43 -17q-21 -11 -28.5 -18.5t-17 -37t-12 -88t-2.5 -163.5q0 -13 -1 -36t-1 -34q0 -263 59 -400t156 -153q36 -4 78 -4q117 0 156 17l27.5 12.5t19.5 8.5t14.5 8.5t20 15.5t28.5 26q35 33 62.5 82t45 95t34.5 125.5t26 132 t25 155.5l8 51q18 123 18 185q0 59 -14 59q-3 1 -14.5 1.5t-28.5 1.5t-31 3q-10 2 -28 2q-41 0 -54.5 -23.5t-13.5 -88.5zM399 1075q-19 -7 -25 -47.5t-12 -48.5q-12 -12 -36 -322q0 -6 -1 -18t-1 -18q0 -119 36 -189q18 -33 59 -74t58 -41t17 7q0 10 -41 51 q-40 40 -56 98.5t-16 173.5q0 152 55 408q2 10 2 24q0 13 -6 13q-9 0 -33 -17zM256 1104q0 -7 -15.5 -10.5t-15.5 -10.5q0 -10 43 -10q1 0 3.5 -1t4.5 -1q29 0 75.5 31.5t49.5 48.5q-5 8 -24 8q-34 0 -77.5 -18.5t-43.5 -36.5zM969 518q8 50 31.5 164.5t38 214t14.5 188.5 q0 31 -4 89l-39 -41q-29 -29 -39 -45t-10 -33q0 -6 4 -32t4 -48q0 -23 -2 -35q-13 -118 -23.5 -196.5t-16.5 -113t-19.5 -101.5t-22.5 -119q-4 -35 -25 -78q-22 -49 -22 -64q0 -6 4 -6q5 0 24 25q31 42 63.5 114t39.5 117zM784 1116q0 -7 29.5 -11.5t60.5 -4.5q34 0 37 6 t14 19.5t25 30t19 22.5q-40 14 -66 14q-54 0 -84 -35q-6 -8 -15.5 -18t-14.5 -15.5t-5 -7.5zM1087 829q-2 -53 -33.5 -182.5t-31.5 -154.5q0 -23 -25.5 -78.5t-27.5 -63.5q-14 -51 -97 -146t-112 -102q-13 0 -39 -22q-49 -44 -125.5 -69t-157.5 -25q-71 0 -135 22 q-48 19 -107 69.5t-59 74.5q0 16 -8 16q-9 0 -27 55t-18 86q0 37 -12 49q-11 11 -11 74q0 50 9 62q5 7 16 190q12 225 18.5 286t18.5 66q14 7 14 31q3 23 70 72q68 49 98.5 64.5t69.5 15.5q5 0 16 -1t17 -1q83 -4 100.5 -12t17.5 -38q0 -37 -10 -47q-25 -25 -48.5 -204.5 t-23.5 -317.5q0 -59 7 -94q11 -43 28.5 -72t34.5 -29q12 0 12 -14q0 -16 15 -16q14 0 20 18q51 127 51 160q0 26 17 53q20 39 31 107.5t18 216.5l8 182l141 133l95 6q12 0 32.5 1t28.5 1q103 0 125 -22q12 -12 12 -103q0 -150 -22 -208q-11 -29 -11 -89z" />
<glyph unicode="V" horiz-adv-x="1363" d="M819 668q0 17 26.5 76t26.5 73q5 24 21 44.5t29 49.5q22 52 22 74q0 31 -43 31q-16 0 -35 4t-24 4q-14 0 -31 -14q-18 -14 -57.5 -105.5t-48.5 -136.5q-3 -16 -35 -84.5t-33 -87.5q0 -29 -31.5 -112t-42.5 -83q-12 0 -28.5 29t-16.5 49q-1 22 -12.5 39.5t-13.5 42.5 q-4 23 -33 88q-20 39 -55.5 141t-45.5 154q-4 26 -12.5 36.5t-28.5 16.5q-20 4 -41 4q-48 0 -110 -12q-21 -3 -21 -14l5 -10q45 -88 45 -115q0 -17 17 -42.5t17 -45.5v-17q0 -26 16 -76.5t25 -56.5q11 -7 11 -32q0 -23 14.5 -68.5t34.5 -79.5q10 -13 14.5 -56.5t9.5 -53.5 q7 -4 17.5 -63t13.5 -64q12 -17 31 -121q131 -15 155 -15q21 0 27 2q23 4 46 54t49.5 135t31.5 98q14 39 29 94.5t22 77.5l6 17q37 107 37 131zM733 184q27 0 56.5 34t29.5 63q0 38 17 55q12 15 57 101t45 95q21 52 43 101.5t35 78t45 96t49 103.5q61 134 61 150 q-11 0 -72 -36t-65 -36q-112 -129 -209 -489q-22 -92 -49 -144q-6 -14 -24.5 -86.5t-18.5 -85.5zM1159 1126q0 9 -43 9q-57 0 -86 -11q-24 -6 -33 -6q-8 0 -18 2q-17 0 -37 -9t-20 -17q0 -4 6 -7q55 -18 96 -18h10q22 3 70.5 25t54.5 32zM432 897q1 -24 17 -46t18 -46 q1 -19 41.5 -111t42.5 -108q3 -27 10 -27q8 0 14.5 24t6.5 52q0 21 -2 29q-2 11 -19 127t-26 139q-17 42 -27 119q-15 98 -31 98q-5 0 -13.5 -8t-21.5 -21t-26 -20l-31 -23q3 -13 16 -54.5t21.5 -74.5t9.5 -49zM432 1192q0 6 -33 6h-12q-29 -2 -55.5 -13.5t-77.5 -45.5 q-90 -63 -90 -72q0 -8 22 -8q26 0 84 14q34 9 98 55.5t64 63.5zM391 1253q48 0 66 7t35 26q8 0 33.5 -13.5t25.5 -17.5q4 -185 18 -231q33 -96 41 -170q12 -109 25 -109q10 0 22 48q10 35 20 60.5t25 59.5t27 64q43 109 129.5 159.5t247.5 59.5h27q66 0 115 -18t55 -45 q0 -14 -20 -31t-21 -25q0 -12 -23 -39q-26 -37 -79.5 -147t-94 -202t-41.5 -99q-17 -49 -77 -169.5t-75 -176.5q0 -20 -10.5 -32.5t-52.5 -47.5q-74 -59 -111.5 -98.5t-54.5 -85.5l-108 8q-46 3 -68 4.5t-44.5 6t-29.5 7.5t-16 14.5t-11 19.5t-8 30q-14 49 -38.5 157 t-55.5 197q-11 30 -55.5 177t-65.5 200q-6 17 -17.5 63t-35.5 94q-29 63 -29 82q0 7 2 7q9 1 12.5 16.5t8.5 17.5q24 15 73 54t85 63q59 40 79 47.5t70 7.5z" />
<glyph unicode="W" horiz-adv-x="1652" d="M670 422q-20 -29 -25.5 -101t-17.5 -96q-7 -12 -16 -39t-9 -39q0 -2 1.5 -4.5t2.5 -1.5q6 10 41 27q24 3 45.5 76.5t28.5 81.5q10 10 10 39q0 53 -20 88q-5 10 -11 10q-7 0 -18 -17q0 -1 -2 -4t-2 -4t-2 -4t-2 -4t-2 -4t-2 -4zM115 963q3 -20 45 -157t45 -159 q3 -29 14 -54t14 -44q0 -34 15 -55q17 -23 40.5 -162.5t35.5 -247.5q2 -12 71 -12q15 0 43.5 1t40.5 1h29q57 149 74 239q19 93 26.5 119.5t18.5 34.5q10 8 21.5 60t17.5 59q11 14 30 14q23 0 29 -18q3 -10 33.5 -80.5t32.5 -89.5q3 -24 19.5 -60t20.5 -61q10 -60 68 -236 l4 -16h207q6 16 25 55.5t31 71t16 61.5q0 25 6 31q2 -4 11 25q12 39 55 193q42 150 51 177q16 47 41.5 137.5t44.5 137.5l6 30l-105 -6q-87 -6 -114 -13.5t-27 -25.5q0 -1 1 -4t1 -4q0 -15 -18.5 -45t-18.5 -47q-4 -21 -20.5 -60t-22.5 -69q-20 -95 -61 -174q-8 -14 -23 -14 q-22 0 -31 24l-8 17q-65 145 -100 260q-3 12 -14 18t-11 25q0 24 -14.5 47.5t-19.5 46.5q-12 51 -35 51q-24 0 -58 -49q-40 -64 -47 -86q-10 -26 -25 -39.5t-28 -40.5q-7 -17 -27.5 -59t-32 -71.5t-20.5 -64.5q-8 -28 -22 -28h-9q-14 2 -21.5 16t-14.5 53q-17 89 -63.5 201 t-61.5 170q-65 -2 -105.5 -4.5t-64.5 -5.5t-32.5 -6t-8.5 -8zM1542 1018q2 8 2 20q0 15 -8 15q-10 0 -20.5 -14.5t-10.5 -30.5q0 -21 -10 -21q-11 0 -45 -74.5t-47 -130.5q-19 -76 -50 -164.5t-32 -93.5q0 -10 -25 -103t-47 -165q-12 -46 -12 -55q0 -6 4 -6q10 0 49.5 38 t40.5 39q40 24 62 142q13 76 34 137q40 104 115 467zM848 967q0 -21 9.5 -37t10.5 -25q3 -21 43.5 -109.5t44.5 -105.5q18 -57 31 -57q10 0 25 43l20 53q-47 47 -51 72q-6 39 -24.5 103.5t-28.5 78.5q-8 6 -21.5 52t-29.5 46q-11 0 -27 -16q-25 -29 -25 -45q0 -9 11 -16 q12 -8 12 -37zM383 1026q0 -32 55.5 -164.5t61.5 -159.5q0 20 21.5 51.5t43 57.5t21.5 33t-30.5 36t-31.5 42q-2 18 -24.5 76.5t-24.5 78.5q-1 7 -4.5 17.5t-7 18t-4.5 7.5q-12 0 -44 -39.5t-32 -54.5zM1526 1128q0 9 -68 9q-66 0 -104 -9q-23 -6 -71 -48t-48 -56 q0 -4 16 -4q34 0 95 11.5t75 21.5q32 20 35 20q9 0 39.5 24t30.5 31zM440 1192h-16q-22 0 -57 -10.5t-58 -10.5t-75 -34.5t-105 -87.5q0 -2 18 -2q8 0 33.5 1t40.5 1q59 6 94.5 27t85.5 75zM692 1038q13 25 22 34t28.5 22.5t43.5 38.5q34 37 53 48t44 11q27 0 34.5 -10 t26.5 -68q20 -73 39 -96q9 -7 13 -33.5t12 -34.5q5 -4 22 -60t23 -59q5 -2 16 27t22 59.5t15 32.5q5 5 10.5 34t20.5 32q13 3 71.5 62.5t77.5 88.5q10 17 29.5 20t99.5 5q115 4 129 10q28 12 37 12q8 0 8 -106q0 -170 -10 -197q-14 -34 -33 -127t-35 -169.5t-26 -84.5 q-12 -23 -33 -114q-23 -100 -40 -139.5t-42 -51.5q-31 -15 -99 -86t-83 -104q-23 -46 -48 -56t-120 -10h-70t-46.5 3.5t-32 7t-17 15t-12.5 22t-8 34.5q-19 70 -43 144l-5 10q-3 7 -5.5 14.5t-4.5 12t-3.5 9.5t-3 8l-2.5 5t-2.5 3t-2.5 1q-4 0 -10 -12q-11 -28 -11 -51 q0 -3 1 -8.5t1 -8.5q2 -12 2 -26q0 -10 -4 -13.5t-16 -3.5q-24 0 -80.5 -36.5t-56.5 -53.5q-4 -12 -30.5 -34.5t-45.5 -22.5q-6 0 -10 2q-9 6 -111.5 15.5t-111.5 14.5q-15 11 -15 43q0 60 -29 215.5t-47 196.5q-18 42 -36.5 137t-36.5 144q-35 96 -45.5 135.5t-10.5 81.5 q0 5 1 18t1 19q3 59 7.5 73t23.5 21q3 1 93 67t122 66h10q23 0 71 9t58 9q19 0 40.5 -21.5t21.5 -41.5t38.5 -130t39.5 -116q12 -31 16 -31q9 0 39 41.5t51 81.5z" />
<glyph unicode="X" horiz-adv-x="1482" d="M582 250q-13 -35 -45.5 -92.5t-49.5 -77.5q-10 -10 -10 -17q0 -4 4 -4q12 0 68 27q66 34 86 49.5t33 44.5q10 12 10 31q0 43 -47 90q-5 8 -13 8q-16 0 -36 -59zM1098 444q-1 18 -17 51t-16 58t-14.5 58t-26.5 36q-9 -2 -86 -41.5t-84 -46.5q-1 -10 45 -63t47 -64 q25 -62 51 -78q15 -10 15 -22q-1 -9 26.5 -45t26.5 -45q3 -12 18.5 -26t18.5 -30q9 -42 55 -88q43 37 80 80q-24 40 -60.5 104t-52.5 91q-21 38 -26 71zM774 981q0 -11 -43.5 -69t-42.5 -62q0 -9 -33.5 -40.5t-42.5 -31.5q-9 6 -33.5 62.5t-37.5 62.5q-33 33 -47 68 q-11 26 -20 33.5t-21 7.5h-17q-25 0 -41 8q-22 10 -69 17t-86 7q-43 0 -43 -10q0 -12 35.5 -56.5t35.5 -51.5q-2 -6 48.5 -73t48.5 -73q1 -12 12 -16.5t14 -15.5q20 -68 58 -93q14 -8 14 -30q0 -31 -27 -72q-160 -241 -227 -389q-21 -44 -21 -68t21 -24q12 -2 31 -7.5t37 -8 t49 -3.5h24q40 0 57.5 14t61.5 78q35 56 35 66t16.5 28.5t16.5 30.5q0 11 28.5 59.5t28.5 63.5q0 9 9 14t20 5q13 0 22.5 -5t9.5 -12q7 -18 28.5 -48t35.5 -62q22 -50 74 -112t71 -99q6 -27 117 -27h20q119 1 119 4q-8 4 -8 10q0 5 2 7q0 9 -26.5 37.5t-26.5 44.5 q-8 27 -46.5 77t-47.5 74q-11 24 -39 59.5t-35 51.5q3 6 -58.5 77.5t-60.5 73.5q0 6 31 37q68 72 136 167.5t71 119.5q3 17 10 29t20 27t21 28q18 30 18 37q0 5 -6 8q-22 12 -100.5 16.5t-93.5 7.5q-8 4 -15 4q-16 0 -40 -25.5t-35 -25.5q-6 0 -11.5 -4t-5.5 -8zM1292 1102 q-25 0 -64 -26.5t-63 -61.5q-17 -24 -43 -54.5t-46 -58t-38 -63.5q-25 -52 -36.5 -70.5t-34.5 -44.5q-5 -5 -13 -18t-8 -15q0 -4 -4 -8.5t-8 -7.5l-4 -2q2 -2 8 -2q14 0 41.5 13t34.5 24q4 10 55 69.5t61 83.5q5 13 22.5 29t25.5 33q26 53 62.5 105.5t55.5 64.5q4 4 4 6 q0 4 -8 4zM559 987q-1 -7 31.5 -46t32.5 -46q0 -12 6 -12q8 0 20 11t24 26t13 16q21 30 21 47q0 10 -13 39q-49 108 -82 160q-7 -11 -32 -37t-44.5 -49t-19.5 -33q0 -9 22 -39t21 -37zM1262 1157q18 12 18 19q0 12 -98 12q-68 0 -94.5 -6t-69.5 -31q-68 -36 -68 -47 q0 -14 103 -14q76 0 97 4t50 26q41 29 62 37zM178 1137q-2 -7 -18.5 -12.5t-16.5 -12.5q3 -6 27 -6q17 0 25 2t28 2q28 0 68.5 -4.5t86.5 -11.5t62 -9l140 134q0 6 -62 6q-82 0 -139 -8q-51 -6 -120 -33t-81 -47zM639 55q-20 0 -39 -8l-18 -8q-11 0 -101 -51 q-88 -49 -106 -49q-10 0 -10 14q0 17 -14.5 23.5t-53.5 9.5q-131 10 -150 32q-13 17 -26 17q-6 0 -10.5 7.5t-4.5 16.5q0 17 11 23q10 7 10 27q0 17 56 127t89 161q16 23 26.5 50.5t33.5 52.5q59 65 59 104t-53 101q-39 49 -39 57q0 9 -46.5 77.5t-57.5 78.5q-9 6 -23 28 t-18 39q-3 12 -14.5 17.5t-12.5 19.5q-1 11 -12.5 27.5t-30.5 38t-23 26.5q18 21 34 35t44.5 30t49 25.5t79.5 36t103 47.5q19 8 39 8q18 0 28 -4q21 -6 66 -6q77 0 131 14q18 0 37.5 -14.5t19.5 -32.5q0 -10 -6 -16q-4 -4 -4 -16q0 -27 32 -97l31 -69q3 -17 15 -17 q8 0 14 8.5t6 22.5q0 15 10.5 24t43.5 21q44 15 96.5 50.5t106.5 58t132 22.5q6 0 20 -1t21 -1q115 -7 162.5 -14t48.5 -23v-8q0 -24 -4.5 -34.5t-17 -23.5t-21.5 -30q-21 -41 -32 -41q-6 0 -40.5 -49t-66.5 -107q-15 -27 -34.5 -47t-33.5 -51q-8 -17 -29.5 -41t-35.5 -46.5 t-14 -47.5q0 -29 22 -66q16 -32 16 -61q0 -21 15.5 -52.5t15.5 -54.5q0 -34 10 -34q7 0 17 -28t16 -28q9 -4 14.5 -27t14.5 -28q13 -14 41.5 -66.5t28.5 -62.5q0 -7 -46 -53q-42 -42 -45 -76q-3 -45 -36 -54t-195 -9h-143q-8 40 -53.5 102.5t-65.5 69.5q-10 0 -10 -15 q-4 -26 -20.5 -55t-39.5 -29q-1 0 -4.5 1t-5.5 1z" />
<glyph unicode="Y" horiz-adv-x="1402" d="M813 655q-2 -1 -15 -17.5t-26 -32.5t-16 -15q-6 0 -9 -16.5t-10 -16.5q-6 0 -6 -74q0 -87 7 -214.5t16 -190.5q5 7 23 25.5t30 35.5t12 31q0 6 -2 10q-8 5 -8 80q0 45 4 162.5t4 161.5q0 61 -4 71zM334 698q14 0 14 -14q0 -12 31.5 -47t42.5 -35q18 -8 18 -31 q0 -5 -1 -15.5t-1 -16.5q0 -15 6 -27q2 -4 2 -29q0 -44 -8.5 -110.5t-17.5 -83.5q-4 -7 -8 -65t-4 -113q0 -71 6 -80q6 -11 32 -11q15 0 105 15q11 1 55.5 10.5t61.5 9.5q15 1 17.5 15.5t2.5 83.5q0 31 -9 181t-9 204q0 8 1 19.5t1 14.5q1 10 65 81.5t66 78.5q35 43 58.5 67 t62 58t77.5 72q1 1 19 18t30 29t23.5 28.5t11.5 26.5q1 5 -53 18.5t-108.5 24t-59.5 10.5q-20 -8 -46 -27t-40 -26q-24 -12 -74 -68.5t-81 -107.5q-10 -17 -24.5 -32t-20.5 -15q-21 0 -103 82q-75 75 -119 105t-84 30q-29 0 -88 -25q-39 -17 -39 -28q0 -8 23 -31 q11 -10 39.5 -63.5t34.5 -61.5q4 -5 23.5 -39.5t37.5 -57t31 -22.5zM463 1194q-11 0 -25 -21.5t-28 -21.5q-15 -1 -42 -25.5t-32 -38.5q111 -69 131 -92q8 -11 27 -17t24 -24q5 -14 19.5 -32.5t29.5 -18.5q11 0 19 10q17 17 37 45q10 17 10 25q0 12 -27 39q-8 8 -66 85 t-77 87zM342 1171q45 36 45 52q0 4 -6 4q-15 0 -43 -17q-17 -10 -35 -10q-14 0 -68.5 -55t-54.5 -66q2 -2 8 -2q19 0 65.5 28t88.5 66zM1010 1247q-15 0 -58 -39t-43 -53q-1 -7 50.5 -22.5t105 -29.5t55.5 -18q10 -10 23 -10q16 0 60.5 37t47.5 55q-14 7 -87.5 28t-92.5 32 q-36 20 -61 20zM328 1270q13 5 41 15.5t38.5 13.5t32.5 6.5t47 3.5q6 0 19 -1t20 -1v-43q0 -33 52.5 -105t105.5 -125q33 18 157 138.5t160 140.5q18 -4 96.5 -33t98.5 -33q99 -22 122 -31.5t23 -27.5q-5 -18 -24.5 -43t-38 -42.5t-47.5 -43t-37 -33.5q-24 -22 -92.5 -83 t-119 -108.5t-97.5 -95.5q-2 -75 -5 -258t-3 -190v-27q0 -66 10 -76q12 -12 12 -38q0 -23 -10 -23q-15 0 -113 -107q-24 -30 -43 -30h-10q-34 0 -133 -12.5t-150 -22.5q-24 -6 -41 -6q-27 0 -34.5 27.5t-10.5 119.5q0 8 -1 25t-1 24q0 80 24 186t30 150q-5 8 -22 38.5 t-30.5 52.5t-21.5 26q-15 8 -15 18q-7 12 -44 51t-48 66q-16 35 -35.5 56.5t-37.5 62.5q-12 25 -27.5 46t-24.5 26q-15 7 -20 30.5t-12 30.5q-7 3 -7 12q0 11 8.5 31t17.5 34t11 13q8 0 27 31q12 20 34 43.5t85 81.5q21 17 84 39z" />
<glyph unicode="Z" horiz-adv-x="1173" d="M1024 301q2 10 2 27q0 24 -8 24q-4 0 -10 -5.5t-17 -16.5t-18 -17q-29 -26 -38.5 -51t-31.5 -133q0 -10 -2 -16q-4 -24 -4 -29q0 -16 8 -16q7 0 19 12q10 10 31 30t27 28.5t17 31t16 53t9 78.5zM954 375q0 6 -11 10t-25 4q-18 0 -33 -6q-12 -6 -58 -6q-20 0 -98 4 q-74 4 -90 4q-28 0 -44.5 -3t-26 -14t-13 -20.5t-10.5 -34.5l-4 -12q143 2 204 3.5t104.5 6.5t52 9.5t22.5 17.5q30 30 30 37zM221 244q-31 -15 -42 -31t-11 -59q0 -4 1 -16.5t1 -20.5v-82h16q54 0 76 18q8 8 33 8q9 0 37 -4q30 -5 216.5 -14t194.5 -10q3 0 10.5 -1t10.5 -1 q74 0 74 45q0 8 -2 12q-2 6 -2 16q0 23 6 29t6 19q0 25 -23 38q-18 9 -18 27q0 2 1 6t1 6t1 6.5t1 6.5q0 10 -10 10q-13 0 -21 -2q-58 -8 -205 -8q-115 0 -124 6q-13 6 -13 20q0 18 29.5 56t30.5 45q0 20 26.5 47.5t55.5 56t32 47.5q6 14 67 77t68 77q17 38 48 65 q40 40 64 107.5t24 140.5q0 19 -4 51h-25q-43 0 -236 -11t-270 -11h-192l-9 -178h15q213 10 260 28q29 9 86 17t100 8q23 0 43 -4q25 -6 25 -31q0 -18 -17 -35q-16 -16 -16 -22q-9 -25 -78.5 -110t-85.5 -114q-21 -40 -31 -40q-6 0 -9.5 -15.5t-10.5 -15.5q-8 0 -20 -27 q-12 -29 -58 -78q-78 -90 -97.5 -114t-19.5 -31q0 -10 -10 -10zM1055 1069v16q0 56 -21 56q-10 0 -37 -17q-22 -16 -29 -24t-11.5 -26.5t-6.5 -59.5q-1 -13 -3.5 -40t-2.5 -36q0 -16 8 -16q4 0 21 10q13 10 37 20q45 16 45 117zM915 1128q57 40 97 86q-75 -2 -175.5 -13.5 t-195.5 -16.5q-203 -10 -287.5 -25t-115.5 -43q-7 -7 -17 -20t-10 -15q6 -6 123 -6q144 0 332 10q146 9 181.5 15t67.5 28zM1079 1290q12 0 18 -4.5t10 -26t4.5 -50.5t0.5 -93v-158q-76 -57 -180 -154.5t-111 -125.5q-3 -14 -14.5 -21t-13.5 -18q0 -12 -45 -61 q-59 -64 -81 -91t-22 -38q0 -13 25 -13q4 0 13 1t15 1h11q17 0 61 -4t64 -4q30 0 38 6q10 13 136 13h75q2 -16 2 -54q0 -36 -2 -81.5t-5.5 -103.5t-4.5 -89q-73 -47 -104 -78q-49 -47 -78 -57.5t-105 -12.5q-28 0 -75.5 -1t-67.5 -1q-241 0 -289 25q-2 2 -14 2 q-20 0 -93 -15.5t-95 -15.5q-13 0 -15 2q-14 3 -17 12t-3 50v200q75 65 189.5 205t172.5 234q19 28 45 54t43 54q17 26 17 37q0 6 -9 12q-15 9 -36 9q-42 0 -101 -29q-33 -18 -52.5 -23.5t-49.5 -5.5q-5 0 -20 1t-25 1q-12 2 -41 2q-52 0 -84 -8q-21 -6 -37 -6 q-24 0 -30.5 22.5t-6.5 88.5q0 94 -16 102q-15 7 -15 14q0 20 80 97q32 31 56 59.5t24 34.5q0 14 22.5 23.5t51.5 9.5h16q12 -2 39 -2q46 0 159.5 13t164.5 13h20q58 0 153 15.5t136 15.5h14q6 -2 17 -2q15 0 34.5 9t30.5 9z" />
<glyph unicode="[" horiz-adv-x="1005" d="M809 -57q2 0 2 8q0 9 -5 57.5t-5 71.5q0 31 -17 31q-15 0 -61 -39q-40 -33 -50 -49.5t-14 -63.5v-8q-4 -46 -4 -60q0 -26 11 -26t30 22q10 10 113 56zM686 135q0 15 -45 15q-33 0 -69.5 -8t-49.5 -21q-14 -11 -14 -21t33 -10q25 0 41 2q57 6 80.5 16t23.5 27zM449 723 q0 -19 -6.5 -43.5t-6.5 -46.5q0 -30 4 -53q6 -37 5.5 -146t5.5 -185.5t28 -76.5q18 0 26.5 58.5t12 134.5t8.5 94q6 23 13.5 99t7.5 134q0 79 -15 88q-14 11 -32 11q-22 0 -36.5 -19t-14.5 -49zM600 852v143h-14q-41 0 -84.5 -4.5t-99 -12.5t-80.5 -11q-55 -7 -58 -13 q-4 -28 -4 -59q0 -45 6 -88q23 -130 23 -701v-227h20q67 0 101 12q10 5 20 5q8 0 20.5 -8.5t28.5 -8.5h15q16 0 41.5 -7t31.5 -7q21 0 21 33v12q0 12 6 32.5t6 30.5q0 2 -1 6.5t-1 6.5q-3 10 -13.5 14t-41.5 4q-6 0 -23.5 -1t-30.5 -1l-104 -4q-1 4 -3.5 17.5t-4.5 27 t-2 23.5q0 16 4 20q6 6 6 47q0 29 -2 45q-4 32 -4 332q0 156 3 249t11 89q11 14 47 14q6 0 64 -4zM672 887q1 1 98 88v121q0 63 -12 63q-8 0 -17 -18q-15 -25 -41 -41q-21 -14 -26.5 -27t-5.5 -57v-33q0 -96 4 -96zM659 1169h-34q-85 0 -95 -10q-3 -5 -23.5 -11t-43.5 -7 q-44 -3 -76 -26.5t-47 -55.5q0 -4 25 -4q31 0 77.5 6t63.5 12q14 5 37 10t38.5 13.5t34.5 29.5zM643 1257q38 0 80.5 7.5t58.5 7.5q11 0 35 -4q6 0 27 -29q12 -21 12 -29q0 -10 -12 -34q-15 -24 -15 -60q0 -26 17 -133q2 -10 2 -25q0 -18 -21 -26q-13 -1 -95.5 -81 t-92.5 -83q-13 0 -21 -25q-6 -25 -15 -137t-9 -164q0 -20 2 -22q0 -1 1 -3t1 -3q0 -10 -14 -31q-15 -18 -15 -74q0 -34 4 -80v-8h19q26 0 101 6t108 6q29 0 41 -2v-10q0 -24 6.5 -94.5t13 -132t6.5 -64.5q0 -23 -15.5 -39.5t-35 -24.5t-49.5 -19.5t-47 -20.5q-13 -7 -28 -17 t-23 -14t-17 -4q-11 0 -57 19h-381q8 180 8 340q0 133 -8 347.5t-8 352.5v151q6 7 47 47t65.5 68t30.5 45q10 26 46 44t77 18q30 0 76 17t94 17z" />
<glyph unicode="\" horiz-adv-x="1126" d="M795 43q-14 57 -96.5 278.5t-98.5 299.5q0 16 -10 26q-20 50 -62.5 175.5t-74.5 195.5q-25 52 -43 100t-41 99h-43q-99 0 -99 -19q-5 -10 -12 -10q-2 0 -5.5 1t-4.5 1q-6 0 -6 -8q0 -11 2 -17q6 -34 33.5 -105t37.5 -85q12 -15 20.5 -47t20.5 -60q99 -248 150 -346 q15 -17 63.5 -158t63.5 -167q4 0 7 -9t3 -12q0 -14 15.5 -50.5t15.5 -45.5q0 -18 39 -31.5t80 -13.5q32 0 45 8zM762 334q7 -14 12.5 -41t16.5 -45q8 -4 40.5 -101.5t45.5 -97.5q12 0 43 23q26 20 26 34q0 5 -8 29q-9 22 -21.5 70t-29.5 80q-14 27 -30.5 88.5t-37.5 89.5 q-18 24 -46 125.5t-44 130.5q-6 11 -8.5 35.5t-9.5 33.5q-16 23 -58 144t-55 149q-12 26 -24.5 56.5t-26 67t-21.5 55.5l-4 8q-8 18 -13.5 25t-14.5 7q-15 0 -37 -22q-2 -2 -7 -6.5t-6.5 -6.5t-3.5 -6t-2 -8q0 -5 8 -37q13 -44 75.5 -203.5t82.5 -228.5q31 -104 80.5 -252 t77.5 -196zM352 1346q-61 0 -88 -21q-16 -11 -16 -18q0 -11 31 -11q12 0 36.5 2t32.5 2h10q32 3 45 25q1 2 2 5t2 4.5t1 2.5q0 9 -56 9zM567 1339q0 -17 31.5 -93t32.5 -85q47 -105 121 -317.5t92 -261.5q8 -20 22 -60t22.5 -63.5t22 -56.5t27.5 -62q17 -35 38.5 -109 t35.5 -102q10 -17 10 -39q0 -17 -54.5 -68.5t-74.5 -52.5q-12 -2 -47 -2q-60 0 -137.5 6t-83.5 11q-11 8 -11 22l-21 40q-55 114 -67 120q-14 14 -17.5 38.5t-10.5 39.5q-12 23 -29.5 90t-28.5 90q-25 55 -66.5 140t-45.5 89q-3 12 -8.5 34.5t-8.5 32.5t-14 35t-29 62 q-11 19 -15.5 43.5t-10.5 38.5q-25 49 -45.5 100t-20.5 64q0 21 -18 57q-9 18 -16 66.5t-7 83.5q0 33 6 33q9 4 36.5 27t59.5 52t42 37q71 -1 115 -2.5t78.5 -5.5t51.5 -8.5t27.5 -14.5t13 -20.5t2.5 -28.5z" />
<glyph unicode="]" horiz-adv-x="972" d="M350 1122q-20 -36 -20 -127v-26l35 6q94 16 112 16q26 0 29 -12v-27q0 -39 -7 -146t-7 -165q0 -8 1 -24.5t1 -24.5q4 -110 4 -133q0 -78 -9.5 -148t-9.5 -137q0 -240 -8 -248q-4 -4 -14 -4q-18 0 -62 9.5t-49 9.5q-3 -3 -10 -45q-4 -24 -4 -29q0 -10 4.5 -14t17.5 -9 q15 -6 90 -6q64 0 129 4.5t74 10.5q6 3 6 36q0 6 -1 20t-1 21q-8 132 -8 465q0 411 16 484q3 14 9 75.5t6 102.5q0 49 -10 49q-84 10 -314 16zM770 1051v22q0 92 -10 92q-5 0 -8 -39q-6 -62 -18 -155t-20 -178t-12 -195q-4 -126 -4 -215q0 -188 8 -342t19 -154q8 0 37 21 q20 12 20 33q0 2 -4 34q-10 51 -10 641q0 331 2 435zM719 1219q0 12 -39 22q-45 10 -84 10q-113 0 -143 -49q6 -2 106 -8t107 -12q1 0 4 -1t4 -1q16 0 30.5 12t14.5 27zM817 -145q-22 0 -22 -11q0 -10 -20.5 -15t-41.5 -12.5t-22 -23.5q-1 -17 -19.5 -31t-36.5 -14 q-6 0 -14 4q-13 10 -172 10q-99 0 -132.5 4t-47.5 17q-29 23 -29 76q0 36 8 80q8 50 17.5 68t31.5 18q18 0 45 -9q28 -8 48 -8q9 15 12 186t5.5 370t8.5 255q6 40 6 62q0 20 -6.5 26t-25.5 6q-22 0 -45 -2q-66 -8 -74 -12q-2 -2 -8 -2q-21 0 -21 49q0 13 4 41 q22 113 30.5 147t22.5 58q15 26 83.5 70.5t93.5 44.5q17 0 24 10h98q127 -17 175 -28.5t57 -26.5q4 -12 4 -21q0 -6 -4 -18q-25 -52 -25 -369q0 -82 -1 -208.5t-1 -172.5q0 -273 6.5 -387t20.5 -158q4 -16 4 -26q0 -21 -10 -34t-27 -13z" />
<glyph unicode="^" horiz-adv-x="970" d="M461 846q10 7 10 28t-14 21q-29 -15 -50.5 -58t-35.5 -57q-27 -40 -27 -47q0 -4 6 -4q9 0 27 6q22 2 49 53.5t35 57.5zM741 745q-1 5 -16.5 22t-15.5 26t-30.5 83.5t-47.5 106.5q-5 7 -7.5 34t-11.5 30q-9 0 -16 28q-5 20 -23.5 85.5t-21.5 78.5h-33q-58 0 -84 -18.5 t-63 -83.5q-14 -25 -41.5 -71.5t-40.5 -70.5q-9 -18 -46 -66t-44 -69q-4 -11 -16 -16.5t-13 -18.5q-1 -12 -10.5 -19.5t-9.5 -27.5q0 -16 33.5 -44.5t45.5 -28.5t36 22t24 35q3 12 14 18t16 21t31.5 53.5t30.5 48.5q9 17 49.5 57.5t48.5 40.5q12 0 28.5 -26.5t16.5 -46.5 q0 -19 14 -38t19 -46q10 -58 33 -106t39 -48q17 0 64.5 23.5t47.5 31.5zM690 1337q-11 -3 -18 -13.5t-21 -14.5q-13 -6 -18 -17.5t-8 -40.5v-18q0 -21 9 -43t9 -47q0 -39 14 -53q8 -10 36 -82t54.5 -136t34.5 -63q5 0 35.5 35t30.5 41q0 11 -18 48.5t-25 41.5 q-8 11 -12 43.5t-13 46.5q-6 9 -25.5 76.5t-27.5 77.5q-4 0 -4 6q0 4 2 6t2 12q0 23 -13 57t-24 37zM659 1384q0 13 -25 18t-38 5q-20 0 -50.5 -24t-51 -48t-19.5 -28q4 -4 17 -4q25 0 62 13t48 27q13 15 31 22t26 19zM61 756q-1 5 55 89.5t54 88.5q7 12 42 54t48 75 q7 20 68 108t63 119q0 17 32 50.5t118 107.5q3 2 7.5 6t7 6t6 5t5 4.5t4.5 3.5l4.5 3t4 2t4.5 1.5l4 1t4 0.5q4 0 16 -4q20 -8 63.5 -11t67 -14.5t23.5 -46.5v-19q0 -27 16.5 -75.5t16.5 -67.5q0 -27 30.5 -117.5t59.5 -150.5q24 -52 24 -82q0 -34 -32 -66 q-12 -12 -29.5 -48t-35 -62.5t-36.5 -26.5q-12 0 -26 -14q-30 -30 -125 -55q-25 -7 -37 -7q-31 0 -31 29q0 11 -16.5 27.5t-16.5 29.5q-4 24 -14 50t-21 26q-8 0 -14 -18q-4 -14 -32 -39.5t-40 -28.5q-18 -5 -72 -44.5t-87 -41.5q-20 0 -39 20t-37.5 42t-36.5 24 q-7 0 -38.5 30t-31.5 36z" />
<glyph unicode="_" horiz-adv-x="1222" d="M498 145q-15 9 -54 9q-32 0 -105 -8.5t-97 -8.5q-29 0 -56 -6.5t-34 -13.5q-23 -20 -23 -70q0 -26 8 -39q6 -12 6 -16q0 -10 -8 -15q-12 -6 -12 -10q0 -10 88 -10q17 0 221 4q165 4 305 13.5t146 15.5q6 7 15 67.5t9 81.5q-3 6 -57 6q-31 0 -122 -3t-134 -3q-72 0 -96 6z M1096 170q0 68 -13 68q-17 -1 -45 -21t-28 -31t-21 -45q-10 -14 -17 -44.5t-7 -53.5q0 -16 4 -18q2 -2 6 -2q13 0 40.5 15t47.5 34q22 21 27.5 36.5t5.5 61.5zM956 211q0 17 19.5 36.5t48.5 31.5q27 12 27 18q0 12 -70 18q-50 4 -86 4q-59 0 -206 -8t-218 -8h-190 q-8 -8 -28 -29t-35.5 -36.5t-27.5 -24.5q-20 -17 -20 -23t18 -6q10 0 27 2t42 4.5t42 4.5q127 10 156 10q32 0 77 -10q28 -7 84 -7q85 0 103 11q9 6 92 6t117 -6q6 -2 14 -2q14 0 14 14zM1161 332q0 -156 -8 -211q-5 -42 -15 -58t-57 -47q-27 -18 -52 -38l-32.5 -26t-32 -14 t-55.5 -11t-98 -7q-103 -6 -201 -9t-218 -5.5t-206 -5.5q-26 -1 -53 -4t-44 -6t-19 -3q-9 0 -9 76q0 103 15 180q8 33 19 53t20.5 28.5t34.5 27.5l133 102q460 8 532 19q4 4 37 4q53 0 139 -9t115 -18z" />
<glyph unicode="`" horiz-adv-x="868" d="M211 1153q-9 0 -40.5 -30.5t-31.5 -39.5q0 -14 87 -91t104 -77q8 -4 44 -34t56 -37q22 -7 55 -33q7 -10 15 -10q10 0 24.5 12t28.5 28t18 19q-73 73 -77 86q-18 19 -96.5 95.5t-104.5 109.5q-24 35 -43 35q-12 0 -19 -17q-8 -16 -20 -16zM365 1176q1 -10 123 -136 t124 -133q13 -20 29 -20q22 0 61 33l33 24q-30 35 -215 227q-120 124 -129 121q-69 -10 -69 -49q0 -20 20 -37q23 -23 23 -30zM383 1391q10 0 152.5 -139t142.5 -148q0 -10 80 -92q49 -49 49 -62q0 -11 -27 -38t-37 -27t-14 -8q-6 -14 -54 -47t-61 -33q-22 0 -65 -43 q-44 -41 -60 -41q-14 0 -20 24q-6 23 -49.5 38t-54.5 28q-15 18 -72 53t-70 47q-28 23 -90.5 88t-69.5 78q0 1 -1 3t-1 3q0 16 54 70q51 54 51 67q0 7 -4 11q-6 6 -6 10t12 10q14 8 42.5 24t42 24t35 24t40.5 35q41 41 55 41z" />
<glyph unicode="a" horiz-adv-x="1026" d="M444 262q13 0 13 4q0 7 -11.5 23t-23 27.5t-12.5 9.5q-22 -5 -66 -43q-25 -22 -25 -35q0 -10 12 -17.5t27 -7.5q33 0 56 23q16 16 30 16zM401 381q27 0 44.5 -13.5t31.5 -33.5t25 -27q18 -12 18 -26q0 -18 -43 -64q-11 -11 -27.5 -23.5t-17.5 -11.5q-3 0 -14 -7t-15 -7 t-4 4q-2 2 -6 2q-7 0 -10 -8q-8 -14 -37 -14q-9 0 -29 4q-19 4 -42 37t-23 53q0 19 34.5 60.5t49.5 41.5q8 0 16 17q6 16 49 16zM166 412q18 0 49 12.5t45 24.5q17 13 75.5 33t98.5 26q51 9 53 33q0 8 -11.5 10t-53.5 2q-41 0 -65.5 -6.5t-53.5 -24.5q-42 -25 -89.5 -63 t-47.5 -47zM242 78q13 0 33.5 -10.5t48.5 -10.5q47 0 47 11q0 10 22 10q20 0 58 22t38 33q0 10 13 10q9 0 51 33q31 25 57 25q27 0 27 -23v-8q-2 -4 -2 -23q0 -17 4 -57q4 -42 10 -51t31 -12q2 0 7 -1t7 -1q23 0 43 20q13 13 17 35.5t4 87.5v16q0 47 7 101t7 84q0 42 -4 73 q-9 88 -36.5 147t-80.5 103q-68 58 -104.5 77.5t-93.5 25.5q-75 8 -84 10h-9q-22 0 -61 -12.5t-49 -22.5q-8 -10 -31 -10q-10 0 -10 -8q0 -11 14 -43q3 -6 6 -13.5t4.5 -10.5t3 -7t3.5 -5l4 -2t6 -1q10 0 18 2q6 0 11.5 4t5.5 10q0 15 43 33t80 18h8q35 -1 70.5 -25 t35.5 -46q0 -15 17 -25q14 -8 14 -41q0 -27 -2 -45q-6 -81 -21.5 -98t-80.5 -17q-73 0 -76 -14q-7 -14 -33 -14q-47 0 -176 -99q-43 -34 -43 -77q0 -23 14 -58q13 -31 50.5 -65.5t56.5 -34.5zM834 88q10 0 10 10q4 11 65 49q0 14 1 44.5t1 46.5q0 148 -15 271t-48 165 q-25 31 -25 51q0 10 -10 10q-13 10 -63.5 70.5t-71.5 73.5q-30 18 -48.5 23t-58.5 5h-24q-49 -1 -87.5 -5t-58.5 -9.5t-20 -11.5q0 -15 78 -21q76 -6 123 -28.5t112 -83.5q81 -76 110.5 -150t29.5 -215q0 -56 -7 -182q-2 -27 -2 -64q0 -49 9 -49zM285 887q-1 6 15 14 t32 15.5t16 11.5q-1 5 30.5 15t64.5 17t40 7q56 6 97 6q64 0 109.5 -25.5t119.5 -101.5q28 -30 42 -58t44 -65q24 -31 33.5 -45t17.5 -56.5t10.5 -85.5t6.5 -159q0 -5 1 -17t1 -18v-215q-88 -81 -136 -113q-49 -36 -49 -45q0 -4 -35 -4q-38 0 -87 5.5t-58 11.5 q-13 13 -16 63q-6 66 -21 66q-5 0 -8 -7q-12 -18 -56.5 -48.5t-58.5 -30.5q-20 0 -41 -17q-22 -16 -96 -16q-50 0 -57 10q-3 5 -13 8.5t-14 3.5q-11 0 -52.5 31.5t-45.5 32.5q-8 0 -8 16q0 14 -17 27q-26 23 -35 143v19q0 43 16.5 82t57.5 98q19 24 85 73.5t79 49.5 q18 0 27 12q2 8 34 13t67 8t40 6q-21 47 -68 47q-55 0 -114 -68q-15 -18 -47 -18q-16 0 -27.5 6t-11.5 16q0 2 -29 66q-25 55 -25 94q0 23 11 23q10 0 10 12q0 11 43.5 42.5t60.5 31.5q15 0 15 10z" />
<glyph unicode="b" horiz-adv-x="948" d="M395 272q0 -4 8 -4q15 0 41 10t37 21t11 12q0 4 -11 4q-20 -2 -53 -18t-33 -25zM498 369q37 0 37 16q0 11 -27 41q-24 27 -35 27q-12 0 -18 -31q-4 -20 -4 -27q0 -15 10.5 -20.5t36.5 -5.5zM336 367q5 -50 20 -50q12 0 23.5 29t11.5 60q0 14 2 34.5t2 26.5q0 16 -10 16 t-18 -4q-33 -14 -33 -84q0 -4 1 -13.5t1 -14.5zM287 469q9 37 34 57.5t60 20.5q31 0 74 -19q60 -29 100.5 -74t40.5 -83v-9q-12 -62 -90 -112.5t-148 -50.5q-55 0 -71 34q-13 26 -13 99q0 83 13 137zM670 725q-4 2 -14 8.5t-15.5 9t-16 6.5t-22.5 5.5t-27 1.5q-45 0 -45 -8 q0 -5 15 -13t24 -10q10 0 57.5 -36.5t75.5 -67.5q22 -23 40.5 -60.5t58.5 -138.5q11 -23 12 -23q2 0 2 15q0 3 -4 61q-6 89 -23 109q-16 20 -16 28q0 9 -47 61t-55 52zM168 78q16 0 30.5 -8.5t20.5 -8.5q1 0 4 1t4 1q3 3 6 3q11 0 11 -9q0 -10 32 -10q19 2 26 6.5t7 16.5v10 q0 8 15 8q28 0 67 -22q17 -17 53 -17q46 0 84 19q7 10 29 10q17 0 53.5 17.5t40.5 27.5q4 8 17 8q9 0 21 23.5t38 87.5q12 34 12 77q0 106 -51 203q-13 27 -55.5 71t-54.5 44q-11 0 -11 10q-9 15 -58 25t-103 10q-59 0 -84 -10q-19 -8 -43 -8q-13 0 -15 2q-6 3 -6 22 q0 4 1 85.5t1 82.5q0 44 2 92.5t2 57.5q0 26 -6 35.5t-25 15.5q-79 -13 -102 -15q4 -278 4 -395q0 -160 -8 -254v-213q0 -57 2 -65q4 -24 11 -30.5t28 -6.5zM401 1135q-3 -1 -26.5 -29t-30.5 -27q-5 0 -11 -43t-10 -106t-4 -117q0 -55 13 -55q10 0 28 18q15 3 23.5 67 t12 143t5.5 91q5 35 5 37q0 21 -5 21zM373 1196q0 8 -62 8q-45 0 -57 -4q-13 -4 -49.5 -37t-36.5 -41q0 -4 25 -4q29 0 65.5 5.5t42.5 11.5q10 10 31 10q12 0 26.5 17t14.5 34zM836 268q-1 -11 -16 -24t-15 -29q0 -19 -65.5 -94.5t-80.5 -75.5q-9 0 -41 -14 q-96 -41 -174 -41q-38 0 -59 12q-3 6 -10 6q-11 0 -37.5 -19.5t-32.5 -19.5q-8 0 -8 11q0 8 -66 20.5t-122 15.5q-29 2 -36 6.5t-10 24.5q0 3 -1 7.5t-1 6.5q0 9 5.5 29t5.5 41q0 31 -11 90q0 71 4.5 175t8.5 181.5t4 81.5v95q0 251 -12 319q0 23 53 76q32 30 48.5 54 t43.5 44q42 27 137 27q87 0 113 -23q16 -13 16 -30q0 -11 -10 -76q0 -13 -2 -19q-14 -85 -14 -184v-33q0 -90 8 -90q220 0 299 -88q56 -62 73.5 -91t36.5 -91t19 -105q0 -51 -29 -114q-22 -46 -22 -62z" />
<glyph unicode="c" horiz-adv-x="1007" d="M860 305q-21 49 -37 49q-10 0 -26 -16q-23 -20 -23 -47q0 -37 37 -70l31 25q26 20 26 33q0 2 -8 26zM530 276q31 0 53 5.5t43 14t36 11.5q8 0 19 6.5t11 14.5q0 6 -22 6q-29 0 -52 -2q-10 -2 -34 -2q-80 0 -142.5 30t-62.5 82q-10 50 -21 50q-6 0 -6 -21q0 -13 -9 -28 t-9 -27q0 -11 6 -29q25 -64 63.5 -87.5t126.5 -23.5zM455 59q23 8 85 14.5t101 30.5q64 39 66 43q5 11 18 11q20 0 20 26q0 36 -28 58q-9 6 -19 6q-13 0 -34 -6q-89 -21 -162 -21q-135 0 -178 68q-45 74 -45 127q0 49 36 104q17 17 17 27q0 22 43.5 51t85.5 37q6 2 20 2 q38 0 119 -37q12 -6 18 -6q12 0 33 24q41 44 41 62q0 9 -14 12q-18 6 -29 20.5t-33 22.5q-38 15 -84 15q-114 0 -221 -84q-40 -33 -100.5 -112.5t-67.5 -111.5q-14 -55 -14 -108q0 -79 31.5 -140.5t89.5 -95.5q32 -19 82.5 -31t89.5 -12q17 0 33 4zM528 805q37 0 92 -20.5 t80 -43.5q12 -12 23 -12q33 38 33 64q0 17 -15 27.5t-47 23.5q-1 0 -3 1t-3 1q-25 10 -59 10q-20 0 -42 -4t-48 -11t-39 -10q-25 -6 -25 -12q0 -3 5.5 -6t18.5 -5.5t29 -2.5zM61 328q0 56 50.5 167.5t91.5 145.5q10 0 10 16q0 17 29 51.5t55 47.5q40 23 78 61 q34 33 89.5 60.5t108.5 37.5q25 5 35 5q55 0 113 -24t88 -60q20 -23 20 -54q0 -22 -14 -22q-10 0 -10 -10q2 -5 -59.5 -89.5t-59.5 -89.5q-2 -13 -65 -84q-37 55 -64 72q-21 12 -33 12q-7 0 -30 -10q-56 -26 -56 -90q0 -42 36 -59t126 -19h14q63 0 118 12t69 27q7 10 18 10 q32 0 62 -47q10 -16 26 -36.5t25 -36.5t14 -39q0 -12 -49 -58.5t-61 -46.5q-9 0 -9 -16q0 -6 -13.5 -18t-31.5 -21q-69 -40 -127 -78q-37 -24 -106 -37.5t-141 -13.5q-95 0 -142 20q-42 19 -90.5 61.5t-48.5 61.5q0 15 -14 29q-12 12 -32 74t-20 88z" />
<glyph unicode="d" horiz-adv-x="1105" d="M412 340q-17 41 -33 41q-7 0 -12 -10.5t-5 -24.5q0 -29 17 -49q35 -41 67 -41q5 0 14 2l9 2q16 3 16 6q0 2 -22 15q-31 18 -51 59zM467 360q0 -8 42.5 -30.5t59.5 -22.5q23 0 23 25q0 13 -6 37l-17 94q-5 32 -9 40.5t-17 8.5h-8q-46 -3 -60.5 -13t-28.5 -46 q-8 -19 -8 -33q0 -16 13.5 -32.5t15.5 -27.5zM467 557q20 4 37 4q31 0 62.5 -6.5t41.5 -15.5q13 -9 19.5 -78t13.5 -80q8 -13 8 -37t-9 -47t-24 -35q-78 -63 -165 -63q-44 0 -59.5 6t-41.5 35q-47 47 -47 94q0 46 45 141q9 20 49.5 48t69.5 34zM608 782q0 10 4 26.5t4 20.5 q0 5 -4 9q-22 -2 -89.5 -27.5t-67.5 -34.5t75 -12q18 -2 45 -2q22 0 27.5 4t5.5 16zM842 1071q0 4 -4.5 7t-14.5 4.5t-19.5 2.5t-25.5 1.5t-25.5 0.5h-25.5h-33v-118q0 -95 -14 -129q-12 -28 -12 -49q0 -8 4 -24t4 -28q0 -18 -4 -30q-8 -31 -25 -31q-14 0 -39 14 q-23 11 -116 19q-4 0 -13.5 1t-13.5 1q-42 0 -79.5 -16t-54 -30t-46.5 -42q-5 -10 -65.5 -77.5t-65.5 -80.5q-3 -6 -11.5 -24t-12 -27.5t-8.5 -30.5t-9 -47q-2 -12 -2 -35q0 -111 77.5 -192.5t182.5 -81.5q25 0 49 6q126 27 147 61q1 7 47.5 10t47.5 9q12 4 18 4 q15 0 25 -10.5t10 -28.5q3 -33 12 -33q2 0 8.5 2t7.5 2h7h6h6q45 8 59.5 28t14.5 75q0 28 7 72t7 65q0 27 -4 41q-21 89 -21 395q0 184 13 260q6 38 6 66q0 16 -2 18zM938 1141q-9 0 -14 -8.5t-11 -37.5t-14 -89q-14 -115 -14 -263q0 -143 12 -299q8 -99 8 -161 q0 -43 -6 -84q-8 -50 -8 -66t4 -16q11 0 45 27t41 42q1 -1 2.5 90t2.5 236.5t1 275.5q0 383 -8 383q-6 0 -20 -15t-21 -15zM772 1206q-10 0 -27.5 -19t-17.5 -28q2 -4 72 -8h22q20 0 35.5 4t22.5 8t20.5 15t20.5 16q14 8 14 14q0 3 -3 5t-11 4l-14 3.5t-19 3.5t-19 3 q-16 4 -37 4q-14 0 -23 -4t-18.5 -11t-17.5 -10zM788 -6q-72 0 -96 -12q-9 -9 -16 -9q-13 0 -22 19.5t-9 32.5q0 20 -20 20q-21 0 -60 -25q-32 -21 -102.5 -39t-116.5 -20q-31 0 -76.5 19.5t-70.5 42.5q-28 24 -39 24q-22 0 -70 98q-18 35 -23.5 58.5t-5.5 72.5v37 q2 75 6.5 99.5t24.5 54.5q29 52 29 57q0 11 8 11q11 0 18 24q13 44 158 189q43 45 88.5 69.5t122.5 46.5q10 3 28 8t24.5 7t18.5 7.5t16 10.5t10.5 13.5t8.5 20t4.5 27.5t2.5 37v29v59t3.5 40.5t7.5 31.5t16.5 24t25 26t39.5 30q20 15 37 31t28 23t33 14q20 -10 107.5 -21 t107.5 -20q6 6 8 -78t2 -236q0 -154 -2 -340.5t-5 -309.5t-5 -118q-2 -10 -49 -64.5t-88 -92.5q-21 -20 -38.5 -24.5t-68.5 -4.5z" />
<glyph unicode="e" horiz-adv-x="1075" d="M565 692q0 21 -26 21q-27 0 -39 -23q-6 -12 -6 -20q0 -11 14 -11q3 0 6.5 1t8.5 2t9 2q33 8 33 28zM391 653q0 -16 6 -16q10 0 27.5 24.5t17.5 38.5q0 9 -8 9q-10 0 -26.5 -21t-16.5 -35zM434 768q16 0 44.5 10t37.5 10q12 0 34 -13.5t30 -24.5q8 -15 22 -15q27 0 27 -41 q0 -8 -4 -32q-6 -35 -18.5 -44.5t-63.5 -15.5q-57 -8 -66 -14q-13 -8 -43 -8q-37 0 -71.5 12t-34.5 26q0 17 -6 41q0 25 42 67t70 42zM944 250q0 18 -14 35q-10 10 -12 10q-9 0 -29 -23q-15 -15 -28 -47t-13 -51q0 -14 8 -14q11 0 49.5 39t38.5 51zM406 410q-24 0 -34 -5 t-10 -20q0 -16 9 -43q6 -22 13 -36t18 -21.5t20 -11t27.5 -9t31.5 -10.5q57 -23 113 -23q6 0 41 5q37 6 37 14q0 10 -35 10q-3 0 -12 -1t-13 -1h-16q-27 0 -50.5 15.5t-27.5 17.5q-11 2 -29 25.5t-32 58.5q-9 22 -19 28.5t-32 6.5zM131 528q0 -30 -10 -63q-4 -20 -4 -41 q0 -58 14 -131.5t31 -91.5q23 -29 44.5 -47.5t35.5 -26t43.5 -21t52.5 -26.5q26 -29 154 -29q101 0 147 17q14 5 47 11t59.5 13.5t36.5 18.5q0 19 6 59q0 3 2.5 11t2.5 12q0 16 -17 16q-30 0 -72 -10.5t-67 -26.5q-6 -6 -39 -6q-35 0 -72.5 5.5t-50.5 14.5q-23 16 -74 33 q-42 15 -61 44t-37 102q-6 27 -6 45q0 21 8 34q9 15 37.5 29t46.5 14q6 0 10 -4q8 -12 52 -12q50 0 53 21q6 14 22 14q3 0 31 -4q34 -6 109 -6q86 0 94 8q4 4 4 39q0 108 -16 137q-9 18 -57 68.5t-56 50.5q-2 0 -7.5 3.5t-17 11.5t-20.5 13q-40 25 -92 25h-25 q-84 -2 -117 -15t-94 -71q-41 -40 -86 -121.5t-45 -116.5zM815 631q2 -8 4 -19.5t3.5 -18t3 -14.5t3 -12t3 -8.5t3.5 -6t5 -1.5q8 0 28 20q21 21 21 64q0 39 -19 67q-31 48 -54.5 78t-60 63t-82 50.5t-102.5 21.5l-65 5q147 -50 246 -154q30 -32 40 -53t21 -72q0 -2 1 -5 t1 -5zM944 641q0 -75 -63 -129q-59 -50 -93 -61.5t-129 -14.5q-78 -2 -109.5 -9t-31.5 -24q0 -13 19 -38q19 -26 33 -31t77 -8h29q70 0 158 24q98 25 118 25q14 -3 25.5 -27t21.5 -61.5t11 -40.5q4 -8 4 -21q0 -15 -31 -37q-13 -9 -52.5 -46.5t-77 -65.5t-60.5 -31 q-18 -2 -92 -24t-101 -23q-36 0 -59 -10q-12 -4 -33 -4q-38 0 -94.5 8t-81.5 16q-24 9 -72 38t-63 36q-54 28 -84 85.5t-45 164.5q-7 47 -7 82q0 137 62 245q3 4 6 10t6 13t4 10q7 19 56 79t55 60q11 7 67 50t97 61q69 27 139 27q104 0 192 -49q68 -38 133.5 -130t65.5 -149 z" />
<glyph unicode="f" horiz-adv-x="917" d="M541 637q-19 0 -19 -219l2 -84v39q0 -221 19 -221q7 0 16 22q4 8 13.5 19.5t11.5 11.5q4 0 4 37q0 142 -29 389q-3 6 -18 6zM795 811v18q0 35 -11 35q-4 0 -9 -3t-15 -10t-17 -11q-27 -17 -35 -35.5t-14 -77.5q-2 -8 -2 -20q0 -25 13 -25q14 0 51 37q27 24 33 39t6 53z M297 848q0 20 -31 20q-34 0 -65 -24q-33 -23 -33 -37q0 -4 6 -4t12 2q6 3 35.5 7.5t53.5 11.5t24 18q0 1 -1 3t-1 3zM623 889q0 -14 7.5 -19.5t28.5 -5.5q22 0 40 9t18 18q0 7 -8 10q-12 4 -37 4q-49 0 -49 -16zM567 954q0 17 -10 17q-16 0 -40.5 -33.5t-27.5 -67.5 q0 -12 8.5 -19t22.5 -7q7 0 23 4q12 8 12 12q0 9 -8 17q-6 9 -6 18q0 12 13 30.5t13 28.5zM350 842q0 -92 -31 -92q-10 0 -22 6t-29 6q-16 0 -49 -8.5t-49 -8.5q-23 0 -29 -2.5t-6 -15.5q0 -17 2 -27q4 -38 9 -42q4 -3 10 -3q2 0 7.5 1t8.5 1q32 3 43 15q8 8 37 8 q50 0 72 -16q16 -13 16 -37q0 -5 -4 -41q-14 -130 -14 -410q0 -80 4 -96q5 -15 14.5 -21t30.5 -6q23 0 69 6q23 3 30 7t7 14q0 12 -2 20q-8 39 -8 414q0 140 2 152q6 41 43 41q13 0 31 -9q24 -12 49 -12q32 0 41 19q9 18 20 98q-129 -12 -135 -12q-50 0 -72 14q-20 9 -20 43 q0 32 17.5 72.5t45.5 68.5q26 28 44 36t75 17q28 4 54 22.5t26 31.5q0 8 -16 8t-19 8q-5 9 -53 27q-38 12 -51 12q-11 0 -31 -10q-56 -31 -90.5 -65.5t-56 -93t-21.5 -140.5zM621 1190q15 0 61.5 -31t54.5 -31q4 0 4 9q0 25 -63 65q-32 21 -82 21q-29 0 -29 -11 q0 -9 16.5 -15.5t37.5 -6.5zM637 627q-7 0 -9.5 -8.5t-2.5 -34.5v-35q1 -27 13.5 -126.5t12.5 -148.5q0 -79 -26 -102q-10 -8 -17.5 -21t-7.5 -20q0 -14 -10 -14t-21 -49q-4 -19 -14 -36t-18 -22q-42 -22 -183 -22q-84 0 -90 12q-4 24 -4 131q0 349 16 487q-48 -18 -165 -18 h-35v68q0 57 -6 80q-7 24 -7 32q0 14 29 43q1 1 21 20.5t31.5 29t31.5 25t37.5 23t32.5 7.5q8 0 12 -2q20 -4 23 -4q10 0 15 7t11 29q9 32 22.5 60.5t32.5 55.5t32 43t38 45t35 40q36 44 72.5 61t91.5 17q5 0 17 -1t18 -1q21 -1 59.5 -28.5t56.5 -51.5q24 -30 29 -35 q14 -11 14 -22q0 -16 -34 -43q-33 -27 -43 -56q-7 -25 -31 -28q-29 -3 -29 -19q0 -20 47 -32q31 -8 51.5 -22.5t36.5 -20.5q15 -6 20.5 -20.5t10.5 -53.5q2 -14 2 -41q0 -38 -14 -65t-54 -62l-71 -64q-20 -20 -37 -20q-15 0 -21 16q-9 17 -22 17z" />
<glyph unicode="g" horiz-adv-x="1052" d="M520 287q-33 0 -61 16t-62 55q-4 4 -9 9.5t-7.5 8.5t-5.5 5t-6 2q-12 0 -15 -25q-2 -6 -2 -20q0 -27 11 -52.5t28 -35.5t31 -10q16 0 65 12q72 18 72 29q0 6 -39 6zM420 451q7 -36 39.5 -72.5t70.5 -36.5q13 0 33 8q2 4 2 19q0 13 -18 135q-4 0 -11.5 1t-11.5 1 q-41 0 -72.5 -16t-31.5 -39zM420 178q-51 0 -86.5 45.5t-36.5 114.5q0 64 39 126t90 81q36 12 94 12h17q28 0 39.5 -6.5t27.5 -26.5q17 -23 17 -41q0 -8 -3.5 -24.5t-3.5 -26.5q3 -10 7 -98v-39q0 -34 -4 -46.5t-17 -21.5q-19 -12 -87 -30.5t-93 -18.5zM422 -209 q-13 0 -38 18.5t-49 40t-28 23.5q-5 0 -24 -16q-25 -19 -25 -33q0 -39 121 -51q12 -2 33 -2q39 0 39 8q0 6 -29 12zM129 -336q0 -19 53.5 -71t85.5 -62q88 -29 123 -29q12 0 58 4q130 14 198.5 79t97.5 182q0 13 17 55q20 54 31 573q4 153 18 344l-35 13q-30 10 -45 10 q-37 0 -37 -51q0 -21 2 -33q4 -28 4 -33q0 -22 -14 -33q-13 -10 -18 -10q-2 0 -6 4q-59 70 -166 70q-49 0 -93 -17q-65 -23 -115.5 -65.5t-51.5 -75.5q0 -26 -11 -55q-35 -86 -35 -174q0 -17 3 -29q10 -72 57 -127t110 -70q31 -7 46 -18q8 -4 14 -4q27 0 141 41l10 4 q73 25 84 25q13 0 13 -13q0 -10 -2 -18l-4 -25q0 -2 -1.5 -6t-1.5 -6q-6 -43 -8.5 -60.5t-9.5 -56t-15 -58.5t-19.5 -46.5t-28 -43.5t-37.5 -28q-53 -31 -135 -31q-107 0 -209 50q-66 -77 -68 -105zM340 709q4 0 70 16q52 14 102 14q11 0 29.5 -3.5t32.5 -7.5l14 -3l28 -14 q9 0 15 26q0 1 1 3t1 3q2 6 2 17q0 8 -5 12.5t-20 11.5q-24 9 -59 9q-57 0 -125 -27q-36 -14 -64 -31.5t-28 -23.5q0 -2 6 -2zM842 -182q13 21 19.5 51t15.5 45q10 -8 22 123.5t20.5 314.5t8.5 318q0 102 -6 149q-2 2 -7 2q-10 0 -26 -16q-13 -15 -19 -47.5t-14 -128.5 q-12 -168 -12 -283q0 -412 -29 -518q-16 -56 -16 -64t6 -8q4 0 8 2q9 3 11 9.5t5.5 21t12.5 29.5zM887 885q-15 6 -39 6q-45 0 -82 -29l-37 -33l39 -16q18 -6 29 -6q15 0 49 31q41 41 41 47zM780 -383q-31 -33 -44 -45t-20 -17t-27.5 -15.5t-45.5 -26.5q-47 -30 -119 -51 t-131 -21q-84 0 -171 46t-138 118q-23 33 -23 59q0 33 33 62q17 16 34 55.5t44 50.5q21 6 47.5 36.5t48 57.5t31.5 27q4 0 6 -2q11 0 70 -55q41 -40 57.5 -47t63.5 -7h65q8 28 19.5 89t11.5 85q0 9 -2 11q-1 0 -35 -17q-21 -10 -68.5 -17t-89.5 -7q-37 0 -49 6l-47 22 q-47 22 -94 76.5t-66 108.5q-10 25 -10 84q0 99 34 221t79 172q16 18 25.5 43.5t35.5 44.5q115 84 236 84q34 0 61 -6q24 -4 31 -4q14 0 29.5 10.5t52.5 44.5l67 61h33q118 0 148 -6q12 -2 16 -31.5t4 -134.5q0 -77 5 -166.5t5 -128.5q0 -51 -6 -127q-22 -219 -24 -251 q-15 -180 -56.5 -291.5t-126.5 -200.5z" />
<glyph unicode="h" horiz-adv-x="1017" d="M461 473q0 16 -21 16q-22 0 -28 -18q-41 -130 -50 -209l-4 -41q-12 -105 -12 -131q0 -18 6 -18q7 0 21 14q17 15 24.5 51t16.5 146q4 39 11 70t20 71t16 49zM797 598q8 -17 13 -47t10 -72t9 -65q9 -46 9 -121q0 -46 -2 -66q-2 -23 -2 -57q0 -47 10 -47q4 0 24 27 q13 20 17 59.5t4 155.5q-1 218 -36 301.5t-138 115.5q-69 19 -129 19q-43 0 -43 -13q0 -6 26 -12q61 -12 129 -62t82 -93q8 -23 17 -23zM244 1065q0 -6 -19 -6h-20q-30 0 -37 -63.5t-10 -344.5q-1 -78 -1.5 -178.5t-1 -136.5t-4.5 -85t-12 -97q-10 -58 -10 -70q0 -23 16 -23 q3 0 12.5 1t14.5 1q19 0 29 -4q17 -12 53 -12q6 0 12.5 -1t7.5 -1q13 0 13 10q0 3 -4 27q-2 6 -2 16t6 23.5t6 25.5q0 1 -1 4t-1 7q0 28 12 101.5t25 125.5q17 71 48 119.5t60 48.5q32 0 65.5 -13.5t45.5 -31.5q36 -52 45.5 -81.5t9.5 -98.5q0 -32 -6 -82v-164l70 -8 q12 -2 30 -2q46 0 59 27t13 98v94q0 194 -18.5 265.5t-81.5 115.5q-80 57 -156 57q-45 0 -94 -22q-9 -13 -51.5 -32.5t-63.5 -19.5q-12 5 -12 64t2 108q8 179 12 195q0 3 1 7.5t1 6.5q0 18 -18 27q-18 10 -33 10q-12 0 -12 -8zM418 834q2 28 19.5 129t17.5 149q0 25 -2 37 q-19 -3 -86 -55q-16 -263 -25 -283q-6 -6 -6 -14q0 -10 6 -18.5t14 -8.5q17 0 39.5 22.5t22.5 41.5zM449 1227q0 10 -15 10q-16 0 -41 -11.5t-41 -27.5q-27 -27 -39 -27q-11 -1 -18 -16.5t-21 -15.5q-9 0 -11.5 -2.5t-2.5 -10.5q3 -6 16 -6q33 0 62 25q4 6 56.5 38.5 t54.5 43.5zM506 846q27 0 35 8q12 12 61 12q66 0 121 -20q117 -46 117 -55t24 -33q22 -22 42 -68t20 -72q5 -22 14.5 -48.5t13.5 -48t4 -58.5q0 -14 -4 -84q-2 -29 -4.5 -76.5t-4.5 -77t-5 -41.5q-6 -33 -31 -75.5t-37 -42.5q-6 -2 -22.5 -16t-40.5 -36.5t-27 -25.5 q-14 2 -57.5 9t-75 11t-57.5 4q-39 0 -54.5 8.5t-15.5 32.5q0 9 4 33q9 34 9 125q0 84 -6.5 153.5t-16.5 69.5q-24 -34 -41 -203q-11 -107 -17.5 -129.5t-35.5 -48.5q-49 -46 -77.5 -57.5t-98.5 -11.5h-39q-122 3 -133 14q-9 6 -9 27q0 14 3.5 33t8 36t5.5 21q2 1 8 226.5 t13 451t10 225.5q2 4 2 10q0 14 -9 19q-10 7 -10 18q0 27 44 64.5t95 52.5q39 10 99 59q42 33 62 41t65 8h12q76 0 76 -35q0 -10 -6 -22q-12 -25 -54 -340q-2 -12 -2 -29q0 -11 5 -14.5t18 -3.5z" />
<glyph unicode="i" horiz-adv-x="559" d="M309 616q-21 9 -43 9q-16 0 -50 -6.5t-56 -6.5h-17q-16 -320 -16 -512v-43q144 8 154 11q4 12 4 61v55q0 36 4 68q8 55 15 166.5t7 171.5q0 24 -2 26zM412 670q-31 0 -43 -168q-17 -262 -17 -336q0 -49 4 -49q9 1 70 55v94q0 368 -14 404zM303 745h-12q-54 0 -79 -12 t-48 -41q0 -4 55 -4h39h28.5t31 1.5t23 6t24.5 15t16 26.5q0 8 -78 8zM475 129q-21 -6 -35 -17t-34 -36t-31 -37l-45 -47q-239 0 -262 12q-7 7 -7 49q0 28 7 135q10 205 10 299q0 89 -6 129q-4 28 -4 33q0 17 12 33.5t49 50.5q11 10 27.5 26.5t22.5 21t17 13t20 10t22 3.5 t32 2q41 0 72 -2h37q63 0 72 6q12 6 20 6q11 0 19 -7t8 -19q0 -9 -2 -13q-21 -64 -21 -200q0 -109 8 -254q6 -111 6 -150q0 -29 -3 -38t-11 -9zM307 1026q0 23 -33 23h-16q-23 0 -29 8q-6 6 -18 6q-21 0 -46 -16.5t-34 -36.5q-4 -12 -4 -21q0 -19 14 -58.5t15 -45.5l51 8 q44 6 73 38.5t29 74.5q0 12 -2 20zM397 1155q-8 8 -71 8q-33 0 -43 -2q-29 -3 -29 -18q0 -18 35 -29q27 -8 51.5 -26t24.5 -41q6 -29 18 -29q6 0 14 14q13 10 13 41q0 49 -13 82zM184 821q-26 0 -53.5 21.5t-42.5 52.5q-20 45 -20 96q0 47 16 53q16 8 16 17q0 15 39 62 t68 67q43 26 88 33q36 4 51 4q62 0 90.5 -28.5t28.5 -90.5q0 -29 -2 -43q-6 -42 -24.5 -71.5t-55.5 -53.5q-21 -14 -36.5 -37.5t-33.5 -40.5t-53 -24q-66 -17 -76 -17z" />
<glyph unicode="j" horiz-adv-x="819" d="M270 -168q-8 -2 -27.5 -17.5t-33.5 -15.5q-12 0 -20.5 -7.5t-8.5 -18.5t8 -19q6 -6 19 -6q33 0 78 34t45 62q0 17 -8 17q-6 0 -26 -14t-26 -15zM293 -473q16 0 85 60.5t75 60.5q6 3 9 23t9 24q15 15 35 104.5t20 141.5q0 100 33 335q12 91 12 234q0 103 -8 111 q-19 16 -71 16q-6 0 -20.5 -1t-22.5 -1q-45 -3 -54 -8t-12 -29q-4 -23 -4 -133q0 -303 16 -340q11 -29 11 -88q0 -127 -29 -234q-4 -17 -39 -52.5t-59 -47.5q-36 -18 -91 -18q-20 0 -20 6q0 10 -14 10q-9 0 -22 -53.5t-13 -83.5q0 -13 2 -15q13 -13 41 -28t51 -15q7 0 25 9 q30 12 55 12zM680 260q12 93 12 283q0 120 -10 147q-3 10 -10 10t-19 -12q-18 -18 -18 -110q0 -88 -11 -242.5t-22 -216.5q-20 -123 -20 -228l1 -18h1q39 51 96 387zM598 709q3 3 12.5 11.5t14 13.5t4.5 9q0 9 -21 9q-8 0 -59 -7q-27 -5 -72 -31q-7 -4 -6 -5q14 -4 72 -4 q51 0 55 4zM102 -213q6 0 43.5 33.5t47.5 32.5q6 2 35 19t59 19l53 7v10q4 74 4 121q0 71 -10 112q-8 27 -8 52q0 14 4 35.5t4 33.5q0 9 -4 29q-8 5 -8 80q0 24 1 82t1 86q0 61 -7 96q-2 8 -2 20q0 18 10.5 33t22 23t33 21t31.5 20q8 6 30 12t39 12.5t17 16.5q0 12 82 12 q32 0 89.5 -2t67.5 -2q3 -39 8.5 -105.5t8 -112.5t2.5 -89q0 -123 -25 -283q-16 -101 -46 -214t-58 -169q-15 -30 -15 -43q0 -11 -27.5 -68.5t-47.5 -87.5q-13 -19 -31.5 -26.5t-30.5 -18.5q-11 -11 -62 -50t-59 -46q-14 -14 -141 -14q-88 0 -88 10t-27 18q-16 3 -26.5 14.5 t-10.5 22.5q0 8 2 10q5 5 9 93q1 66 9.5 105.5t20.5 39.5zM471 1110q-22 -2 -60 -33.5t-38 -58.5q0 -1 1 -4t1 -4q0 -34 29 -59t67 -25h10q35 0 66 39t31 82q0 44 -33 65q-27 18 -41 18q-10 0 -10 -10t-23 -10zM651 1178q-7 10 -43.5 19t-62.5 9q-19 0 -19 -6q3 -7 51 -45 t50 -51q4 -5 7.5 -12l5.5 -11t5 -4q5 0 10 10q11 18 11 41q0 28 -15 50zM643 1251q16 0 53 -37t37 -75q0 -45 -45 -99q-12 -13 -22 -28t-15.5 -24t-5.5 -11q0 -9 -38.5 -45t-67.5 -53q-26 -13 -58 -13q-41 0 -82 16.5t-65 43.5q-21 21 -21 67q0 37 13.5 72.5t31.5 44.5 q10 0 37 35q37 47 61 69t56 37q41 21 76 21q23 0 30 -10q7 -11 25 -11z" />
<glyph unicode="k" horiz-adv-x="927" d="M322 150q3 -7 4 -20t0.5 -23t3 -17.5t12.5 -7.5q1 0 3.5 1t4.5 1q21 6 21 14q0 3 -3.5 9t-9 15t-8.5 17q-4 16 -11.5 25.5t-12.5 9.5q-7 0 -7 -10q0 -5 3 -14zM518 467q-13 0 -29 -18t-16 -29q0 -4 2 -6q15 -12 53.5 -64t57.5 -67q4 -4 34 -55t58 -100l27 -50q9 0 28 16 q27 18 27 41t-31 45q-23 17 -29.5 25.5t-16 28t-28.5 45.5q-7 9 -77 116l-7 11q-43 61 -53 61zM545 760q18 0 51 -7.5t49 -7.5q22 0 41 11q33 17 33 24q0 8 -37 21q-1 1 -4.5 2t-5.5 2q-64 24 -94 24q-33 0 -56 -26q-22 -22 -22 -31q0 -12 45 -12zM475 307q-4 4 -12 22.5 t-23 18.5q-11 0 -14.5 16t-9.5 19q-19 25 -19 39q0 6 3 12t11 15t16.5 17.5l25.5 25.5t32 34q93 101 93 105q2 3 17 8.5t15 19.5q0 20 -55 33q-47 13 -66 13q-26 0 -34.5 -14t-8.5 -46q0 -4 -13.5 -11.5l-27 -15t-12.5 -12.5q0 -10 -53 -63q-56 -56 -76 -56q-18 0 -25.5 32 t-9.5 102v24q0 51 10.5 133.5t18.5 255.5q2 4 2 15q0 21 -15.5 38t-29.5 17l-84 -10q14 -172 14 -371q0 -264 -30 -660h18q13 0 36 1.5t32 1.5t39 -5q4 -2 10 -2q12 0 12 29q0 4 -4 70q-9 123 -10 127q-4 16 -4 20q0 10 20 10q51 -3 92 -75q10 -19 26.5 -44.5t35.5 -66.5 q26 -61 53 -68q24 -6 88 -6h21t19.5 0.5t17.5 1t13.5 1.5t8 2.5t2.5 2.5q-59 137 -166 244zM379 852q6 114 6 184q0 79 -8 144q-8 -5 -19.5 -11.5t-15 -8.5t-10 -9.5t-8 -13t-4.5 -20t-4 -30.5t-3 -45q-4 -51 -10.5 -176.5t-13.5 -189.5q-2 -16 -2 -43q0 -39 12 -39 q15 0 43 39q20 25 25.5 57t11.5 162zM166 1178h18q38 0 77.5 9t53.5 25q31 16 31 31q-5 8 -63 8q-63 0 -74 -8q-11 -10 -27 -33t-16 -32zM557 526q27 -22 45.5 -55t34.5 -49q11 -11 23.5 -39.5t25.5 -34.5q6 -3 10.5 -20.5t14.5 -20.5q8 -4 30 -35q24 -37 54 -67t47 -33 q24 -6 24 -20q0 -17 -41 -52q-69 -59 -118 -114l-138 8q-88 4 -115 10t-38 21q-8 16 -25 16q-11 0 -23.5 -7.5t-25 -18.5t-16.5 -13q-13 -8 -41 -8q-23 0 -39 2q-2 0 -6.5 1t-6.5 1q-49 8 -75 8q-21 0 -33 -8q-9 -6 -19 -6q-15 0 -27.5 12.5t-15.5 32.5q-2 8 -2 49 q0 60 7 186q24 442 24 473q0 22 -8 140l-6 65q-8 126 -8 140q0 43 9.5 64t39.5 56q34 39 80 109l104 -4q94 -5 124 -12.5t30 -30.5q0 -2 -1 -6t-1 -6q-3 -22 -7 -140t-4 -213q0 -21 1 -53t1 -41q8 6 31.5 29.5t44 40t35.5 16.5q6 0 8 -2q91 -17 180 -55q68 -30 68 -54 q0 -14 -27 -32q-19 -13 -59 -52.5t-103 -106.5t-67 -71z" />
<glyph unicode="l" horiz-adv-x="542" d="M139 1042q-6 -54 -8.5 -457.5t-7.5 -455.5q0 -2 -1 -6t-1 -6q-4 -36 -4 -43q0 -18 6 -24.5t22 -6.5q18 0 48 6l24 4q11 1 22.5 2.5t18.5 2.5t8 1q4 4 4 129q0 25 -1 92.5t-1 106.5q-4 336 -4 381q0 158 8 244q2 14 2 32q0 23 -16 23q-20 -1 -68 -11.5t-51 -13.5z M362 1090q-23 0 -26 -35q-10 -100 -10 -242q0 -40 1 -126t1 -132v-158q0 -128 8.5 -212.5t21.5 -84.5q7 5 20.5 22t31 41t22.5 30q-57 325 -57 507q0 81 10 117q8 31 8 84q0 24 -4 82q-4 67 -9.5 87t-17.5 20zM334 1184h-23q-14 0 -32 2t-25 2q-28 0 -55 -27 q-39 -36 -39 -45q0 -4 4 -4q6 0 12 2q7 3 78 12q37 3 68.5 20.5t31.5 29.5q0 8 -20 8zM133 1176q14 4 29 22.5t28 26.5q33 22 89 22q31 0 51 -2q29 -2 71 -2q31 0 43.5 -6t12.5 -29q0 -16 -2 -28q-10 -55 -13 -222q-4 -336 -4 -354q0 -95 3.5 -130.5t13.5 -67.5 q16 -54 24 -148q2 -20 2 -51q0 -35 -12 -57t-57 -76l-11 -13q-39 -47 -57 -63t-31 -16q-4 0 -16 4q-12 6 -33 6q-20 0 -57 -6q-9 -1 -24 -4.5t-19 -4.5q-1 0 -4 -1t-4 -1q-39 -8 -60 -8q-19 0 -24.5 10.5t-5.5 38.5v281v-39q0 6 1 17.5t1 17.5q10 270 10 436q0 183 -15 397 q41 41 70 50z" />
<glyph unicode="m" horiz-adv-x="1409" d="M842 186q1 27 14.5 85t13.5 83v11q0 10 -4 10q-8 0 -24 -33.5t-29 -81.5q-16 -66 -16 -92q0 -35 26 -41q16 0 19 59zM385 176q0 54 10.5 102t12.5 78q2 8 2 25q0 30 -15 33q-17 0 -29.5 -46.5t-15.5 -117.5q-4 -107 -12 -123q-4 -20 -4 -25q0 -14 14 -14q8 0 14 2 q15 5 19 19.5t4 66.5zM195 59h67q15 38 26.5 164t20.5 158q10 10 10 27q0 25 29 45t64 20q51 0 71.5 -12t42.5 -53q20 -35 24.5 -65t6.5 -126q4 -143 6 -145q12 -6 115 -6h59l6 92q9 125 37.5 192.5t91.5 114.5q33 -17 44 -23t32 -21.5t27 -28.5t15.5 -38t11.5 -57t2 -78 v-137h51q34 3 42.5 9.5t14.5 33.5q8 39 8 233q0 192 -8 213q-12 31 -35 53t-65 42q-43 22 -78 22q-30 0 -76 -14q-45 -14 -65.5 -30.5t-30.5 -51.5q-13 -33 -31 -33q-12 0 -18 19q-23 74 -60.5 103.5t-107.5 29.5q-39 0 -66 -13t-88 -61q-30 -23 -49 -23q-27 0 -33 48l-6 43 q-8 0 -36.5 2t-43.5 2q-43 0 -43 -17q-18 -34 -26 -104t-13 -219q-7 -206 -18 -242q-8 -19 -8 -37t18 -24.5t62 -6.5zM1126 739q-58 15 -84 15q-16 0 -16 -6q0 -13 64 -58q34 -23 51 -42.5t28 -58.5t13.5 -86t3.5 -143q0 -184 -12 -202q-7 -14 -7 -29q0 -25 11 -25q2 0 6 7 q5 7 48.5 43.5t53.5 48.5v180q0 121 -7 171t-26 95q-15 37 -42 56t-85 34zM367 743q13 0 22 17q2 4 2 10q0 4 -4 4q-5 0 -20 -6t-15 -14q0 -11 15 -11zM768 735q-11 28 -65 55t-107 27q-42 0 -66 -16l-32 -19q44 -4 141.5 -30.5t97.5 -55.5q8 -14 13 -14q3 0 7.5 6.5 t4.5 9.5q8 16 8 29q0 6 -2 8zM307 797q27 21 27 28q0 3 -6 6q-1 0 -3 1.5t-3 1.5q-20 0 -56.5 -21.5t-42.5 -38.5q0 -10 13 -10q30 0 71 33zM1311 135q-25 -9 -63.5 -41.5t-53.5 -42.5l-10 -8q-26 -17 -41 -22t-45 -5q-5 0 -20 1t-25 1q-92 4 -101 13q-6 6 -6 104v74 q0 133 -16 133q-14 0 -23 -125q-3 -39 -7.5 -63t-16.5 -42.5t-19.5 -26t-31 -26t-37.5 -30.5l-45 -43l-82 6q-164 13 -164 39q0 5 -2.5 91t-7 163t-9.5 82q-13 0 -30 -69.5t-17 -131.5q0 -48 11 -70q6 -12 6 -20q0 -12 -17.5 -20t-62.5 -19q-34 -8 -53.5 -19t-40.5 -16.5 t-74 -5.5h-19q-77 0 -92 3t-24 21q-11 18 -11 46q0 18 2 28q2 11 7.5 151t13.5 272t16 136q13 19 13 72q0 32 6.5 45t34.5 33l47 37q19 21 65.5 36t79.5 15q4 -2 14 -2q21 0 55 6t46 10q8 -5 19.5 -14t18 -12.5t21.5 -7t37 -3.5q5 0 16 1t17 1q14 2 41 2q56 0 94 -19.5 t80 -61.5q25 -21 41 -21q7 0 35 4q1 0 3 1t3 1q12 2 74.5 18.5t97.5 16.5q39 0 82 -14q85 -31 110.5 -48.5t51.5 -70.5q32 -65 43 -293q0 -12 1 -32.5t1 -30.5q0 -84 -10 -135.5t-27 -51.5z" />
<glyph unicode="n" horiz-adv-x="978" d="M369 467q-3 10 -11 10q-12 0 -12 -18q0 -15 -16 -35q-16 -19 -19 -156q0 -14 -1 -37t-1 -32q0 -68 8 -68q18 0 25 58t9 130t7 87q11 40 11 61zM260 403q9 20 15.5 40.5t9.5 29.5t14 23t33 32q18 14 36 29.5t25 20.5t23.5 13t46.5 19q37 13 53 13q17 0 31.5 -10t36.5 -35 q20 -22 24 -47.5t4 -139.5q0 -191 -12 -297q8 -1 52.5 -13.5t64.5 -12.5t26 12q13 13 13 20t-8 15q-16 20 -19 202q-6 292 -45 357q-14 25 -49.5 44t-63.5 19q-17 0 -24 -10t-25 -10q-22 0 -89 -34.5t-89 -59.5q-20 -23 -37 -23q-19 0 -32 25t-15 59q0 21 -22 43 q-18 18 -29 18t-39 -14q-23 -13 -23 -33v-18q5 -62 5 -131q0 -131 -7.5 -285t-17.5 -201q27 2 66 9t47 14q10 10 10 86q0 40 -3 108.5t-3 77.5t16 45zM725 723l17 -27q16 -26 16 -41q0 -30 10 -47q7 1 12.5 -105.5t10.5 -213.5t10 -107q4 0 9.5 7t11.5 15l5 9q14 16 18.5 30 t4.5 48q0 47 -2 82q-5 123 -20.5 236t-34.5 151q-12 26 -23.5 32t-56.5 9h-17q-49 0 -49 -8q0 -5 20.5 -20t40 -30t17.5 -20zM358 715q11 11 11 47q0 25 -4 61q0 2 -1.5 5.5t-1.5 5.5q-3 -3 -16 -15.5t-21 -23t-8 -19.5q0 -7 7 -14q4 -6 4 -23v-28q0 -15 6 -15q5 0 24 19z M311 866q0 11 -10 11q-16 -1 -29 -3t-24.5 -7.5t-18.5 -8.5t-17.5 -13t-14 -13t-15 -16.5t-14.5 -16.5q46 5 90.5 24t52.5 43zM432 836q0 -76 12 -76q10 0 21 20q11 17 21 22.5t31 11t44 17.5q70 37 162 37q52 0 72 -14q25 -17 53.5 -76.5t28.5 -93.5q0 -29 12 -61 q15 -53 29 -390l-10 -15t-14.5 -21t-14.5 -20t-14.5 -17.5t-10.5 -7.5q-8 -2 -12 -16.5t-13 -18.5q-15 -11 -30 -62q-9 -31 -20 -41t-34 -12q-29 0 -98.5 15t-93.5 26q-18 9 -18 55q0 27 6 54q8 27 12 204v74q0 62 -4 82t-17 33q-16 16 -24 16q-11 0 -39 -14 q-26 -12 -36.5 -26t-11.5 -26.5t-2 -41.5t-7 -56q-17 -83 -17 -151q0 -82 15 -90q12 -6 12 -15q0 -13 -20.5 -29t-36.5 -24q-15 0 -56 -57q-10 -16 -18.5 -22.5t-26.5 -6.5q-16 0 -28 2h-15q-21 0 -65.5 -10t-59.5 -10q-35 0 -35 32q0 16 5 31q26 112 26 344 q0 74 -3.5 211.5t-4.5 167.5q42 60 92 109t88 53q50 6 92 6q43 0 58 -10q18 -13 18 -92z" />
<glyph unicode="o" horiz-adv-x="995" d="M313 504q-4 0 -4 -31q0 -5 1 -21t1 -24q3 -54 9 -71t30 -38q20 -19 43 -27.5t33 -15.5q9 -6 16 -6q13 0 13 9t-15 18q-31 21 -44.5 32.5t-28 36.5t-25.5 66q-21 72 -29 72zM530 319q15 0 38.5 45t23.5 74q0 23 -25.5 55t-66.5 62q-48 31 -66 31t-31 -19q-16 -22 -16 -59 q0 -39 19 -82q13 -31 57.5 -69t66.5 -38zM430 201q-19 0 -63.5 27t-44.5 38q0 8 -23 17q-20 6 -36.5 56.5t-16.5 102.5q0 4 1 13.5t1 13.5q9 99 86 145q9 5 38.5 30.5t49.5 25.5q105 -64 152 -103.5t67 -83.5q14 -17 14 -45q0 -16 -4.5 -34.5t-13.5 -37t-15.5 -31 t-16.5 -29.5t-11 -19q-22 -25 -80 -55.5t-84 -30.5zM213 670q-5 -15 -34.5 -48.5t-31.5 -58.5q0 -21 -16 -61q-16 -36 -16 -99q0 -66 16 -110q15 -44 52.5 -95.5t60.5 -58.5q17 -7 22 -12q8 -9 68 -37t90 -35q8 -2 22 -2q25 0 72 12.5t57 14.5q44 11 48 22q4 13 18 13 q12 0 57 44.5t45 57.5t15 21q15 6 27 57.5t12 110.5q0 110 -70 174q-27 27 -27 38t-54 68t-81 74q-8 5 -25.5 9t-44.5 7t-45.5 4.5t-51.5 3.5t-40 2q-11 -9 -48 -36.5t-65 -50t-32 -29.5zM743 664q0 -11 41 -66q30 -39 49 -82t19 -70q0 -5 6 -14.5t8 -9.5q6 0 6 31 q0 35 -8 89.5t-20 88.5q-26 74 -62 114.5t-106 75.5q-68 35 -168 35q-21 0 -41 -4q-16 -3 -16 -6q0 -4 28 -7.5t58.5 -7.5t35.5 -10q25 -10 97.5 -77.5t72.5 -79.5zM885 301q0 -15 -45.5 -77t-83.5 -97q-36 -35 -92.5 -71t-92.5 -48q-35 -12 -102 -12q-87 0 -137 18 q-93 34 -166.5 105t-93.5 147q-11 37 -11 103q0 77 16 156t42 116q66 100 188 209q23 22 56.5 32t48.5 19q21 14 84 14q7 0 22.5 -1t24.5 -1q89 -3 128 -17t107 -65q61 -45 96 -114.5t54 -179.5q4 -36 4 -62q0 -49 -9 -91t-24 -54q-14 -10 -14 -29z" />
<glyph unicode="p" horiz-adv-x="993" d="M557 270q-71 0 -88 -20q-16 -16 -16 -31q0 -14 41 -14q35 0 68 13.5t50 35.5q6 6 6 8q0 8 -61 8zM580 324h26q50 0 66.5 4t21.5 16q2 4 2 18q0 13 -2 17q-6 14 -43.5 39.5t-52.5 25.5q-16 0 -23 11q-6 12 -14 12q-21 0 -33 -64q0 -3 -3 -20.5t-3 -24.5q0 -16 12.5 -24.5 t45.5 -9.5zM465 465q-61 0 -70 -121q-2 -16 -2 -39q0 -33 13 -33q2 0 32 19q16 12 22.5 32.5t9.5 53.5t7 49q4 24 4 27q0 12 -16 12zM672 473q13 -11 29 -16t24 -14t16 -37q9 -27 9 -54q0 -64 -72 -121q-55 -47 -55 -49q-15 -32 -148 -32q-82 0 -106 12q-31 28 -31 117 q0 44 4 67q4 27 11 69t9 66q32 37 125 37q55 0 109 -13t76 -32zM393 -199q13 6 19 36t8.5 82.5t3.5 62.5q-23 4 -74 4q3 -17 5 -66.5t5.5 -89.5t10.5 -47q4 0 22 18zM152 698q2 -37 2 -110q0 -133 -14.5 -412.5t-14.5 -413.5v-65q156 8 166 8q6 1 8 168t8 168q7 10 27 10 q16 0 57 -6q85 -12 156 -12q58 0 96 10q45 14 98 73t68 113q25 83 25 138q0 78 -52 174q-27 49 -105 94.5t-142 46.5q-42 0 -55.5 -5.5t-28.5 -27.5q-17 -22 -43.5 -31.5t-42.5 -23.5q-22 -19 -25 -19t-5.5 3t-4 7t-2.5 5q-11 17 -19 69q-3 30 -12 41t-35 11q-21 0 -61 -6z M641 768q-30 0 -51 -5t-21 -11t13 -9q87 -23 145.5 -59.5t101.5 -93.5q22 -31 27 -31q4 0 4 19q0 58 -69.5 124t-149.5 66zM385 750q0 63 -6 63q-3 0 -10 -14q-2 -6 -2 -31q0 -62 10 -72q3 -3 5 9q3 17 3 45zM299 784q0 10 30.5 45t30.5 43q0 5 -6 5q-12 0 -39 -11 q-20 -10 -65 -10q-25 0 -54.5 -29t-37.5 -49q0 -2 9 -4.5t25.5 -4t34.5 -1.5q72 0 72 16zM879 694q11 -24 21 -34t15 -20t11 -44q6 -30 6 -74q0 -103 -23 -141q-14 -21 -14 -47q0 -22 -19 -86.5t-28 -71.5q-8 -8 -8 -22q0 -17 -63 -78t-99 -80l-99 -19q-92 -17 -92 -18 t-1 -4t-1 -4q-8 -62 -8 -96q0 -4 1 -10t1 -9v-8q0 -15 -13 -33t-50 -55q-63 -63 -104 -81.5t-117 -18.5h-19q-94 0 -106 8q-9 6 -9 131q0 101 6 212.5t13 137.5q14 47 14 334q0 244 -12 256q-10 10 -10 33q0 16 8 16q11 6 61 76q27 39 44.5 55.5t28.5 19t42 6t63 11.5 q61 14 76 14q28 0 37 -21t14 -83q2 -21 5 -38.5t5.5 -27t4.5 -8.5q109 59 207 59q48 0 73 -14q107 -54 138 -123z" />
<glyph unicode="q" horiz-adv-x="1077" d="M426 193q-29 19 -56.5 71.5t-45.5 69.5l-13 -27q-14 -31 -14 -47q0 -33 47 -57q47 -28 123 -41zM561 393q-46 43 -112 43q-33 0 -50 -14q-12 -9 -12 -41q0 -30 12 -45q13 -13 21 -41q10 -36 53.5 -57t99.5 -21v29q0 129 -12 147zM545 471q15 -11 34.5 -20.5t28.5 -14.5 t16 -20t7 -43q0 -25 -2 -41q-2 -12 -2 -35q0 -44 12 -64q8 -11 8 -30q0 -32 -22 -51q-54 -48 -152 -48q-5 0 -15.5 1t-15.5 1q-52 4 -87.5 20.5t-108.5 68.5q-4 32 -4 47q0 114 84 198q22 22 22 41q0 17 31 17q7 0 27 -1t32 -1q70 0 107 -25zM375 610q2 -4 -25.5 -18.5 t-55.5 -29.5t-28 -19q-6 -10 -29 -38.5t-41.5 -57.5t-23.5 -52q-7 -28 -20 -58.5t-20 -59t-7 -74.5q0 -51 5.5 -68.5t25.5 -36.5q48 -46 141.5 -75t183.5 -29q73 0 117 20q44 19 66 19q10 -1 16 -11.5t6 -21.5q0 -13 -8 -18q-19 -10 -19 -117q0 -72 13 -109q8 -21 8 -37 q0 -8 -5 -26t-5 -39v-21h12q126 0 137 17q10 13 10 110q0 25 -4 181q-3 86 -4.5 368t-9.5 379q-7 17 -35 17q-12 0 -37 -7q-18 -6 -18 -39q-2 -27 -11.5 -45t-39.5 -43q-17 -14 -25 -14q-5 0 -18 10q-23 20 -81 37t-110 17q-32 0 -61 -11zM655 662q0 18 -9 33.5t-9 25.5 q0 8 2 14t2 13q0 9 -11 10.5t-52 1.5q-23 0 -40 -1t-33 -4t-25 -5t-27 -7t-29 -8q-23 -6 -38.5 -17t-34 -29.5t-34.5 -29.5l-5 -4q-4 -4 -8.5 -9t-9.5 -10t-7.5 -8t-1.5 -3q7 0 49 22q49 27 121 27q49 0 86 -15q40 -16 75 -22q24 -4 27 -4q8 0 10 6t2 23zM920 731q4 14 4 33 q0 18 -9 18q-12 0 -30.5 -25.5t-18.5 -39.5q11 -18 21 -897q0 -111 8 -111q6 0 37 27q19 18 22.5 33t3.5 75q0 103 -22 393.5t-23 403.5v18q0 32 7 72zM774 821q0 -16 -16 -24q-17 -7 -17 -19q0 -18 33 -18q24 0 55 21t31 36q0 4 -2 6q-9 15 -43 15q-16 0 -28.5 -5 t-12.5 -12zM956 887h25v-242q0 -412 12 -473q8 -39 23 -424q-84 -73 -90 -92q0 -19 -31.5 -41.5t-65.5 -28.5q-45 -7 -63 -20q-8 -8 -12 -8q-8 0 -11 8q-3 9 -59.5 12t-60.5 12q-5 9 -13 123t-8 174q0 5 2 18.5t2 18.5q0 13 -39 13q-9 0 -34.5 -2t-38.5 -3q-18 -2 -54 -2 q-141 0 -196 39q-29 21 -51 27q-30 9 -75.5 59.5t-51.5 81.5q-5 30 -5 47q0 64 25 195q15 74 56 158.5t73 107.5q19 12 74 64q44 39 82 59.5t106 40.5q58 14 70 14q17 0 63 -12q36 -8 41 -10q28 -8 31 -8q14 0 31 26l4 6l49 80q103 -18 190 -18z" />
<glyph unicode="r" horiz-adv-x="954" d="M475 406q-7 18 -16 18q-10 0 -10 -18t-19 -52q-10 -18 -17 -87.5t-7 -127.5q0 -51 6 -51q5 0 34 21q19 14 23.5 35.5t7.5 111.5q0 15 1 42.5t1 39.5q0 56 -4 68zM758 588q14 8 14 51q0 13 -2 38.5t-2 33.5q0 -1 -1 -4t-1 -5q-15 -85 -29 -102q-6 -9 -6 -14q0 -8 8 -8 q9 0 19 10zM618 727q-62 10 -75 10q-19 0 -32.5 -7t-43.5 -28q-51 -36 -80 -92q-18 -34 -28.5 -44.5t-28.5 -10.5q-20 3 -24 14.5t-9 71.5l-6 80q-10 2 -33 2q-48 0 -86.5 -10t-38.5 -27q0 -6 8 -14q21 -24 21 -189q0 -36 -4 -204q-6 -164 -6 -244v-23q1 0 73.5 21.5 t83.5 21.5q1 -4 9.5 -8t11.5 -4q12 0 12 78v82q0 88 8 96q12 8 12 31q2 25 33 92.5t54 95.5q43 49 112 49q27 0 41 -4l21 -4q4 -1 8.5 -2t7 -1.5t4.5 -0.5q8 0 14 14l11 19q22 31 22 92q0 4 -1 10.5t-1 9.5q-2 6 -22 14.5t-48 12.5zM367 698q12 6 12 52q0 49 -14 49 q-7 0 -13 -11q-8 0 -8 -30q0 -23 5 -45.5t11 -22.5q4 0 7 8zM735 850l-8 4q-30 10 -53 10q-14 0 -31.5 -4t-25.5 -6.5t-31.5 -13t-26.5 -11.5l-29 -20q86 -12 213 -55l29 34q14 17 14 29q0 11 -36 25q-6 3 -9 4q-4 4 -6 4zM268 879q-42 0 -54 -6t-36 -39l-33 -52q9 -6 25 -6 q15 0 47 7.5t43 7.5q13 1 43.5 34t30.5 45q-9 9 -66 9zM299 938q69 0 90 -3.5t31 -16.5q12 -12 12 -27q0 -3 -1 -9.5t-1 -9.5q0 -4 4 -20q3 -6 10 -6q14 0 76 33q52 29 78 36t78 7q75 0 82 -11q6 -6 29 -11t30 -15q11 -15 41 -19q16 -1 25.5 -12.5t9.5 -26.5q0 -17 -12 -32 q-43 -52 -43 -154v-20q0 -33 -3.5 -42.5t-19 -15t-27.5 -16.5q-28 -23 -68.5 -51.5t-47.5 -28.5q-11 0 -37 22q-24 21 -41 21q-21 0 -39 -27q-12 -17 -15 -54t-5 -161q-2 -139 -5 -166.5t-20 -31.5q-30 -10 -80 -47q-34 -26 -51 -33.5t-45 -7.5h-31q-75 0 -156 -37 q-15 -6 -26 -6q-35 0 -35 57q0 60 10 233q6 156 6 265q0 142 -12 151q-5 4 -9 43.5t-13 42.5q-7 3 -7 10q0 28 82 133l54 64h102z" />
<glyph unicode="s" horiz-adv-x="925" d="M244 346q0 -7 27.5 -21.5t121.5 -56.5q24 -12 53 -12q18 0 30.5 7t12.5 16q0 18 -43 32q-8 3 -45.5 22t-71.5 36.5t-36 17.5q-11 0 -30 -15.5t-19 -25.5zM774 510q0 13 -30 44.5t-54 43.5q-17 10 -45 10q-14 0 -20 -2q-20 -4 -27 -4q-20 0 -23 12q-10 23 -40 23 q-16 0 -31 -6q-12 -6 -12 -10q0 -7 58 -36q4 -2 6 -3.5t6 -3t7 -3.5q55 -27 81.5 -46.5t47.5 -49.5q27 -36 43.5 -91t16.5 -107q0 -25 -2 -35q-2 -8 -2 -21q0 -12 4 -12q11 0 33 70q14 38 14 106q0 77 -19 96q-12 12 -12 25zM391 784q-25 0 -49.5 -18.5t-24.5 -40.5 q0 -15 -30 -23.5t-33 -17.5q-4 -14 -4 -39q0 -68 65 -104l27 -13q72 -35 90.5 -45t18.5 -16q0 -8 12 -8q29 -5 73 -52t44 -90q0 -12 -2 -16q-9 -6 -9 -25q0 -29 -65 -67q-9 -6 -31 -6q-87 0 -225 69q-22 11 -33 11q-33 0 -47 -76q-14 -71 -14 -101q0 -19 6.5 -25.5 t27.5 -14.5q24 -12 124 -21t124 -20q18 -9 29 -9q14 0 36 15.5t40 15.5q29 0 88 59q38 40 48.5 59t16.5 60q4 40 4 60q0 180 -176 245q-60 22 -82 38.5t-22 41.5q0 70 108 76q48 3 62 13.5t14 43.5q0 1 1 3.5t1 3.5q0 22 -51 38.5t-96 16.5q-33 0 -35 -10q-7 -11 -31 -11z M711 698q19 9 29 14.5t15.5 14.5t6.5 14.5t3 22.5t5 31q2 8 2 18q0 12 -8 12q-6 0 -17 -5t-16 -5q-61 -24 -72 -78q-9 -40 -16 -47q-6 -6 -6 -10t8 -4q11 0 66 22zM537 926q-12 -7 -48 -12.5t-51 -16.5q-8 -6 -24 -12t-26.5 -13t-14.5 -18q0 -12 12 -12q2 0 18 4q24 8 70 8 q81 0 111 -20q24 -17 37 -17q17 0 77 35l66 37l-29 20q-17 10 -59.5 17.5t-81.5 7.5q-46 0 -57 -8zM266 797q13 40 87.5 105.5t135.5 66.5q27 0 43 8q17 10 80 10q76 0 113 -12q139 -46 139 -72q0 -8 -12 -14q-14 -8 -29 -160q-5 -39 -12.5 -54.5t-22.5 -15.5q-7 0 -16 3 q-16 4 -18 4q-11 0 -11 -9q0 -14 41 -55q45 -46 61.5 -93t16.5 -130q0 -91 -35.5 -164t-87.5 -88q-10 -3 -15.5 -13.5t-14.5 -11.5q-10 0 -37 -29t-27 -38q0 -8 -14 -8q-5 -2 -35 -20.5t-49 -18.5q-11 0 -45 -12.5t-51 -12.5q-14 0 -23 6q-12 7 -37.5 12.5t-36.5 14.5 q-8 8 -12 8q-3 0 -10 -10q-5 -8 -15 -8q-9 0 -30 6q-3 1 -34 6t-54.5 11t-53 15t-46 22.5t-17.5 29.5q0 9 -4.5 17.5t-9.5 10.5l-7 5q0 2 9 2q13 2 34 76.5t21 123.5q0 29 10 29q15 9 72 52t90 59q111 -51 133 -64q25 -14 33 -14q4 0 4 4q0 6 -12 17.5t-21 11.5 q-12 0 -26 14q-11 14 -74 45q-73 37 -98 58t-25 46q0 30 -10 37q-13 10 -13 33q0 27 15.5 61.5t38.5 55.5q24 24 24 41z" />
<glyph unicode="t" horiz-adv-x="894" d="M645 92q16 0 59.5 53.5t43.5 69.5q-9 14 -21 98q-72 -72 -82 -112q-10 -42 -10 -72q0 -37 10 -37zM532 547l-8 -6q-26 -21 -33.5 -43t-7.5 -92v-97l35 -22q34 -21 70 -21q35 0 47 21q10 20 10 22q0 9 -24 15q-21 7 -60 38q-21 18 -27 28.5t-6 31.5q0 26 2 49q1 9 2 22 t2 22t1 15zM246 819q0 21 -17 21q-11 0 -30 -13q-17 -9 -17 -18q0 -12 31 -12q19 0 26 5t7 17zM743 844q-1 -6 -33.5 -49.5t-31.5 -53.5q0 -24 -6 -51q-2 -6 -2 -18q0 -17 12 -17q18 0 49 31q22 19 27.5 34.5t7.5 57.5v21q0 42 -10 49q-1 0 -4 1t-4 1q-5 0 -5 -6zM647 807 q10 5 27.5 27.5t17.5 33.5q0 6 -12 6q-17 0 -29 -2q-32 -4 -56 -23t-50 -52q95 8 102 10zM524 592h23q65 10 65 49v8q-10 84 -39 84q-2 0 -14 -4q-53 -24 -82 -24q-43 0 -43 61q0 19 2 31q3 25 13.5 84t11.5 88q0 17 -8 19.5t-50 2.5q-46 0 -59.5 -9t-13.5 -38v-14 q0 -20 -15.5 -53.5t-15.5 -61.5v-74h-70q-61 0 -77 -12.5t-19 -62.5v-13q0 -41 25 -41q10 0 49 17q24 12 37 12q10 0 18 -8q12 -9 12 -70q0 -57 -16 -227q-4 -54 -4 -76q0 -96 37.5 -144.5t130.5 -70.5q68 -16 104 -16q11 0 39 4q15 3 19 17t4 67v80q-150 26 -166 129 q-2 8 -2 30q0 50 12 117t25 88q19 31 67 31zM602 975v10q0 11 4 41t4 43t-4 21q-12 0 -47 -40t-37 -55q-3 -10 -8.5 -55t-5.5 -70q0 -16 2 -20q14 4 54 50t40 69q0 1 -1 3t-1 3zM365 1065q0 -8 57 -8q39 0 56.5 6.5t49.5 32.5q41 38 41 47q-5 8 -39 8q-63 0 -92 -18 q-28 -20 -50.5 -41t-22.5 -27zM215 559q-8 2 -25 2q-28 0 -64.5 -16.5t-47.5 -18.5q-10 0 -13.5 4.5t-3.5 18.5q0 7 2 24.5t3 28.5q3 39 14.5 92.5t13.5 87.5q0 56 109 113q16 7 33.5 23.5t25.5 31.5q10 23 10 31q0 4 -14 18q-12 9 -12 13q0 6 12 24q34 49 117 119 q39 34 58.5 42.5t74.5 12.5q110 7 117 7q6 0 41 -5q20 -7 20 -18q0 -1 -1 -3t-1 -3q-7 -18 -13.5 -92t-6.5 -135v-19h53q67 -1 82 -6t26 -27q6 -15 6 -30q0 -16 -6 -52.5t-6 -54.5q0 -13 4 -29t4 -22q0 -23 -13.5 -40t-44 -36.5t-32.5 -21.5q-10 -4 -54.5 -42t-64.5 -38 q-13 0 -26.5 -34t-13.5 -63q0 -8 4 -20q22 -51 163 -51q8 0 24 1t24 1v-10q0 -7 1 -24t1 -24q0 -16 -7 -30q-6 -6 -6 -15q0 -12 22.5 -35t24.5 -32q-2 -18 -104 -120.5t-119 -102.5q-16 0 -55 -13q-10 -4 -37 -4q-51 0 -118.5 19.5t-102.5 44.5q-18 13 -32.5 29.5 t-31.5 21.5q-28 0 -28 166q0 69 6 168z" />
<glyph unicode="u" horiz-adv-x="1134" d="M289 80q0 -13 53.5 -25t106.5 -12q43 0 59 8q37 19 76 80q19 29 43 29q13 0 24 -15q8 -12 8 -110v-47q110 7 138 16q-11 50 -11 90q0 46 9.5 138t11.5 124q2 45 20.5 156.5t18.5 155.5q-7 10 -96 10h-13h-37.5t-24.5 -4t-16.5 -7t-8.5 -16.5t-6.5 -24t-4.5 -36.5 q-6 -54 -12.5 -78t-21 -53t-25.5 -62q-12 -36 -31.5 -66t-28.5 -57q-17 -47 -102 -47q-43 0 -68 4q-15 2 -31.5 13.5t-27 22t-27.5 30t-22 25.5q24 268 24 299q0 40 -12 55q-9 12 -23 12t-41 -12q-26 -12 -40 -80.5t-21 -226.5l-6 -152q85 -90 133 -115q33 -16 33 -22z M307 338q0 -1 18 -14t41 -26t33 -13q7 0 7 6q0 9 -17 35q-23 45 -28.5 62t-6.5 58q-2 20 -2 52q0 35 5 81t5 80q0 1 1.5 4.5t1.5 4.5q8 47 8 71q0 21 -8 21q-4 0 -13 -6q-19 -14 -35 -201q-12 -114 -12 -188q0 -23 2 -27zM993 778q0 8 -8 8q-13 0 -37 -24 q-20 -22 -36.5 -69.5t-16.5 -86.5q0 -38 -14.5 -100.5t-18.5 -132.5q-16 -229 -16 -279q0 -53 12 -53q6 0 12.5 5t11 10.5t8.5 11.5l5 6q43 53 43 108q0 11 -4 43v13q0 36 29.5 250t29.5 290zM285 831q-14 0 -26.5 -4t-20.5 -8.5t-18 -15.5t-14 -16t-14 -19.5t-12 -17.5h51 q36 0 66 28q12 9 21.5 19t14 17t3.5 9q-5 8 -51 8zM956 848q-8 10 -145 10h-47l-37 -41q-39 -42 -39 -53q0 -19 74 -19q51 0 70.5 7t62.5 39q26 19 44 36t17 21zM735 918q235 0 295 -9q27 -5 36 -10t9 -18q0 -2 -1 -6.5t-1 -6.5q-4 -23 -24 -119t-27 -174q-7 -70 -16 -113.5 t-13 -75.5t-4 -103v-123q0 -45 -4.5 -60t-21.5 -32q-39 -42 -64 -93q-13 -26 -36.5 -44.5t-39.5 -18.5q-14 0 -14 14q0 8 -18 13.5t-43 5.5q-49 0 -76 -15q-8 -4 -23 -4q-37 0 -37 49q-3 38 -10 78q-63 -55 -84 -65q-19 -11 -63 -11q-55 0 -118 18.5t-97 47.5l-78 51 q-57 38 -79 75t-22 103q0 34 2 54q8 110 31 249q8 39 8 60t-14 29t-14 24q0 29 86 121l80 82q27 2 98 4.5t80 3.5h12q9 0 11.5 -5t2.5 -20q0 -22 -2 -38q-3 -31 -16 -114.5t-14 -166.5v-45q0 -88 18 -133q23 -55 41 -55q12 0 27 18q36 46 66 152.5t30 181.5q0 37 -8 53 q-2 4 -2 10q0 17 30 43q48 43 121 138z" />
<glyph unicode="v" horiz-adv-x="1140" d="M289 244q0 -12 27.5 -78.5t27.5 -73.5q3 -6 8.5 -15.5t7 -13t6.5 -10t8.5 -8t10.5 -5.5t14.5 -4.5t20 -2.5t27 -2h34.5q78 0 99 11.5t38 63.5q3 9 78 168q39 83 76.5 160.5t51 105t27 58.5t17.5 47t9 45h-48q-74 0 -92 6q-13 0 -30 -17t-17 -30q0 -27 -36.5 -89.5 t-39.5 -92.5q-5 -21 -19 -50t-24 -63q-26 -80 -42.5 -104.5t-43.5 -24.5q-2 -2 -6 -2q-27 0 -70.5 92t-48.5 125q-7 45 -18 45q-10 0 -10 39q0 20 -16.5 57.5t-16.5 51.5q0 22 -27 22q-20 0 -51 -8q-1 0 -17 -3.5t-29 -7.5t-13 -7q0 -21 42.5 -149.5t69.5 -186.5 q15 -34 15 -49zM997 788q-15 0 -31 -22.5t-16 -44.5q0 -20 -9 -45.5t-42 -104.5q-42 -99 -96 -208.5t-62 -112.5q-7 -7 -10 -26.5t-10 -30.5q0 -4 -3.5 -8.5t-7.5 -7.5l-3 -3q0 -2 2.5 -5t3.5 -3q7 0 34 23t50 43t22 16q8 0 31 71.5t27 73.5q15 55 63.5 198.5t60.5 184.5 q0 1 1.5 3t1.5 3q0 6 -7 6zM381 559q4 -28 16.5 -40t16.5 -36q3 -16 31 -78t28 -79q0 -15 6 -15q13 0 23 37q4 20 4 31q0 27 -25 92q-13 34 -27.5 88.5t-29.5 118t-21 86.5q-6 22 -16 22q-13 0 -33 -28q-20 -29 -20 -51q0 -12 6 -21q8 -8 21.5 -50t19.5 -77zM209 713 q23 0 66 42.5t47 57.5q-4 6 -17 6q-7 0 -24 -2.5t-25 -3.5q-35 -3 -72 -43q-37 -37 -37 -57q0 -8 9 -8q6 0 10 2q15 6 43 6zM950 836q-23 10 -47 10q-42 0 -84 -21.5t-53 -46.5q0 -9 51 -16q12 -2 31 -2q16 0 28 6.5t33 26.5q41 36 41 43zM625 649q1 11 16.5 32.5t15.5 35.5 q0 9 9.5 20.5t9.5 20.5q0 6 -2 10t-2 10q0 18 30.5 41.5t108.5 65.5q43 22 96 22q35 0 60 -2q80 -3 94.5 -6.5t15.5 -21.5v-9q0 -38 -13.5 -88t-37 -115t-31.5 -94q-15 -53 -53 -154.5t-53 -158.5q-9 -30 -41 -59q-43 -42 -90.5 -81.5t-63.5 -49.5q-14 -8 -29 -30t-22 -46 q-4 -7 -69 -13.5t-136.5 -10.5t-77.5 -5q-2 0 -5 -1t-5 -1q-44 0 -63 96q-8 37 -67 189t-77 227q-12 50 -43 122t-39 105q0 21 74 99q34 37 56 53t33.5 19.5t42.5 7.5t61 12q40 14 80 14q29 -1 33.5 -8t4.5 -45q1 -42 25.5 -120t24.5 -122q0 -32 16 -51t23 -39l16 -41 q1 2 24 49.5t35.5 77.5t14.5 43z" />
<glyph unicode="w" horiz-adv-x="1552" d="M649 201q-24 43 -28 43q-7 0 -19 -31q-6 -17 -18 -32t-17 -36l-2 -20l8 8q16 12 39 12q50 0 50 21q0 9 -13 35zM295 70q23 2 72 2q28 0 44.5 1.5t36.5 6t31 16.5t15 31q14 32 29 54.5t30 56.5q49 112 90 112q13 0 22.5 -14t24.5 -57q11 -34 45.5 -114.5t42.5 -103.5 q0 -8 92 -8q35 0 105 4q14 2 32.5 45.5t30.5 104.5q12 50 21 65q24 45 76 181.5t82 224.5q2 2 2 6q0 12 -66 12q-25 0 -50 5.5t-28 5.5q-17 0 -33 -33q-8 -17 -24 -47.5t-27.5 -56t-21.5 -56.5q-17 -55 -35 -78q-8 -7 -18 -37.5t-25 -55t-39 -24.5q-27 0 -27 9v8 q0 15 -12 64.5t-12 68.5q0 28 -13 72t-24 55q-6 6 -6 43q0 32 -10.5 39t-61.5 10q-6 0 -16 1t-13 1q-18 0 -25.5 -6.5t-15.5 -24.5q-4 -9 -28 -50t-41 -78.5t-17 -59.5q0 -33 -10 -33q-9 0 -43.5 -49t-34.5 -61q0 -9 -20 -29q-14 -14 -21 -14t-20 16q-22 23 -47 112.5 t-37 186.5q0 3 -1 7.5t-1 6.5q-6 60 -12.5 75.5t-28.5 15.5q-2 0 -37 -5q-23 -3 -32 -9.5t-9 -22.5t10 -54q94 -348 109 -544zM1354 768q-9 6 -19 6q-24 0 -30 -41q-6 -36 -49.5 -127.5t-43.5 -113.5q-4 -17 -16 -37.5t-20 -46.5q-22 -65 -72 -168q-6 -12 -6 -17q0 -6 6 -6 q13 0 41 25q31 27 52.5 101.5t31.5 94.5q26 57 26 86q1 17 13 31t14 31q2 10 17.5 49t35 85.5t19.5 47.5zM879 457q3 1 7.5 40t7.5 97.5t3 105.5q0 103 -14 103q-15 0 -43.5 -34t-28.5 -54q0 -23 19.5 -100t21.5 -97q6 -67 18 -67q3 0 9 6zM426 567q-1 5 -9 76t-19.5 131 t-24.5 60q-10 0 -27.5 -20t-17.5 -30q11 -28 31 -171t34 -181l15 -39q3 5 9 14.5t9 15t7 14t5.5 17t1.5 19.5q0 9 -4 33q-7 55 -10 61zM285 823q30 50 26 54q-1 0 -3 1t-3 1q-15 0 -51.5 -22t-67.5 -50q-41 -38 -41 -45q0 -4 15 -8q3 0 8 -1t8 -1q63 0 109 71zM1235 893 q-45 0 -61 -7.5t-54 -47.5q-43 -43 -43 -62q6 -6 84 -10h27q34 0 48.5 5.5t35.5 23.5q28 25 74 53q32 19 32 33q0 6 -12 6q-15 0 -25 -4t-24 -4q-10 0 -12 4q-7 10 -70 10zM887 905q0 10 -53 10q-38 0 -55 -9.5t-60 -53.5q-60 -64 -60 -74q0 -9 22 -17.5t46 -8.5 q13 0 86.5 70.5t73.5 82.5zM498 557q9 2 40 68.5t31 93.5l-2 10q-2 6 -2 14q0 17 21.5 43t107.5 115l76 78h78q75 0 95 -15.5t20 -86.5q0 -45 -2 -76v-8q-5 -88 -5 -93q0 -41 11 -41q7 0 24 29q13 26 13 29q0 9 -15.5 20.5t-15.5 20.5q0 12 26 39t103 100l67 61l121 -6 q116 -6 158.5 -13t42.5 -21q0 -11 -23 -31q-21 -20 -53 -112.5t-41 -108.5q-10 -19 -16.5 -44.5t-14.5 -37.5q-11 -16 -48.5 -127t-45.5 -160q-2 -15 -105 -131t-102 -131q-2 -17 -5.5 -26t-12.5 -13t-16.5 -4t-28.5 -0.5t-39 -1.5q-117 -10 -137 -13q-32 -4 -37 -4 q-20 0 -27 17q-11 34 -26 67q-10 24 -18 32.5t-19 8.5q-13 0 -21 -2q-27 -6 -75.5 -29.5t-69.5 -41.5q-3 -8 -88 -16.5t-162 -8.5h-18q-2 85 -43.5 273.5t-44.5 224.5q-3 33 -20 80t-34.5 79t-21.5 31q-17 14 -17 31q0 35 82 117q79 79 99 79q14 0 78 31t96 31 q11 -1 15 -1.5t8.5 -3t5.5 -8t1 -14.5q0 -4 -1 -13t-1 -15v-25q0 -39 5.5 -77.5t14.5 -86t13 -80.5q14 -96 21 -96z" />
<glyph unicode="x" horiz-adv-x="1083" d="M500 113q2 8 2 22q0 23 -10 23q-4 0 -6.5 -2.5t-6.5 -7t-8 -7.5q-41 -46 -41 -78q24 0 47 13.5t23 36.5zM743 252q0 -14 58 -88.5t67 -71.5q25 16 25 39q0 32 -57 105q-7 10 -18.5 24t-14.5 18t-10 15.5t-13.5 23.5t-17.5 35q-30 62 -49 62q-11 0 -21 -19q-4 -6 -4 -18 q0 -29 37 -84q18 -25 18 -41zM387 373q0 -16 -59.5 -77.5t-59.5 -66.5q0 -4 -39 -43q-23 -23 -52.5 -68t-29.5 -57q0 -3 14.5 -5.5t45 -7t53.5 -9.5q10 -2 25 -2q25 0 40 13t27.5 33.5t24.5 29.5q25 30 65 86q52 73 78 73q25 0 37 -75q13 -68 72 -142l6 -8l74 6q96 8 96 19 q0 5 -19 20q-11 9 -27.5 32t-27.5 40.5t-29.5 49t-19.5 32.5q-38 73 -55 119q-9 18 -9 28t9 19q19 24 68.5 71t78.5 68q14 10 24.5 21.5t10.5 15.5q0 8 -48 25.5t-69 17.5q-18 0 -53 -31.5t-35 -46.5q0 -6 -4 -6t-6 2q-9 1 -29.5 -16t-50.5 -47l-33 -33q-13 15 -38 99.5 t-40 100.5q-6 9 -30 9q-47 0 -125 -23q30 -51 51 -113q5 -15 18 -22.5t15 -18.5q2 -18 28.5 -53.5t26.5 -58.5zM852 651q25 0 61.5 26.5t36.5 45.5q-1 11 -50 21.5t-52 15.5q-22 16 -37 16q-21 0 -57 -39q-41 -45 -37 -53q4 -9 54 -21t81 -12zM526 748q-11 43 -20 43 q-5 0 -11 -4.5t-10 -9.5l-8 -10l-4 -5q-14 -17 -14 -29q0 -8 10 -28q8 -10 12 -46t10 -65t19 -29q5 0 14 6q17 14 17 72q0 49 -15 105zM414 825q-25 0 -42 -10.5t-34 -11.5q-29 0 -53 -35q-29 -37 -29 -49q0 -10 16 -10q21 0 62 14q35 12 65 35t43 49q4 8 4 10q0 8 -32 8z M963 645q-82 -65 -207 -184q28 -22 68 -92.5t46 -79.5q11 -9 23 -31.5t22 -28.5q6 -1 19 -24t26.5 -45t22.5 -21q11 -3 19 -19t8 -32t-9 -22q-21 -7 -28 -7q-11 0 -15 2h-8q-23 0 -44 -17t-21 -38q0 -9 -16 -11.5t-68 -4.5q-79 0 -133 -8l-35 -5q-13 0 -20.5 5.5t-22.5 21.5 q-26 29 -39 29q-8 0 -23 -15q-11 -13 -87 -25.5t-87 -19.5q-22 -14 -45 -14q-15 0 -47 8t-49 10q-93 15 -122.5 27.5t-29.5 34.5q0 24 44 76.5t47 58.5q5 10 83.5 99.5t83.5 99.5q-6 23 -38.5 73t-42.5 74q-25 59 -50 88q-20 30 -20 58q0 52 55 110q15 17 25.5 36t16 26.5 t26 16.5t61.5 17q54 12 105 29q27 10 47 10q31 0 49 -19t18 -54q0 -36 15 -102t26 -77q4 -4 9 -4t14 19q8 19 61 80t82 82q9 6 21 6q16 0 78 -23q89 -33 113.5 -44.5t29.5 -22.5q0 -1 1 -4.5t1 -4.5q0 -20 -19 -51.5t-40 -46.5z" />
<glyph unicode="y" horiz-adv-x="1271" d="M455 -41q0 14 -6 14q-1 0 -9 -4q-5 -5 -73 -12q-46 -5 -65 -11.5t-40 -27.5q-1 -1 -8 -7.5t-11 -10.5t-8 -10.5t-4 -12.5q20 -4 37 -4q39 0 80 10.5t60 28.5q47 41 47 47zM758 416q0 -13 -32.5 -72.5t-33.5 -62.5q0 -10 -28.5 -67t-36.5 -62q-5 -5 -9 -5q-31 0 -88 129 q-24 41 -44.5 111.5t-26.5 126.5q-7 66 -21 66q-35 -4 -70 -12t-40 -13q-2 0 -2 -6q0 -14 27 -85.5t32 -94.5q12 -52 33 -80q17 -20 58.5 -104t47.5 -109q13 -54 13 -76q0 -38 -27 -72q-25 -30 -48.5 -50.5t-33.5 -22.5q-12 0 -27 -15q-22 -15 -67 -25t-92 -10q-38 0 -80 11 v-31q0 -57 -17 -109q-10 -25 -10 -45q0 -24 23 -24q11 0 35 6.5t28 7.5q9 1 43 6t54.5 8t47 10t40.5 15q10 10 36 10q22 0 87 32t85 52q24 12 75 73.5t59 68.5q10 5 10 14q1 11 45.5 88t46.5 86q2 17 16 37q12 17 77 151t83 177q23 58 23 73q0 21 -77 32q-20 3 -32 5 q-52 6 -86 6q-14 0 -16 -2q-12 -4 -46 -67t-34 -80zM541 592q0 -20 -11 -27q-10 -7 -10 -33q0 -46 27 -135q41 -131 69 -131q3 0 14 12.5t19 28.5q19 32 19 41q0 8 -13 31q-9 17 -18 62.5t-17.5 101t-11.5 69.5q-9 39 -33 39q-14 0 -24 -15.5t-10 -43.5zM911 674 q-22 -25 -22 -35q0 -2 0.5 -3.5t2.5 -3t4 -2t5.5 -1.5l7 -2t9 -2t10.5 -2l3 -1q3 -1 7 -1l86 -9q45 0 74 33q14 23 20 35h-10q-28 0 -75 4.5t-64 9.5q-16 4 -19 4q-18 0 -39 -24zM530 690q11 7 11 8q0 5 -14.5 9t-32.5 4q-13 0 -27 -4t-24 -8.5t-24 -15t-20 -15.5t-20 -18 t-17 -15q6 1 29.5 2.5t35 2.5t29 4.5t27.5 8.5t15 13q24 24 32 24zM319 -416q-39 0 -109.5 -17.5t-115.5 -17.5q-21 0 -33 2q3 42 22.5 111.5t20.5 118.5q0 55 11.5 79t44.5 38q33 11 55 61q20 40 40.5 48.5t115.5 15.5q94 7 94 16q0 15 -21 67.5t-30 63.5q-11 15 -18 31.5 t-21 36.5q-39 57 -69.5 157.5t-33.5 173.5q0 2 -1 5.5t-1 5.5q0 17 11.5 38t33 43t36.5 36t39.5 34t25.5 21q18 15 41 19.5t73 4.5q82 0 104.5 -8t22.5 -39q0 -23 19 -153t29 -130q7 0 16 31q10 28 39.5 75t38.5 69q6 13 24 35t33 37t43.5 43t32.5 32q118 -29 170 -29 q17 0 53 4h14q39 0 39 -26q0 -35 -51 -92q-18 -19 -30.5 -40.5t-12.5 -31.5q0 -97 -194 -455q-21 -38 -46 -87t-38 -73t-36.5 -58t-54.5 -68q-16 -17 -35 -37.5t-28 -30.5t-21 -22l-17.5 -17.5t-13 -11.5t-13 -9t-11.5 -6q-33 -15 -33 -20q0 -11 -30.5 -22t-46.5 -11 q-2 -1 -44 -13.5t-76.5 -20t-56.5 -7.5z" />
<glyph unicode="z" horiz-adv-x="905" d="M778 217q0 24 -4 29.5t-24 5.5q-38 0 -56.5 -22.5t-27.5 -82.5q-4 -32 -4 -34q0 -11 6 -11q2 0 32 19q46 29 62 48.5t16 47.5zM664 270q28 19 28 27q0 10 -78 10h-24q-66 0 -88.5 -3.5t-40.5 -18.5q-29 -25 -29 -33q0 -6 62 -6h41q98 5 129 24zM598 373q18 0 18 4 q0 3 -7 6.5t-13 3.5q-2 0 -4 -2t-3 -4l-1 -2q0 -6 10 -6zM313 176l172 197q15 0 46 33t36 53q2 10 5 36.5t7 48.5t9 31q2 2 2 7t-13.5 16.5t-13.5 22.5q0 10 -22.5 13t-106.5 3q-55 0 -105.5 4t-68.5 4q-29 0 -49 -2q-30 -3 -37 -10t-10 -37l-4 -43q53 2 130.5 23.5 t117.5 25.5q8 2 20 2q37 0 37 -24q0 -18 -27 -54q-39 -44 -47 -63q-19 -37 -24 -37q-24 -16 -85 -79.5t-65 -67.5q-31 -31 -40 -51t-17 -70q0 -3 -1 -9.5t-1 -9.5q-11 -75 -11 -78q0 -18 17 -18h8q40 6 82 6q49 0 74 -10q10 -4 30 -4q13 0 37 3t35 3q9 0 25 -4q8 -8 28 -8 q7 0 21 1t20 1q17 0 23 -6q10 -13 14 -13q21 0 33 80q6 41 6 60q0 20 -8 26t-31 6q-25 0 -43 -2q-19 -1 -47.5 -4.5t-34.5 -3.5q-21 -2 -44.5 -4t-36 -3t-19.5 -1q-23 0 -23 10zM735 524q10 7 10 109q0 81 -8 86q-17 0 -43.5 -34t-36.5 -71q-28 -89 -28 -137q0 -18 6 -18 q15 0 54 25t46 40zM215 717q29 -10 152 -10q59 0 82 -2h32q28 0 45.5 2.5t42 9t35.5 8.5q33 6 72 22t39 25q0 4 1 12t1 9q0 6 -39 6q-60 0 -193 -8q-115 -7 -153 -14t-70 -25q-47 -24 -47 -35zM86 68q13 1 25 134l6 41v-1q4 6 37 42t85.5 92.5t88.5 96.5q41 44 41 57 q0 5 -7 5q-1 0 -38 -15q-43 -17 -127 -24q-36 -4 -45 -4q-25 0 -37 16t-13 61v25q0 26 -6 65t-6 50q0 22 11.5 31.5t43.5 9.5l56 32q70 42 103 54t69 12q90 2 214 8t128 10q2 2 8 2q15 0 40 -10.5t46 -26.5q35 -27 35 -38q0 -9 -19 -9q-16 0 -21.5 -55t-5.5 -124.5t-3 -84.5 q-6 -34 -13 -46t-28 -21q-16 -6 -33 -18t-46 -36.5t-30 -25.5q8 2 27 2q18 0 35 -3t36.5 -11t28 -12t32 -17t27.5 -15l5 -94q2 -16 2 -45q0 -76 -35 -76h-12q-32 0 -92 -50.5t-60 -76.5q0 -20 -21 -20q-1 0 -55 8q-116 21 -284 21q-13 0 -36 -1t-36 -1h-39q-48 0 -62.5 4.5 t-29.5 19.5q-13 13 -13 21q0 6 11.5 17t11.5 24z" />
<glyph unicode="{" horiz-adv-x="878" d="M745 68q9 21 9 32t-9 11q-19 0 -49 -35t-30 -64q0 -13 -2 -34t-2 -27q0 -17 8 -17q11 0 51 37q29 29 29 39q0 2 -5 17q-4 6 -4 22q0 13 4 19zM506 477q0 12 -0.5 29t-0.5 25.5t-1 17.5t-3.5 12.5t-6.5 3.5q-8 0 -25 -14q-14 -14 -14 -25q0 -14 12 -61q10 -44 10 -84 q0 -35 -4 -55q-12 -73 -12 -117q0 -62 31 -98q43 -43 90 -43q38 0 63 32q8 8 8 13q4 6 10.5 14t8.5 12t2 8q0 12 -45 35q-1 0 -3 1t-3 1q-60 30 -86 97t-31 196zM152 678q20 0 50.5 22t30.5 43q0 9 -8 17q-18 -3 -44 -33t-29 -49zM494 721q0 -59 14 -59q6 0 12 18 q0 3 10.5 118t22.5 160q4 24 4 27q0 14 -10 14q-26 -1 -48 -49.5t-22 -97.5q0 -13 4 -33q13 -54 13 -98zM293 840q0 -105 -10.5 -146t-36.5 -41q-22 0 -62 -27t-43 -44q-8 -33 -8 -56q0 -20 10 -30.5t39 -24.5q19 -10 29.5 -17t14 -11.5t10.5 -15t14 -19.5q11 -15 15 -52.5 t7 -191.5q1 -103 17 -147.5t59 -67.5q27 -15 27 -23q0 -13 59.5 -31t102.5 -18h61l6 53q4 36 4 41q0 19 -7.5 25t-27.5 6q-26 0 -66.5 21.5t-62.5 46.5q-22 23 -30 49.5t-8 77.5q0 18 4 96q4 47 4 102q0 43 -17 78q-20 41 -20 64q0 18 12 30q45 42 45 131q0 32 -6 72 q-10 68 -10 84q0 24 12 68q11 39 42.5 80t57.5 47q15 3 22.5 18.5t14.5 62.5q8 62 8 64q0 15 -8 23q-17 10 -39 10q-56 0 -116 -46.5t-64 -97.5q-3 -40 -29 -73q-18 -24 -22 -50t-4 -120zM715 1126q0 2 1 12t1 15q0 37 -5.5 73t-13.5 36q-6 0 -34 -21q-9 -8 -16 -22.5 t-11 -35.5t-6.5 -38t-5 -43.5t-4.5 -38.5q50 30 94 63zM645 1309q0 14 -43 14q-87 0 -149 -35q-29 -20 -29 -24h2q12 0 31 8q18 6 55 6q25 0 39 -2q12 -2 35 -2q59 0 59 35zM233 915q0 44 15.5 82t17.5 58q2 21 24 75t25 68q2 16 19 36.5t20 29.5q2 26 41 54.5t99 45.5 q47 12 102 12q103 0 141 -33q8 -9 21.5 -100.5t13.5 -132.5q0 -5 -1 -10l-1 -6q-8 -15 -49 -35q-38 -17 -72.5 -61t-46.5 -91q-9 -15 -15 -162.5t-16 -160.5t-10 -82q0 -75 12 -140q12 -56 40.5 -94.5t58.5 -38.5q23 0 43 -16q19 -16 35 -16t16 16t27 16q15 0 19.5 -2.5 t4.5 -15.5q0 -3 -4 -43q-8 -63 -8 -105q0 -31 6 -49q2 -4 2 -12q0 -13 -15.5 -30.5t-66.5 -67.5l-86 -84q-62 -10 -104 -10q-76 0 -137.5 27.5t-122.5 90.5q-38 39 -50.5 84.5t-17.5 151.5q0 8 -1 22t-1 21q-3 113 -14 149t-60 58q-15 0 -43 20q-22 16 -22 43q0 3 4 49 q2 14 2 41q0 34 -6 37q-11 7 -11 21q0 29 34 78.5t89 99.5q36 34 42.5 48.5t6.5 63.5z" />
<glyph unicode="|" horiz-adv-x="663" d="M367 989q-1 0 -3.5 -1t-3.5 -1q-11 0 -14 13.5t-5 27t-9 12.5q-8 -2 -92 -6h-17q-22 0 -33.5 -2t-21.5 -13.5t-10 -33.5q0 -17 -2 -29q-6 -56 -14 -551t-13 -548q-4 -45 -4 -109q0 -43 4 -45q2 -2 14 -2q27 0 82 12q61 13 74 21.5t18 34.5q3 19 15 39t12 51q0 49 12 67 q8 2 12.5 246.5t7.5 496.5t7 263q4 36 4 39q0 11 -4.5 14.5t-15.5 3.5zM498 -61v8q0 12 25.5 486t25.5 601q0 115 -19 115q-13 0 -43 -35q-32 -37 -32 -67q-11 -81 -18 -345t-7 -452q0 -243 -10 -301q-19 -114 -19 -121q0 -10 3 -12t10 -2q6 0 11 4t5 8q2 7 35 47t33 66z M193 1102q0 -17 20 -17q4 0 9 1t13.5 2t14.5 2q13 2 37.5 4.5t33.5 3.5t25.5 4t26 7.5t23 11.5t28.5 18q48 32 57 32q5 0 18 15.5t13 25.5q0 5 -2 7q-19 8 -37 8t-59.5 -11.5t-69.5 -11.5q-39 0 -55.5 -7t-48.5 -34q-19 -17 -33 -35t-14 -26zM559 -76q0 -37 -31 -71 q-142 -151 -157 -181q-8 -15 -14.5 -20.5t-20.5 -5.5q-7 0 -35 4q-3 0 -10 1t-10 1q-24 0 -81 -8.5t-79 -8.5q-14 0 -23 3q-11 3 -24 30t-13 51l15 338l6 154q4 110 9 282.5t8 259t8.5 186.5t13.5 146t20 56l17 16q45 46 68.5 67.5t44.5 32t32.5 11t43.5 3t67 9.5q12 6 55 6 q96 0 131 -14q2 0 4 -3.5t3.5 -11t2.5 -18t1.5 -25t0.5 -29.5v-34q0 -111 -9 -474t-11 -382q-33 -297 -33 -371z" />
<glyph unicode="}" horiz-adv-x="864" d="M201 76q0 -6 4 -6q6 0 19.5 11t23.5 25q16 21 16 33q0 6 -4 6q-8 0 -29 -24q-30 -37 -30 -45zM582 244v53q0 76 -4 80q-2 2 -7 2q-11 0 -22.5 -21.5t-11.5 -42.5q0 -31 -1 -75t-1 -58q0 -96 10 -96q4 0 12 8q14 14 19 42t6 108zM745 600q0 80 -8 80q-13 0 -36.5 -30.5 t-24.5 -51.5v-20q0 -68 8 -76q33 8 47 27t14 71zM688 729q-9 4 -27.5 9.5t-27 12.5t-21.5 27q-26 40 -57 115l-4 12q-12 -40 -12 -121q0 -66 12 -73q27 -19 82 -19q34 0 51 10q14 11 14 17q0 7 -10 10zM438 -8q41 77 41 182q0 36 -2 59l-6 125q4 4 18.5 22t24 27.5t24.5 19 t29 9.5h8q29 1 39.5 8.5t10.5 26.5q0 7 -1.5 17.5t-4 27.5t-3.5 29l-8 80q-14 4 -38.5 9t-32.5 7t-22 9t-18 15.5t-10 25t-7 39t-1 56.5q0 8 1 30.5t1 35.5q0 21 1 51t1 41q0 55 -5 75.5t-23 51.5q-48 83 -94.5 124.5t-116.5 41.5q-22 0 -38 -30.5t-16 -73.5q0 -46 11 -46 q3 0 6 3q4 2 16 2q25 0 59 -12t52 -29q30 -30 45 -64q14 -14 14 -57q0 -68 -41 -215q-2 -4 -2 -10q-10 -42 -10 -50q0 -9 10 -32q10 -24 28.5 -33t27.5 -23q4 -12 4 -14q0 -16 -25 -41q-33 -33 -33 -45q-3 -89 -13.5 -220.5t-14.5 -135.5q-88 -109 -136 -109 q-22 0 -30 -21.5t-8 -74.5q0 -84 26 -84q8 0 29 8t35 10q13 0 64.5 31.5t78.5 60.5q10 11 21 16t16.5 9.5t7.5 17.5q0 6 3.5 11.5t6.5 5.5zM541 1065q2 0 2 10q0 20 -7 56.5t-14 50.5q-8 16 -34.5 33.5t-60.5 34.5t-44 24l-29 12q0 -13 43 -43q16 -7 46 -44.5t61 -82 t37 -51.5zM580 37q-25 -27 -46.5 -40t-35.5 -26q-6 -6 -41.5 -43t-65.5 -63.5t-51 -34.5q-26 -10 -40 -23t-46 -22q-18 -2 -60 -19.5t-63 -17.5q-10 0 -16 2q-14 9 -17 28t-4 120q-1 56 -5 75t-13 19q-15 0 -15 10q0 20 68 88q28 28 48 52t33.5 38t39.5 33q21 15 25 31t6 86 q0 95 10 102q6 9 11 34t13 40q11 22 11 26q0 13 -23 39q-27 39 -27 82q0 29 13 62q11 31 27 106t16 103q0 11 -10 30.5t-23 34.5q-20 23 -36.5 29t-55.5 8q-59 4 -68 10q-10 10 -10 146v104q17 5 64.5 22.5t87.5 27.5t75 10q48 0 84 -23q7 -4 36 -26t46 -33q19 -13 28.5 -20 t19 -21t13 -24t7.5 -37t5.5 -51t4.5 -75q4 -73 11.5 -107.5t25.5 -74.5q9 -20 19.5 -34t18.5 -21.5t25 -12.5t25 -6t34 -3t36 -3v-258l-74 -74q-51 -51 -69.5 -85.5t-18.5 -80.5q0 -13 4 -49q2 -12 2 -39q0 -89 -59 -151z" />
<glyph unicode="~" horiz-adv-x="1130" d="M879 532q8 0 31 21.5t32 21.5q22 0 34.5 28.5t12.5 74.5q0 36 -2 47.5t-10 11.5q-7 0 -27 -10q-20 -9 -36.5 -38t-16.5 -42q0 -5 -14.5 -45t-14.5 -55t11 -15zM338 563q18 -14 40 -25t52 -34q66 -48 107.5 -67t83.5 -19q4 0 11 1t11 1q59 6 110 39t52 67q0 8 9 44t9 48 q0 13 -8 13q-9 0 -20 -8q-22 -13 -99 -31q-56 -12 -73 -12q-23 0 -60 12q-35 10 -131 77t-119 76q-43 15 -71 15q-55 0 -95 -29q-14 -10 -18 -28t-6 -72v-27q0 -59 16 -59q8 0 27 16q21 21 88 21q62 0 84 -19zM305 848q-29 0 -29 -10q0 -11 29 -17q52 -12 174 -106 q85 -68 154 -68q25 0 55 6q151 32 209 109q-36 -6 -102 -25q-33 -8 -93 -8q-74 0 -114 12q-29 7 -51.5 26t-69.5 73q-30 37 -74 37q-28 0 -47 -19q-10 -10 -41 -10zM291 901q16 2 54.5 17.5t66.5 15.5q30 0 48 -10.5t64 -55.5q52 -50 81 -68t69 -18q38 0 180 33 q138 31 178 31q32 0 35 -12q2 -8 2 -25q0 -26 -9 -79t-11 -73q-4 -43 -13.5 -61t-44.5 -51q-51 -48 -84 -66q-123 -63 -123 -76q0 -11 -55 -32q-61 -23 -100 -23q-53 0 -117 29t-164 96q-62 41 -106 41q-35 0 -82 -29q-42 -28 -62 -28q-26 0 -32 37q-5 40 -5 71 q0 54 5.5 110.5t11.5 65.5q6 8 13 38t26 38q5 2 45.5 24.5t76.5 40t52 19.5z" />
<glyph horiz-adv-x="1146" d="M938 913q22 9 33 19.5t13 19.5t5 28t8 34q7 18 7 20q0 6 -15 6h-12q-46 -6 -72 -12q-31 -9 -40 -21.5t-21 -62.5q-17 -76 -17 -86q0 -12 7 -12t32 22q40 33 72 45zM528 1090h-32q-6 0 -10.5 -5t-12 -15t-16.5 -17q-21 -18 -47.5 -66.5t-26.5 -66.5q0 -5 4 -5t9.5 1 t14.5 2t15 2q26 4 35.5 13.5t21.5 43.5q6 18 27.5 59t21.5 49q0 5 -4 5zM303 1083q0 -10 14 -10q9 0 19.5 6t13.5 15q7 18 37 55q19 22 19 31q0 4 -5 4q-15 0 -57 -45q-41 -45 -41 -56zM899 1206q0 8 -12 8q-16 0 -37 -12q-35 -20 -59 -63q-5 -5 -5 -9q0 -6 7 -6q4 0 6 2 q20 8 60 39.5t40 40.5zM260 872q0 5 4 5q3 0 12 -9q8 -8 15 -8q8 0 15.5 10t13 26.5t9.5 32.5t7.5 33t5.5 23q4 12 4 14q0 11 -29 11q-35 0 -55 20q-24 18 -24 43q0 39 69 111q41 45 39 47q-3 3 -39 10q-8 2 -20 2q-22 0 -51 -39q-1 -2 -11 -12q-28 -37 -46 -65t-35 -73.5 t-17 -88.5v-99h84q47 0 49 6zM760 1237q-14 0 -26.5 11t-16.5 12q-12 0 -55 -54.5t-56 -87.5q-10 -25 -24.5 -58.5t-19.5 -46t-13 -33t-10 -29t-5 -23.5t-3.5 -27.5t-0.5 -30.5v-34h238l6 47q10 72 10 84q0 14 -4.5 19t-15.5 5h-16q-4 0 -11 -1t-8 -1q-13 0 -20 6.5 t-15 24.5q-8 20 -8 29q0 14 29 71q35 68 49 82q16 16 16 25q0 10 -20 10zM909 1255q2 -2 6 -2q10 0 16.5 19t6.5 26q-7 0 -20 -16q-13 -13 -13 -20q0 -3 4 -7zM860 1311q13 13 30 20.5t25 20.5q0 1 1.5 3t1.5 3q0 10 -15 10q-22 0 -54 -19.5t-32 -37.5q0 -7 4 -11 q6 -6 13 -6q6 0 26 17zM303 1298q0 -4 66 -12q36 -4 43 -4q18 0 29.5 6t35.5 25q37 30 37 41q-7 7 -74 10h-28q-29 0 -42 -5t-32 -24q-35 -31 -35 -37zM467 1161q0 -13 -11.5 -25.5t-11.5 -23.5q0 -10 7 -10q4 0 16 6t29 6h18q12 0 20.5 7t16.5 28q12 30 82 103.5t94 84.5 q17 8 47 31q74 55 154 55q37 0 112 -14q45 -9 45 -37t-43 -65q-24 -21 -50.5 -67.5t-26.5 -65.5q0 -5 2 -7q2 -5 47 -12q35 -5 49 -13.5t14 -29.5q0 -15 -10 -53q-16 -70 -16 -127q0 -37 -2 -48.5t-11 -11.5q-6 0 -12 2q-2 0 -5 1.5t-5 1.5q-28 0 -72 -22t-70 -50 q-33 -33 -47 -33q-9 -2 -15.5 -12t-14.5 -10q-11 0 -27 8q-35 14 -152 14q-69 0 -94 4t-36 15t-17 43q0 30 -18 30q-15 0 -39 -18q-4 -8 -21 -12t-20 -13q-7 -22 -62 -22q-19 0 -64.5 4t-66.5 4q-22 0 -30 -2q-28 -4 -41 -4q-29 0 -35 6q-13 7 -13 74q0 101 23 172 q18 50 56 112.5t71 94.5q29 29 29 40q1 18 14.5 33t52.5 47q6 3 12 9q35 30 127 30q46 0 84.5 -10.5t51.5 -28.5q12 -15 12 -28q0 -21 -47 -68t-47 -61q-1 -9 -17 -29.5t-16 -32.5z" />
<glyph horiz-adv-x="1247" d="M473 1231q0 31 -45 31q-22 0 -37 -5q-21 -6 -35 -6q-12 0 -18 6q-13 13 -78 13q-74 0 -96 -15q-21 -2 -21 -125l7 -49q8 0 21 1t17 1q30 0 43 -11t13 -42q0 -11 -4 -39q-7 -50 -18 -75.5t-36 -55.5q-12 -15 -12 -24q0 -7 2 -9q10 -9 56 -18.5t73 -9.5q12 0 14 2 q36 44 95 199t59 231zM670 1288q0 -10 -11.5 -68.5t-11.5 -76.5q0 -2 1 -5.5t1 -4.5q1 0 3 -1.5t3 -1.5q7 0 33.5 7.5t38.5 7.5t21 -6l6 -2q18 -9 18 -25t-12 -74q-12 -62 -30.5 -94.5t-76.5 -93.5q-47 -47 -47 -64q8 -8 47 -8q25 2 45.5 17t77.5 75q86 90 86 99q0 8 10 8 q11 0 42.5 61.5t35.5 96.5q2 10 15.5 61.5t13.5 71.5v8q-11 4 -67.5 11t-123.5 13t-73 7q-10 2 -25 2q-13 0 -16.5 -4.5t-3.5 -16.5zM483 999q43 0 78 149t35 202q-15 0 -40.5 -25t-25.5 -47v-10q0 -20 -9 -77t-9 -73q0 -30 -23 -76q-8 -20 -8 -36q0 -7 2 -7zM1024 1188 q-8 -8 -12 -44.5t-11 -47.5q-8 -13 -8 -21q0 -6 6 -6q10 0 23.5 12t13.5 25q0 3 4.5 7.5t6.5 4.5q20 0 35.5 65t24 130t11.5 65q-12 0 -37 -28q-21 -21 -28.5 -40.5t-12.5 -56.5q-7 -56 -16 -65zM537 1380q0 7 4 19q1 4 -17.5 7t-47 5t-58.5 2q-34 0 -62 -4 q-60 -10 -135 -68q118 -22 172 -22q23 0 31 2q33 4 73 25.5t40 33.5zM795 1411q-7 0 -15.5 -9t-13.5 -18t-4 -10q7 -4 91.5 -12t121.5 -8h12q7 -1 27.5 18t36.5 38.5t12 19.5q-8 8 -125 12q-14 0 -33 1t-26 1q-59 0 -66 -17q-6 -16 -18 -16zM494 920q0 -16 -21 -42t-22 -36 q0 -6 -3 -11.5t-6 -5.5q-2 0 -11.5 -6.5t-24.5 -19.5t-29 -27q-56 -53 -70 -53q-6 0 -14 8q-15 15 -141 31q-59 8 -72 16q-19 10 -19 27q0 23 25 35q35 19 64.5 70.5t29.5 86.5q0 27 -20 27q-30 0 -49 -8q-15 -6 -25 -6q-25 0 -25 34q0 3 1 9t1 10q16 101 21 147 q11 86 25 114t65 58q97 61 134 75.5t100 14.5h32q25 -1 82.5 -2t73.5 -2q36 -3 45 -8.5t12 -25.5q4 -29 13 -29q15 5 66.5 43.5t80.5 64.5q307 -15 315 -16q36 -3 48 -13t12 -42q0 -8 -4 -54q-3 -36 -7.5 -64.5t-8 -43.5t-12 -43.5t-13.5 -48.5q-15 -54 -78.5 -129.5 t-118.5 -106.5q-22 -13 -50.5 -51.5t-53.5 -52.5q-34 -18 -82 -74q-30 -33 -45 -41t-51 -8q-18 0 -58 -6t-57 -6q-31 0 -43 12q-10 10 -10 16t10 20t10 25q0 8 19.5 33.5t46.5 52.5q72 67 90 93.5t24 70.5q2 14 2 29q0 12 -10 12t-16 -2q-7 -1 -31.5 -2t-36 -6.5 t-12.5 -20.5q0 -15 -37.5 -56.5t-52.5 -41.5q-8 0 -8 -24z" />
<glyph unicode="&#xa2;" horiz-adv-x="1095" d="M309 391q8 0 25 29q8 13 8 22q0 10 -14 21q-18 12 -27 12q-18 0 -18 -31q0 -20 7.5 -36.5t18.5 -16.5zM412 561q2 6 2 17q0 12 -11 12t-30 -8q-29 -13 -29 -25q0 -14 14 -31q8 -14 19 -14t21 16.5t14 32.5zM485 575q-5 0 -12.5 -8.5t-11.5 -19.5q-6 -21 -40 -95t-46 -94 q-23 -32 -58 -32q-19 0 -34 10q-56 36 -56 98q0 56 37.5 116t79.5 81q35 18 53 18q22 0 62 -37zM885 254q0 8 -15 8q-18 0 -18 -10q-4 -6 -36 -30.5t-32 -49.5q-2 -8 -2 -20q0 -4 -1 -8t-1 -5q0 -4 4 -4q1 0 8 1t13 1l16 4q25 6 34.5 17t16.5 43q2 11 5.5 24t5.5 20t2 9z M711 281q0 8 -35 22q-33 10 -39 10q-10 0 -27 -14q-8 -8 -8 -20q2 -3 6 -3q2 0 6 -4q12 -6 41 -6q21 0 38.5 4.5t17.5 10.5zM659 500q-27 0 -44.5 -18t-47.5 -74q-28 -51 -28 -64q0 -8 8 -8q11 0 35 12q26 12 33.5 19.5t14 22t21.5 30.5q26 29 33 55q4 12 4 14q0 11 -29 11z M918 668q0 34 32 98q-4 2 -12 2q-25 0 -66 -31.5t-41 -44.5q0 -6 -16 -44t-16 -52q0 -10 6 -10q1 0 59 24q36 18 45 27.5t9 30.5zM784 793q-8 0 -8 -11q0 -12 17 -12q29 0 69 31q29 23 29 30q0 8 -8 13q-6 6 -15 6q-14 0 -39 -25q-40 -32 -45 -32zM500 831q2 6 2 15 q0 14 -13 14q-8 0 -20 -6q-29 -14 -61 -20q-31 -8 -74.5 -32t-44.5 -34q13 0 62 14.5t75 14.5h20q54 0 54 34zM375 33q9 0 29 -1t30 -1q229 0 250 45q14 18 28.5 57t14.5 60q0 2 -1 5.5t-1 4.5q-9 12 -20 12q-8 0 -30.5 -7t-35.5 -7q-16 0 -27 8q-33 10 -77 10 q-36 0 -65.5 15.5t-29.5 35.5q0 37 107 205q33 52 64 66t94 14q16 0 38 68l23 75q0 6 -49 13q-33 5 -47.5 12t-14.5 22q0 16 29 76l39 74l-41 8q-35 6 -55 6q-34 0 -50 -19t-28 -71q-12 -49 -23.5 -64.5t-38.5 -15.5q-18 0 -28 2h-17q-75 0 -156.5 -51.5t-105.5 -116.5 l-37 -84q-22 -45 -22 -131q0 -71 16 -102q17 -34 76 -63l25 -13q31 -16 42 -24t11 -17q0 -18 -26.5 -100.5t-26.5 -87.5q2 2 4 6q0 -26 32 -29q2 0 6.5 -1t6.5 -1q14 0 23 10t32 44zM864 940q0 14 -10 14q-20 0 -41 -34q-27 -41 -27 -56q0 -6 7 -6q14 0 43 33q28 36 28 49z M829 1057q-27 6 -49 6q-42 0 -100 -41l-62 -39l70 -14q54 -8 55 -8q13 0 35 14t31 14q53 35 53 47q0 14 -33 21zM604 1040q4 1 40.5 28.5t51.5 27.5q21 0 37 16q11 14 55 14q47 0 93.5 -15t46.5 -34q0 -14 12 -14q10 0 10 -29q0 -41 -16 -73t-16 -48q0 -24 30 -24 q26 0 38.5 -8t31.5 -37q18 -27 18 -39q0 -16 -26 -55q-27 -44 -27 -62q0 -12 10 -12q7 0 11 2q6 2 14 2q12 0 12 -10q0 -16 -20 -33q-25 -25 -89 -54.5t-118 -58.5t-66 -59q-23 -45 -35 -62q-20 -20 -20 -34q0 -5 2 -7q1 -6 55.5 -13.5t126.5 -15.5t92 -11q7 0 7 -13 q0 -12 -5 -34t-13 -47t-15 -46t-14 -39.5t-7 -19.5q-5 -14 -24 -14q-17 0 -69 -25t-75 -45q-69 -60 -231 -66q-79 -3 -96 -7.5t-29 -26.5q-20 -36 -28 -48.5t-20.5 -21t-29.5 -8.5q-19 0 -49 6q-72 14 -82 24q-4 4 -4 19q0 27 12 72.5t29 76.5q16 32 16 45q0 20 -47 37 q-123 45 -123 215q0 113 70 250q16 29 16 49q0 12 23 49.5t51 73.5q34 43 137 93.5t156 50.5q14 0 25 12t28 47q29 59 37 59z" />
<glyph unicode="&#xa3;" horiz-adv-x="1509" d="M332 188q0 11 -8 18t-19 7q-22 0 -37 -18q-16 -19 -16 -27q0 -4 6 -10q13 -13 31 -13t30.5 11.5t12.5 31.5zM309 262h10q30 0 53 -24t23 -52q0 -26 -20 -43q-21 -21 -21 -30q0 -8 -32.5 -18.5t-55.5 -10.5q-10 0 -12 2q-14 5 -37.5 35t-38.5 55q6 5 25 25t31 31 t30.5 21.5t34.5 10.5q2 0 5 -1t5 -1zM1350 356q-20 35 -31 35q-10 0 -25 -18q-16 -16 -16 -39q0 -20 14 -55l15 -39l32 24q31 25 31 43q0 16 -20 49zM330 393q33 0 40.5 3.5t10.5 21.5v8q0 12 -10 12t-27 -10t-32 -22t-17 -13h35zM696 588q-15 0 -21.5 -14.5t-10.5 -61.5 q-2 -16 -2 -45q0 -43 13 -72.5t44 -60.5q43 -45 85.5 -63.5t104.5 -18.5q46 0 103 15.5t57 27.5q0 4 -108 8q-97 2 -137 17.5t-79 68.5q-24 31 -29 48t-5 61q0 15 3 36.5t3 26.5q0 22 -21 27zM819 754v-13q0 -29 3 -40t14 -11q6 0 16.5 5t15.5 5q11 5 16 8t8 9.5t3 17.5 q0 3 -1 13t-1 16q-2 33 -6.5 45t-16.5 12q-9 0 -24 -6q-17 -6 -22 -16.5t-5 -44.5zM453 836q0 12 -15 12q-26 0 -51 -25q-20 -20 -20 -30q0 -11 22 -11q20 0 42 18.5t22 35.5zM799 858q-1 8 -8.5 10t-19 2.5t-17.5 3.5q-3 3 -9 3q-13 0 -28 -11q-12 -9 -12 -12t43 -6 q51 0 51 10zM743 967q0 20 -10 20q-9 0 -24 -18q-19 -19 -19 -37q0 -8 6 -8q15 0 31 15.5t16 27.5zM1198 301q-7 1 -72 -38.5t-67 -39.5q-4 0 -45 -18q-42 -17 -88 -17q-59 0 -131 21q-19 6 -39.5 17.5t-43.5 30t-38 31.5t-40.5 38t-33.5 32l6 127q5 100 16.5 127t53.5 27 h35q36 0 45.5 12.5t9.5 55.5q0 42 -13.5 60.5t-45.5 18.5q-9 0 -37 -4q-18 -4 -43 -4q-31 0 -31 29q0 14 2 24q10 67 24 101.5t40 60.5q63 58 86 72t57 14q39 -2 81 -23.5t42 -41.5q0 -8 4 -8q7 0 20 16q13 15 52 43q20 11 20 22q0 7 -12 25q-18 29 -29 29q-12 0 -12 14 q0 12 -20 23.5t-77 31.5q-40 15 -59 15q-23 0 -102 -33q-65 -27 -97.5 -53t-76.5 -90q-26 -39 -31.5 -62t-5.5 -104q0 -112 -10 -119q-19 -12 -59 -23.5t-64 -11.5q-34 0 -53 -23.5t-19 -64.5v-12h78q43 0 59.5 -16t16.5 -74q0 -8 -1 -18.5t-2 -25.5t-2 -26 q-12 -152 -36 -152q-6 0 -15 9q-14 14 -45 14q-35 0 -76 -15.5t-71 -41.5q-66 -54 -66 -131q0 -40 21 -73.5t61 -53.5q51 -21 82 -21q51 0 94.5 31.5t71.5 89.5q24 49 51 49q16 0 35 -16q67 -53 170 -97.5t205 -44.5q53 0 112 19q43 15 82 40t62.5 47t66.5 66q-2 5 -13.5 38 t-21 52.5t-18.5 22.5zM930 1282q-27 0 -27 -8q0 -14 37 -29q32 -13 72 -47.5t55 -60.5q10 -13 16 -13q5 0 13.5 3t13.5 5l6 3q37 14 37 26q0 9 -12 33q-9 18 -29.5 29.5t-73.5 29.5q-85 29 -108 29zM858 631q-8 -2 -27.5 -17.5t-33.5 -15.5q-12 0 -17 -9t-6 -36v-39 q0 -47 7.5 -70t29.5 -45q23 -24 41 -28t106 -4q90 0 131 10.5t150 62.5q12 6 21 6q4 0 9.5 -2t8.5 -2q8 0 22 11q22 16 37 16q25 0 45 -45q25 -56 31 -64q35 -59 35 -77t-23 -25q-24 -8 -55.5 -36.5t-52.5 -63.5q-1 -1 -4.5 -7t-6.5 -11t-7.5 -9t-8.5 -4q-14 -2 -89 -62 t-89 -65q-13 -5 -36.5 -15.5t-32.5 -13.5t-29 -8t-43 -6.5t-56 -1.5h-135q-223 113 -235 121q-21 12 -27 12t-10 -8q-7 -23 -45 -58.5t-70 -50.5q-49 -22 -121 -22q-57 0 -72 5t-44 34q-32 32 -56 79t-24 76v19q0 16 -4 20q-11 7 -11 25q0 34 27 55q13 11 39.5 58t42.5 57 q13 11 70 44t100 65t47 55q0 22 -6 28q-2 2 -8 2q-13 0 -107 -20q-8 -2 -20 -2q-33 0 -33 35q0 20 14 67t15 51q15 68 32 95t66 59q66 43 80 49q18 7 24 60q7 65 84 158t115 104q15 0 78 45q76 57 178 57q69 0 164 -29q47 -15 86 -42.5t39 -45.5q0 -12 22 -34q17 -20 17 -33 q0 -24 -53 -47q-35 -16 -86.5 -57.5t-83.5 -57.5q-54 -30 -54 -43q0 -12 -24 -12q-36 3 -58 63q-9 23 -24 23q-17 0 -29 -27q-12 -21 -12 -41q0 -47 78 -47h22q25 0 32.5 -15t10.5 -69q4 -65 21 -96q12 -21 12 -33q0 -22 -45 -22q-22 0 -45 -15.5t-31 -17.5z" />
<glyph unicode="&#xa7;" horiz-adv-x="1073" d="M428 682q0 -23 42.5 -70.5t76.5 -60.5q47 -19 49 -19q6 0 6 15q0 14 -4.5 29t-11.5 18q-11 4 -16.5 21t-18.5 20q-6 1 -52 29t-61 28q-10 0 -10 -10zM377 664q-3 25 -9.5 39t-13.5 14q-12 0 -18 -37q-4 -28 -4 -35q0 -23 11 -38t40 -34q49 -22 51 -22q0 7 -24 31 q-17 14 -23.5 32t-9.5 50zM612 653q7 0 10.5 -16t10.5 -16q11 0 22 -46q7 -21 7 -32q0 -42 -34.5 -68t-78.5 -26q-21 0 -39 6q-34 12 -47 12q-11 0 -27 -16q-2 0 -8 12q-3 9 -21.5 24t-39.5 25q-62 32 -81 59.5t-20 87.5q0 49 5.5 63.5t33.5 37.5q39 31 76 31q47 0 76 -39 q9 -11 22 -11q12 0 70.5 -45t62.5 -43zM379 106q-12 2 -52 -23t-40 -46q0 -9 8 -14q1 0 11 -1.5t25 -3t29 -2.5q4 0 12 -1t11 -1q38 0 63 12.5t25 28.5q0 21 -39 33q-9 3 -22 7t-20.5 6.5t-10.5 4.5zM838 289q-19 24 -35 24q-3 0 -35 -4q-25 -6 -25 -24q0 -13 15 -19 q27 -15 38 -68t11 -100q-2 -20 -2 -43q0 -12 4 -12q6 0 25 29q28 45 28 116q0 66 -24 101zM178 909q0 5 33 31.5t33 32.5q0 4 -4 12t-8 13l-3 6q-9 12 -14 12q-4 0 -27 -29q-19 -26 -40 -64.5t-21 -52.5q4 0 11 7.5t7 9.5q0 10 15.5 13.5t17.5 8.5zM829 721q0 -13 15 -29.5 t29 -26.5t16 -10q4 4 4 13q0 37 -51 120t-94 111q-9 5 -36.5 28t-41.5 29q-24 10 -63.5 65t-43.5 95q-3 35 -18 35q-13 0 -27.5 -21t-19.5 -43q-2 -8 -2 -20q0 -27 14.5 -52t50.5 -59q57 -57 82.5 -78.5t61.5 -43.5q37 -23 80.5 -63t43.5 -50zM887 1157q23 0 28.5 4.5 t8.5 24.5q0 3 1 8.5t1 7.5q0 12 -8 12q-9 0 -39 -18q-29 -19 -29 -27q0 -12 37 -12zM670 793q-5 -1 -61.5 49t-61.5 49q-11 0 -51 49t-52 78q-8 19 -8 45q0 67 43 104l41 35q4 4 15 4q22 0 57.5 -12t50.5 -25q15 -12 47.5 -25.5t44.5 -13.5q31 39 31 52t-37 43 q-54 42 -107.5 65t-125.5 23q-48 0 -68.5 -6.5t-58.5 -32.5q-115 -80 -115 -131q0 -37 15 -82t40 -78q33 -48 33 -61q0 -21 -47 -21q-18 0 -35.5 -5.5t-26.5 -10.5t-24.5 -15t-18.5 -12q-15 0 -31 -55.5t-16 -110.5q0 -124 22 -174.5t89 -81.5q35 -15 62.5 -32.5t66.5 -48.5 t51 -40q35 -24 63.5 -67.5t34.5 -79.5q7 -39 19 -55q6 -9 6 -15q0 -5 -6 -8q-12 -8 -33 -55q-15 -34 -45 -57t-61 -23h-11q-78 12 -147 31q-12 4 -16 4q-13 0 -25 -31q-8 -24 -8 -35q0 -31 49 -65q32 -21 89 -35t112 -14q29 0 41 2q38 6 92 38t96 74q25 27 41 85t16 114 q0 64 -20 84q-8 8 -15.5 22t-18.5 25.5t-34 24.5q-14 17 -14 34q0 26 49 35q39 6 79 26t40 34q0 16 8 16q9 0 22 50.5t13 84.5q0 1 1 4t1 4q0 24 -38.5 78.5t-39.5 59.5q0 9 -46.5 48.5t-57.5 39.5zM604 1421q-97 0 -110 -16q-2 -2 -20.5 -9.5t-18.5 -15.5q7 -6 87 -15 t87 -15q72 -34 103 -62.5t95 -56.5q4 4 26 15t40 22.5t18 19.5q0 7 -12 10q-5 3 -17 13t-22 16t-20 8q-11 0 -11 8q0 7 -63 43q-45 24 -70.5 29.5t-91.5 5.5zM211 1202q0 18 27.5 46t27.5 48q0 25 52.5 71t115.5 77q41 19 62 25t61 6q6 0 24 -1t31 -1q111 -4 142 -17 q69 -32 129 -80q8 -8 15.5 -12.5t16.5 -7.5t13 -6q3 -10 45 -39q39 -29 39 -51q0 -15 -17 -35q-10 -10 -10 -21q0 -8 8 -16q4 -2 4 -8q0 -21 -42 -52.5t-72 -31.5q-20 0 -58.5 -15t-46.5 -16q-14 0 -14 -12q0 -11 -12 -11q-22 0 -60 27q-39 27 -51 27q-6 0 -6 -4 q0 -11 33 -46.5t82 -72.5q108 -80 161 -185q35 -68 35 -155t-37 -148q-4 -6 -16 -41t-21 -41q-12 0 -12 -16q0 -27 31 -70q21 -27 26 -47t5 -77q0 -61 -7.5 -83.5t-42.5 -80.5q-51 -80 -94 -107q-30 -18 -42.5 -33.5t-30.5 -27.5q-26 -15 -33 -39q-5 -23 -21 -23q-3 0 -9 1 t-9 1q-17 0 -27 -10q-62 -43 -145 -43q-35 0 -84 6q-109 15 -117 23l-45 35q-40 29 -56 50t-16 48q0 14 2 22q9 47 42 89t104 100l84 67l35 -22q38 -23 55 -23q16 0 16 17q0 22 -68 84t-141 106q-100 62 -127 86q-67 64 -82 352q-2 25 -2 58q0 45 13 55q6 5 12 18.5t6 16.5 q0 12 16 30.5t17 26.5q0 15 37 45q35 28 35 52q0 6 -4 30q-3 15 -3 25q0 17 9.5 31.5t11.5 25.5z" />
</font>
</defs>
</svg>
