<?xml version="1.0" standalone="no"?>
<!DOCTYPE svg PUBLIC "-//W3C//DTD SVG 1.1//EN" "http://www.w3.org/Graphics/SVG/1.1/DTD/svg11.dtd" >
<svg xmlns="http://www.w3.org/2000/svg">
<metadata></metadata>
<defs>
<font id="dimensions_tworegular" horiz-adv-x="804" >
<font-face units-per-em="2048" ascent="1638" descent="-410" />
<missing-glyph horiz-adv-x="776" />
<glyph horiz-adv-x="0" />
<glyph horiz-adv-x="682" />
<glyph unicode=" "  horiz-adv-x="776" />
<glyph unicode="&#x09;" horiz-adv-x="776" />
<glyph unicode="&#xa0;" horiz-adv-x="776" />
<glyph unicode="!" horiz-adv-x="587" d="M162 1255q0 9 22 31q18 18 31 23.5t45 5.5q6 0 24 -1t31 -1q103 -4 107 -15q0 -13 -23 -45.5t-43 -54.5h-108q-84 0 -84 4q6 6 6 12q0 4 -4 17t-4 24zM287 336q0 3 14 14q18 15 37 15q25 0 65 -43q41 -41 41 -64q0 -12 -10 -39l-12 -31q-10 41 -53.5 92t-69.5 54 q-12 0 -12 2zM381 868q0 204 6 248q5 33 30 73t42 40q8 -31 9.5 -138.5t4.5 -136.5q2 -18 2 -59q0 -95 -17.5 -190.5t-39.5 -114.5q-13 -11 -29 -19q-8 0 -8 297z" />
<glyph unicode="&#x22;" horiz-adv-x="899" d="M184 1200q-3 3 33 39q22 22 37 27.5t49 5.5q51 0 51 -8q0 -9 -26 -39q-15 -18 -26.5 -23.5t-35.5 -5.5h-22zM295 850q0 23 2 33q18 188 24 228.5t19 53.5q19 19 27 19q6 0 6 -8q0 -9 -2 -13q-7 -18 -11 -92q-17 -234 -34 -240q-15 -4 -15 -20q0 -12 -2 -12q-1 0 -8 10 q-6 9 -6 41zM551 1214q-2 0 6.5 11t20.5 23t18 14q12 4 20 4q14 0 44 -6.5t42 -6.5q11 0 15 2q15 5 16 5q10 0 10 -7q0 -11 -22 -30t-59 -19q-4 0 -16 1t-19 1q-74 4 -76 8zM662 803q0 46 10.5 136.5t15.5 98.5q6 11 19.5 48t25.5 64t17 26q2 0 2 -13q0 -18 -2 -28 q-2 -14 -10 -90.5t-17 -141t-18 -80.5q-28 -47 -39 -47q-4 19 -4 27z" />
<glyph unicode="#" horiz-adv-x="1652" d="M225 485q0 3 4 11q9 12 35 12q14 0 26.5 -4.5t12.5 -9.5q0 -8 -33 -13q-24 -4 -30 -4q-15 0 -15 8zM250 860l22 23q11 16 39 16q11 0 37 -4t39 -4q24 0 39 10q44 14 53 14q15 0 15 -14q0 -16 -78 -22q-99 -8 -166 -19zM336 492q0 14 18 14q8 -3 8 -8q0 -6 -6 -12.5 t-12 -6.5q-4 0 -6 4q-2 2 -2 9zM631 84q0 23 12 47q11 21 39 21q11 0 18 -7q2 -2 2 -10q0 -19 -10.5 -49.5t-19.5 -34.5q-9 -6 -17 -6q-11 0 -17.5 11t-6.5 28zM668 498q0 23 6 32q9 13 24 58q4 12 14.5 35t14.5 37.5t4 33.5q0 25 -4 41l107 -8q81 -6 106 -15.5t25 -37.5 q0 -13 -7 -41q-15 -69 -24 -193q-14 -6 -174 -6h-90v10q0 8 -1 27t-1 27zM729 1180q0 3 62 47q62 47 116 47q24 0 43 -8q17 -7 17 -19q0 -14 -27 -41q-17 -14 -37.5 -18.5t-81.5 -7.5q-27 -2 -65 -2q-27 0 -27 2zM745 545q12 0 70 28q78 45 78 60q0 17 -59 20l-48 6 q-7 0 -24 -50t-17 -64zM831 514q0 -8 17 -8q22 0 22 12q0 10 -20 10q-7 0 -13 -4.5t-6 -9.5zM934 993q0 25 18 99q19 71 31 71q4 0 4 -16q0 -17 -2 -29q-4 -28 -4 -39q0 -45 31 -45q20 0 20 -16q0 -2 -1 -6t-1 -6q-3 -20 -10.5 -25t-38.5 -8q-10 -2 -27 -2q-13 0 -16.5 4.5 t-3.5 17.5zM1171 74q0 84 16.5 108.5t78.5 24.5q18 0 43 5t30 5q9 0 9 -6q0 -7 -13 -33q-22 -40 -22 -74q0 -26 -10 -38t-50 -39q-61 -37 -71 -37q-11 0 -11 84zM1204 1171q0 7 17 21q11 8 98 8q65 0 92 -6q2 -11 -63 -86l-72 25q-72 24 -72 38zM1227 561q0 28 9 42t36 20 q30 6 49 6q17 0 24 -7t9 -26q0 -3 1 -8.5t1 -7.5q0 -19 -19 -19q-12 -1 -31.5 -9t-45 -20.5t-31.5 -15.5q0 8 -1 24t-1 21zM1309 877q12 9 36.5 31t45.5 38t39 25q12 0 12 8q0 16 26 16q22 0 41 -8q43 -16 58 -16h8l6 -31v-27q-2 2 -6 2q-11 0 -27 -16q-35 -41 -104 -41 q-26 0 -60 6zM1333 487q0 16 34 19t40 10q4 4 14 4q17 0 61.5 -9t53.5 -9q6 0 6 2q4 0 10 -6q-1 -19 -28 -32t-54 -13q-23 0 -32 12q-2 7 -53.5 8.5t-51.5 13.5zM1343 1001q0 11 39 56q38 41 52 41q8 0 14 -11q0 -7 -3.5 -15t-8 -13.5t-13 -13t-13.5 -11t-15.5 -10 t-12.5 -8.5q-28 -19 -34 -19q-5 0 -5 4zM1464 346q0 14 10.5 35.5t20.5 24.5q5 1 25.5 9.5t31.5 12.5q3 2 11.5 5t11.5 5l2 -28l-16 -54q-14 0 -44 -10t-42 -10h-9q-2 2 -2 10zM1520 760q0 34 5.5 45.5t30.5 28.5q18 10 25 18v-66q0 -17 -4 -49l-12 -8l-13 -8q-12 -8 -18 -8 q-11 0 -14 47z" />
<glyph unicode="$" horiz-adv-x="1208" d="M287 420q0 6 23 23.5t32 19.5q4 -1 57 -40.5t68 -39.5q25 -6 25 -21q0 -1 -1.5 -4.5t-1.5 -5.5q-3 -15 -12.5 -20t-44.5 -6q-6 0 -14 -1t-10 -1q-20 0 -32.5 7.5t-41.5 35.5q-47 44 -47 53zM322 1110q0 26 64 77t103 52h9q26 0 26 -18q0 -37 -10.5 -52.5t-36.5 -15.5 q-19 0 -58 -16.5t-52 -16.5q-10 0 -15 -10t-14 -10q-16 0 -16 10zM408 891q0 14 16 22q18 9 22 9q11 0 18 -10t7 -27q0 -37 -16 -37q-13 0 -25 10q-22 14 -22 33zM633 1391q0 14 29 39.5t43 27.5q10 1 21 4.5t15 3.5q8 0 15 -10q2 -4 2 -6q0 -17 -45.5 -42.5t-69.5 -25.5 q-6 0 -8 2q-2 5 -2 7zM696 328q0 40 11 65q5 13 9.5 18t12.5 5q11 0 19 -2q7 -2 15 -4.5t15 -5.5t8 -3q9 -9 9 -22q0 -26 -15 -45q-10 -13 -35.5 -28t-37.5 -15q-11 0 -11 37zM707 -16q0 45 9 56t46 13q23 0 41 -22q6 -9 6 -19q0 -12 -33 -45q-39 -39 -53 -39q-16 0 -16 56z M741 1319q0 37 27 61q37 29 43 29q12 0 12 -53q0 -26 -7.5 -42t-15 -22t-27 -15.5t-28.5 -14.5q0 12 -2 31t-2 26zM752 721v10l61 -37q64 -33 130 -105.5t67 -119.5q0 -25 -4 -25q-3 0 -13 17q-1 1 -49.5 56.5t-52.5 66.5q0 8 -10 8q-8 0 -72 39q-42 29 -49.5 41t-7.5 49z M758 1196q0 14 45 37q8 0 27.5 13.5t31.5 13.5q10 0 35 -19l6 -4q60 -36 76 -43q27 -12 50.5 -42t23.5 -52q-5 -19 -82 -66q-30 44 -96.5 98t-88.5 54q-28 0 -28 10zM956 926q0 19 64 69q46 37 59 37q6 0 6 -6q0 -2 -4 -14q-3 -9 -4.5 -26t-5.5 -26t-16 -12 q-7 0 -38.5 -16.5t-45.5 -16.5q-11 0 -15 11z" />
<glyph unicode="%" horiz-adv-x="1472" d="M254 754q0 6 2 8q2 10 8 10q7 0 20.5 -16t23.5 -32l9 -15q0 -9 -10 -9q-14 0 -33.5 18.5t-19.5 35.5zM403 1100q0 12 16.5 16t61.5 4q67 0 80 -18q17 -24 17 -31q0 -12 -23 -12q-15 0 -25 2q-46 7 -86.5 20t-40.5 19zM643 180q0 13 18.5 45.5t24.5 32.5q8 0 8 16 q10 31 48 98t49 91q30 69 84 140t77 132q0 17 34 83t48 77q17 17 17 37q2 24 30 57.5t33 48.5q1 15 21 32.5t44 31.5t47 32.5t29 34.5q4 11 11 19t12 8q8 0 8 -14q0 -18 -10 -25q-22 -24 -55 -87.5t-50 -84.5q-19 -23 -36 -57.5t-39 -61.5q-45 -55 -116 -154t-71 -108 q-3 -16 -30 -63.5t-31 -57.5q-5 -13 -20 -28t-15 -35q0 -28 -15 -67.5t-26 -39.5q-14 0 -14 -10q0 -24 -46 -76.5t-65 -52.5q-4 4 -4 6zM963 1151q0 10 32 18q15 5 42.5 16t42 15.5t43.5 10t65 6.5h16q13 0 13 -5q0 -2 -7 -12q-26 -31 -40 -42t-36 -15t-73 -4h-21 q-77 0 -77 12zM995 297q0 16 5 26.5t10 10.5t8 -15q1 -9 16 -35.5t15 -33.5q0 -6 -7 -6t-22 6q-25 8 -25 47zM1163 584q55 -5 111 -37q47 -26 61.5 -51.5t14.5 -79.5q0 -32 -6 -59t-13 -42t-22 -41q8 66 8 82q0 47 -20.5 83.5t-77.5 92.5z" />
<glyph unicode="&#x26;" horiz-adv-x="1591" d="M317 317q2 17 18.5 59t24.5 42q7 0 7 -29q0 -40 49.5 -89t109.5 -69q17 -7 17 -8q0 -4 -15 -10t-36 -6q-26 0 -78 9t-66 9q-6 2 -18.5 38t-12.5 54zM522 963q0 16 31.5 32.5t32.5 20.5q0 8 4 8q8 0 35 -18q22 -14 22 -31q0 -8 -2 -14q-6 -27 -24 -41.5t-41 -14.5 t-40 15.5t-18 42.5zM684 1253q0 7 14 7q42 0 113 -33q41 -21 85 -62.5t56 -72.5q11 -22 11 -66q0 -65 -21 -86q-16 -22 -24 -22q-7 0 -7 14v8q0 38 -20.5 112.5t-34.5 88.5q-33 33 -73 60.5t-64 33.5q-35 8 -35 18zM780 707q0 26 17 26q16 0 16 10q0 13 6 13q11 0 37 -47 q6 -11 16 -31l16 -32t15.5 -25.5t18.5 -22.5q10 -5 10 -18q0 -20 -16.5 -42t-34.5 -22q-11 0 -17 6q-15 7 -20.5 30.5t-12.5 31.5q-22 25 -36.5 61t-14.5 62zM1083 317q-3 3 35 68q10 14 21 14t49 -24q18 -12 80 -38t78 -38q0 -8 -80 -8q-132 0 -156 12q-5 3 -11.5 6.5 t-10.5 5t-5 2.5zM1137 659q0 8 18 23q30 27 55 27q2 0 6.5 -1t6.5 -1q3 -1 15 -3.5t25 -5t26 -6.5t21.5 -9t8.5 -11q0 -9 -12 -15q-11 0 -37 -26q-25 -25 -45 -25q-19 0 -54 21q-34 19 -34 32zM1321 119q0 8 6 14q4 4 8 31q0 49 76 96q32 19 43 19q12 0 12 -27v-27 q-3 -36 -14.5 -52t-44.5 -34q-58 -30 -72 -30t-14 10z" />
<glyph unicode="'" horiz-adv-x="557" d="M154 1188q0 14 22 45l33 47h205q-9 -8 -30 -34t-41 -38t-52 -12q-59 0 -92 -10q-21 -6 -33 -6t-12 8zM336 911l6 54q13 112 31 112q6 0 6 -16q0 -15 -2 -23q-5 -47 -41 -127z" />
<glyph unicode="(" horiz-adv-x="1019" d="M299 502q0 23 14 74.5t29 82.5q10 17 10 46q0 19 32.5 58.5t35.5 53.5q8 25 18 25q11 0 11 10q0 19 69 90.5t88 71.5q6 0 37 21.5t45 21.5q8 0 8 -4q0 -11 -47 -58q-36 -35 -54 -59.5t-32 -40.5q-47 -54 -120.5 -163.5t-96.5 -160.5q-35 -79 -43 -79q-4 0 -4 10zM305 211 q0 18 6 27q5 10 13 10q14 0 28 -55q0 -13 64 -81.5t76 -68.5q10 0 10 -10q0 -11 28 -19q14 -3 34 -20t36 -17q18 0 18 -8t-30 -32q-25 -19 -43 -19q-11 0 -15 2q-28 7 -28 17q0 9 -18 25t-74 54q-58 40 -74 84q-31 79 -31 111zM594 1176q0 14 65 26q46 10 80 10q13 0 25 -2 t19 -4.5t22.5 -8t25.5 -9.5q-18 -10 -48.5 -18.5t-45.5 -22.5q-12 -12 -20 -12q-6 0 -12 6q-15 11 -66 18q-45 6 -45 17z" />
<glyph unicode=")" horiz-adv-x="825" d="M328 1235q0 6 10 16q19 19 35 19q27 0 73 -43q27 -24 75 -99.5t52 -80.5q9 -12 41.5 -86t44.5 -115q17 -52 28 -153t11 -204q0 -186 -34 -258q-11 -7 -11 -20q0 -18 -35 -91.5t-55 -96.5q-26 -31 -56 -58t-34 -24q0 8 8 20q6 6 46 78.5t55 89.5q8 0 8 27q1 17 17 57.5 t16 60.5q0 32 14 72q10 30 10 113q0 103 -10 133q-7 24 -18.5 82.5t-24 107t-27.5 72.5q-10 17 -10 39q0 15 -10 28.5t-10 26.5q0 18 -17.5 44.5t-62.5 78.5q-19 19 -19 27t-59 71q-51 57 -51 66z" />
<glyph unicode="*" horiz-adv-x="1079" d="M283 1114q0 11 20 14q11 1 18 10t11 9t16 -6q21 -12 21 -49q0 -33 -9 -33q-3 0 -41 20q-36 20 -36 35zM301 561q0 8 21 23q27 18 32 18q4 0 4 -14q0 -16 -15 -24.5t-30 -8.5q-12 0 -12 6zM520 1323q0 8 29 27q27 18 55 18q12 0 12 -6q0 -11 -27 -29t-44 -18q-25 0 -25 8z M578 588q0 37 16 37q13 0 27 -23q10 -8 10 -29q0 -22 -11 -43.5t-22 -21.5q-15 0 -18 47q-2 12 -2 33zM584 1128q0 41 14.5 98t26.5 66q19 13 32 13t13 -9q0 -14 -15 -51q-10 -22 -10 -44t-4 -36.5t-25 -29.5q-22 -19 -28 -19q-4 0 -4 12zM676 1104q0 3 6 12q3 6 13 11.5 t18 5.5q6 0 6 -5q0 -3 -6 -12q-3 -6 -13 -11t-18 -5q-6 0 -6 4zM715 817q0 9 12 21t21 12q7 0 40 -23q33 -26 33 -43q0 -8 -12 -8q-9 1 -35.5 17t-40.5 16q-18 0 -18 8zM743 1139q0 7 29 22q51 23 53 23q6 0 6 -8q-3 -11 -19 -16t-24 -13q-14 -14 -34 -14q-11 0 -11 6z M856 612q0 15 12 39q19 44 19 76q0 39 16 39q23 -3 23 -23q0 -15 -19.5 -53t-19.5 -53q0 -20 -13 -29q-4 -4 -12 -4q-6 0 -6 8zM860 1071q0 52 55 107v-64q0 -5 1.5 -14t1.5 -13q0 -33 -21 -57q-14 -14 -23 -14q-14 0 -14 55z" />
<glyph unicode="+" horiz-adv-x="1140" d="M260 666q0 14 24.5 23t53.5 9q43 0 43 -18t-64 -21h-26q-31 0 -31 7zM535 973q0 10 36 24q101 43 127 43q9 0 9 -4q0 -6 -25 -28q-23 -17 -63.5 -31t-65.5 -14q-12 0 -16 4q-2 2 -2 6zM598 268v131h82l-6 -59q-4 -36 -4 -47q0 -35 4 -45l-4 -10l-25 -52q-12 -4 -16 -8 q-20 -16 -27 -16q-4 10 -4 106zM653 772q4 18 9.5 52.5t9.5 54t15 43.5t28 39q36 28 43 28q4 0 4 -6q0 -10 -2 -16q-3 -10 -12 -86q-4 -37 -9 -48t-23 -18.5t-32 -19.5zM678 696q0 14 45 47q27 19 42.5 25t45.5 6q4 0 18 -1t23 -1q84 -3 84 -10q0 -8 -23 -19q-17 -9 -36 -28 t-42 -27t-73 -8q-84 0 -84 16zM905 551q0 4 4 20q4 17 4 49t7 50t30 30q8 4 18 10t16 9.5t9 3.5q8 0 8 -64q0 -45 -5 -58.5t-31 -33.5q-39 -28 -52 -28q-8 0 -8 12z" />
<glyph unicode="," horiz-adv-x="722" d="M248 446q33 21 50 30.5t49 18.5t77 13q89 7 96 14q6 6 23 6q35 0 35 -12q0 -3 -11 -10q-15 -2 -77.5 -42t-77.5 -40q-4 0 -6 2q-26 9 -150 20h-8zM449 145q0 3 4 15q9 14 16.5 57t14.5 110t8 76q7 6 38.5 21.5t38.5 17.5q4 0 4 -18q0 -21 -2 -33q-12 -94 -21.5 -123.5 t-41.5 -70.5q-46 -56 -55 -56q-4 0 -4 4z" />
<glyph unicode="-" d="M250 612q0 18 32.5 24t145.5 11l168 8q1 0 -3.5 -4.5t-11.5 -10.5t-12 -9q-43 -26 -49 -35q-2 -4 -14 -4q-22 0 -49 8q-42 10 -80 10q-17 0 -53 -4q-16 -2 -41 -2q-33 0 -33 8zM584 528q0 35 6.5 44.5t22.5 12t26 13.5q7 10 16 10q13 0 13 -30q0 -19 -2 -31 q-8 -50 -33 -62q-23 -10 -33 -10t-13 11t-3 42z" />
<glyph unicode="." horiz-adv-x="616" d="M285 332q0 9 18 18q20 10 31 10q12 0 47 -12q62 -20 100 -76q19 -29 19 -43q0 -17 -27 -41q-21 -18 -27 -18q-5 0 -16 14q-16 32 -16 43q0 42 -84 76q-45 17 -45 29z" />
<glyph unicode="/" horiz-adv-x="954" d="M381 152q0 10 10 30q20 45 32.5 108t39.5 118q30 62 74.5 166.5t70.5 160.5q13 27 46 109t62 145t46 80q4 0 4 -14q0 -11 -2 -17q-3 -14 -35.5 -86t-34.5 -90q-2 -25 -30 -84t-33 -76q-23 -73 -63 -169.5t-92.5 -213t-72.5 -165.5q0 -13 -12 -13q-10 0 -10 11zM535 1100 q0 10 14 18q21 15 115 15q67 0 67 -11q-10 -20 -46.5 -33.5t-74.5 -13.5h-16q-59 6 -59 25z" />
<glyph unicode="0" horiz-adv-x="1026" d="M285 530v19q1 92 18 186t31 94q4 0 4 -167q3 -173 18 -228q13 -45 48.5 -85t74.5 -58q33 -14 33 -25q0 -6 -16 -12q-18 -6 -43 -6q-56 0 -80 18q-49 33 -68.5 93t-19.5 171zM516 1243q0 19 55 31q40 8 58 8q30 0 56.5 -10.5t44.5 -23.5t37.5 -39t29 -41.5t26.5 -47.5 t23 -43l16 -30q14 -30 26 -94t15 -126v-20q0 -43 -8 -43q-9 0 -12 63q-4 55 -55 158q-21 43 -25 39q-8 4 -47.5 64t-50.5 63q-29 29 -72.5 53.5t-77.5 24.5q-39 0 -39 14z" />
<glyph unicode="1" horiz-adv-x="772" d="M377 1157q5 5 15.5 16.5t16 16.5t16 12t23.5 9.5t31 2.5q23 0 35 -2h80q-6 -5 -22 -18t-23 -17.5t-22 -11.5t-33 -9.5t-43 -2.5q-74 0 -74 4zM467 209q0 66 2 115q6 186 37 424q5 37 9 85t9.5 85.5t16.5 91.5q17 78 29.5 101t41.5 30q-2 -68 -25 -181t-28 -157 q-6 -48 -14.5 -106.5t-15 -111t-11.5 -122.5q-22 -295 -43 -316q-8 0 -8 62z" />
<glyph unicode="2" horiz-adv-x="1198" d="M559 1149q0 16 66 16q34 0 53.5 -6t46.5 -26q40 -30 80 -94.5t53 -123.5q12 -55 12 -139q0 -101 -16 -141l-35 -88q-19 -59 -41 -86.5t-69 -61.5l57 146q25 52 25 168q0 134 -33 250q-17 55 -64 101t-110 69q-25 9 -25 16zM705 315q0 10 27 23.5t36 13.5q2 0 4.5 -1 t3.5 -1q2 -2 8 -2q14 0 21 10q9 13 69.5 24t112.5 11q49 0 51 -10q1 -4 -14.5 -18t-38.5 -29q-39 -26 -61.5 -30.5t-102.5 -4.5q-106 0 -114 8q-2 2 -2 6zM936 131q0 47 16 90q9 23 37.5 52.5t42.5 29.5q8 0 8 -51q0 -36 -7.5 -52.5t-37.5 -45.5q-45 -45 -53 -45q-6 0 -6 22 z" />
<glyph unicode="3" horiz-adv-x="940" d="M190 303q0 10 17 16.5t39 6.5t33 -7q5 -4 15 -7.5t22.5 -7t17.5 -5.5q9 -3 45.5 -5t66.5 -7t33 -15q0 -14 -82 -14q-94 0 -123 16q-30 17 -57 17t-27 12zM307 1239q0 14 51 37q60 29 142 29q57 0 123 -17q55 -13 110 -60.5t70 -92.5q8 -32 8 -58q0 -44 -11.5 -87.5 t-29.5 -67.5v16q0 88 -55 143q-3 3 -18.5 19.5t-22.5 23.5l-22 22t-25 22.5t-23.5 17.5t-25.5 15t-23 7q-16 0 -37 17q-16 16 -90 16q-42 0 -82 -6q-10 -2 -24 -2q-15 0 -15 6zM344 752q6 9 36 28t40 19q0 -11 -6 -17q-21 -18 -70 -30zM651 694q0 12 19 25q15 12 28 12 q19 0 45 -26q40 -41 55 -84.5t15 -118.5q0 -92 -10 -92q-23 0 -23 73q0 37 -29.5 90.5t-64.5 79.5q-35 27 -35 41zM774 330v14l1 12q1 11 4 16t9 5q7 0 7 -12q0 -14 -6.5 -33t-10.5 -19t-4 17z" />
<glyph unicode="4" horiz-adv-x="1253" d="M471 551q0 1 6 6t11.5 12.5t5.5 12.5q0 20 48 89.5t60 69.5q4 0 4 -10q0 -17 -11 -71.5t-11 -57.5q-3 -33 -8 -43t-19 -10h-8q-29 0 -53 -8q-4 -2 -13 -2q-12 0 -12 12zM633 1126q0 6 35 41q25 25 48.5 32t108.5 13q11 0 11 -2q0 -9 -45 -45q-37 -31 -56 -39t-53 -8 q-49 0 -49 8zM803 1112q3 2 14 8.5t19 11t17.5 9t14.5 4.5v-12q0 -12 -2 -69.5t-2 -84.5q0 -31 2 -39q13 -193 13 -231q0 -52 -19 -82q0 -1 -1 -2t-1 -2q-19 -31 -27 -31q-16 0 -16 108q0 170 -12 412zM836 518q90 100 157 100q9 0 25 -4t37 -4q18 0 18 -6q0 -11 -59 -55 q-50 -37 -94 -37q-12 0 -40 2.5t-44 3.5zM848 137v64q0 78 24 78q8 0 31 -13q21 -12 21 -47q0 -13 -4.5 -23.5t-15 -20t-16.5 -14.5t-21.5 -13.5t-18.5 -10.5zM995 457q0 10 5.5 15t21.5 11q31 15 31 23q0 7 17 14.5t30 7.5q6 0 8 -2q3 -3 8.5 -31.5t5.5 -50.5q0 -14 -4 -22 q-10 -17 -45.5 -40.5t-48.5 -23.5q-4 0 -9.5 14t-9.5 29.5t-4 16.5q-6 27 -6 39z" />
<glyph unicode="5" horiz-adv-x="1103" d="M195 268q0 8 18 23q11 8 31 8q25 0 127 -18q57 -11 73 -11q19 0 19 -12q0 -14 -27 -27q-32 -14 -80 -14q-53 0 -108 19q-53 18 -53 32zM340 1178q7 25 50.5 33t127.5 8h117q84 0 272 2l-61 -56h-107q-353 0 -399 13zM406 889q0 1 1 4t1 4q0 23 8.5 28t50.5 5q47 0 74 -17 t55 -24q72 -18 142 -89.5t102 -152.5q16 -46 16 -90q0 -101 -55 -201v101q-1 101 -22 147t-97 119q-127 121 -184 121q-33 0 -62.5 10.5t-29.5 34.5zM852 1038q0 26 18.5 56t49.5 53q45 31 47 31t2 -23q0 -35 -2 -55q-4 -59 -20 -82t-50 -25q-45 0 -45 45z" />
<glyph unicode="6" horiz-adv-x="1181" d="M336 387v12q2 60 11 87.5t44 72.5q33 41 45 41q4 0 4 -8q0 -17 -16 -41q-12 -17 -12 -55q0 -29 2 -45q6 -62 21 -102t48 -77l35 -45q0 -6 -20 -6q-21 0 -51.5 7t-45.5 16q-36 22 -50.5 53t-14.5 90zM561 899q0 21 74 80q119 94 131 94q4 0 4 -4q0 -11 -12 -29 q-19 -35 -41 -53q-14 -13 -31.5 -36t-37 -36t-60.5 -22q-6 -2 -15 -2q-12 0 -12 8zM604 829q0 6 19 17q3 0 9.5 4t10.5 4q12 0 45 -8l35 -6q25 -5 43.5 -11.5t36.5 -18t25 -16t27 -23t24 -21.5q39 -34 75.5 -107.5t36.5 -120.5q0 -35 -10 -35q-15 0 -27 52q-10 50 -82.5 119 t-126.5 94q-83 38 -112 53t-29 24zM707 1241q0 9 42.5 25t63.5 16q5 -2 49.5 -6.5t85.5 -10t43 -10.5q0 -10 -16 -10q-10 0 -72.5 -26.5t-71.5 -26.5q-20 0 -72 20.5t-52 28.5zM940 322q0 16 15.5 61t15.5 53q0 21 6 21q4 0 9 -11t5 -22q0 -34 -13.5 -72t-25.5 -43 q-12 0 -12 13z" />
<glyph unicode="7" horiz-adv-x="1075" d="M193 1042q0 17 35 41t65 29q1 0 3 1t3 1q44 6 131 27q62 16 121 16t115 14q65 15 102 15q34 0 80 -6q29 -3 29 -15q0 -10 -46 -32q-28 -10 -90 -50q-30 -21 -57 -26t-133 -10q-146 -4 -201 -15q-27 -6 -67 -6q-80 0 -90 16zM479 121q0 17 2 31q3 25 16 41t13 34 q0 13 31.5 81t31.5 83q0 18 60.5 140t97.5 180q23 34 65.5 71t57.5 37q0 -4 -4.5 -15.5t-9.5 -23.5t-6 -14q-20 -31 -60 -121.5t-65 -126.5q-18 -26 -34.5 -60t-35 -81t-25.5 -62q-8 -9 -33 -92t-46 -86q-14 -3 -18.5 -11t-8.5 -15t-16 -7q-13 0 -13 17zM784 907q0 34 7 78 q7 49 17 63.5t50 41.5q53 36 70 36q12 0 12 -26q0 -25 -12 -103q-9 -52 -19 -66.5t-53 -43.5q-14 -8 -29.5 -18.5t-23 -15.5t-8.5 -5q-11 0 -11 59z" />
<glyph unicode="8" horiz-adv-x="978" d="M289 311q0 37 49 146v-13q0 -178 18 -180q17 -10 17 -26q0 -13 -11 -13q-12 0 -39.5 28t-31.5 48q0 1 -1 4.5t-1 5.5zM365 881q0 14 2 20q9 45 49 45q28 0 51 -26q25 -33 25 -60q0 -30 -33 -41q-16 -4 -25 -4q-30 0 -49.5 18.5t-19.5 47.5zM555 1176q0 4 6 10q2 2 8 2 q18 0 56 -20.5t71 -49.5q55 -50 74 -86t23 -102q-21 63 -82.5 129t-118.5 92q-35 19 -37 25zM696 655q0 19 15 25q2 2 8 2q12 0 61 -43q76 -64 76 -193q0 -40 -8 -73q-4 -18 -9 -33.5t-10 -23t-8 -7.5q-6 0 -6 19q0 14 2 24q0 4 1 12.5t1 12.5q0 43 -11.5 93.5t-25.5 64.5 q-5 5 -18.5 30t-28 46t-24.5 24q-15 0 -15 20z" />
<glyph unicode="9" horiz-adv-x="976" d="M274 758v14q0 67 62 178q4 4 4 6l4 9q6 12 27 12q14 0 14 -8q0 -9 -12 -21q-11 -11 -23 -80t-12 -118q0 -19 4 -35q10 -29 49 -74q35 -35 35 -45q0 -6 -18 -6q-21 0 -76 51q-10 9 -16.5 14.5t-12.5 12.5t-9 10t-6 10.5t-4.5 9.5t-3 11.5t-2 12.5t-2 16.5t-2.5 19.5z M567 1176q0 6 13 6q18 0 50 -10t56 -23q101 -52 150 -172q22 -52 22 -199q0 -104 -14 -129q-17 -31 -17 -59q0 -32 -32.5 -118.5t-44.5 -86.5q-9 0 -9 8q0 13 23 72q30 84 53 264q8 70 8 78q0 28 -12 63q-18 52 -18 66q0 13 -27 45t-29 39q-4 17 -53.5 63.5t-77.5 61.5 q-16 9 -28.5 18.5t-12.5 12.5zM692 291q0 10 10 33.5t21 37.5q6 9 10 9q3 0 6 -11q-2 -12 -20 -43.5t-25 -31.5q-2 0 -2 6z" />
<glyph unicode=":" horiz-adv-x="569" d="M297 352q0 13 25 13q19 0 44 -6t33 -11q31 -16 43 -35q11 -26 11 -49q0 -47 -21 -71l-20 -27v47q0 16 -11.5 27.5t-11.5 25.5q0 19 -19.5 37t-50.5 29q-22 9 -22 20zM305 819q0 5 8 10q9 9 21 9q25 0 57 -27t35 -47v-12q0 -26 -8.5 -50t-18.5 -24q-11 0 -27 25t-16 42 q0 21 -28 46q-23 20 -23 28z" />
<glyph unicode=";" horiz-adv-x="724" d="M215 285q0 11 18 25t27 14q16 0 62 26q52 27 92 27q30 0 73 -17q35 -14 60 -14q18 0 18 -8q0 -9 -28 -31q-23 -18 -70 -18h-45q-40 0 -43 -6q-3 -7 -21 -7q-4 0 -7.5 1t-8 2t-8.5 2q-16 4 -29 4q-15 0 -42.5 -3t-35.5 -3h-10q-2 2 -2 6zM317 776q0 6 9 15q6 6 28 6 q39 0 62 -17q33 -23 43 -36.5t10 -34.5q0 -19 -12 -50.5t-21 -31.5q-7 0 -10 26q0 22 -37.5 67.5t-56.5 45.5q-15 0 -15 10zM502 14q3 11 13.5 40.5t16 56t5.5 57.5q0 26 1.5 42t9.5 26.5t10.5 13.5t19 10.5t20.5 9.5q0 -27 -4 -73q-6 -65 -19 -99t-43 -69q-20 -23 -26 -23 q-4 0 -4 8z" />
<glyph unicode="&#x3c;" horiz-adv-x="1275" d="M205 823q0 5 22 27q38 35 81.5 61.5t62.5 26.5q14 0 33.5 16.5t31.5 16.5q9 0 44.5 15t43.5 15q16 0 72 39q31 23 95.5 48.5t86.5 39.5q13 7 39.5 12.5t38.5 14.5q8 8 10 8h11q8 0 16 6q27 17 33 17q8 0 8 -10q0 -12 -39 -38.5t-78 -41.5q-54 -21 -216 -101t-253 -110 q-13 0 -22 -13q-7 -12 -50.5 -32.5t-60.5 -20.5q-10 0 -10 4zM487 651q0 9 37 29t54 20q14 -3 47.5 -29t52.5 -30q30 -6 66 -20t81 -23q60 -13 108 -34t107 -36q45 -12 45 -30t-38 -41t-54 -23q-17 0 -69 27q-2 0 -6 4q-54 29 -127 57q-26 9 -93 42t-98 40q-22 0 -27 8 q-1 3 -43.5 17t-42.5 22zM1014 1128q0 48 20 48q18 0 21 8q3 6 29.5 24.5t33.5 18.5q4 -3 7.5 -15.5t7 -30.5t5.5 -33t4 -34t3 -24q2 -6 2 -19q0 -14 -10 -26.5t-41 -40.5q-46 -39 -62 -39q-9 0 -14 96q0 1 -1.5 12t-3 26.5t-1.5 28.5zM1026 270q0 21 4 37q1 5 5.5 26 t5.5 25t5.5 19t9 19.5t12 13t17.5 13t23 7.5q8 0 8 -63q-2 -45 -8 -59t-33 -32q-31 -22 -41 -22q-8 0 -8 16z" />
<glyph unicode="=" horiz-adv-x="1122" d="M172 866q0 8 31 23q53 22 128.5 31.5t241.5 13.5q91 3 167 8.5t96 5.5t20 -4q0 -3 -29 -29q-22 -19 -36.5 -24.5t-42.5 -5.5h-52q-119 0 -285.5 -7t-191.5 -14q-24 -4 -31 -4q-16 0 -16 6zM201 471q7 14 39 33q25 17 52 19.5t142 2.5q92 0 196 6.5t210 6.5h88l-15 -15 q-12 -12 -26 -20t-33.5 -11.5t-28.5 -5t-35.5 -2t-29.5 -0.5q-7 0 -22 -1t-23 -1q-37 -2 -111 -2q-79 0 -106 6q-8 2 -33 2q-36 0 -127.5 -12t-114.5 -12q-19 0 -22 6zM881 723v80q0 55 4.5 68.5t25.5 27.5q17 12 33 12q12 0 19 -8.5t10 -26t3.5 -30t0.5 -33.5 q0 -37 -10.5 -49t-57.5 -31zM903 334q0 11 4 47q5 41 11.5 60t23.5 32q6 0 17 10.5t18 10.5q12 0 18 -50q0 -1 1 -4.5t1 -5.5q0 -6 1 -14t1 -10q0 -20 -7.5 -30.5t-33.5 -33.5q-46 -33 -51 -33q-4 0 -4 21z" />
<glyph unicode="&#x3e;" horiz-adv-x="1245" d="M184 365q0 8 35.5 28.5t96 44t118.5 37.5q26 6 77.5 27.5t88.5 21.5q14 -5 14 -20q0 -8 -10 -8q-4 0 -57 -21q-65 -31 -196 -73t-158 -42q-9 0 -9 5zM250 1016q0 9 27 34t38 27q15 -4 64.5 -20.5t95 -30.5t72.5 -18q46 -7 122 -39.5t115 -38.5q27 -4 68 -18t55 -17 q29 0 82.5 -26.5t83.5 -26.5q19 0 19 -11q0 -20 -82 -86q-15 -12 -39 -12q-27 0 -79.5 21.5t-64.5 21.5q-45 0 -119 32t-150.5 71.5t-111.5 48.5q-12 3 -87.5 34.5t-84.5 34.5q-24 7 -24 19zM1014 616q0 74 16 74q13 0 34 23.5t32 23.5q1 0 3 -1t3 -1q10 -16 16 -131 q-3 -1 -21.5 -14.5t-38 -24t-30.5 -10.5q-12 0 -12 16q-2 20 -2 45z" />
<glyph unicode="?" horiz-adv-x="978" d="M504 262q0 9 24 21t39 12q13 0 13 -10q0 -11 20 -11q31 -3 31 -26q0 -21 -21.5 -49.5t-42.5 -42.5q-9 -6 -14 -6q-6 0 -6 26q0 32 -23 55q-20 20 -20 31zM530 557q0 35 13 43q15 18 39 18q28 0 34 -24q0 -2 1 -7t1 -7q0 -28 -16.5 -61.5t-36.5 -43.5l-26 -14 q0 3 -4.5 39.5t-4.5 56.5zM596 1286q0 10 22 10q36 0 76 -16q34 -14 62 -37.5t28 -38.5q0 -13 9 -16q9 -4 26.5 -44.5t28.5 -78.5q10 -38 10 -66q0 -90 -76 -170q17 39 17 123q0 61 -8.5 115t-18.5 57q-6 0 -14 27q-7 25 -59 71t-78 52q-25 7 -25 12z" />
<glyph unicode="@" horiz-adv-x="1523" d="M301 629q0 38 10 65q7 21 11 21q3 0 6 -58q4 -131 43 -215q6 -13 11 -34t13.5 -31.5t30.5 -22.5q20 -11 33 -23.5t24 -17.5q8 -3 58.5 -23t93 -34t70.5 -18q115 -11 133 -11q61 0 116 2q37 2 84 2q43 0 43 -6l-8 -8q-32 -22 -89 -38.5t-101 -16.5q-68 0 -159 19t-132 42 l-107 58q-165 88 -182 297q-2 20 -2 51zM647 1337l19 21q18 10 114 29.5t111 25.5q16 8 61 8q57 0 64 -10t31 -10q38 0 83.5 -29t112.5 -94q35 -34 62.5 -64.5t27.5 -35.5q0 -6 4 -10.5t9 -4.5t14 -14t16 -33q22 -51 27 -213q2 -47 2 -112q0 -58 -6 -64q-8 -4 -12 -27 t-11 -28q-6 0 -6 16q0 8 1 23.5t3 45t4 56.5v33q0 148 -80 244q-12 14 -21 28.5t-9 18.5q1 5 -26.5 34.5t-27.5 32.5q-2 9 -63 52.5t-98 60.5q-108 51 -248 51q-63 0 -98 -14q-53 -17 -60 -17zM713 969q0 12 29.5 22t54.5 10q17 0 23.5 -4t6.5 -16q0 -14 -11 -18.5t-50 -4.5 q-53 0 -53 11zM741 641q0 21 15 45.5t30 24.5q10 0 17 -13q6 -9 6 -20q0 -21 -15 -40.5t-32 -19.5q-4 0 -10 3q-11 5 -11 20zM936 993q0 8 9.5 15.5t19.5 7.5q6 0 14 -4q20 -12 20 -19t-10.5 -11.5t-23.5 -4.5q-17 0 -21 4q-8 5 -8 12zM973 737q0 168 6 174q1 -1 14.5 8.5 t30 19t23.5 9.5q6 0 6 -6l-4 -12q-5 -14 -13 -133q-2 -27 -2 -68q0 -53 13 -94q16 -50 16 -64q0 -15 -16 -28q-18 -15 -35 -15q-24 0 -33 25q-6 15 -6 184zM1233 229q0 8 18 23q31 27 41 27q12 0 21 -21q6 -9 6 -16q0 -10 -14 -27q-17 -20 -35 -20q-17 0 -29 18q-8 12 -8 16 zM1350 614q0 7 2 13q3 14 8 14q6 0 6 -6q0 -7 -5.5 -17t-8.5 -10q-2 0 -2 6z" />
<glyph unicode="A" horiz-adv-x="1181" d="M397 131q0 7 18 43.5t23 36.5q11 0 11 8q0 18 23.5 39t41.5 21q12 0 12 -13q0 -11 -18 -41q-11 -18 -21.5 -45.5t-22.5 -37.5t-46 -17q-21 0 -21 6zM535 506q0 13 94 59q2 0 2 -30q0 -22 -6.5 -27t-40.5 -8h-21q-28 0 -28 6zM567 635q0 14 7 28.5t16 14.5q8 0 16 -16 q8 -20 8 -23q0 -8 -18 -23l-6 -4q-10 -10 -15 -10q-3 0 -6 23q0 1 -1 4.5t-1 5.5zM584 1094q0 4 4 10t15.5 20.5t17.5 22.5q23 29 42 37t52 8h49q-35 -50 -68 -72q-14 -10 -49.5 -19t-54.5 -9q-6 0 -8 2zM743 1077q0 22 32 40.5t34 25.5q5 16 12 16q11 0 24 -39t13 -59 q0 -33 13 -85.5t31.5 -112.5t23.5 -81q7 -34 45 -148t47 -132q7 -12 16 -56q7 -39 34 -100.5t32 -107.5q4 -32 4 -37q0 -24 -25 -49q-25 -27 -29 -27h-1q-6 8 -36.5 93t-33.5 104q-2 18 -13 32t-12 33q-1 13 -15.5 43.5t-14.5 52.5q-7 47 -35 115t-39 113q-4 14 -24 68 t-21 91q0 30 -15.5 85t-37.5 94q-9 18 -9 28z" />
<glyph unicode="B" horiz-adv-x="1122" d="M299 1118q0 4 31 19q4 2 6 4q46 22 117 22q44 0 106 -10q59 -9 143 -59.5t111 -92.5q16 -29 16 -38q0 -7 -4 -7q-7 0 -24 17q-24 24 -31 24q-6 1 -40 27.5t-48 26.5q-19 0 -31 16q-22 27 -200 33q-115 4 -136 10q-16 6 -16 8zM340 279q0 10 2 16q2 4 2 14q21 103 31 115 q6 12 22 12q17 0 17 -12q0 -28 -26 -94t-38 -66q-10 0 -10 15zM362 768q2 45 7 61.5t22 16.5q13 0 18 -7t5 -28q0 -32 -23 -55q-20 -17 -24 -17q-5 0 -5 29zM365 188q0 14 34 34t58 20q35 0 84 -6q47 -5 47 -13q0 -2 -8 -10q-10 -9 -44 -13t-42 -12q-5 -10 -66 -10 q-58 0 -63 10zM371 651q0 10 24 31q19 19 35.5 25t44.5 8h8q13 0 13 -4q0 -2 -1.5 -4t-3.5 -6t-4 -7q-14 -18 -42.5 -24t-41.5 -13q-20 -10 -26 -10t-6 4zM752 571q0 14 18 29q19 16 49 16q32 0 74 -20q48 -25 92 -107q21 -40 21 -98q0 -50 -17 -61q-12 -12 -16 -33l-10 28 q-10 35 -15 70q-7 47 -71 99.5t-101 60.5q-24 0 -24 16z" />
<glyph unicode="C" horiz-adv-x="1222" d="M356 463v65q73 -76 140 -112q58 -30 145.5 -51t144.5 -21q41 0 50 12q8 4 12 4t12 -2t12 -2q14 0 19 11q2 1 5 3.5t4.5 3.5t2.5 1q4 0 4 -13q0 -20 -28 -44.5t-50 -26.5q-20 0 -90 -8q-27 -4 -80 -4q-185 0 -272 90q-20 22 -25.5 37.5t-5.5 56.5zM618 1139 q36 17 115.5 29t153.5 12q66 0 110 -13q31 -8 35 -20q-1 -8 -20.5 -23t-49.5 -34t-36 -23q-112 50 -308 72zM928 262q0 15 19 49.5t28 34.5q6 0 6 14q0 17 12 17q14 0 27 -19q26 -32 35 -55q9 -22 26 -38t17 -23q0 -16 -45 -58q-55 -55 -60 -55q-7 0 -36 59.5t-29 73.5z M942 930l2 22q9 41 48 85.5t67 49.5q-3 -92 -103 -151q-9 -6 -14 -6z" />
<glyph unicode="D" horiz-adv-x="1107" d="M295 1087q0 9 108 22t140 13q62 0 143 -31.5t145 -72.5q176 -111 209 -316q2 -18 5 -37l4.5 -28.5t2.5 -13.5q0 -11 -8 -11q-1 0 -4.5 6t-6.5 15t-3 14q0 23 -16 62.5t-17 48.5q-1 8 -16.5 26.5t-15.5 30.5q0 11 -10.5 19t-10.5 14q0 9 -39 48.5t-47 39.5q-7 0 -29.5 22 t-29.5 21q-9 0 -55 21.5t-54 21.5q-10 0 -16.5 9t-16.5 9q-38 2 -154 17t-147 18q-61 7 -61 12zM330 365q0 38 9 144t9 136q0 25 -2 29t-2 22t2 48t4.5 62.5t3.5 41.5q53 0 76 -4q0 -9 1 -36t1 -44q0 -138 -12 -270q-11 -129 -28 -129h-1q-11 -1 -55 -46q-6 6 -6 46z M346 242q-1 0 -1 1q-1 3 11 15q14 16 23 25l53 49h74q86 0 94 -8q0 -12 -57 -36t-105 -30q-82 -13 -92 -16z" />
<glyph unicode="E" horiz-adv-x="1042" d="M158 1024q0 13 20.5 30.5t20.5 28.5q0 30 118 33q82 4 84 6t95 2q350 0 350 -8q-47 -57 -144 -59q-66 -2 -214.5 -12.5t-180.5 -18.5q-11 -8 -88 -8q-55 0 -61 6zM360 328q0 34 19 43q16 8 104 8h88q75 0 91 14q18 15 83 15q35 0 89 -7q4 0 4 -4q0 -11 -44.5 -36.5 t-66.5 -26.5q-44 -1 -179.5 -14.5t-156.5 -18.5q-8 -2 -18 -2q-9 0 -11 5.5t-2 23.5zM373 676q0 28 14.5 50t36.5 22q8 0 14 -3q37 -5 37 -14q0 -2 -1.5 -4.5t-4 -5.5t-5.5 -5.5t-8 -6.5t-9 -6.5t-10.5 -7t-10.5 -7.5q-39 -26 -45 -26q-8 0 -8 14zM383 600q0 7 13.5 21.5 t25.5 23.5l33 23q5 4 33 14.5t30 11.5l103 -8q7 -2 23.5 -3t38 -1.5t30.5 -1.5q-5 -4 -22 -18.5t-26 -21.5t-23 -14t-24 -8q-182 -22 -229 -22q-6 0 -6 4zM643 494v26q0 21 8.5 40.5t17 30t27 28.5t25.5 26l4 -67v-29q0 -39 -10.5 -52t-46.5 -24q-12 -4 -17 -4q-8 0 -8 25z M784 248q0 49 7 49q4 0 38.5 27t40.5 26q23 0 23 -45q0 -28 -9 -75l-10 -48q0 -2 -11.5 -17t-30 -30.5t-33.5 -15.5q-6 1 -10.5 44t-4.5 85zM823 883q0 58 11 65q9 9 16 51q6 31 19.5 56.5t23.5 25.5q12 0 13 -53q0 -25 4.5 -54.5t4.5 -39.5q0 -36 -32 -60q-47 -38 -52 -38 q-8 0 -8 47z" />
<glyph unicode="F" horiz-adv-x="1081" d="M330 1069q14 0 233.5 20.5t290.5 20.5h8q6 6 33 6q36 0 41 -8q0 -11 -22 -34t-35 -23q-6 0 -12.5 -10.5t-12.5 -10.5q-5 0 -14 6q-20 13 -232 13q-278 0 -278 20zM391 694v76l37 4q2 0 6 1t6 1q36 4 39 4q14 0 17.5 -6.5t3.5 -28.5t-8 -34t-31 -27q-37 -26 -37 -35 q0 -8 -16 -8q-17 2 -17 53zM393 121q0 14 2 22q4 24 13 136q5 60 8.5 76t13.5 16h8q13 -2 18 -11t5 -41q0 -34 -2 -61q-3 -68 -8 -92t-19 -39q-23 -23 -31 -23t-8 17zM457 606q0 10 37 32t65 28q20 4 43 4q33 0 71 -5.5t50 -11.5q6 -3 6 -8q0 -6 -18 -18 q-7 -15 -114.5 -16.5t-117.5 -6.5q-6 -2 -14 -2t-8 4zM711 494q0 16 2 26q6 41 32 64q30 24 43 24q11 0 11 -18q0 -13 -2 -21q-4 -20 -8 -30t-8 -13t-15 -10t-21 -16q-22 -19 -28 -19t-6 13zM836 858q0 21 7.5 55.5t14.5 47.5q11 18 31.5 38.5t34.5 20.5q16 0 16 -29 q0 -4 -4 -28q-7 -58 -10 -58q0 -2 -41.5 -31t-44.5 -28q-4 0 -4 12z" />
<glyph unicode="G" horiz-adv-x="1261" d="M309 522v17q0 26 6 26q9 0 33 -78q5 -17 10.5 -28.5t14 -21.5t12.5 -14t17.5 -14t17.5 -14q37 -31 102 -62.5t96 -31.5q44 0 44 -18q0 -10 -9 -19q-15 -18 -47 -18q-64 0 -196 69q-48 25 -74.5 79t-26.5 128zM504 1124q5 15 43 26t105 22t73 12q48 10 92 10q74 0 157 -17 t136 -38q-68 -58 -98 -76q-18 -12 -27 -12q-10 0 -33 20q-30 24 -130 43t-191 19q-46 0 -86 -7q-28 -4 -33 -4q-8 0 -8 2zM791 618q5 4 26.5 22t31.5 25t31.5 15t43.5 8q47 0 57 10q2 4 23 4q20 0 39.5 -4t19.5 -8q-2 -14 -62 -63q-29 -23 -98 -23q-54 0 -112 14zM979 954 q0 12 61 64q42 37 60 37q8 0 8 -8q0 -21 -35 -48q-42 -36 -54 -43.5t-26 -7.5t-14 6zM1012 297q0 11 4 39q4 20 6 107.5t12 111.5t40.5 57t41.5 33q6 0 6 -65v-43q-1 -59 -2 -95t-6 -68t-6.5 -45t-13.5 -31t-16 -22.5t-25 -23t-31 -27.5q0 1 -1 4t-1 4q-8 40 -8 64z" />
<glyph unicode="H" horiz-adv-x="1306" d="M219 1100q0 7 11.5 18.5t33.5 22.5q39 22 84 23q27 0 27 -11q0 -7 -16.5 -9.5t-16.5 -8.5q0 -11 -36.5 -28t-59.5 -17q-27 0 -27 10zM344 831q0 238 47 267q7 4 16 10t14 9t9 3q6 0 12 -22v-19q0 -31 -7 -136t-7 -130v-12q0 -3 1 -7t1 -6q0 -16 -14.5 -21t-18.5 -15 q0 -10 -13 -21.5t-22 -11.5q-10 0 -12 10q-6 21 -6 102zM403 670l62 61h268l-4 -14q-9 -36 -21 -51t-46 -15q-21 0 -33 2q-116 17 -226 17zM410 170q0 45 5 116.5t9 80.5q3 10 39 10q31 0 31 -15q-1 -15 -17 -84t-16 -85q0 -20 -15 -36t-34 -16q-2 0 -2 29zM829 1077 q0 8 31 39q25 25 41.5 31.5t65.5 9.5q8 0 24.5 1t24.5 1q109 0 125 -12q0 -15 -76 -74h-117q-24 0 -56.5 -2t-39.5 -2q-23 0 -23 8zM1071 287q0 138 10 365.5t17 248.5q6 11 8.5 60.5t17.5 56.5q13 9 13 12q0 18 9 37.5t17 19.5q6 0 6 -16v-16q-4 -46 -5 -123 q0 -109 7.5 -365t8.5 -291q-17 -23 -51 -64t-42 -48h-1l-13 45q-2 12 -2 78z" />
<glyph unicode="I" horiz-adv-x="673" d="M193 1069q0 8 14 26t33 35q32 27 48.5 34t55.5 7q28 0 69.5 11.5t59.5 11.5t37 -8q2 -2 2 -6q0 -10 -13 -25.5t-18 -15.5q-8 0 -57 -33q-15 -11 -28.5 -18t-23 -11.5t-26 -7.5t-25.5 -4t-33.5 -3.5t-37.5 -4.5q-32 -4 -37 -4q-20 0 -20 16zM401 182q0 7 19 121 q10 58 10 301q0 224 25 410q0 30 32 67q30 35 43 35q19 0 19 -115q0 -123 -25 -393t-26 -307v-8q0 -26 -33 -66t-35 -47q0 -4 -5 -8t-11 -4q-7 0 -10 2t-3 12z" />
<glyph unicode="J" horiz-adv-x="972" d="M211 6q0 6 29 35q26 26 26 35q0 12 23 30t41 19q22 0 22 -21q0 -19 -24 -45.5t-52 -38.5q-44 -18 -57 -18q-8 0 -8 4zM522 1098q0 12 33 35q21 16 35 21t39 5q5 0 67 -4q16 -1 36 -2.5t31.5 -2t22 -1.5t15 -3.5t4.5 -6.5q0 -10 -29 -33q-22 -19 -36.5 -24t-51.5 -5h-49 q-117 3 -117 21zM666 98l20 174q6 55 20 340t31 353q6 28 37 62t51 36q13 0 13 -29q0 -3 -4 -53q-5 -48 -24 -171t-26 -226q-3 -43 -6 -76.5t-8 -64t-7.5 -46t-9.5 -50t-10 -48.5q0 -33 -77 -201z" />
<glyph unicode="K" horiz-adv-x="1267" d="M180 1061q3 6 49 59q36 41 52 50t63 12q17 1 40.5 4.5t31.5 3.5q18 0 28 -10q2 -2 2 -6q0 -15 -75 -72q-45 -36 -76 -41q-2 0 -34 -2t-50 -2q-27 0 -31 4zM375 295q0 13 7 21.5t26 23.5q37 29 47 29q13 0 17.5 -23t4.5 -78q0 -93 8 -129q4 -16 4 -18q0 -17 -38 -43 q-45 -29 -52 -29q-7 17 -11 105t-7 104q-6 24 -6 37zM397 977q0 68 9 80q7 11 53 50.5t51 39.5q2 0 2 -8q0 -13 -2 -21q-6 -25 -10 -166q-3 -97 -8 -121t-27 -49q-28 -32 -41 -32q-10 0 -18.5 77t-8.5 150zM678 625q0 10 40.5 48t51.5 38q10 0 45 -76q15 -35 51.5 -83.5 t46.5 -68.5q-1 -9 27.5 -35.5t28.5 -31.5q0 -13 10 -13q9 0 34 -47t52 -118q23 -58 43 -78q8 -5 8 -13q0 -7 -24 -26q-30 -22 -74 -70q-32 30 -60.5 71.5t-39.5 53.5l-7 8q-39 46 -88 148q-15 31 -48 82.5t-44 79.5q1 9 -26 67t-27 64zM795 1077q0 5 55 49q48 37 70 37 q6 0 10 -2q6 -6 53 -6h45q55 0 59 -6q-1 -5 -7.5 -19.5t-15.5 -33t-11 -23.5h-62q-180 0 -196 4z" />
<glyph unicode="L" horiz-adv-x="1099" d="M170 1094q0 11 31 30q32 20 32 27q0 8 19.5 16.5t36.5 8.5q2 0 5.5 -1t4.5 -1q24 -7 41 -7q9 0 20 1.5t28.5 3.5t31.5 4q40 4 43 4q14 0 14 -6q0 -7 -2 -9q-6 -16 -18 -16q-9 -4 -37.5 -21t-54.5 -24.5t-66 -7.5q-73 0 -104 -9q-6 -2 -15 -2q-10 0 -10 9zM387 406 q0 44 2 71q19 437 27 445q12 12 12 106q0 25 12 46.5t25 21.5q15 0 29 14q10 10 18 10q10 0 10 -12q0 -6 -2 -10q-3 -2 -10 -168q-8 -168 -16 -328q-8 -154 -14 -153h-1q-9 -21 -44 -60t-44 -39q-4 0 -4 56zM442 311q-2 4 37 43q25 24 42 31.5t46 7.5q46 0 72 13 q23 10 70 10q59 0 79 -17q11 -8 43 -8q16 0 76 6q-31 -39 -84 -75q-21 -14 -37.5 -18.5t-54.5 -4.5q-49 0 -88 2h-29q-166 7 -172 10zM856 166v27q2 61 6.5 76.5t30.5 35.5l39 31q22 22 29 22q8 0 8 -49v-51q0 -36 -1 -55.5t-6.5 -32.5t-9.5 -17t-18.5 -14t-24.5 -18 q-22 -19 -35 -19q-18 0 -18 64z" />
<glyph unicode="M" horiz-adv-x="1587" d="M182 1124q0 11 54 39q33 17 45 29q3 3 28 7t52.5 7t31.5 4q6 0 6 -10q0 -8 -39 -47q-29 -27 -45.5 -33t-68.5 -6q-64 0 -64 10zM348 301q0 14 4 14q15 84 27 84q5 0 12.5 -14.5t24.5 -50t37 -68.5q2 -2 2 -6t-2 -9t-4.5 -13t-4.5 -13q-12 -41 -12 -75q0 -15 -3.5 -20.5 t-15 -7.5t-16.5 -5q-15 3 -32 81t-17 103zM403 1100q0 8 23 41q3 6 20 21.5t29 15.5q24 0 39 -48q8 -22 19 -45.5t17 -43.5t11 -58q12 -93 135 -315q8 -14 11.5 -26.5t7 -20.5t14.5 -19q14 -14 14 -29q0 -20 -24 -47l-25 -30q-54 54 -57 71q-14 48 -223 502q-11 26 -11 31z M1155 1104q0 6 84 51q79 43 127 43h10q12 -1 21.5 -2t16.5 -2.5t10.5 -3.5t2.5 -4q-22 -34 -89.5 -61t-131.5 -27q-27 0 -51 6zM1296 162q0 41 15.5 197.5t15.5 197.5q0 10 -1 30.5t-1 30.5q0 156 35 449q0 2 35 25q36 22 47 22q12 0 12 -16q0 -9 -2 -13q-4 -16 -12 -186 q-4 -100 -16.5 -215t-14.5 -231q-2 -115 -9.5 -161t-29.5 -61q-3 -1 -31.5 -49.5t-35.5 -48.5t-7 29z" />
<glyph unicode="N" horiz-adv-x="1366" d="M168 1034q0 11 26 31.5t72 42.5q16 8 35.5 17l32.5 15t16 7q18 6 47 6t29 -6q0 -14 -49 -52t-68 -38q-25 0 -80 -19q-34 -12 -49 -12q-12 0 -12 8zM385 395q0 58 16 58q10 0 19 -21q6 -19 39 -61q26 -35 26 -60q0 -18 -2 -30q0 -2 -1 -7.5t-1 -7.5q-16 -94 -28.5 -119.5 t-55.5 -35.5v69q0 129 -8 168q-4 16 -4 47zM420 1047q0 8 2 10q9 16 43 38.5t47 22.5q9 0 48.5 -74.5t49.5 -76.5q17 -19 24.5 -40.5t20.5 -41.5q24 -40 54.5 -122.5t50.5 -121.5q92 -188 92 -240q0 -12 -4 -16q-23 0 -170 174q-103 128 -156 244q-102 219 -102 244z M981 1034q0 15 40 53.5t58 38.5q20 0 57.5 -9.5t37.5 -20.5q0 -7 -17 -13q-15 -5 -30 -20.5t-34 -27t-51 -11.5q-54 0 -61 10zM1110 270q0 313 10 443q3 35 18 137t15 139q0 21 11 27.5t25 9.5t19 14q10 19 15 19q10 0 10 -23q0 -12 -2 -18q-25 -94 -25 -168v-68 q0 -42 -3 -140t-3 -144q0 -230 -49 -301q-25 -39 -37 -45q-4 0 -4 118z" />
<glyph unicode="O" horiz-adv-x="1306" d="M289 590q0 14 4 22q6 11 10 33q9 60 80.5 152t108.5 92q16 0 16 -4t-21 -25q-20 -18 -28 -38.5t-23 -35.5q-29 -29 -47 -94t-18 -135q0 -97 35 -149q40 -65 53 -76q31 -22 56.5 -48t25.5 -34q0 -4 -6 -4q-20 0 -76 32.5t-78 57.5q-35 41 -55 80q-13 26 -25 82.5t-12 91.5 zM690 1151q2 1 21.5 9t37.5 14t27 6q8 0 8 -6q0 -10 43 -19q68 -12 164 -83t119 -126q4 -9 25 -51t33 -72t16 -57q10 -68 10 -119q0 -67 -12 -131.5t-29.5 -109.5t-34.5 -80t-29 -54l-12 -20q0 -2 -17 -14l-32 -24q-15 -11 -16 -11l79 166q46 137 46 276q0 152 -66 262 q1 10 -85 91t-103 94q-19 14 -45 14q-27 2 -73 21.5t-75 23.5z" />
<glyph unicode="P" horiz-adv-x="1028" d="M219 1106q0 9 31 14q33 8 39 17q2 4 39 4q103 0 176 -17q42 -10 74 -10q16 0 79.5 -26t71.5 -27q9 -2 39.5 -24.5t30.5 -28.5q3 3 -90.5 23.5t-223.5 41t-204 21.5q-62 0 -62 12zM375 197q0 161 8 172q5 8 27 8h36v-123q0 -84 -5 -107t-25 -43q-24 -24 -35 -24 q-6 0 -6 117zM385 690q0 75 12 121q4 12 25 12q11 0 14.5 -5t3.5 -23q0 -21 -2 -37q-3 -43 -16 -73t-27 -30q-4 0 -6 2q-4 4 -4 33zM438 612q0 4 17 27q13 19 49 37t57 18q12 0 12 -8q-2 -21 -45 -49.5t-75 -28.5q-15 0 -15 4zM854 942q3 6 6 6q4 0 10.5 -6.5t6.5 -11.5 q0 -4 -13 -4q-10 7 -10 16zM897 840q0 12 4 12q6 0 6 -8q0 -19 -8 -19q-2 0 -2 15z" />
<glyph unicode="Q" horiz-adv-x="1351" d="M307 549q0 49 12 86q13 37 54.5 101.5t50.5 64.5q2 0 2 -6q0 -20 -12 -50q-45 -113 -45 -167q0 -41 22 -115q15 -48 28.5 -73.5t43.5 -65.5q19 -23 32 -31t35 -8q27 0 35 -9t17 -49q2 -8 2 -16q0 -12 -23 -12q-29 0 -81.5 26t-80.5 54q-41 40 -66.5 117.5t-25.5 152.5z M653 430q0 7 45 49q44 41 54 41q7 0 12 -8q0 -13 -40 -50.5t-56 -37.5q-15 0 -15 6zM748 1126q0 5 8 13q8 4 18 4q20 0 73 -14.5t73 -14.5q24 0 41 -12t32 -15q22 -4 94 -54.5t72 -59.5q0 -10 17 -27q33 -33 45 -139q4 -24 4 -27q0 -8 -4 -8q-7 0 -13 6q-16 13 -16 31 q0 20 -106 119.5t-128 99.5q-10 2 -16.5 14.5t-23.5 14.5q-12 2 -73.5 29t-76.5 28q-20 0 -20 12zM786 412q0 45 15 45q9 0 22 -29q7 -16 11.5 -53.5t17.5 -55.5q12 -18 12 -24q0 -5 -14 -16q-20 -17 -29 -17t-14.5 19t-13.5 69q-7 44 -7 62zM911 41q0 21 37 33 q14 5 34.5 21t29.5 16q14 0 28 -23q28 -70 42 -94t26 -29q18 -6 18 -14q0 -4 -14 -25q-13 -16 -33 -16t-45.5 16.5t-52 40.5t-33.5 29q-37 24 -37 45z" />
<glyph unicode="R" horiz-adv-x="1165" d="M213 1096q0 2 6 8q18 18 33 18q14 0 14 11q0 26 103 26q54 0 231 -10q302 -18 305 -285v-16q0 -31 -4.5 -55t-10 -36.5t-18.5 -35.5q-3 126 -47 208.5t-139 127.5q-42 20 -77 23t-195 3q-201 0 -201 13zM406 244q0 80 8 80q6 -4 19.5 -23.5t34 -53t21.5 -34.5l-26 -25 q-27 -24 -39 -24q-18 0 -18 80zM414 743v25q3 54 6.5 69t13.5 15q1 0 3.5 -1t4.5 -1q17 -3 20.5 -14t6.5 -60q0 -8 1 -19t1 -14q0 -12 -1.5 -20.5t-3 -13.5t-7.5 -8.5t-8.5 -5t-13 -4.5t-15.5 -5q-8 0 -8 57zM455 618q0 2 30 37q26 27 32.5 44t6.5 53q0 53 8 61q2 2 7 2 q12 0 25.5 -28t13.5 -54q0 -49 -38.5 -84t-74.5 -35q-10 0 -10 4zM709 432q0 23 20 43q17 17 25 17q11 0 26 -50q11 -38 23.5 -62t31.5 -51t29 -44q36 -59 74 -103q49 -52 49 -76q0 -6 -6 -6q-21 0 -84 66q-24 27 -57.5 54.5t-53.5 49.5t-36 58q-2 20 -21.5 53t-19.5 51z " />
<glyph unicode="S" horiz-adv-x="1052" d="M248 426q0 8 12 20q20 23 47 23q25 0 43 -18q33 -32 67 -48.5t79 -31.5t75 -29l-8 -4q-44 -21 -71 -21q-24 0 -46 5q-59 9 -95.5 24t-74.5 47l-9.5 9.5l-8 8l-5.5 5.5t-4 5.5t-1 4.5zM371 1159q0 10 22 29q25 19 78.5 45t85.5 35q24 6 80 6q113 0 127 -14q5 -5 23 -10 t36 -5q64 0 64 -26q0 -25 -53 -58q-29 -16 -56 -16q-20 0 -69 6q-90 11 -123 23q-15 6 -56 6q-93 0 -133 -21q-12 -6 -18 -6q-8 0 -8 6zM510 889q0 14 9 23.5t24 9.5q18 0 28 10q3 6 19 6q18 0 40 -8.5t32 -20.5q11 -13 67 -65q94 -88 118 -118t42 -77q24 -64 24 -151 q0 -82 -22 -82q-7 0 -14 55q-3 36 -8.5 52t-17 35t-20.5 44q-15 40 -61 82t-106 70q-42 19 -89 52.5t-57 53.5q-8 13 -8 29zM784 991q0 26 51.5 90t73.5 66q9 0 9 -14q0 -5 -2 -14l-1 -9q-5 -28 -18.5 -47.5t-54.5 -54.5q-31 -25 -49 -25q-9 0 -9 8z" />
<glyph unicode="T" horiz-adv-x="1257" d="M180 1034q0 10 57.5 51t69.5 41q4 0 48 -1.5t106.5 -3t111.5 -1.5q91 0 125 6q34 9 74 9q25 0 33 -2q15 -5 94 -5h64q80 0 90 -6q0 -8 -17.5 -34.5t-29.5 -36.5q-15 -11 -138 -11q-112 2 -226.5 3.5t-169 2.5t-89.5 1q-120 0 -162 -11q-18 -6 -33 -6q-8 0 -8 4zM674 350 q0 41 3 131t3 137q0 12 -1 35t-1 35h108q-9 -63 -20 -182q-1 -8 -3 -59.5t-5.5 -102t-8.5 -105.5t-13.5 -89.5t-18.5 -34.5q-13 -13 -19 -13t-6 11q0 5 2 18.5t2 18.5q0 6 -4 18q-18 66 -18 182zM1032 838q0 11 4 65v8q6 74 12 96.5t29 49.5q35 41 45 41q13 0 13 -47 q0 -39 -2 -68q-8 -117 -25 -131q-15 -14 -40 -29.5t-32 -15.5q-4 0 -4 31z" />
<glyph unicode="U" horiz-adv-x="1181" d="M225 1083q0 7 15.5 10.5t15.5 10.5q0 18 43.5 36.5t77.5 18.5q19 0 24 -8q-3 -17 -49.5 -48.5t-75.5 -31.5q-2 0 -4.5 1t-3.5 1q-43 0 -43 10zM324 621q0 6 1 18t1 18q24 310 36 322q6 8 12 48.5t25 47.5q24 17 33 17q6 0 6 -13q0 -14 -2 -24q-55 -256 -55 -408 q0 -115 16 -173.5t56 -98.5q41 -41 41 -51q0 -7 -17 -7t-58 41t-59 74q-36 70 -36 189zM784 1116q0 2 5 7.5t14.5 15.5t15.5 18q30 35 84 35q26 0 66 -14q-5 -6 -19 -22.5t-25 -30t-14 -19.5t-37 -6q-31 0 -60.5 4.5t-29.5 11.5zM838 268q0 15 22 64q21 43 25 78 q9 52 22.5 119t19.5 101.5t16.5 113t23.5 196.5q2 12 2 35q0 22 -4 48t-4 32q0 17 10 33t39 45l39 41q4 -58 4 -89q0 -89 -14.5 -188.5t-38 -214t-31.5 -164.5q-7 -45 -39.5 -117t-63.5 -114q-19 -25 -24 -25q-4 0 -4 6z" />
<glyph unicode="V" horiz-adv-x="1363" d="M164 1067q0 9 90 72q51 34 77.5 45.5t55.5 13.5h12q33 0 33 -6q0 -17 -64 -63.5t-98 -55.5q-58 -14 -84 -14q-22 0 -22 8zM385 1075l31 23q13 7 26 20t21.5 21t13.5 8q16 0 31 -98q10 -77 27 -119q9 -23 26 -139t19 -127q2 -8 2 -29q0 -28 -6.5 -52t-14.5 -24 q-7 0 -10 27q-2 16 -42.5 108t-41.5 111q-2 24 -18 46t-17 46q-1 16 -9.5 49t-21.5 74.5t-16 54.5zM733 184q0 13 18.5 85.5t24.5 86.5q27 52 49 144q97 360 209 489q4 0 65 36t72 36q0 -16 -61 -150q-17 -36 -49 -103.5t-45 -96t-35 -78t-43 -101.5q0 -9 -45 -95t-57 -101 q-17 -17 -17 -55q0 -29 -29.5 -63t-56.5 -34zM922 1094q0 8 20 17t37 9q10 -2 18 -2q9 0 33 6q29 11 86 11q43 0 43 -9q-6 -10 -54.5 -32t-70.5 -25h-10q-41 0 -96 18q-6 3 -6 7z" />
<glyph unicode="W" horiz-adv-x="1652" d="M129 1049q53 53 105 87.5t75 34.5t58 10.5t57 10.5h16l-39 -41q-50 -54 -85.5 -75t-94.5 -27q-15 0 -40.5 -1t-33.5 -1q-18 0 -18 2zM383 1026q0 15 32 54.5t44 39.5q1 0 4.5 -7.5t7 -18t4.5 -17.5q2 -20 24.5 -78.5t24.5 -76.5q1 -13 31.5 -42t30.5 -36t-21.5 -33 t-43 -57.5t-21.5 -51.5q-6 27 -61.5 159.5t-55.5 164.5zM602 147q0 12 9 39t16 39q12 24 17.5 96t25.5 101q0 1 2 4t2 4t2 4t2 4t2 4t2 4q11 17 18 17q6 0 11 -10q20 -35 20 -88q0 -29 -10 -39q-7 -8 -28.5 -81.5t-45.5 -76.5q-35 -17 -41 -27h-1q-1 -1 -1 1q-2 2 -2 5z M825 1020q0 16 25 45q16 16 27 16q16 0 29.5 -46t21.5 -52q10 -14 28.5 -78.5t24.5 -103.5q4 -25 51 -72l-20 -53q-15 -43 -25 -43q-13 0 -31 57q-4 17 -44.5 105.5t-43.5 109.5q-1 9 -10.5 25t-9.5 37q0 29 -12 37q-11 7 -11 16zM1235 1024q0 14 48 56t71 48q38 9 104 9 q68 0 68 -9q0 -7 -30.5 -31t-39.5 -24q-3 0 -35 -20q-14 -10 -75 -21.5t-95 -11.5q-16 0 -16 4zM1237 201q0 9 12 55q22 72 47 165t25 103q1 5 32 93.5t50 164.5q13 56 47 130.5t45 74.5q10 0 10 21q0 16 10.5 30.5t20.5 14.5q8 0 8 -15q0 -12 -2 -20q-75 -363 -115 -467 q-21 -61 -34 -137q-22 -118 -62 -142q-1 -1 -40.5 -39t-49.5 -38q-4 0 -4 6z" />
<glyph unicode="X" horiz-adv-x="1482" d="M143 1112q0 7 16.5 12.5t18.5 12.5q12 20 81 47t120 33q57 8 139 8q62 0 62 -6l-140 -134q-16 2 -62 9t-86.5 11.5t-68.5 4.5q-20 0 -28 -2t-25 -2q-24 0 -27 6zM477 63q0 7 10 17q17 20 49.5 77.5t45.5 92.5q20 59 36 59q8 0 13 -8q47 -47 47 -90q0 -19 -10 -31 q-13 -29 -33 -44.5t-86 -49.5q-56 -27 -68 -27q-4 0 -4 4zM516 1063q0 10 19.5 33t44.5 49t32 37q33 -52 82 -160q13 -29 13 -39q0 -17 -21 -47q-1 -1 -13 -16t-24 -26t-20 -11q-6 0 -6 12q0 7 -32.5 46t-31.5 46t-21 37t-22 39zM854 559q7 7 84 46.5t86 41.5 q12 -3 26.5 -36t14.5 -58t16 -58t17 -51q5 -33 26 -71q16 -27 52.5 -91t60.5 -104q-37 -43 -80 -80q-46 46 -55 88q-3 16 -18.5 30t-18.5 26q1 9 -26.5 45t-26.5 45q0 12 -15 22q-26 16 -51 78q-1 11 -47 64t-45 63zM930 672q16 10 16 18q0 2 8 15t13 18q23 26 34.5 44.5 t36.5 70.5q18 36 38 63.5t46 58t43 54.5q24 35 63 61.5t64 26.5q8 0 8 -4q0 -2 -4 -6q-19 -12 -55.5 -64.5t-62.5 -105.5q-8 -17 -25.5 -33t-22.5 -29q-10 -24 -61 -83.5t-55 -69.5q-7 -11 -34.5 -24t-41.5 -13q-6 0 -8 2zM950 1104q0 11 68 47q43 25 69.5 31t94.5 6 q98 0 98 -12q0 -7 -18 -19q-21 -8 -62 -37q-29 -22 -50 -26t-97 -4q-103 0 -103 14z" />
<glyph unicode="Y" horiz-adv-x="1402" d="M180 1079q0 11 54.5 66t68.5 55q18 0 35 10q28 17 43 17q6 0 6 -4q0 -16 -45 -52q-42 -38 -88.5 -66t-65.5 -28q-6 0 -8 2zM336 1087q5 14 32 38.5t42 25.5q14 0 28 21.5t25 21.5q19 -10 77 -87t66 -85q27 -27 27 -39q0 -8 -10 -25q-20 -28 -37 -45q-8 -10 -19 -10 q-15 0 -29.5 18.5t-19.5 32.5q-5 18 -24 24t-27 17q-20 23 -131 92zM731 483q0 74 6 74q7 0 10 16.5t9 16.5q3 -1 16 15t26 32.5t15 17.5q4 -10 4 -71q0 -44 -4 -161.5t-4 -162.5q0 -75 8 -80q2 -4 2 -10q0 -14 -12 -31t-30 -35.5t-23 -25.5q-9 63 -16 190.5t-7 214.5z M909 1155q0 14 43 53t58 39q25 0 61 -20q19 -11 92.5 -32t87.5 -28q-3 -18 -47.5 -55t-60.5 -37q-13 0 -23 10q-2 4 -55.5 18t-105 29.5t-50.5 22.5z" />
<glyph unicode="Z" horiz-adv-x="1173" d="M211 1081q0 2 10 15t17 20q31 28 115.5 43t287.5 25q95 5 195.5 16.5t175.5 13.5q-40 -46 -97 -86q-32 -22 -67.5 -28t-181.5 -15q-188 -10 -332 -10q-117 0 -123 6zM541 301l4 12q7 25 10.5 34.5t13 20.5t26 14t44.5 3q16 0 90 -4q78 -4 98 -4q46 0 58 6q15 6 33 6 q14 0 25 -4t11 -10q0 -7 -30 -37q-14 -13 -22.5 -17.5t-52 -9.5t-104.5 -6.5t-204 -3.5zM897 84q0 5 4 29q2 6 2 16q22 108 31.5 133t38.5 51q7 6 18 17t17 16.5t10 5.5q8 0 8 -24q0 -17 -2 -27q-4 -48 -9 -78.5t-16 -53t-17 -31t-27 -28.5t-31 -30q-12 -12 -19 -12 q-8 0 -8 16zM944 938q0 9 2.5 36t3.5 40q2 41 6.5 59.5t11.5 26.5t29 24q27 17 37 17q21 0 21 -56v-16q0 -101 -45 -117q-24 -10 -37 -20q-17 -10 -21 -10q-8 0 -8 16z" />
<glyph unicode="[" horiz-adv-x="1005" d="M340 1059q15 32 47 55.5t76 26.5q23 1 43.5 7t23.5 11q10 10 95 10h34l-43 -43q-19 -21 -34.5 -29.5t-38.5 -13.5t-37 -10q-17 -6 -63.5 -12t-77.5 -6q-25 0 -25 4zM436 633q0 22 6.5 46.5t6.5 43.5q0 30 14.5 49t36.5 19q18 0 32 -11q15 -9 15 -88q0 -58 -7.5 -134 t-13.5 -99q-5 -18 -8.5 -94t-12 -134.5t-26.5 -58.5q-22 0 -28 76.5t-5.5 185.5t-5.5 146q-4 23 -4 53zM508 100q0 10 14 21q13 13 49.5 21t69.5 8q45 0 45 -15q0 -17 -23.5 -27t-80.5 -16q-16 -2 -41 -2q-33 0 -33 10zM655 -109q0 14 4 60v8q4 47 14 63.5t50 49.5 q46 39 61 39q17 0 17 -31q0 -23 5 -71.5t5 -57.5q0 -8 -2 -8q-103 -46 -113 -56q-19 -22 -30 -22t-11 26zM668 983v33q0 44 5.5 57t26.5 27q26 16 41 41q9 18 17 18q12 0 12 -63v-121q-97 -87 -98 -88q-4 0 -4 96z" />
<glyph unicode="\" horiz-adv-x="1126" d="M248 1307q0 7 16 18q27 21 88 21q56 0 56 -9q0 -1 -1 -2.5t-2 -4.5t-2 -5q-13 -22 -45 -25h-10q-8 0 -32.5 -2t-36.5 -2q-31 0 -31 11zM438 1251q0 4 2 8t3.5 6t6.5 6.5t7 6.5q22 22 37 22q9 0 14.5 -7t13.5 -25l4 -8q8 -19 21.5 -55.5t26 -67t24.5 -56.5q13 -28 55 -149 t58 -144q7 -9 9.5 -33.5t8.5 -35.5q16 -29 44 -130.5t46 -125.5q21 -28 37.5 -89.5t30.5 -88.5q17 -32 29.5 -80t21.5 -70q8 -24 8 -29q0 -14 -26 -34q-31 -23 -43 -23q-13 0 -45.5 97.5t-40.5 101.5q-11 18 -16.5 45t-12.5 41q-28 48 -77.5 196t-80.5 252 q-20 69 -82.5 228.5t-75.5 203.5q-8 32 -8 37z" />
<glyph unicode="]" horiz-adv-x="972" d="M453 1202q30 49 143 49q39 0 84 -10q39 -10 39 -22q0 -15 -14.5 -27t-30.5 -12q-1 0 -4 1t-4 1q-7 6 -107 12t-106 8zM698 383q0 89 4 215q4 110 12 195t20 178t18 155q3 39 8 39q10 0 10 -92v-22q-2 -104 -2 -435q0 -590 10 -641q4 -32 4 -34q0 -21 -20 -33 q-29 -21 -37 -21q-11 0 -19 154t-8 342z" />
<glyph unicode="^" horiz-adv-x="970" d="M344 733q0 7 27 47q14 14 35.5 57t50.5 58q14 0 14 -21t-10 -28q-8 -6 -35 -57.5t-49 -53.5q-18 -6 -27 -6q-6 0 -6 4zM475 1307q-1 4 19.5 28t51 48t50.5 24q5 0 17.5 -1.5t29 -7t16.5 -14.5q-8 -12 -26 -19t-31 -22q-11 -14 -48 -27t-62 -13q-13 0 -17 4zM625 1233v18 q3 29 8 40.5t18 17.5q14 4 21 14.5t18 13.5q11 -3 24 -37t13 -57q0 -10 -2 -12t-2 -6q0 -6 4 -6q8 -10 27.5 -77.5t25.5 -76.5q9 -14 13 -46.5t12 -43.5q7 -4 25 -41.5t18 -48.5q0 -6 -30.5 -41t-35.5 -35q-8 -1 -34.5 63t-54.5 136t-36 82q-14 14 -14 53q0 25 -9 47t-9 43z " />
<glyph unicode="_" horiz-adv-x="1222" d="M170 190q0 6 20 23q12 9 27.5 24.5t35.5 36.5t28 29h190q71 0 218 8t206 8q36 0 86 -4q70 -6 70 -18q0 -6 -27 -18q-29 -12 -48.5 -31.5t-19.5 -36.5q0 -14 -14 -14q-8 0 -14 2q-34 6 -117 6t-92 -6q-18 -11 -103 -11q-56 0 -84 7q-45 10 -77 10q-29 0 -156 -10 q-17 -2 -42 -4.5t-42 -4.5t-27 -2q-18 0 -18 6zM965 43q0 23 7 53.5t17 44.5q21 34 21 45t28 31t45 21q13 0 13 -68q0 -46 -5.5 -61.5t-27.5 -36.5q-20 -19 -47.5 -34t-40.5 -15q-4 0 -6 2q-4 2 -4 18z" />
<glyph unicode="`" horiz-adv-x="868" d="M322 1243q0 39 69 49q9 3 129 -121q185 -192 215 -227l-33 -24q-39 -33 -61 -33q-16 0 -29 20q-2 7 -124 133t-123 136q0 7 -23 30q-20 17 -20 37z" />
<glyph unicode="a" horiz-adv-x="1026" d="M166 412q0 9 47.5 47t89.5 63q29 18 53.5 24.5t65.5 6.5q42 0 53.5 -2t11.5 -10q-2 -24 -53 -33q-40 -6 -98.5 -26t-75.5 -33q-14 -12 -45 -24.5t-49 -12.5zM319 248q0 13 25 35q44 38 66 43q1 2 12.5 -9.5t23 -27.5t11.5 -23q0 -4 -13 -4q-14 0 -30 -16q-23 -23 -56 -23 q-15 0 -27 7.5t-12 17.5zM381 881q0 6 20 11.5t58.5 9.5t87.5 5h24q40 0 58.5 -5t48.5 -23q21 -13 71.5 -73.5t63.5 -70.5q10 0 10 -10q0 -20 25 -51q33 -42 48 -165t15 -271q0 -16 -1 -46.5t-1 -44.5q-61 -38 -65 -49q0 -10 -10 -10q-9 0 -9 49q0 37 2 64q7 126 7 182 q0 141 -29.5 215t-110.5 150q-65 61 -112 83.5t-123 28.5q-78 6 -78 21z" />
<glyph unicode="b" horiz-adv-x="948" d="M168 1122q0 8 36.5 41t49.5 37q12 4 57 4q62 0 62 -8q0 -17 -14.5 -34t-26.5 -17q-21 0 -31 -10q-6 -6 -42.5 -11.5t-65.5 -5.5q-25 0 -25 4zM319 813q0 54 4 117t10 106t11 43q7 -1 30.5 27t26.5 29q5 0 5 -21q0 -2 -5 -37q-2 -12 -5.5 -91t-12 -143t-23.5 -67 q-18 -18 -28 -18q-13 0 -13 55zM334 395q0 70 33 84q8 4 18 4t10 -16q0 -6 -2 -26.5t-2 -34.5q0 -31 -11.5 -60t-23.5 -29q-15 0 -20 50q0 5 -1 14.5t-1 13.5zM395 272q0 9 33 25t53 18q11 0 11 -4q0 -1 -11 -12t-37 -21t-41 -10q-8 0 -8 4zM530 748q0 8 45 8q15 0 27 -1.5 t22.5 -5.5t16 -6.5t15.5 -9t14 -8.5q8 0 55 -52t47 -61q0 -8 16 -28q17 -20 23 -109q4 -58 4 -61q0 -15 -2 -15q-1 0 -12 23q-40 101 -58.5 138.5t-40.5 60.5q-28 31 -75.5 67.5t-57.5 36.5q-9 2 -24 10t-15 13z" />
<glyph unicode="c" horiz-adv-x="1007" d="M334 416q0 12 9 27t9 28q0 21 6 21q11 0 21 -50q0 -52 62.5 -82t142.5 -30q24 0 34 2q23 2 52 2q22 0 22 -6q0 -8 -11 -14.5t-19 -6.5q-15 -3 -36 -11.5t-43 -14t-53 -5.5q-88 0 -126.5 23.5t-63.5 87.5q-6 18 -6 29zM475 819q0 6 25 13q13 3 39 9.5t48 10.5t42 4 q34 0 59 -10q1 0 3 -1t3 -1q21 -9 32.5 -14.5t20.5 -15t9 -21.5q0 -26 -33 -64q-11 0 -23 12q-25 23 -80 43.5t-92 20.5q-16 0 -29 2.5t-18.5 5.5t-5.5 6zM774 291q0 27 23 47q16 16 26 16q16 0 37 -49q8 -24 8 -26q0 -13 -26 -33l-31 -25q-37 33 -37 70z" />
<glyph unicode="d" horiz-adv-x="1105" d="M362 346q0 14 5 24.5t12 10.5q16 0 33 -41q20 -41 51 -59q22 -13 22 -15q0 -3 -16 -6l-9 -2q-9 -2 -14 -2q-32 0 -67 41q-17 20 -17 49zM455 776q0 9 67.5 34.5t89.5 27.5q4 -4 4 -9q0 -4 -4 -20.5t-4 -26.5q0 -12 -5.5 -16t-27.5 -4q-27 0 -45 2q-75 3 -75 12zM727 1159 q0 9 17.5 28t27.5 19q8 3 17.5 10t18.5 11t23 4q21 0 37 -4q6 -1 19 -3t19 -3.5l14 -3.5t11 -4t3 -5q0 -6 -14 -14q-7 -5 -20.5 -16t-20.5 -15t-22.5 -8t-35.5 -4h-22q-70 4 -72 8zM885 743q0 147 14 263q8 60 14 89t11 37.5t14 8.5q7 0 21 15t20 15q8 0 8 -383 q0 -130 -1 -275.5t-2.5 -236.5t-2.5 -90q-7 -15 -41 -42t-45 -27q-4 0 -4 16t8 66q6 41 6 84q0 62 -8 161q-12 156 -12 299z" />
<glyph unicode="e" horiz-adv-x="1075" d="M362 385q0 15 10 20t34 5q22 0 32 -6.5t19 -28.5q14 -35 32 -58.5t29 -25.5q4 -2 27.5 -17.5t50.5 -15.5h16q4 0 13 1t12 1q35 0 35 -10q0 -8 -37 -14q-35 -5 -41 -5q-56 0 -113 23q-13 5 -31.5 10.5t-27.5 9t-20 11t-18 21.5t-13 36q-9 27 -9 43zM391 653q0 14 16.5 35 t26.5 21q8 0 8 -9q0 -14 -17.5 -38.5t-27.5 -24.5q-6 0 -6 16zM506 920l65 -5q57 -4 102.5 -21.5t82 -50.5t60 -63t54.5 -78q19 -28 19 -67q0 -43 -21 -64q-20 -20 -28 -20q-3 0 -5 1.5t-3.5 6t-3 8.5t-3 12t-3 14.5t-3.5 18t-4 19.5q0 2 -1 5t-1 5q-11 51 -21 72t-40 53 q-99 104 -246 154zM848 174q0 19 13 51t28 47q20 23 29 23q2 0 12 -10q14 -17 14 -35q0 -12 -38.5 -51t-49.5 -39q-8 0 -8 14z" />
<glyph unicode="f" horiz-adv-x="917" d="M168 807q0 14 33 37q31 24 65 24q31 0 31 -20q0 -1 1 -3t1 -3q0 -11 -24 -18t-53.5 -11.5t-35.5 -7.5q-6 -2 -12 -2t-6 4zM489 870q3 34 27.5 67.5t40.5 33.5q10 0 10 -17q0 -10 -13 -28.5t-13 -30.5q0 -9 6 -18q8 -8 8 -17q0 -4 -12 -12q-16 -4 -23 -4q-14 0 -22.5 7 t-8.5 19zM522 418q0 219 19 219q15 0 18 -6q8 -68 18.5 -198t10.5 -191q0 -37 -4 -37q-2 0 -11.5 -11.5t-13.5 -19.5q-9 -22 -16 -22q-19 0 -19 221v-39q-2 37 -2 84zM567 1212q0 11 29 11q50 0 82 -21q63 -40 63 -65q0 -9 -4 -9q-8 0 -54.5 31t-61.5 31q-21 0 -37.5 6.5 t-16.5 15.5zM623 889q0 16 49 16q25 0 37 -4q8 -3 8 -10q0 -9 -18 -18t-40 -9q-21 0 -28.5 5.5t-7.5 19.5zM692 707q0 12 2 20q6 59 14 77.5t35 35.5q7 4 17 11t15 10t9 3q11 0 11 -35v-18q0 -38 -6 -53t-33 -39q-37 -37 -51 -37q-13 0 -13 25z" />
<glyph unicode="g" horiz-adv-x="1052" d="M258 -176q0 14 25 33q19 16 24 16q4 -2 28 -23.5t49 -40t38 -18.5q29 -6 29 -12q0 -8 -39 -8q-21 0 -33 2q-121 12 -121 51zM334 711q0 6 28 23.5t64 31.5q67 27 125 27q35 0 59 -9q10 -5 14.5 -7.5t7.5 -6.5t3 -10q0 -11 -2 -17q0 -1 -1 -3t-1 -3q-6 -26 -15 -26l-28 14 l-14 3q-14 4 -32.5 7.5t-29.5 3.5q-50 0 -102 -14q-66 -16 -70 -16q-6 0 -6 2zM352 338q0 14 2 20q3 25 15 25q4 0 7 -2.5t10 -10.5t11 -12q34 -39 62 -55t61 -16q39 0 39 -6q0 -11 -72 -29q-49 -12 -65 -12q-14 0 -31 10t-28 35.5t-11 52.5zM729 829l37 33q37 29 82 29 q24 0 39 -6q0 -6 -41 -47q-34 -31 -49 -31q-11 0 -29 6zM799 -236q0 8 16 64q29 106 29 518q0 115 12 283q8 96 14 128.5t19 47.5q16 16 26 16q5 0 7 -2q6 -46 6 -149q0 -135 -8.5 -318t-20.5 -314q-11 -124 -21 -124h-1q-9 -15 -15.5 -45t-19.5 -51q-11 -18 -15 -37 t-14 -23q-4 -2 -8 -2q-6 0 -6 8z" />
<glyph unicode="h" horiz-adv-x="1017" d="M260 1126q0 8 2.5 10.5t11.5 2.5q14 0 21 15.5t18 16.5q12 0 39 27q16 16 41 27.5t41 11.5q15 0 15 -10q-2 -11 -54.5 -43.5t-56.5 -38.5q-29 -25 -62 -25q-13 0 -16 6zM336 797q0 8 6 14q9 20 25 283q67 52 86 55q2 -12 2 -37q0 -48 -17.5 -149t-19.5 -129 q0 -19 -22.5 -41.5t-39.5 -22.5q-8 0 -14 8.5t-6 18.5zM346 90q0 26 12 131l4 41q9 79 50 209q6 18 28 18q21 0 21 -16q-3 -9 -16 -49t-20 -71t-11 -70q-9 -110 -16.5 -146t-24.5 -51q-14 -14 -21 -14q-6 0 -6 18zM543 788q0 13 43 13q60 0 129 -19q103 -32 138 -115.5 t36 -301.5q0 -116 -4 -155.5t-17 -59.5q-20 -27 -24 -27q-10 0 -10 47q0 34 2 57q2 20 2 66q0 75 -9 121q-4 23 -9 65t-10 72t-13 47q-9 0 -17 23q-14 43 -82 93t-129 62q-26 6 -26 12z" />
<glyph unicode="i" horiz-adv-x="559" d="M164 692q23 29 48 41t79 12h12q78 0 78 -8q-7 -16 -16 -26.5t-24.5 -15t-23 -6t-31 -1.5h-28.5h-39q-55 0 -55 4zM254 1143q0 15 29 18q10 2 43 2q63 0 71 -8q13 -33 13 -82q0 -31 -13 -41q-8 -14 -14 -14q-12 0 -18 29q0 23 -24.5 41t-51.5 26q-35 11 -35 29zM352 166 q0 74 17 336q12 168 43 168q14 -36 14 -404v-94q-61 -54 -70 -55q-4 0 -4 49z" />
<glyph unicode="j" horiz-adv-x="819" d="M180 -227q0 11 8.5 18.5t20.5 7.5q14 0 33.5 15.5t27.5 17.5q6 1 26 15t26 14q8 0 8 -17q0 -28 -45 -62t-78 -34q-13 0 -19 6q-8 8 -8 19zM471 709h-1q0 1 4 4q35 21 71 31q2 1 4 1q51 7 59 7q21 0 21 -9q0 -4 -4.5 -9t-14 -13.5t-12.5 -11.5q-4 -4 -55 -4q-58 0 -72 4z M526 1200q0 6 19 6q26 0 62.5 -9t43.5 -19q15 -22 15 -50q0 -23 -11 -41q-5 -10 -10 -10q-3 0 -5 4l-5.5 11t-7.5 12q-2 13 -50 51t-51 45zM582 -109q0 105 20 228q11 62 22 216.5t11 242.5q0 92 18 110q12 12 19 12t10 -10q10 -27 10 -147q0 -190 -12 -283 q-57 -336 -96 -387v0l-2 2v16z" />
<glyph unicode="k" horiz-adv-x="927" d="M166 1178q0 9 16 32t27 33q11 8 74 8q58 0 63 -8q0 -15 -31 -31q-14 -16 -53.5 -25t-77.5 -9h-18zM287 633q0 27 2 43q7 64 13.5 189.5t10.5 176.5q2 29 3 45t4 30.5t4.5 20t8 13t10 9.5t15 8.5t19.5 11.5q8 -65 8 -144q0 -70 -6 -184q-6 -130 -11.5 -162t-25.5 -57 q-28 -39 -43 -39q-12 0 -12 39zM319 164q0 10 7 10q5 0 12.5 -9.5t11.5 -25.5q3 -8 8.5 -17t9 -15t3.5 -9q0 -8 -21 -14q-2 0 -4.5 -1t-3.5 -1q-9 0 -12.5 7.5t-3 17.5t-0.5 23t-4 20q-3 9 -3 14zM473 420q0 11 16 29t29 18q10 0 53 -61l7 -11q70 -107 77 -116 q16 -22 25 -38.5t11.5 -23t11 -15.5t26.5 -22q31 -22 31 -45t-27 -41q-19 -16 -28 -16q-109 197 -119 205q-19 15 -57.5 67t-53.5 64q-2 2 -2 6zM500 772q0 9 22 31q23 26 56 26q30 0 94 -24q2 -1 5.5 -2t4.5 -2q37 -13 37 -21q0 -7 -33 -24q-19 -11 -41 -11q-16 0 -49 7.5 t-51 7.5q-45 0 -45 12z" />
<glyph unicode="l" horiz-adv-x="542" d="M160 1116q0 9 39 45q27 27 55 27q7 0 25 -2t32 -2h23q20 0 20 -8q0 -12 -31.5 -29.5t-68.5 -20.5q-71 -9 -78 -12q-6 -2 -12 -2q-4 0 -4 4zM326 813q0 142 10 242q3 35 26 35q12 0 17.5 -20t9.5 -87q4 -58 4 -82q0 -53 -8 -84q-10 -36 -10 -117q0 -182 57 -507 q-5 -6 -22.5 -30t-31 -41t-20.5 -22q-13 0 -21.5 84.5t-8.5 212.5v158q0 46 -1 132t-1 126z" />
<glyph unicode="m" horiz-adv-x="1409" d="M223 774q6 17 42.5 38.5t56.5 21.5q1 0 3 -1.5t3 -1.5q6 -3 6 -6q0 -7 -27 -28q-41 -33 -71 -33q-13 0 -13 10zM334 102q0 5 4 25q8 16 12 123q3 71 15.5 117.5t29.5 46.5q15 -3 15 -33q0 -17 -2 -25q-2 -30 -12.5 -78t-10.5 -102q0 -52 -4 -66.5t-19 -19.5q-6 -2 -14 -2 q-14 0 -14 14zM352 754q0 8 15 14t20 6q4 0 4 -4q0 -6 -2 -10q-9 -17 -22 -17q-15 0 -15 11zM498 782l32 19q24 16 66 16q53 0 107 -27t65 -55q2 -2 2 -8q0 -13 -8 -29q0 -3 -4.5 -9.5t-7.5 -6.5q-5 0 -13 14q0 29 -97.5 55.5t-141.5 30.5zM797 168q0 26 16 92 q13 48 29 81.5t24 33.5q4 0 4 -10v-11q0 -25 -13.5 -83t-14.5 -85q-3 -59 -19 -59q-26 6 -26 41zM1026 748q0 6 16 6q26 0 84 -15t85 -34t42 -56q19 -45 26 -95t7 -171v-180q-10 -12 -53.5 -48.5t-48.5 -43.5q-4 -7 -6 -7q-11 0 -11 25q0 15 7 29q12 18 12 202 q-1 96 -3.5 143t-13.5 86t-28 58.5t-51 42.5q-64 45 -64 58z" />
<glyph unicode="n" horiz-adv-x="978" d="M168 799q3 3 14.5 16.5t15 16.5t14 13t17.5 13t18.5 8.5t24.5 7.5t29 3q10 0 10 -11q-8 -24 -52.5 -43t-90.5 -24zM309 199q0 9 1 32t1 37q3 137 19 156q16 20 16 35q0 18 12 18q8 0 11 -10q0 -21 -11 -61q-5 -15 -7 -87t-9 -130t-25 -58q-8 0 -8 68zM317 776q0 9 8 19.5 t21 23t16 15.5q0 -2 1.5 -5.5t1.5 -5.5q4 -36 4 -61q0 -36 -11 -47q-19 -19 -24 -19q-6 0 -6 15v28q0 17 -4 23q-7 7 -7 14zM647 793q0 8 49 8h17q45 -3 56.5 -9t23.5 -32q19 -38 34.5 -151t20.5 -236q2 -35 2 -82q0 -34 -4.5 -48t-18.5 -30l-5 -9q-6 -8 -11.5 -15t-9.5 -7 q-5 0 -10 107t-10.5 213.5t-12.5 105.5q-10 17 -10 47q0 15 -16 41l-17 27q2 5 -17.5 20t-40 30t-20.5 20z" />
<glyph unicode="o" horiz-adv-x="995" d="M309 473q0 31 4 31q8 0 29 -72q11 -41 25.5 -66t28 -36.5t44.5 -32.5q15 -9 15 -18t-13 -9q-7 0 -16 6q-10 7 -33 15.5t-43 27.5q-24 21 -30 38t-9 71q0 8 -1 24t-1 21zM451 846q0 3 16 6q20 4 41 4q100 0 168 -35q70 -35 106 -75.5t62 -114.5q12 -34 20 -88.5t8 -89.5 q0 -31 -6 -31q-2 0 -8 9.5t-6 14.5q0 27 -19 70t-49 82q-41 55 -41 66q0 12 -72.5 79.5t-97.5 77.5q-5 6 -35.5 10t-58.5 7.5t-28 7.5z" />
<glyph unicode="p" horiz-adv-x="993" d="M158 778q8 20 37.5 49t54.5 29q45 0 65 10q27 11 39 11q6 0 6 -5q0 -8 -30.5 -43t-30.5 -45q0 -16 -72 -16q-18 0 -34.5 1.5t-25.5 4t-9 4.5zM350 -14q51 0 74 -4q-1 -10 -3.5 -62.5t-8.5 -82.5t-19 -36q-18 -18 -22 -18q-7 7 -10.5 47t-5.5 89.5t-5 66.5zM367 768 q0 25 2 31q7 14 10 14q6 0 6 -63q-1 -56 -8 -54q-10 10 -10 72zM393 305q0 23 2 39q9 121 70 121q16 0 16 -12q0 -3 -4 -27q-4 -16 -7 -49t-9.5 -53.5t-22.5 -32.5q-30 -19 -32 -19q-13 0 -13 33zM453 219q0 15 16 31q17 20 88 20q61 0 61 -8q0 -2 -6 -8q-17 -22 -50 -35.5 t-68 -13.5q-41 0 -41 14zM569 752q0 6 21 11t51 5q80 0 149.5 -66t69.5 -124q0 -19 -4 -19q-5 0 -27 31q-43 57 -101.5 93.5t-145.5 59.5q-13 3 -13 9z" />
<glyph unicode="q" horiz-adv-x="1077" d="M285 625q-1 0 1.5 3t7.5 8t9.5 10t8.5 9l5 4q16 11 34.5 29.5t34 29.5t38.5 17q11 3 29 8t27 7t25 5t33 4t40 1q41 0 52 -1.5t11 -10.5q0 -7 -2 -13t-2 -14q0 -10 9 -25.5t9 -33.5q0 -12 -0.5 -17t-3 -8.5t-8.5 -3.5q-3 0 -27 4q-35 6 -75 22q-38 15 -86 15 q-71 0 -121 -27q-42 -22 -49 -22zM297 260q0 16 14 47l13 27q18 -17 45.5 -69.5t56.5 -71.5l41 -31q-76 13 -123 41q-47 24 -47 57zM741 778q0 12 17 19q16 8 16 24q0 7 12.5 12t28.5 5q34 0 43 -15q2 -2 2 -6q0 -15 -31 -36t-55 -21q-33 0 -33 18zM866 717q0 14 18.5 39.5 t30.5 25.5q9 0 9 -18q0 -19 -4 -33q-7 -40 -7 -72v-18q1 -113 23 -403.5t22 -393.5q0 -60 -3.5 -75t-22.5 -33q-31 -27 -37 -27q-8 0 -8 111q-10 879 -21 897z" />
<glyph unicode="r" horiz-adv-x="954" d="M145 782l33 52q24 33 36 39t54 6q57 0 66 -9q0 -12 -30.5 -45t-43.5 -34q-11 0 -43 -7.5t-47 -7.5q-16 0 -25 6zM344 758q0 30 8 30q6 11 13 11q14 0 14 -49q0 -46 -12 -52q-3 -8 -7 -8q-6 0 -11 22.5t-5 45.5zM406 139q0 58 7 127.5t17 87.5q19 34 19 52t10 18 q9 0 16 -18q4 -12 4 -68q0 -12 -1 -39.5t-1 -42.5q-3 -90 -7 -111.5t-24 -35.5q-29 -21 -34 -21q-6 0 -6 51zM530 809l29 20q3 1 26.5 11.5t31.5 13t25.5 6.5t31.5 4q23 0 53 -10l8 -4l6 -4q40 -16 43 -23q2 -3 2 -6q0 -12 -14 -29q-2 -1 -29 -34q-128 43 -213 55zM731 586 q0 5 6 14q14 17 29 102q0 2 1 5t1 4q0 -8 2 -33.5t2 -38.5q0 -43 -14 -51q-10 -10 -19 -10q-8 0 -8 8z" />
<glyph unicode="s" horiz-adv-x="925" d="M244 346q0 10 19 25.5t30 14.5q2 0 36 -17t71.5 -36t45.5 -22q43 -14 43 -32q0 -9 -12.5 -16t-30.5 -7q-29 0 -53 12q-94 42 -121.5 56.5t-27.5 21.5zM373 854q4 11 14.5 18t26.5 13t24 12q15 11 51 16.5t48 12.5q11 8 57 8q39 0 81.5 -7.5t59.5 -17.5l29 -20l-66 -37 q-60 -35 -77 -35q-13 0 -37 17q-30 20 -111 20q-46 0 -70 -8q-16 -4 -18 -4q-12 0 -12 12zM492 621q0 4 12 10q15 6 31 6q30 0 40 -23q3 -12 23 -12q7 0 27 4q6 2 20 2q28 0 45 -10q24 -12 54 -43.5t30 -44.5t12 -25q19 -19 19 -96q0 -68 -14 -106q-22 -70 -33 -70 q-4 0 -4 12q0 13 2 21q2 10 2 35q0 52 -16.5 107t-43.5 91q-21 30 -47.5 49.5t-81.5 46.5q-72 37 -76 43q-1 1 -1 3zM637 680q0 4 6 10q7 7 16 47q11 54 72 78q5 0 16 5t17 5q8 0 8 -12q0 -10 -2 -18q-3 -14 -5 -31t-3 -22.5t-6.5 -14.5t-15.5 -14.5t-29 -14.5 q-55 -22 -66 -22q-8 0 -8 4z" />
<glyph unicode="t" horiz-adv-x="894" d="M182 809q0 9 17 18q19 13 30 13q17 0 17 -21q0 -12 -7 -17t-26 -5q-31 0 -31 12zM365 1065q0 6 22.5 27t50.5 41q29 18 92 18q34 0 39 -8q0 -9 -41 -47q-32 -26 -49.5 -32.5t-56.5 -6.5q-57 0 -57 8zM483 309v97q0 70 7.5 92t33.5 43l8 6q3 -7 3 -17q0 -6 -1 -15t-2 -22 t-2 -22q-2 -23 -2 -49q0 -21 6 -31.5t27 -28.5q39 -31 60 -38q24 -6 24 -15q0 -2 -10 -22q-12 -21 -47 -21q-36 0 -70 21zM508 870q0 25 5.5 70t8.5 55q2 15 37 55t47 40q4 -8 4 -21t-4 -43t-4 -41v-10q0 -1 1 -3t1 -3q0 -23 -40 -69t-54 -50q-2 4 -2 20zM545 797 q26 33 50 52t56 23q12 2 29 2q12 0 12 -6q0 -11 -17.5 -33.5t-27.5 -27.5q-7 -2 -102 -10zM635 129q0 30 10 72q10 40 82 112q12 -84 21 -98q0 -16 -43.5 -69.5t-59.5 -53.5q-10 0 -10 37zM670 672q0 12 2 18q6 27 6 51q-1 10 31.5 53.5t33.5 49.5q0 6 5 6q1 0 4 -1t4 -1 q10 -7 10 -49v-21q-2 -42 -7.5 -57.5t-27.5 -34.5q-31 -31 -49 -31q-12 0 -12 17z" />
<glyph unicode="u" horiz-adv-x="1134" d="M180 750q2 3 12 17.5t14 19.5t14 16t18 15.5t20.5 8.5t26.5 4q46 0 51 -8q1 -2 -3.5 -9t-14 -17t-21.5 -19q-30 -28 -66 -28h-51zM305 365q0 74 12 188q16 187 35 201q9 6 13 6q8 0 8 -21q0 -24 -8 -71q0 -1 -1.5 -4.5t-1.5 -4.5q0 -34 -5 -80t-5 -81q0 -32 2 -52 q1 -41 6.5 -58t28.5 -62q17 -26 17 -35q0 -6 -7 -6q-10 0 -33 13t-41 26t-18 14q-2 4 -2 27zM688 764q0 11 39 53l37 41h47q137 0 145 -10q1 -4 -17 -21t-44 -36q-43 -32 -62.5 -39t-70.5 -7q-74 0 -74 19zM846 94q0 50 16 279q4 70 18.5 132.5t14.5 100.5q0 39 16.5 86.5 t36.5 69.5q24 24 37 24q8 0 8 -8q0 -76 -29.5 -290t-29.5 -250v-13q4 -32 4 -43q0 -55 -43 -108l-5 -6q-4 -6 -8.5 -11.5t-11 -10.5t-12.5 -5q-12 0 -12 53z" />
<glyph unicode="v" horiz-adv-x="1140" d="M147 713q0 20 37 57q37 40 72 43q8 1 25 3.5t24 2.5q13 0 17 -6q-4 -15 -47 -57.5t-66 -42.5q-28 0 -43 -6q-4 -2 -10 -2q-9 0 -9 8zM334 707q0 22 20 51q20 28 33 28q10 0 16 -22q6 -23 21 -86.5t29.5 -118t27.5 -88.5q25 -65 25 -92q0 -11 -4 -31q-10 -37 -23 -37 q-6 0 -6 15q0 17 -28 79t-31 78q-4 24 -16.5 36t-16.5 40q-6 35 -19.5 77t-21.5 50q-6 9 -6 21zM707 174q14 11 14 19q7 11 10 30.5t10 26.5q8 3 62 112.5t96 208.5q33 79 42 104.5t9 45.5q0 22 16 44.5t31 22.5q7 0 7 -6q0 -1 -1.5 -3t-1.5 -3q-12 -41 -60.5 -184.5 t-63.5 -198.5q-4 -2 -27 -73.5t-31 -71.5q1 4 -22 -16t-50 -43t-34 -23q-1 0 -3.5 3t-2.5 5zM766 778q11 25 53 46.5t84 21.5q24 0 47 -10q0 -7 -41 -43q-21 -20 -33 -26.5t-28 -6.5q-19 0 -31 2q-51 7 -51 16z" />
<glyph unicode="w" horiz-adv-x="1552" d="M145 762q0 7 41 45q31 28 67.5 50t51.5 22q1 0 3 -1t3 -1q4 -4 -26 -54q-46 -71 -109 -71q-3 0 -8 1t-8 1q-15 4 -15 8zM328 784q0 10 17.5 30t27.5 20q13 0 24.5 -60t19.5 -131t9 -76q3 -6 10 -61q4 -24 4 -33q0 -13 -3.5 -25t-6 -17.5t-11.5 -19.5t-11 -18l-15 39 q-14 38 -34 181t-31 171zM565 125q0 14 2 20q5 21 17 36t18 32q12 31 19 31q4 0 28 -43q13 -26 13 -35q0 -21 -50 -21q-23 0 -39 -12zM659 778q0 10 60 74q43 44 60 53.5t55 9.5q53 0 53 -10q0 -12 -73.5 -82.5t-86.5 -70.5q-24 0 -46 8.5t-22 17.5zM811 715q0 20 28.5 54 t43.5 34q14 0 14 -103q0 -47 -3 -105.5t-7.5 -97.5t-7.5 -40q-6 -6 -9 -6q-12 0 -18 67q-2 20 -21.5 97t-19.5 100zM1077 776q0 19 43 62q38 40 54 47.5t61 7.5q63 0 70 -10q2 -4 12 -4q14 0 24 4t25 4q12 0 12 -6q0 -14 -32 -33q-46 -28 -74 -53q-21 -18 -35.5 -23.5 t-48.5 -5.5h-27q-78 4 -84 10zM1098 223q0 5 6 17q50 103 72 168q8 26 20 46.5t16 37.5q0 22 43.5 113.5t49.5 127.5q6 41 30 41q10 0 19 -6q0 -1 -19.5 -47.5t-35 -85.5t-17.5 -49q-2 -17 -14 -31t-13 -31q0 -29 -26 -86q-10 -20 -31.5 -94.5t-52.5 -101.5q-28 -25 -41 -25 q-6 0 -6 6z" />
<glyph unicode="x" horiz-adv-x="1083" d="M256 719q0 12 29 49q24 35 53 35q17 1 34 11.5t42 10.5q32 0 32 -8q0 -2 -4 -10q-13 -26 -43 -49t-65 -35q-41 -14 -62 -14q-16 0 -16 10zM430 63q0 32 41 78q4 3 8 7.5t6.5 7t6.5 2.5q10 0 10 -23q0 -14 -2 -22q0 -23 -23 -36.5t-47 -13.5zM459 733q0 12 14 29l4 5l8 10 t10 9.5t11 4.5q9 0 20 -43q15 -55 15 -105q0 -58 -17 -72q-9 -6 -14 -6q-13 0 -19 29t-10 65t-12 46q-10 20 -10 28zM688 377q0 12 4 18q10 19 21 19q19 0 49 -62q11 -23 17.5 -35t13.5 -23.5t10 -15.5t14.5 -18t18.5 -24q57 -73 57 -105q0 -23 -25 -39h-1q-10 0 -66 72 q-58 74 -58 88q0 16 -18 41q-37 55 -37 84zM717 686q0 10 37 51q36 39 57 39q15 0 37 -16q3 -5 52 -15.5t50 -21.5q0 -19 -36.5 -45.5t-61.5 -26.5q-31 0 -81 12q-54 13 -54 23z" />
<glyph unicode="y" horiz-adv-x="1271" d="M231 -123q0 6 4 12.5t8 10.5t11 10.5t8 7.5q21 21 40 27.5t65 11.5q68 7 73 12q8 4 9 4q6 0 6 -14q0 -6 -47 -47q-19 -18 -60 -28.5t-80 -10.5q-17 0 -37 4zM362 635q3 2 17 15t20 18t20 15.5t24 15t24 8.5t27 4q18 0 32.5 -4t14.5 -9q0 -1 -11 -8q-8 0 -32 -24 q-5 -8 -15 -13t-27.5 -8.5t-29 -4.5t-35 -2.5t-29.5 -2.5zM520 532q0 26 10 33q11 7 11 27q0 28 10 43.5t24 15.5q24 0 33 -39q3 -14 11.5 -69.5t17.5 -101t18 -62.5q13 -23 13 -31q0 -9 -19 -41q-8 -16 -19 -28.5t-14 -12.5q-28 0 -69 131q-27 88 -27 135zM889 639 q0 10 22 35q21 24 39 24q3 0 19 -4q17 -5 64 -9.5t75 -4.5h10l-20 -35q-29 -33 -74 -33l-86 9q-4 0 -7 1l-3 1q-5 1 -10.5 2t-9 2l-7 2t-5.5 1.5t-4 2t-2.5 3t-0.5 3.5z" />
<glyph unicode="z" horiz-adv-x="905" d="M215 717q0 11 47 35q32 18 70 25t153 14q133 8 193 8q39 0 39 -6q0 -1 -1 -9t-1 -12q0 -9 -39 -25t-72 -22q-11 -2 -35.5 -8.5t-42 -9t-45.5 -2.5h-32q-23 2 -82 2q-123 0 -152 10zM432 252q0 8 29 33q18 15 40.5 18.5t88.5 3.5h24q78 0 78 -10q0 -8 -28 -27 q-31 -19 -129 -24h-41q-62 0 -62 6zM588 379q4 8 8 8q6 0 13 -3.5t7 -6.5q0 -4 -18 -4q-10 0 -10 6zM629 477q0 48 28 137q10 37 36.5 71t43.5 34q8 -5 8 -86q0 -102 -10 -109q-7 -15 -46 -40t-54 -25q-6 0 -6 18zM662 113q0 2 4 34q9 60 27.5 82.5t56.5 22.5q20 0 24 -5.5 t4 -29.5q0 -28 -16 -47.5t-62 -48.5q-30 -19 -32 -19q-6 0 -6 11z" />
<glyph unicode="{" horiz-adv-x="878" d="M152 678q3 19 29 49t44 33q8 -8 8 -17q0 -21 -30.5 -43t-50.5 -22zM424 1264q0 2 7 8t15 11l7 5q62 35 149 35q43 0 43 -14q0 -35 -59 -35q-23 0 -35 2q-14 2 -39 2q-37 0 -55 -6q-19 -8 -31 -8h-2zM455 526q0 11 14 25q17 14 25 14q4 0 6.5 -3.5t3.5 -12.5t1 -17.5 t0.5 -25.5t0.5 -29q5 -129 31 -196t86 -97q1 0 3 -1t3 -1q45 -23 45 -35q0 -3 -21 -34q0 -5 -8 -13q-25 -32 -63 -32q-47 0 -90 43q-31 36 -31 98q0 43 12 117q4 20 4 55q0 40 -10 84q-12 47 -12 61zM477 852q0 49 22 97.5t48 49.5q10 0 10 -14q0 -3 -4 -27 q-12 -45 -22.5 -160t-10.5 -118q-6 -18 -12 -18q-14 0 -14 59q0 44 -13 98q-4 20 -4 33zM621 1063q2 12 4.5 38.5t5 43.5t6.5 38t11 35.5t16 22.5q28 21 34 21q8 0 13.5 -36t5.5 -73q0 -5 -1 -15t-1 -12q-44 -33 -94 -63zM662 -49q0 6 2 27t2 34q0 29 30 64t49 35q9 0 9 -11 t-9 -32q-4 -6 -4 -19q0 -16 4 -22q5 -15 5 -17q0 -10 -29 -39q-40 -37 -51 -37q-8 0 -8 17z" />
<glyph unicode="|" horiz-adv-x="663" d="M193 1102q0 8 14 26t33 35q32 27 48.5 34t55.5 7q28 0 69.5 11.5t59.5 11.5t37 -8q2 -2 2 -7q0 -10 -13 -25.5t-18 -15.5q-9 0 -57 -32q-15 -11 -28.5 -18t-23 -11.5t-26 -7.5t-25.5 -4t-33.5 -3.5t-37.5 -4.5q-6 -1 -14.5 -2t-13.5 -2t-9 -1q-20 0 -20 17zM401 -172 q0 7 19 121q10 58 10 301q0 188 7 452t18 345q0 30 32 67q30 35 43 35q19 0 19 -115q0 -127 -25.5 -601t-25.5 -486v-8q0 -26 -33 -66t-35 -47q0 -4 -5 -8t-11 -4q-7 0 -10 2t-3 12z" />
<glyph unicode="}" horiz-adv-x="864" d="M201 76q0 8 30 45q21 24 29 24q4 0 4 -6q0 -12 -16 -33q-10 -14 -23.5 -25t-19.5 -11q-4 0 -4 6zM354 1286l29 -12q10 -7 44 -24t60.5 -34.5t34.5 -33.5q7 -14 14 -50.5t7 -56.5q0 -10 -2 -10q-6 7 -37 51.5t-61 82t-46 44.5q-43 30 -43 43zM535 182q0 14 1 58t1 75 q0 21 11.5 42.5t22.5 21.5q5 0 7 -2q4 -4 4 -80v-53q-1 -80 -6 -108t-19 -42q-8 -8 -12 -8q-10 0 -10 96zM539 784q0 81 12 121l4 -12q31 -75 57 -115q13 -20 21.5 -27t27 -12.5t27.5 -9.5q10 -3 10 -10q0 -6 -14 -17q-17 -10 -51 -10q-55 0 -82 19q-12 7 -12 73zM676 578 v20q1 21 24.5 51.5t36.5 30.5q8 0 8 -80q0 -52 -14 -71t-47 -27q-8 8 -8 76z" />
<glyph unicode="~" horiz-adv-x="1130" d="M276 838q0 10 29 10q31 0 41 10q19 19 47 19q44 0 74 -37q47 -54 69.5 -73t51.5 -26q40 -12 114 -12q60 0 93 8q66 19 102 25q-58 -77 -209 -109q-30 -6 -55 -6q-69 0 -154 68q-122 94 -174 106q-29 6 -29 17zM868 547q0 15 14.5 55t14.5 45q0 13 16.5 42t36.5 38 q20 10 27 10q8 0 10 -11.5t2 -47.5q0 -46 -12.5 -74.5t-34.5 -28.5q-9 0 -32 -21.5t-31 -21.5q-11 0 -11 15z" />
<glyph horiz-adv-x="1146" d="M303 1083q0 11 41 56q42 45 57 45q5 0 5 -4q0 -9 -19 -31q-30 -37 -37 -55q-3 -9 -13.5 -15t-19.5 -6q-14 0 -14 10zM303 1298q0 6 35 37q19 19 32 24t42 5h28q67 -3 74 -10q0 -11 -37 -41q-24 -19 -35.5 -25t-29.5 -6q-7 0 -43 4q-66 8 -66 12zM383 920q0 18 26.5 66.5 t47.5 66.5q9 7 16.5 17t12 15t10.5 5h32q4 0 4 -5q0 -8 -21.5 -49t-27.5 -59q-12 -34 -21.5 -43.5t-35.5 -13.5q-6 -1 -15 -2t-14.5 -2t-9.5 -1t-4 5zM786 1130q0 4 5 9q24 43 59 63q21 12 37 12q12 0 12 -8q0 -9 -40 -40.5t-60 -39.5q-2 -2 -6 -2q-7 0 -7 6zM817 1311 q0 18 32 37.5t54 19.5q15 0 15 -10q0 -1 -1.5 -3t-1.5 -3q-8 -13 -25 -20.5t-30 -20.5q-20 -17 -26 -17q-7 0 -13 6q-4 4 -4 11zM827 858q0 10 17 86q12 50 21 62.5t40 21.5q26 6 72 12h12q15 0 15 -6q0 -2 -7 -20q-5 -15 -8 -34t-5 -28t-13 -19.5t-33 -19.5 q-32 -12 -72 -45q-25 -22 -32 -22t-7 12zM905 1262q0 7 13 20q13 16 20 16q0 -7 -6.5 -26t-16.5 -19q-4 0 -6 2q-4 4 -4 7z" />
<glyph horiz-adv-x="1247" d="M221 1341q75 58 135 68q28 4 62 4q30 0 58.5 -2t47 -5t17.5 -7q-4 -12 -4 -19q0 -12 -40 -33.5t-73 -25.5q-8 -2 -31 -2q-54 0 -172 22zM481 1006q0 16 8 36q23 46 23 76q0 16 9 73t9 77v10q0 22 25.5 47t40.5 25q0 -53 -35 -202t-78 -149q-2 0 -2 7zM762 1374q-1 1 4 10 t13.5 18t15.5 9q12 0 18 16q7 17 66 17q7 0 26 -1t33 -1q117 -4 125 -12q4 0 -12 -19.5t-36.5 -38.5t-27.5 -18h-12q-37 0 -121.5 8t-91.5 12zM993 1075q0 8 8 21q7 11 11 47.5t12 44.5q9 9 16 65q5 37 12.5 56.5t28.5 40.5q25 28 37 28q-3 0 -11.5 -65t-24 -130t-35.5 -65 q-2 0 -6.5 -4.5t-4.5 -7.5q0 -13 -13.5 -25t-23.5 -12q-6 0 -6 6z" />
<glyph unicode="&#xa2;" horiz-adv-x="1095" d="M283 444q0 31 18 31q9 0 27 -12q14 -11 14 -21q0 -9 -8 -22q-17 -29 -25 -29q-11 0 -18.5 16.5t-7.5 36.5zM289 768q1 10 44.5 34t74.5 32q32 6 61 20q12 6 20 6q13 0 13 -14q0 -9 -2 -15q0 -34 -54 -34h-20q-26 0 -75 -14.5t-62 -14.5zM539 344q0 13 28 64 q30 56 47.5 74t44.5 18q29 0 29 -11q0 -2 -4 -14q-7 -26 -33 -55q-15 -16 -21.5 -30.5t-14 -22t-33.5 -19.5q-24 -12 -35 -12q-8 0 -8 8zM602 279q0 12 8 20q17 14 27 14q6 0 39 -10q35 -14 35 -22q0 -6 -17.5 -10.5t-38.5 -4.5q-29 0 -41 6l-6 4zM618 983l62 39 q58 41 100 41q22 0 49 -6q33 -7 33 -21q0 -12 -53 -47q-9 0 -31 -14t-35 -14q-1 0 -55 8zM776 782q0 11 8 11q5 0 45 32q25 25 39 25q9 0 15 -6q8 -5 8 -13q0 -7 -29 -30q-40 -31 -69 -31q-17 0 -17 12zM780 139q0 1 1 5t1 8q0 12 2 20q0 25 32 49.5t36 30.5q0 10 18 10 q15 0 15 -8q0 -2 -2 -9t-5.5 -20t-5.5 -24q-7 -32 -16.5 -43t-34.5 -17l-16 -4q-6 0 -13 -1t-8 -1q-4 0 -4 4zM786 864q0 15 27 56q21 34 41 34q10 0 10 -14q0 -13 -28 -49q-29 -33 -43 -33q-7 0 -7 6zM799 596q0 14 16 52t16 44q0 13 41 44.5t66 31.5q8 0 12 -2 q-32 -64 -32 -98q0 -21 -9 -30.5t-45 -27.5q-58 -24 -59 -24q-6 0 -6 10z" />
<glyph unicode="&#xa3;" horiz-adv-x="1509" d="M252 168q0 8 16 27q15 18 37 18q11 0 19 -7t8 -18q0 -20 -12.5 -31.5t-30.5 -11.5t-31 13q-6 6 -6 10zM295 393q2 1 17 13t32 22t27 10t10 -12v-8q-3 -18 -10.5 -21.5t-40.5 -3.5h-35zM367 793q0 10 20 30q25 25 51 25q15 0 15 -12q0 -17 -22 -35.5t-42 -18.5 q-22 0 -22 11zM662 467q0 29 2 45q4 47 10.5 61.5t21.5 14.5q21 -5 21 -27q0 -5 -3 -26.5t-3 -36.5q0 -44 5 -61t29 -48q39 -53 79 -68.5t137 -17.5q108 -4 108 -8q0 -12 -57 -27.5t-103 -15.5q-62 0 -104.5 18.5t-85.5 63.5q-31 31 -44 60.5t-13 72.5zM690 932q0 18 19 37 q15 18 24 18q10 0 10 -20q0 -12 -16 -27.5t-31 -15.5q-6 0 -6 8zM705 854q0 3 12 12q15 11 28 11q6 0 9 -3q5 -3 13.5 -3.5t14.5 -0.5t11 -3t6 -9q0 -10 -51 -10q-43 3 -43 6zM819 741v13q0 34 5 44.5t22 16.5q15 6 24 6q12 0 16.5 -12t6.5 -45q0 -6 1 -16t1 -13 q0 -16 -5.5 -22t-21.5 -13q-5 0 -15.5 -5t-16.5 -5q-11 0 -14 11t-3 40zM903 1274q0 8 27 8q23 0 108 -29q53 -18 73.5 -29.5t29.5 -29.5q12 -24 12 -33q0 -12 -37 -26q-21 -11 -33 -11q-6 0 -16 13q-15 26 -55 60.5t-72 47.5q-37 15 -37 29zM1278 334q0 23 16 39 q15 18 25 18q11 0 31 -35q20 -33 20 -49q0 -18 -31 -43l-32 -24l-15 39q-14 35 -14 55z" />
<glyph unicode="&#xa7;" horiz-adv-x="1073" d="M127 870q0 14 21 52.5t40 64.5q23 29 27 29q5 0 14 -12q15 -21 15 -31q0 -6 -33 -32.5t-33 -31.5q-2 -5 -17.5 -8.5t-15.5 -13.5q0 -2 -7 -9.5t-11 -7.5zM287 37q0 21 40 46t52 23q3 -2 10.5 -4.5t20.5 -6.5t22 -7q39 -12 39 -33q0 -16 -25 -28.5t-63 -12.5q-3 0 -11 1 t-12 1q-14 1 -29 2.5t-25 3t-11 1.5q-8 5 -8 14zM332 645q0 7 4 35q6 37 18 37q7 0 13.5 -14t9.5 -39q3 -32 9.5 -50t23.5 -32q24 -24 24 -31l-51 22q-29 19 -40 34t-11 38zM455 1380q0 8 18.5 15.5t20.5 9.5q13 16 110 16q66 0 91.5 -5.5t70.5 -29.5q63 -36 63 -43 q0 -8 11 -8q10 -2 20 -8t22 -16t17 -13q12 -3 12 -10q0 -8 -18 -19.5t-40 -22.5t-26 -15q-64 28 -95 56.5t-103 62.5q-7 6 -87 15t-87 15zM496 1067q0 12 2 20q5 22 19.5 43t27.5 21q15 0 18 -35q4 -40 43.5 -95t63.5 -65q14 -6 41.5 -29t36.5 -28q43 -28 94 -111t51 -120 q0 -9 -4 -13q-2 0 -16 10t-29 26.5t-15 29.5q0 10 -43.5 50t-80.5 63q-36 22 -61.5 43.5t-82.5 78.5q-36 34 -50.5 59t-14.5 52zM743 285q0 18 25 24q32 4 35 4q16 0 35 -24q24 -35 24 -101q0 -71 -28 -116q-19 -29 -25 -29q-4 0 -4 12q0 23 2 43q0 47 -11 100t-38 68 q-15 6 -15 19zM850 1169q0 8 29 27q30 18 39 18q8 0 8 -12q0 -2 -1 -7.5t-1 -8.5q-3 -20 -8.5 -24.5t-28.5 -4.5q-37 0 -37 12z" />
<glyph unicode="&#xa8;" horiz-adv-x="1050" d="M248 1272q-3 0 8 9q18 13 25 15q43 17 63 17t47 -10q23 -9 23 -23q0 -10 -2 -18q-8 -25 -22 -45.5t-25 -20.5q-13 0 -21 25q-6 21 -30 39t-44 18q-1 0 -4 -1t-4 -1q-12 -4 -14 -4zM752 1294q0 8 6 11q5 8 22 8q26 0 60 -16.5t34 -28.5q0 -15 -26 -51.5t-37 -36.5 q-2 0 -16.5 21.5t-28.5 50t-14 42.5z" />
<glyph unicode="&#xa9;" horiz-adv-x="1376" d="M242 551q0 102 10 102q11 0 18 47q4 30 34.5 89t41.5 59q1 0 -1 -7.5t-6.5 -21t-10.5 -28.5l-13 -31q-20 -50 -20 -129v-39q0 -87 4 -115.5t23 -64.5q28 -58 55 -88t76 -56q79 -45 79 -57q0 -2 -6 -2q-9 0 -21.5 10t-25.5 10h-8q-15 0 -45 21t-39 22q-15 2 -56 45.5 t-61 79.5q-19 35 -23.5 61t-4.5 93zM530 625q0 10 7 10q8 0 24 -19q21 -28 41 -28q9 -1 26.5 -12t39.5 -11h34l-30 -16q-15 -10 -43 -10q-29 0 -53.5 13.5t-34.5 37.5q0 5 -5.5 17t-5.5 18zM561 864q1 0 15 8t35.5 19t46.5 22t51.5 19t46.5 8q51 -3 98 -22q1 0 3 -1.5 t3 -1.5q27 -12 27 -18q0 -2 -13 -12q-18 -15 -45 -15q-21 0 -28 11q-5 10 -72 10q-107 0 -143 -19q-16 -8 -25 -8zM735 1188q56 12 109 12q92 0 170 -37q84 -40 134.5 -101.5t86.5 -170.5q20 -59 20 -193q0 -152 -24 -213q-14 -36 -27.5 -64.5t-23 -42t-13.5 -13.5 q-2 0 -2 6q0 8 13 55q30 99 30 215q0 205 -82 332q-53 80 -114 120.5t-176 69.5zM768 535l27 20q3 2 7.5 6.5t6.5 5.5q12 8 14 8q4 0 19 -30q10 -23 10 -29q0 -11 -14 -22q-19 -15 -23 -15q-3 0 -12.5 12t-19.5 26.5t-15 17.5zM807 780q0 9 13.5 22t21.5 13q6 0 6 -8 q0 -2 -4 -10q-3 -7 -4.5 -14.5t-4 -8.5t-14.5 -2q-14 0 -14 8zM881 963q0 4 12 4q10 0 10 -13q0 -4 -10 -4q-12 8 -12 13zM1135 319q0 4 6 13q9 12 16 12q4 0 4 -6q0 -2 -4 -10q-1 -4 -7 -8.5t-11 -4.5q-4 0 -4 4z" />
<glyph unicode="&#xab;" horiz-adv-x="1370" d="M369 535q0 10 6 16q5 10 14 10h8q10 0 15 14q7 23 20 23q6 0 6 -10q0 -13 11 -13q7 0 61 -48t68 -48q26 0 70 -60.5t44 -92.5q0 -10 -6 -13q-29 -6 -78 -55q-16 28 -89 101.5t-89 101.5q-18 28 -31 28q-7 0 -18.5 16t-11.5 30zM582 823q0 14 4 54q8 62 35 86q25 22 32 22 q12 0 17 -37q6 -40 6 -59q0 -23 -9 -35.5t-34 -26.5q-33 -20 -47 -20q-4 0 -4 16zM633 160q0 37 24 61q14 14 41.5 31t40.5 20q3 2 19 -14q18 -18 18 -37q0 -17 -22 -20q-19 -1 -38 -18.5t-30 -20.5q-12 -4 -18 -16t-19 -13q-16 0 -16 27zM891 543q25 28 59 55 q55 -48 142 -135q71 -71 71 -86q0 -6 -8 -6q-10 0 -27 -17q-25 -22 -49 -22q-25 0 -49 24q-19 20 -27.5 40.5t-25.5 39.5q-27 29 -86 107zM1044 135q0 34 15.5 74.5t32.5 52.5q22 16 60.5 39t45.5 25q1 1 3 -1.5t4 -7.5t3.5 -11t3.5 -13q7 -32 7 -45q0 -29 -15 -29 q-9 1 -32.5 -32t-32.5 -33q-17 0 -35 -21q-19 -22 -39 -22q-21 0 -21 24zM1141 887q0 123 8 135q6 10 36.5 29t45.5 22q6 -1 11 -47t5 -86q0 -27 -4 -39q-9 -17 -46.5 -51.5t-47.5 -34.5q-8 0 -8 72z" />
<glyph unicode="&#xad;" d="M250 612q0 18 32.5 24t145.5 11l168 8q1 0 -3.5 -4.5t-11.5 -10.5t-12 -9q-43 -26 -49 -35q-2 -4 -14 -4q-22 0 -49 8q-42 10 -80 10q-17 0 -53 -4q-16 -2 -41 -2q-33 0 -33 8zM584 528q0 35 6.5 44.5t22.5 12t26 13.5q7 10 16 10q13 0 13 -30q0 -19 -2 -31 q-8 -50 -33 -62q-23 -10 -33 -10t-13 11t-3 42z" />
<glyph unicode="&#xae;" horiz-adv-x="1609" d="M348 569q0 88 11 143t40 113q12 27 39 66.5t31 36.5q0 -8 -14 -43q-20 -41 -38 -105t-24 -116q-2 -18 -2 -54q0 -206 176 -315q29 -23 29 -25t-6 -2q-20 0 -58 19q-90 21 -161 133q-17 26 -20 45.5t-3 103.5zM684 477q0 11 5 23t11 12q7 0 9 -14q0 -9 -6.5 -22t-12.5 -13 q-1 0 -3.5 5.5t-2.5 8.5zM709 1001q0 5 12 11q24 12 149 12q97 0 107 -10q2 -1 7.5 -6t10.5 -8.5t9 -4.5q20 -12 37.5 -46.5t17.5 -63.5q0 -35 -6 -35q-8 0 -23 27q-62 122 -217 122h-8q-20 -2 -53 -2h-27q-16 0 -16 4zM739 801q0 10 6 16q3 6 27 6q26 0 31 -8q0 -9 -17 -22 t-32 -13t-15 21zM766 1317q1 1 12 5t27.5 7.5t28.5 3.5q2 0 6 -1t6 -1q3 -1 8 -1.5t8.5 -0.5t6.5 -2t3 -6q3 -2 -11 -5q-30 -5 -66 -5q-29 0 -29 6zM866 610q0 11 6 11q18 0 70 -62q49 -61 49 -84q0 -10 -10 -20q-11 -11 -23 -11q-10 0 -10 7q1 3 -41.5 79.5t-40.5 79.5z M887 1319l59 -4h1h1h1h1h1l1 -1h1h1h1h1h1h2q123 -11 137 -20q4 -3 6 -6q10 -10 22 -10q14 -3 51 -25.5t54 -25.5q8 -2 16 -5t12.5 -6t4.5 -4q0 -4 3.5 -8t6.5 -4q21 0 67 -53q38 -41 56 -74q20 -56 35 -125q5 -24 13.5 -58t12.5 -59.5t4 -60.5q0 -34 -2 -57 q-7 -94 -63 -269q0 11 -4 11t-9.5 -8t-11.5 -17.5t-8 -11.5q-8 -8 -8 -4q0 17 30 104q13 26 13 148q0 160 -17 213q-2 15 -11 43t-11 34q-17 53 -89 137.5t-130 120.5q-52 34 -134.5 60.5t-117.5 44.5z" />
<glyph unicode="&#xb0;" horiz-adv-x="962" d="M276 967q0 22 11 22q10 0 10 12q0 10 18 31t27 21q5 0 12 -74q3 -47 9 -67.5t24 -41.5q29 -40 29 -47q0 -8 -15 -8q-13 0 -43.5 16.5t-44.5 32.5q-15 15 -26 47t-11 56zM532 1305q37 26 78 26q34 0 66 -18q64 -34 107 -94.5t53 -135.5q2 -10 2 -28q0 -34 -8.5 -64 t-18.5 -33q-8 0 -8 7q0 12 4 22q4 20 4 23q0 9 -7 21t-7 28v10q0 17 -6 31.5t-15.5 27.5t-11.5 19q0 2 -6.5 9t-18.5 18t-26 20l-19 14q-33 25 -49 36.5t-45 27.5t-68 33z" />
<glyph unicode="&#xb4;" horiz-adv-x="905" d="M514 1317q33 27 55 51l56 -41q51 -34 51 -57q0 -15 -21 -33q-23 -20 -32 -20q-6 0 -13 6t-20 19t-27 24z" />
<glyph unicode="&#xb8;" horiz-adv-x="1705" />
<glyph unicode="&#xbb;" horiz-adv-x="1454" d="M385 918q0 9 19 22.5t30 15.5q10 0 47 -30q135 -112 176 -170q23 -33 57 -57.5t56 -24.5q12 0 12 -8t-6.5 -16.5t-13.5 -8.5q-16 0 -31.5 -17t-28.5 -24q-22 -14 -36 -14q-17 0 -35 18.5t-53 69.5q-17 25 -96.5 120t-96.5 124zM895 1014q0 18 20 18t105 -117 q75 -105 133 -159q74 -66 124 -120.5t50 -66.5q0 -6 -18 -20q-6 -6 -13 -6q-15 0 -77 65q-29 29 -84.5 96t-79.5 89q-8 0 -8 10q0 8 -29 41q-41 45 -82 101.5t-41 68.5z" />
<glyph unicode="&#xbf;" horiz-adv-x="946" d="M344 682q0 14 10 14q12 2 40.5 22.5t51.5 20.5q30 0 65.5 15.5t35.5 27.5q-3 9 50 11h11q47 0 47 -9q-2 -6 -10.5 -16.5t-21.5 -24t-24.5 -25.5t-26 -25.5t-19.5 -18.5h-109q-80 0 -90 -2q-5 0 -10 10zM418 145q0 26 22 48q17 20 23 20t12 -12q14 -23 47 -56 q48 -45 121 -45q29 0 49 13q24 14 64 14q8 0 8 -2q0 -8 -29 -37q-20 -22 -38.5 -26.5t-84.5 -4.5q-61 0 -116 8t-64 17q-5 2 -12 43q-2 8 -2 20zM465 1067q0 15 29 41q31 25 49 25q17 0 55 -23q26 -17 40.5 -44.5t14.5 -55.5q0 -36 -20 -56l-23 -22q-12 32 -57 74t-70 47 q-18 0 -18 14zM584 406l8 219l51 51q39 39 49 39q14 0 23 -80q0 -3 1 -9.5t1 -9.5q0 -64 -39 -127t-94 -83zM725 -117q0 23 18 84t29 76q8 8 10 12q28 39 31 39q5 0 8 -35q0 -2 1 -7.5t1 -8.5v-23q0 -33 -4 -53q-6 -19 -43 -55.5t-49 -36.5q-2 0 -2 8z" />
<glyph unicode="&#xc0;" horiz-adv-x="1300" d="M412 86q0 11 8 31l6 18q10 32 32 52t42 20q24 0 24 -31q0 -10 -2 -16q-6 -29 -59 -56q-13 0 -24.5 -4.5t-18.5 -9t-8 -4.5zM516 1417q0 16 35 31q24 12 37 12q18 0 47 -33q64 -70 119 -163q16 -24 16 -37q0 -10 -8 -15q-12 -8 -14 -8q-7 0 -17 10q-35 35 -192 172 q-23 20 -23 31zM563 463q0 10 41 31q40 24 58 24q15 0 22 -20q0 -2 1 -6t1 -5q0 -10 -16 -10h-8q-34 0 -64 -10q-21 -6 -29 -6q-6 0 -6 2zM571 997q0 5 2 7q8 9 32.5 14t31.5 18q6 10 35 17.5t61 7.5q24 0 41 -5t17 -12q0 -41 -144 -51q-20 -2 -49 -2q-27 0 -27 6zM586 553 q0 8 10 29t10 30q0 15 10 15q6 0 13 -8t8 -19q0 -18 -16 -37.5t-27 -19.5q-4 0 -6 2t-2 8zM807 967q0 22 43 49q17 10 27 10q27 0 32 -68q1 -30 33.5 -98t32.5 -80q0 -17 8 -30l78 -230q1 -6 17 -45.5t16 -62.5v-11q0 -21 9.5 -37.5t10.5 -33.5q0 -16 16.5 -38t16.5 -38 q0 -23 18 -59q13 -26 13 -31q0 -10 -15 -25q-20 -20 -30 -20q-11 0 -78 219q-14 45 -56.5 144t-58.5 159q-7 26 -17 51t-14 45q0 12 -16 31t-16 29q0 19 -41 96q-29 60 -29 74z" />
<glyph unicode="&#xc1;" horiz-adv-x="1443" d="M410 76q0 13 10 33q5 11 18 53.5t29 64t43 23.5q55 0 55 -37q0 -21 -18 -51t-30.5 -40t-39.5 -18q-9 -1 -33 -17.5t-30 -16.5q-4 0 -4 6zM532 537q0 12 17 47q4 9 12 25q29 59 35 61q2 0 8 -6q12 -10 17 -36t16 -38q8 -11 8 -21q0 -7 -8.5 -10t-34.5 -6q-11 -1 -34.5 -13 t-28.5 -12q-7 0 -7 9zM582 477q0 4 26 21q33 20 47 20q12 0 15 -14q0 -11 -24 -23t-46 -12q-2 0 -5.5 1t-4.5 1q-8 3 -8 6zM684 1034q0 4 14 4q5 0 11.5 7.5t11.5 7.5q4 0 16 -9q11 -8 19 -8q9 0 35 23q26 26 38 26q7 0 7 -6q-1 -10 -32 -36.5t-40 -24.5h-21q-18 0 -26 2 q-14 0 -23.5 4.5t-9.5 9.5zM801 956l25 24q25 24 41.5 37t25.5 15q13 0 22 17q6 14 13 14q12 0 30 -43q5 -14 25.5 -58t26.5 -69q6 -27 26.5 -68.5t32.5 -74.5q27 -75 105 -249t104 -249q1 0 10.5 -13t19 -32t9.5 -31q0 -11 -12 -14q-15 -9 -41 -35q-29 -29 -45 -29 q-19 0 -41 35q-18 27 -27.5 53.5t-24.5 49.5q-19 29 -56 114t-50 111q-10 17 -10 41q0 7 -3.5 18t-10.5 26t-13.5 28l-15.5 31l-13 26q-47 95 -86 185.5t-67 139.5zM948 1395q0 10 8 18q6 -2 17 -2q13 0 33.5 2t29.5 2q15 0 33 2l68 -35q-11 -36 -25 -36q-12 0 -20 -15 q-3 -10 -17 -10q-20 0 -61 33q-27 24 -43 24q-23 0 -23 17z" />
<glyph unicode="&#xc2;" horiz-adv-x="1468" d="M397 106q0 9 9.5 18t11.5 15q5 17 10 27t18 20.5t31 10.5q11 0 17 -2q31 -6 37 -11t6 -26q0 -19 -5 -26t-24 -11q-15 -4 -34 -12.5t-42 -20.5t-33 -16v24q-2 4 -2 10zM555 508q0 23 23.5 61t23.5 58q0 6 8.5 35.5t14.5 37.5l14 -8q18 -14 18 -33q0 -11 15 -35.5t16 -31.5 q0 -5 -54.5 -39.5t-78.5 -44.5zM571 1051q0 5 13 8q5 0 29.5 21t48.5 48q67 70 83 70q8 0 11 -8q8 -14 73 -57q-3 -2 -26.5 -18t-39.5 -27.5t-20 -16.5q-6 -8 -60.5 -21.5t-80.5 -13.5q-14 0 -22.5 5t-8.5 10zM584 451q0 10 56 39.5t71 29.5q6 0 6 -26v-48h-10 q-36 -4 -82 -4q-41 0 -41 9zM584 1176q0 13 41 49.5t51 38.5q10 0 10 -4q0 -23 -15.5 -43t-27.5 -27.5t-22 -11.5q-21 -9 -29 -9t-8 7zM750 1520q2 0 5 1t5 1h55q90 -103 178 -158q111 -70 111 -115q0 -8 -4 -16q-8 -14 -21 -14q-19 0 -45 26l-239 223q-38 38 -45 52z M803 1022q0 17 28 39q36 29 48 29q7 0 24 -17q14 -12 26.5 -41t41.5 -114q45 -132 65 -146q11 -7 11 -22q0 -23 98 -209q182 -344 182 -385q0 -7 -2 -9q-22 -28 -53 -62t-37 -34q-9 0 -25 35q-2 5 -43 84q-25 41 -56 131.5t-46 120.5q-13 25 -17.5 56t-11.5 48 q-8 17 -22.5 45.5t-24.5 51.5t-18 51q-13 44 -57.5 137t-71.5 133q-39 56 -39 78z" />
<glyph unicode="&#xc3;" horiz-adv-x="1443" d="M516 125q0 17 16 30t19 25q5 15 27.5 28.5t48.5 14.5q12 0 12 -6q0 -9 -18 -43q-9 -19 -22.5 -34.5t-23.5 -18.5q-1 0 -4 -1t-4 -1q-37 -13 -43 -13q-8 0 -8 19zM535 1446q36 20 69 27q20 3 47.5 11.5t44.5 8.5q21 0 52 -8q55 -22 167.5 -51t145.5 -29q6 0 8 2 q0 -11 -57 -33q-42 -18 -88 -18q-52 0 -95 4q-12 0 -38 22q-34 33 -76 44.5t-135 17.5q-10 0 -24 1t-21 1zM616 520q0 7 19 29q19 29 35 29q10 0 16 -15q2 -8 -25.5 -27.5t-39.5 -19.5q-5 0 -5 4zM668 471q0 5 16 18q18 15 25 15t18 -17q14 -17 14 -26q0 -4 -10 -4 q-12 0 -22 2q-41 6 -41 12zM690 993q0 15 51 49q34 22 55.5 27.5t73.5 5.5q78 0 78 -8q0 -6 -33.5 -29.5t-42.5 -23.5q-10 0 -10 -15t-67 -20q-18 -2 -47 -2q-58 0 -58 16zM920 942q0 16 30 39q31 25 35 25q5 0 8 -17q1 -4 9.5 -27.5t15 -47t6.5 -37.5q0 -2 -1 -6t-1 -5 t-1 -3.5t-1 -4.5q0 -33 35 -196q25 -107 61 -160q11 -17 31 -71t37 -75q16 -21 29 -55.5t30 -54.5q13 -17 27 -48.5t14 -56.5q0 -23 -14 -37q-6 -6 -10 -6q-7 0 -19.5 22t-46.5 93l-18 37q-18 37 -59 111.5t-58 111.5q-27 58 -49.5 148t-38.5 129q-9 14 -25 86t-20 84 q-6 15 -6 22zM1176 1305l8 32q19 78 41 78q16 0 16 -16q0 -52 -65 -94z" />
<glyph unicode="&#xc4;" horiz-adv-x="1398" d="M455 78q0 15 21 48.5t34 49.5q26 29 65 29q36 0 39 -31q0 -32 -52 -67t-97 -35h-8q-2 2 -2 6zM483 1356q0 3 13 16q20 17 32 17q18 0 29.5 -17t11.5 -37q0 -29 -24 -37q-17 0 -41 27q-21 24 -21 31zM602 489q0 5 10 28t20 43t9 20q12 0 31.5 -30t19.5 -38q0 -10 -4 -10 q-8 0 -45 -6.5t-41 -6.5zM616 1030q0 10 17 10q10 0 16 11.5t15 11.5q10 0 22.5 16.5t22.5 16.5q12 0 20 16q3 12 35 12q23 0 39 -2q68 -4 71 -12q-2 -16 -54 -48t-52 -44q0 -6 -16 -6q-9 0 -29 4q-12 4 -39 4h-31q-27 0 -37 10zM662 434q0 12 24 15q10 2 25 2q21 0 24 -21 q0 -18 -18 -18q-23 0 -39 7t-16 15zM813 973q0 7 27 28q28 21 59 52q28 28 35 28q8 0 14 -26q12 -61 23.5 -96.5t33 -85t35.5 -87.5q32 -86 50.5 -128t47.5 -98t58 -118q6 -15 12 -45t17 -41q11 -10 24 -56.5t19 -57.5q8 -16 8 -29q0 -14 -27 -41t-35 -27q-5 0 -16 11 q-16 16 -16 28q-10 22 -66 131.5t-69 151.5q-29 89 -54 135q0 33 -21 84t-42.5 88.5t-60 99t-48.5 78.5q-8 13 -8 21zM889 1409q0 4 2 6l55 4q7 1 23.5 3t30.5 3.5t22 1.5q2 0 4.5 -1t3.5 -1q13 -7 19 -8q10 -10 10 -35t-11.5 -46t-27.5 -21q-14 0 -29 18q-36 48 -84 62 q-18 6 -18 14z" />
<glyph unicode="&#xc5;" horiz-adv-x="1462" d="M416 8q-3 0 9 25t25 51l13 25q14 19 14 32q0 12 26.5 72t26.5 68q0 16 97 22h10q12 0 12 -4q-4 -10 -20.5 -38t-22.5 -52q-36 -115 -86 -150q-26 -19 -59.5 -35t-44.5 -16zM610 557q0 8 2 16q10 38 31 82q39 -39 45 -94q2 -2 2 -6q0 -10 -39 -10q-27 0 -34 1.5t-7 10.5z M647 938q0 18 62 57q24 24 44.5 30.5t61.5 6.5q64 0 64 -12q0 -4 -15 -10q-15 0 -61 -43q-32 -30 -48.5 -36.5t-64.5 -6.5h-10q-33 0 -33 14zM649 1307q0 12 8 20q2 2 7 2q11 0 26 -13.5t15 -25.5q0 -24 -17 -24q-6 0 -18 6q-21 10 -21 35zM684 1534q0 12 35 27l37 16 q68 27 82 27q13 0 39 -13q75 0 75 -198v-74q-23 53 -61 101t-72 61q-19 8 -31 18.5t-23.5 15.5t-39.5 5q-41 0 -41 14zM829 893q0 19 13 33t41 30q15 9 27 20t12 15q0 8 4 8q14 0 41 -77q20 -52 32 -113q14 -62 63 -166t64 -168q3 -13 35.5 -69.5t73.5 -124.5t55 -97 q5 -10 9.5 -33t17.5 -36q10 -10 10 -17q0 -6 -24 -30q-51 -45 -66 -45q-18 0 -35 36q-79 149 -231 490q-6 13 -18 37t-19.5 42.5t-11.5 35.5q0 6 -52 116q-41 84 -41 113z" />
<glyph unicode="&#xc6;" horiz-adv-x="1660" d="M346 59q0 10 9.5 29t19.5 33t12 14q10 0 10 17q0 27 23.5 47t52.5 20q18 0 31 -8q6 0 6 -6q0 -11 -19 -41.5t-36 -55.5t-15 -26q0 -6 -35.5 -19.5t-50.5 -13.5l-6 2q-2 2 -2 8zM586 571q0 12 28 54q31 42 66 84.5t39 42.5t4 -56q0 -42 -6.5 -52.5t-40.5 -25.5 q-46 -22 -66 -38q-16 -13 -20 -13t-4 4zM592 506q0 8 20 14l56 27q34 18 45 18q10 0 10 -16q0 -3 -1 -10t-1 -11q-3 -26 -6.5 -33.5t-12.5 -7.5q-3 0 -20.5 2.5t-34.5 2.5q-55 0 -55 14zM641 1038q0 12 25 31q12 16 59.5 28t107 20.5t74.5 12.5q15 5 205 5q127 0 255.5 -3 t133.5 -6q2 -2 -35 -39q-27 -27 -42.5 -32.5t-67.5 -5.5q-497 0 -611 -17q-47 -6 -69 -6q-35 0 -35 12zM987 317q0 13 2 19q9 30 23 39t61 18q6 0 6 -43q0 -21 -6 -30t-25 -15t-26 -10q-8 -4 -14 -4q-21 0 -21 26zM1047 723q0 45 14 59q13 13 55 13q37 0 37 -21 q0 -4 -2 -9.5t-4 -8.5l-2 -4q0 -6 -32.5 -28.5t-55.5 -33.5q-10 0 -10 33zM1075 256q0 8 24.5 16.5t66 14.5t85.5 6q36 0 54 -2q14 -2 41 -2q47 0 47 -10q0 -8 -9 -17q-7 -9 -79.5 -16.5t-137.5 -7.5q-37 0 -65 4q-27 6 -27 14zM1087 637q5 4 16 13t16 12.5t15 9.5t18.5 9 t21 5t26.5 2h14q66 0 82 -12q11 -6 11 -14q0 -15 -41.5 -25t-94.5 -10q-42 0 -84 10zM1253 469v47q0 29 7.5 45.5t33.5 30.5q9 5 19.5 11.5t15.5 9.5t8 3q6 0 6 -16q0 -21 -2 -35q-3 -33 -9.5 -43.5t-35.5 -27.5zM1368 61l4 91q1 17 12.5 32t24.5 22.5t33 17.5t26 14 q17 10 27 10q18 0 18 -33q0 -34 -14.5 -79.5t-25.5 -45.5q-12 0 -35.5 -12t-40.5 -27q-12 -12 -21 -12q-8 0 -8 22zM1462 885q0 26 20.5 93.5t30.5 78.5q4 6 18 12t23 6q11 0 11 -10q0 -6 -2 -12q-7 -24 -7 -80q0 -29 -3 -41.5t-7.5 -15t-18 -8t-26.5 -15.5q-27 -19 -35 -19 q-4 0 -4 11z" />
<glyph unicode="&#xc7;" horiz-adv-x="1271" d="M311 510q0 76 38.5 168.5t90.5 132.5q47 35 56 35l-2 -12q-11 -14 -39 -39q-20 -17 -29 -37t-20 -33q-21 -21 -21 -102q0 -76 18 -97q17 -20 25 -45q2 -15 15.5 -21.5t13.5 -17.5q0 -12 51.5 -42.5t71.5 -30.5q24 -5 57 -17t69 -20t87 -8q95 0 165 12q36 4 41 4 q21 0 21 -6q0 -10 -42 -29t-106 -37q-70 -18 -127 -18q-73 0 -202 33q-88 22 -135 56.5t-84 104.5q-13 26 -13 66zM489 1118q0 9 23 20.5t92 35.5q19 16 133 16q73 0 155 -6.5t107 -12.5q40 -10 64 -25t24 -28q0 -4 -4 -8q-4 -9 -21 -13t-20 -12q-4 -9 -20.5 -14t-22.5 -14 q-10 -17 -43 -17q-22 0 -22 11q0 22 -135 49.5t-226 27.5q-45 0 -55 -10t-20 -10q-9 0 -9 10zM518 -324q0 12 27 33q39 31 47 31q6 0 10 -8t4 -13q0 -14 -12.5 -26.5t-32.5 -16.5q-21 -6 -33 -6q-10 0 -10 6zM750 -12q0 14 12 14q4 0 4 -12q-7 -10 -12 -10q-4 2 -4 8z M766 -94q0 3 10 16q0 3 6 14t11 11q10 0 23.5 -9t21.5 -20q36 -41 49.5 -77t13.5 -91q0 -50 -12.5 -73t-40.5 -44q-6 0 -6 33q0 11 4 43q2 10 2 29q0 81 -68 153q-14 11 -14 15zM967 909q0 16 9.5 23t10.5 16q0 21 96 107q32 28 47 28q9 0 9 -10q0 -12 -11 -26 q-9 -6 -20 -48q-8 -25 -18 -36t-39 -23q-44 -20 -66 -37q-10 -10 -14 -10t-4 16zM1020 203q0 17 4 33q4 19 54.5 70.5t64.5 51.5q4 0 4 -22q0 -27 -2 -45q-6 -46 -15.5 -62.5t-48.5 -54.5l-55 -51q-6 60 -6 80z" />
<glyph unicode="&#xc8;" horiz-adv-x="1189" d="M221 1038q13 16 25 26t29.5 22t23.5 16q12 12 53 12q29 0 49 -2q16 -2 43 -2q52 0 74 14q41 29 266 29q29 0 80.5 -1t71.5 -1h31q51 0 51 -8q-10 -24 -37.5 -31.5t-42.5 -19.5q-30 -21 -102 -21q-51 0 -88 2h-56q-104 0 -259 -16t-212 -19zM358 1495q0 8 19 21 q22 16 51 16q51 0 115 -45q60 -43 67 -43q12 0 58.5 -36t46.5 -46q0 -9 -40 -39.5t-52 -30.5q-4 0 -23 15q-147 119 -201 151q-41 24 -41 37zM401 328q0 32 11 39.5t32 7t33 10.5l31 16v-18q0 -28 -11 -45.5t-40 -28.5q-11 -4 -21.5 -10.5t-16.5 -10t-9 -3.5q-9 0 -9 43z M408 733q0 30 6 45q6 18 15.5 22.5t41.5 4.5q25 0 38 -13t13 -32q0 -31 -26 -41q-14 -4 -40.5 -28t-33.5 -27q-6 0 -10 21.5t-4 47.5zM434 227q38 31 83 41.5t153 16.5q68 4 104 7.5t66 5.5t108 5q41 0 41 -6l-4 -8q-9 -10 -24.5 -15.5t-22.5 -19.5q-7 -13 -97 -18 t-194.5 -6.5t-122.5 -4.5q-40 -4 -55 -4q-35 0 -35 6zM463 629q0 6 25.5 20.5t39.5 14.5q25 0 25 16q0 5 5 7.5t18.5 4.5t37 3t62.5 1q122 0 137 11l8 4q13 0 13 -2q0 -10 -35 -33q-36 -21 -181 -35q-123 -14 -149 -14q-6 0 -6 2zM791 557q0 33 7 48.5t38 37.5q10 7 22 18 t19 17t10 6q8 0 8 -25q0 -14 -2 -28q-4 -56 -8 -66t-40 -31.5t-48 -21.5q-6 0 -6 45zM905 106q0 11 6 29q6 23 51 70t60 47q8 0 8 -49q0 -38 -18 -58t-72 -43q-16 -8 -25 -8q-10 0 -10 12zM942 989q0 37 5 47.5t26 16.5q5 1 37 16.5t45 15.5q18 0 18 -22q0 -73 -37 -82 q-11 -3 -45.5 -23.5t-42.5 -23.5q-6 0 -6 55z" />
<glyph unicode="&#xc9;" horiz-adv-x="1130" d="M180 1094q0 12 27 30q48 39 201 39h30q31 -1 37 -6.5t6 -28.5t-6.5 -27.5t-44.5 -10.5q-40 -5 -45 -5q-17 0 -51 3.5t-51 3.5q-8 0 -43 -5q-14 -4 -37 -4t-23 11zM408 852h10q102 0 108 -14l1 -6q1 -6 1 -9q0 -17 -6 -41q-6 -29 -14.5 -37t-36.5 -14q-24 -6 -37 -6l-8 2 q-11 23 -18 125zM432 336q0 35 8 43t56 8q24 0 24 -4q0 -20 -30 -46t-52 -26q-6 0 -6 25zM465 664q10 7 32 11t49.5 7t39.5 6q40 8 86 8q59 0 59 -14q0 -7 -20 -18q-24 -15 -99 -15h-39q-109 4 -108 15zM485 268q0 16 60 24.5t133 8.5q86 0 170 -8q43 -6 43 -10t-10 -11 q-22 -16 -236 -16q-160 0 -160 12zM563 1100l31 71q215 19 342 19h20q0 -9 -9.5 -21t-18.5 -19.5t-25 -18.5t-18 -13h-72q-209 0 -250 -18zM680 1530q0 2 16.5 23t16.5 22q4 2 10 2q25 0 57 -14q23 -11 41.5 -28.5t24.5 -29.5q-51 -22 -60 -22q-16 0 -24 14q0 25 -64 25 q0 4 -9 5t-9 3zM717 520q0 1 1 4.5t1 5.5q6 18 6 48q0 17 33 36.5t33 28.5q3 14 10 14q12 0 12 -51q0 -34 -5.5 -47.5t-27.5 -28.5q-34 -24 -49 -24q-14 0 -14 14zM856 111q0 21 6 51q4 26 15.5 40.5t42.5 33.5q33 20 47 20q18 0 18 -59q0 -30 -8 -42.5t-41 -35.5 q-50 -35 -66 -35q-14 0 -14 27zM885 903l6 74q4 46 11.5 64t31.5 42q7 10 28 24.5t29 14.5q2 0 2 -6q-2 -2 -2 -14t4 -51t4 -52q0 -12 -2 -14q-15 -15 -112 -82z" />
<glyph unicode="&#xca;" horiz-adv-x="1163" d="M201 1071q0 13 37 47q26 23 59 23q38 0 80 -25q9 0 53.5 36.5t71.5 66.5q10 10 16 10q8 0 21 -19q5 -7 41 -49q11 -11 16.5 -26.5t17.5 -22.5q11 -3 11 -6q0 -7 -84.5 -13t-171 -11t-88.5 -9q-48 -10 -62 -10q-18 0 -18 8zM350 330v49h29q75 0 80 -10q-5 -15 -37.5 -39.5 t-36.5 -28.5q-15 -18 -25 -18t-10 47zM352 737q0 28 10 58q6 18 16.5 23t43.5 5q32 0 40.5 -4t8.5 -18q0 -9 -5.5 -18.5t-12.5 -10.5q-8 -2 -47.5 -28.5t-47.5 -28.5q-6 0 -6 22zM420 678q0 5 16 10q6 2 21 2h14q31 0 31 25q0 13 16.5 17t85.5 7q103 4 107 6q43 -18 43 -28 q0 -5 -19 -8q-17 -9 -35.5 -21t-27 -17t-29 -8.5t-53.5 -3.5q-28 0 -78 3q-92 3 -92 16zM432 266q0 4 2 8q8 19 17 19q3 1 51.5 43.5t64.5 42.5h8q13 0 32 8t28 8q8 0 14 -2q5 -2 22.5 -3t46 -3t50.5 -4q16 -1 36 -2.5t30.5 -2.5l21 -2t14.5 -3.5t4 -5.5q0 -11 -38 -39 q-22 -16 -64.5 -27.5t-79.5 -16t-99.5 -10.5t-92.5 -10q-50 -4 -51 -4q-17 0 -17 6zM559 805q0 6 55 6h19q49 0 49 -10q-3 -8 -41 -8q-27 0 -54.5 4t-27.5 8zM625 494q0 27 19 69.5t36 48.5q10 3 70 39q45 29 57 29q8 0 8 -10q0 -3 -4 -23q-3 -11 -8 -46t-15 -52t-34 -21 q-28 -6 -78 -36q-32 -19 -39 -19t-10 8q-2 2 -2 13zM649 1542q20 14 43 14h56l16.5 -33t18 -35.5t17.5 -31.5t23 -35q37 -55 37 -69q0 -15 -18 -27q-45 -31 -54 -31q-6 0 -12 13q-14 34 -61 112l-17 29q-49 82 -49 94zM680 1106q3 20 46 59t67 47q15 5 63 5q89 0 121 -9 q12 -3 12 -10q0 -15 -61 -49q-7 0 -13 -6q-60 -31 -86 -31q-3 0 -9 1t-9 1h-14q-17 0 -50 -6t-47 -6q-8 0 -20 4zM827 141q0 46 10 89.5t21 48.5q8 2 40.5 28.5t39.5 28.5q8 0 8 -82q0 -58 -5 -75.5t-30 -43.5q-29 -33 -55 -33q-29 0 -29 39zM883 938q0 24 8 63t18 58 q18 37 54 49q38 11 38 20t15 9q8 0 8 -17q0 -12 -6 -53q-10 -68 -39 -88q-5 -4 -17 -14l-18 -15t-16 -11.5t-20 -10.5t-21 -6q-4 0 -4 16z" />
<glyph unicode="&#xcb;" horiz-adv-x="1132" d="M195 1010q0 14 32 35t66 28q49 10 117 10q44 0 136 -7t144 -9q54 -1 92 -2.5t51 -2t26.5 -1t31.5 -0.5q8 0 8 -8q0 -7 -6 -19q-11 -16 -55 -16h-21q-126 4 -147 4q-86 0 -176 -10q-107 -11 -213 -11q-86 0 -86 9zM332 1368q0 8 15 14.5t36 6.5q31 -3 37.5 -9t11.5 -32 v-11q0 -18 -10 -33.5t-21 -15.5q-14 0 -20 27q-5 14 -14.5 26t-18.5 15q-16 5 -16 12zM424 360v9q1 13 6.5 22t16 13t19 5.5t23 2.5t19.5 2q2 0 6 -4t4 -7q0 -4 -2 -6q-6 -15 -6 -30q1 -8 -13 -14l-28 -12t-14 -13q0 -11 -17 -11q-9 0 -11.5 9t-2.5 34zM434 752q0 43 45 43 q9 0 19 -2.5t16 -5.5t6 -5q0 -9 -34.5 -41t-43.5 -32q-8 0 -8 43zM481 270q0 13 86 58q32 16 56 16q25 0 57 -16q2 -2 14 -2q32 0 90 10q74 8 80 8q30 0 68 -18l-6 -7q-44 -39 -74.5 -51t-112.5 -12q-11 0 -37 1t-43 1q-29 1 -61.5 1.5t-50.5 0.5t-35 1t-24 3t-7 6zM485 666 q0 5 52 14q49 7 49 18q0 9 43 9q73 0 96 -10q3 -2 2 -3q0 -15 -40 -26t-99 -11h-15q-88 3 -88 9zM580 768q0 6 2 10q7 17 92 17q52 0 74 -11q10 -7 10 -12q0 -13 -88 -16h-41q-30 0 -39.5 2.5t-9.5 9.5zM711 522v10q3 46 17 73t46 46q12 4 14 4q20 0 23 -67v-13 q0 -18 -7 -26.5t-34 -22.5q-39 -22 -49 -22t-10 18zM762 1368q0 5 3.5 8.5t11.5 6t13.5 3.5t18 2.5t16.5 2.5h9q41 0 65 -60q-64 -78 -78 -78q-4 0 -4 7q-13 48 -47 90q-8 11 -8 18zM856 111q0 23 4 39q6 37 20.5 56t73.5 66q24 21 33 21t14 -31q10 -50 13 -59q4 -8 4 -10 q0 -16 -45.5 -37.5t-48.5 -28.5l-11 -8q-35 -27 -47 -27q-10 0 -10 19zM915 950q0 22 27 49q33 33 43 33t10 -28q0 -21 -2 -33q-6 -51 -17 -70.5t-34 -19.5q-14 0 -18 13t-4.5 31t-4.5 25z" />
<glyph unicode="&#xcc;" horiz-adv-x="802" d="M248 1475q19 30 41 30q25 -3 76 -37q0 -9 18 -14q16 -8 16 -16q0 -5 88 -97q13 -14 27 -28l22 -22t15.5 -16t10.5 -13t3 -9q0 -11 -24 -20q-6 0 -42.5 30t-80.5 72q-26 27 -77.5 66.5t-72.5 60.5q-11 11 -20 13zM326 948q0 16 45 58q26 26 37 34.5t24 8.5q1 0 21 -5 q11 -3 40 -3.5t51.5 -3t28.5 -11.5q0 -15 -43.5 -49.5t-62.5 -36.5q-14 -2 -66 -2q-51 0 -61 2q-14 0 -14 8zM500 233q0 100 17.5 315.5t17.5 248.5q0 26 -5 26q0 11 1.5 27t11.5 46t26 36q28 16 39 16q8 0 8 -41q0 -74 -6 -86q-4 -6 -4 -129q0 -201 8 -209q9 4 19.5 -100.5 t17.5 -216.5q-7 -4 -36.5 -24.5t-53 -34t-33.5 -13.5q-28 0 -28 139z" />
<glyph unicode="&#xcd;" horiz-adv-x="851" d="M168 1026q91 72 102 88q11 14 23 14q10 0 26 -22l23 -27q4 3 16 15t22.5 19t20.5 7q8 0 17 -6q26 -13 26 -24q0 -13 -18 -19q-23 -9 -31 -20q-4 -5 -23 -8.5t-48 -6t-55.5 -4.5t-58 -3.5t-42.5 -2.5zM379 258q0 173 8.5 378t24.5 314q4 31 17.5 47t51.5 43q53 39 66 39 q4 0 4 -14q0 -13 -2 -21q-30 -170 -39 -495q-7 -246 -21 -275q-6 -15 -6 -24v-37q0 -23 -34.5 -53.5t-63.5 -44.5q-6 0 -6 143zM485 1221q0 3 5 15t10 17q6 6 25 34t37.5 45.5t35.5 17.5q13 0 30.5 22.5t28.5 22.5t11 -4q0 -1 -15 -27q-18 -26 -63 -68.5t-53 -42.5 q-10 0 -26 -16t-26 -16zM500 1505q0 7 20 21q24 18 58 18q26 0 63 -16q27 -15 27 -27q0 -14 -35 -39l-35 -26q-47 47 -84 59q-14 6 -14 10z" />
<glyph unicode="&#xce;" horiz-adv-x="774" d="M233 983q0 10 43 45t56 37q9 1 41 -27t41 -28q10 0 10 -9q0 -6 -2 -8q-6 -16 -41 -16q-29 0 -29 14q0 8 -2 8t-10 -8q-14 -14 -80 -14q-27 0 -27 6zM385 1409q52 43 82 43q17 0 20 -16q13 -33 41 -76q61 -99 82 -137.5t21 -55.5q0 -13 -21 -20q-4 -2 -10 -2 q-16 0 -30.5 18.5t-22.5 36.5q-3 9 -16.5 28.5t-35 46.5t-40 49t-41.5 49.5t-29 35.5zM463 346q0 127 6 338.5t6 216.5q0 54 10.5 73t40.5 36q37 -73 37 -553q0 -194 -4 -256q-6 -15 -38 -52.5t-38 -37.5q-20 0 -20 235z" />
<glyph unicode="&#xcf;" horiz-adv-x="917" d="M229 1411q0 9 23 19q27 12 55 12q20 0 43 -10q41 -21 41 -54q0 -24 -29 -67q-27 -41 -40 -41q-9 0 -9 14q0 21 -19.5 55.5t-39.5 46.5q-25 16 -25 25zM360 1069q0 18 39 51q31 28 49.5 34.5t65.5 8.5q76 0 109 8q40 9 57 9q18 0 18 -9q0 -8 -26 -24q-19 -11 -44.5 -30.5 t-40.5 -28.5t-47 -17t-77 -8q-97 0 -103 6zM594 487q0 89 6 285q4 160 14 211t39 76q19 16 42 30.5t30 16.5q6 -12 6 -53q0 -98 -14 -152q-6 -28 -12.5 -150t-6.5 -241q0 -62 4 -148v-24q0 -41 -10.5 -72t-23 -48t-41.5 -48l-6 -6l-5 33q-22 164 -22 290zM655 1432 q0 10 23 16t51 6q34 0 47 -8q21 -14 21 -43t-21 -53l-24 -31l-4 8q-29 70 -54 80q-39 14 -39 25z" />
<glyph unicode="&#xd0;" horiz-adv-x="1366" d="M205 733q0 8 15.5 17.5t27.5 9.5q6 0 8 -2q4 -8 4 -10q0 -10 -10.5 -17.5t-22.5 -7.5q-17 0 -22 10zM401 1176l54 57l145 -8q314 -16 498 -183q58 -54 73 -75.5t41 -83.5q27 -67 27 -78q0 -8 -10 -8t-10 12q0 20 -29 70.5t-64 89.5q-35 42 -108 92.5t-98 50.5 q-16 0 -56 14q-90 32 -144 41t-167 9h-152zM498 428q0 76 6 76q7 1 20.5 5.5t18.5 4.5q14 0 14 -22q0 -5 -4 -33q-8 -41 -8 -84q0 -17 -12 -35t-21 -18q-14 0 -14 106zM514 848q0 23 14 29q15 6 35 6q15 0 26 -4.5t11 -10.5q0 -15 -24 -32t-44 -17q-18 0 -18 29zM532 252 q0 2 8 14t15 17q24 19 53 24t142 6q159 3 180 15q4 0 15 7t16 7q8 0 8 -12q-3 -42 -129 -64q-76 -11 -84 -22q-2 -4 -54 -4q-48 0 -104.5 4t-65.5 8zM559 760q0 6 21.5 16t54.5 17q55 14 65 14t13 -8q2 -2 2 -6q0 -15 -37 -27t-86 -12h-19q-14 0 -14 6zM690 649v15 q3 38 31 59q24 18 35 18q12 0 12 -28v-13q0 -44 -6 -47q-48 -28 -60 -28t-12 24z" />
<glyph unicode="&#xd1;" horiz-adv-x="1480" d="M242 1042q-1 4 18.5 16t38.5 23.5t18 14.5q0 6 27 6q26 0 57.5 -5.5t32.5 -11.5q-2 -7 -39.5 -26t-40.5 -27q-5 -8 -39 -8q-26 0 -49.5 5.5t-23.5 12.5zM408 981q0 13 45 47l43 31q50 -56 104 -141q26 -39 41.5 -71t36.5 -56q9 -10 43 -53t66 -80.5t47 -49.5 q15 -13 19.5 -21t4.5 -24q0 -23 -2 -39q0 -2 -1 -5.5t-1 -4.5q-1 -9 -3 -23q-5 -33 -11 -34q-9 0 -17 14q-12 17 -76.5 88.5t-80.5 95.5q-32 48 -70 95.5t-98 118t-80 94.5q-10 13 -10 18zM434 377q0 12 8 12q15 0 54 -39l39 -41l-5 -108q-3 -74 -8.5 -97t-25.5 -43 q-27 -30 -37 -30q-11 0 -15 34.5t-6 127.5q-2 45 -2 116v56q0 2 -1 6t-1 6zM555 1546q0 4 23 4q33 0 81 -8.5t64 -19.5q24 -17 36 -36.5t36 -43.5q41 -41 41 -56q0 -10 -27 -10q-50 0 -145 92q-46 46 -78 58q-31 12 -31 20zM969 1348q0 14 16 30q17 21 43 21q14 0 14 -10 q0 -9 9 -27q0 -16 -20.5 -30.5t-39.5 -14.5q-11 0 -14 6q-8 11 -8 25zM975 1018q0 15 45 43q35 23 57 28t84 5q88 0 88 -11q-4 -8 -44 -30.5t-44 -30.5q-14 -14 -110 -14q-71 0 -76 10zM1167 203q0 33 7 84q47 418 47 676q0 27 4 35t16 11.5t21 12.5q23 23 55 27q4 0 4 -15 q0 -18 -2 -28q-6 -35 -18.5 -68.5t-18.5 -56.5l-14 -234q-11 -45 -18.5 -77t-11.5 -63t-5 -43t-3 -49t-3 -48q-15 -217 -23 -236q-9 -20 -16 -20q-9 0 -15 26t-6 66z" />
<glyph unicode="&#xd2;" horiz-adv-x="1306" d="M311 498q0 120 33 190q14 35 45 77t39 42q0 -4 -8 -21t-15.5 -31.5t-7.5 -13.5q0 -28 -19.5 -89.5t-19.5 -92.5q0 -88 52 -184q20 -37 51 -99q5 -11 26 -32l43 -68q-57 30 -114.5 72t-75.5 80q-29 62 -29 170zM475 1532q0 6 2 8q23 29 47 29q7 -2 38 -25t58 -45l27 -22 l105 -88l14 -13q39 -36 39 -45q0 -6 -12 -12q-21 -14 -27 -14q-13 0 -39 26q-72 60 -100.5 80.5t-51.5 24.5q-40 40 -45 55q-2 5 -28.5 18.5t-26.5 22.5zM696 1081q0 2 8 4.5t25 4.5t39 2q55 0 103.5 -13.5t68.5 -34.5q0 -10 25 -14q21 -5 52.5 -42.5t61.5 -96.5 q27 -52 39 -64q10 -13 29 -69.5t29 -106.5q6 -27 6 -73q0 -64 -15 -156q-11 -54 -76 -155t-90 -101q-6 0 -6 4t4.5 10.5t8.5 11.5l4 5q50 42 74 129.5t24 193.5q0 182 -53 285q-45 94 -139.5 170.5t-180.5 91.5q-41 6 -41 14zM950 123q0 20 15 20q4 0 6 -2q0 -2 -8 -10 t-13 -8z" />
<glyph unicode="&#xd3;" horiz-adv-x="1236" d="M285 440q0 76 24 117q9 15 23 28t18 27q0 13 13.5 26t23.5 13q6 0 6 -4q-3 -10 -14.5 -35t-19 -50.5t-7.5 -49.5q0 -15 2 -23q14 -81 66 -176.5t108 -130.5q29 -19 29 -24q0 -6 -25 -6h-20q-53 3 -114.5 55t-92.5 119q-20 47 -20 114zM584 958q19 12 57 20.5t74 8.5 t55 -8q16 -10 92 -43q93 -44 149.5 -116t90.5 -189q16 -49 16 -148q0 -69 -10 -69t-10 45q0 36 -26.5 99t-29.5 73q-9 35 -63 96t-121.5 112t-109.5 56q-11 1 -22.5 10t-14.5 17q-6 16 -21 16q-2 0 -6 -1t-6 -1h-12q-38 0 -82 22zM805 1413l24 27q24 24 33 24q5 0 11 -4 t19 -15.5t23 -19.5q35 -26 52 -43q0 -8 -22.5 -38.5t-29.5 -30.5t-34 39q-30 43 -76 61z" />
<glyph unicode="&#xd4;" horiz-adv-x="1198" d="M291 485q0 12 9 43.5t19.5 57.5t14.5 24q5 -13 10 -59.5t10 -61.5q10 -31 66.5 -108t101.5 -123h-18q-51 0 -51 12q0 11 -15 11q-29 0 -88 82t-59 122zM598 1008l80 -7q19 -1 34 -3t29.5 -5.5t22.5 -5t22.5 -8t18.5 -8t22 -10.5t21 -11q61 -29 129.5 -123t85.5 -174 q8 -31 8 -86q0 -70 -12 -116q-12 -50 -23 -50q-6 0 -6 19q0 14 2 24v13q0 24 -18.5 73t-18.5 64q0 12 -16 38t-16 36q0 21 -33 78.5t-56 82.5q-31 32 -66.5 58.5t-55.5 38.5t-75.5 40.5t-78.5 41.5zM641 1475q0 9 8 14q11 14 21 14q14 0 51 -22q174 -94 174 -138q0 -1 -1 -4 t-1 -4q-9 -28 -31 -28q-14 0 -33 16t-44 37q-31 26 -35 26q-3 0 -32 27.5t-36 26.5q-9 0 -25 11.5t-16 23.5z" />
<glyph unicode="&#xd5;" horiz-adv-x="1306" d="M324 575q0 39 6 60q16 59 26.5 106.5t12.5 55.5q8 26 30.5 59t40.5 33q7 0 9 -2q-69 -125 -89 -228q-4 -28 -4 -59q0 -59 10 -121.5t23 -77.5q14 -14 14 -28q0 -6 28.5 -41t27.5 -43q0 -15 14 -19l6 -4q0 -2 -6 -2q-7 0 -24.5 15.5t-24.5 15.5q-11 0 -40 43.5t-38 75.5 q-22 71 -22 161zM399 1636l37 23q1 2 28 7t54 9l27 4q102 -18 106 -26l127 -49l99 14q20 0 45 3t39.5 5.5t13.5 1.5l-119 -69q-62 -37 -102 -37q-24 0 -45 13t-54 44l-59 57h-197zM903 1106q0 6 8 6q21 0 71 -27.5t81 -58.5q57 -57 57 -68q0 -10 10.5 -14.5t10.5 -13.5 q0 -1 2.5 -9.5t7 -19.5t8.5 -16q11 -18 15 -61t4 -158v-80t-3 -59.5t-3.5 -40t-7.5 -32t-8.5 -24t-13 -27.5t-16.5 -32q-2 2 -2 6q0 14 6 35q9 41 9 190q0 150 -9 168q-7 13 -29.5 69t-29.5 70q-22 37 -82.5 112t-70.5 75q-15 0 -15 10zM975 1479q0 23 12 57t27 53 q24 27 39 27q6 0 6 -6q0 -5 -4 -17q-10 -22 -17 -65q-3 -22 -9.5 -30.5t-16.5 -13.5t-17 -16q-3 -10 -10 -10q-4 0 -6 2q-4 4 -4 19z" />
<glyph unicode="&#xd6;" horiz-adv-x="1249" d="M299 506q0 64 53 137q26 37 41 37q4 0 4 -6q0 -11 -16 -64q-12 -44 -12 -90q0 -121 61 -194l70 -86q-138 11 -185 170q-16 62 -16 96zM354 1407q0 15 19 31q27 24 57 24q41 0 62 -43q12 -21 12 -33q0 -9 -21 -36l-22 -35q-3 3 -17 21t-23 27.5t-22.5 19.5t-23.5 10 q-21 0 -21 14zM604 1026q0 6 19 12l13 1q12 1 23 1q8 0 30 -1t34 -1q113 -4 208 -70t144 -149q16 -28 35.5 -123.5t19.5 -158.5q0 -33 -4 -43q-14 -41 -22 -41q-12 0 -12 77q0 69 -22.5 137.5t-57.5 106.5q-29 33 -29 43q0 8 -11 11.5t-11 11.5q0 14 -55.5 53.5t-106.5 60.5 q-11 5 -37 18t-41 19.5t-39 13t-45 7.5q-14 0 -23.5 4.5t-9.5 9.5zM895 1346q0 6 9 16t22 16q13 8 35 8q32 0 57.5 -20.5t25.5 -48.5q0 -25 -20 -45q-17 -17 -20 -17q-4 0 -7 7q-6 17 -41 46t-47 29q-14 0 -14 9z" />
<glyph unicode="&#xd8;" horiz-adv-x="1300" d="M289 586v26q2 47 9 75t30 75q24 50 45.5 80t32.5 30q4 0 -13 -30q-16 -32 -16 -103q0 -61 12 -110q6 -24 6 -37q0 -16 -24 -49l-4 -6l-37 -45q-4 5 -14 15.5t-12.5 14t-7.5 13.5t-6 21.5t-1 29.5zM485 270q0 18 29 58q27 34 37 34t29 -22q21 -25 64 -54.5t61 -29.5 q7 0 12.5 -5t5.5 -11q0 -21 -74 -21q-75 0 -102 21q-24 16 -43 16t-19 14zM641 1186q0 14 41 20q18 4 53 4q90 0 129 -39l-33 -38l-5 -6q-4 -6 -9 -12t-11.5 -11.5t-12.5 -5.5q-10 0 -23 8q-15 9 -27 19t-23 16t-34 14q-45 17 -45 31zM979 928q0 8 22 33q23 26 37 26t25 -22 q14 -23 18 -27q7 -6 35.5 -84.5t40.5 -126.5q14 -55 14 -109q0 -72 -28 -161q-3 21 -8 74t-8.5 80.5t-12.5 64t-22 59.5q-90 163 -105 178q-8 8 -8 15zM1038 1251q0 7 25.5 35t34.5 31q6 0 44 -19t38 -28q0 -6 -13 -6q-10 0 -10 -15q0 -18 -49 -61q-2 1 -14 9.5t-19 13.5 t-16.5 13t-14.5 14.5t-6 12.5z" />
<glyph unicode="&#xd9;" horiz-adv-x="1228" d="M143 1075q0 12 41.5 44t55.5 32q12 0 36 -3t37 -3h27q51 0 51 -15q0 -14 -37 -51q-21 -22 -33.5 -29.5t-31.5 -7.5h-8q-58 4 -98 14t-40 19zM330 473q0 4 1 14t1 15q5 55 17 222t13 218q3 51 33 94q24 37 37 37q8 0 8 -18q0 -19 -4 -33q-24 -102 -28 -121 q-23 -122 -23 -270q0 -85 12 -115q58 -148 115 -205q25 -22 25 -30q0 -6 -9 -9q-4 -2 -16 -2q-28 0 -66 18t-61 42q-55 58 -55 143zM387 1505q0 6 8 6q5 0 17 -4q11 0 93.5 -80t82.5 -92q0 -15 19.5 -38t19.5 -37q0 -7 -13 -7q-14 0 -49 47q-36 45 -110 119q-68 68 -68 86z M788 1067q0 4 3 10q12 34 39.5 51.5t76.5 20.5q33 2 80 2q49 0 49 -10q0 -9 -39 -45q-34 -31 -55 -31q-7 0 -27 4q-36 8 -51 8q-57 -14 -69 -14q-7 0 -7 4zM940 365q0 37 8 77q17 96 23 172q4 53 17.5 141t15.5 163v26q2 59 8 76t35 43q36 33 47 33q10 0 10 -39 q0 -9 -1 -43.5t-1 -59.5q0 -68 -5.5 -110t-20.5 -96t-21 -84q-22 -107 -59 -208.5t-54 -101.5q-2 0 -2 11z" />
<glyph unicode="&#xda;" horiz-adv-x="1290" d="M150 1083q3 22 55.5 64.5t81.5 42.5q18 2 47 2q51 0 51 -10q0 -9 -39 -38.5t-51 -29.5q-19 0 -43 -16q-33 -23 -78 -23q-20 0 -24 8zM334 782q0 82 6 164q12 141 31 154q6 5 13.5 11.5t12.5 10.5t10 7.5t8.5 5.5t6.5 2q9 0 11.5 -23t2.5 -86v-172q0 -274 19 -340 q13 -49 57.5 -139t58.5 -98q7 -3 7 -17q0 -4 -3 -10q-6 -12 -20 -12q-29 0 -74 40t-75 95q-72 126 -72 407zM854 1522q0 21 33 37q8 4 17.5 9.5t14 8t5.5 2.5q1 -1 7.5 -11.5t15.5 -25l18 -29t16.5 -23.5t9.5 -7q8 0 8 -6q0 -11 -38 -37t-58 -33l-6 33q-2 17 -22.5 43.5 t-20.5 38.5zM879 1137q0 16 43 43q29 20 96 20q33 0 57 -6q21 -6 21 -14q0 -18 -101 -60q-35 -12 -49 -12t-35 6q-32 10 -32 23zM909 242q0 9 6 18q18 31 38.5 146.5t27.5 230.5q4 67 15.5 140t11.5 120q0 35 -2 55q-2 23 -2 52q0 23 4.5 33.5t19.5 29.5q23 29 39 29 q3 0 6 -1t4 -1q10 0 35.5 17t30.5 17q37 0 37 -94q0 -151 -94 -519l-5 -19q-21 -60 -84.5 -160t-83.5 -100q-4 0 -4 6z" />
<glyph unicode="&#xdb;" horiz-adv-x="1292" d="M170 1081q0 13 44.5 45.5t61.5 32.5q7 0 7 -2q4 -3 22.5 -5.5t33.5 -6.5t15 -12q0 -7 -8 -15q-12 -11 -36.5 -18t-58.5 -12t-48 -9q-20 -4 -23 -4q-10 0 -10 6zM342 532v64q4 184 8 190l12 172q6 81 17.5 104t50.5 23q23 0 28 -6.5t5 -38.5q-1 -31 -16 -70.5t-17 -64.5 q0 -33 -8 -41q-7 -16 -11 -49t-6.5 -74.5t-5.5 -60.5v-10q-4 -36 -4 -56q0 -89 29 -171.5t76 -129.5q18 -18 18 -26q0 -4 -4 -4q-12 0 -53 18q-68 30 -101 84q-11 18 -14.5 46t-3.5 101zM737 1470l33 27q41 -33 57 -35q2 -3 23 -20q51 -43 51 -64q0 -4 -8 -20 q-12 -21 -29 -21t-53 45l-14 19q-46 58 -60 69zM901 1087q0 13 45 64q21 24 32.5 31.5t29.5 7.5q3 0 9.5 -1t10.5 -1q51 -4 66 -10q16 -6 16 -15q0 -11 -41 -55q-28 -28 -41 -35.5t-37 -7.5h-16q-74 3 -74 22zM975 291v8q0 17 8 45q12 26 15 55.5t12 57.5q17 50 22 104 t6 141.5t4 139.5q8 127 16 163.5t29 36.5q15 0 23 19q7 20 20.5 33.5t24.5 13.5q4 0 6 -2q10 -10 10 -109v-28q-3 -186 -47 -348q-17 -67 -27 -103t-31.5 -91.5t-43.5 -82.5q-18 -20 -35 -55q-7 -17 -8 -17t-4 19z" />
<glyph unicode="&#xdc;" horiz-adv-x="1222" d="M160 1122q0 9 20 26t49 32q30 18 131 18q48 0 48 -8t-35 -43q-25 -23 -39 -29t-55 -6h-31q-23 0 -44 1.5t-32.5 4t-11.5 4.5zM309 600q0 86 11 180.5t30 145.5q9 25 11.5 61t9 63.5t28.5 47.5q35 30 45 30q9 0 9 -18q0 -17 -13 -90q-11 -58 -22.5 -100.5t-15.5 -60 t-6.5 -70.5t-2.5 -164q0 -151 3.5 -196t15.5 -64q18 -25 18 -43q0 -5 -4 -5q-11 0 -38 37t-40 70q-24 59 -26 63q-13 26 -13 113zM440 1481q0 18 62 18q58 0 69 -20q4 -8 4 -25q0 -28 -7.5 -56t-18.5 -28q-10 0 -19 21q-25 55 -69 71q-21 9 -21 19zM780 1485q0 7 15 22 q8 12 8 13t-8 4l22 4q15 0 53 -21q5 -14 34.5 -35.5t29.5 -37.5q0 -21 -31 -48q-24 -24 -37 -24q-12 0 -22 29q-12 32 -37 57q-27 24 -27 37zM831 1122q0 12 12.5 27t33.5 32.5t22 18.5q143 -13 168 -22q-5 -36 -68 -74q-9 0 -78 9t-90 9zM862 193q70 227 72 237 q3 20 14.5 96t17 116.5t14 108t12 126t3.5 114.5v29l45 47q43 43 56 43q16 0 16 -72q0 -201 -49.5 -437.5t-126.5 -328.5q-22 -27 -46.5 -53t-27.5 -26z" />
<glyph unicode="&#xdd;" horiz-adv-x="1396" d="M168 1118q0 15 22.5 37.5t36.5 22.5q12 0 19 14q6 12 39 12q27 0 47 -2q82 -8 84 -10q-5 -10 -32.5 -33.5t-43.5 -23.5q-6 0 -8 2t-15 2q-18 0 -72.5 -10.5t-68.5 -10.5h-8zM436 1116q0 6 4 6q10 3 39 23q21 14 27 14q15 0 29 -33q20 -45 143 -235l-49 -49q-28 42 -72 86 q-3 0 -33 39.5t-59 86t-29 62.5zM762 418v76q19 26 50 64.5t40 43.5q6 3 6 -180v-78q0 -61 4 -87t17 -62v-19q-15 -10 -40 -29t-42 -31t-21 -12q-14 21 -14 314zM872 1554q0 11 13 21q7 10 22 10q27 0 80 -47l10 -10q4 0 12.5 -9t8.5 -14q0 -3 -17 -20q-12 -12 -22 -12 q-5 0 -18 10q-3 5 -46 29t-43 42zM971 1128q0 9 24.5 28.5t36.5 21.5q8 1 13 10.5t12 9.5q2 0 3.5 -0.5t4 -1.5t4.5 -2q9 -4 70 -18.5t67 -16.5q-3 -14 -30 -35.5t-48 -21.5q-31 0 -91 10t-66 16z" />
<glyph unicode="&#xdf;" horiz-adv-x="978" d="M299 711q0 119 10 141q15 43 15 68q0 33 24 71.5t49 46.5q36 9 43 9q47 0 47 -62q0 -45 -34 -76q-28 -28 -40 -72.5t-24 -162.5q-4 -34 -13.5 -103t-14.5 -122t-5 -103q0 -86 -20 -86q-2 0 -6 4q-12 65 -21.5 201t-9.5 246zM494 1296q0 9 34 9q6 0 15.5 -1t23.5 -2t23 -2 q83 -8 108 -30q28 -27 61.5 -103t33.5 -108q0 -12 -7 -12q-4 0 -6 2q-12 8 -12 24q0 20 -25.5 47.5t-27.5 42.5q0 8 -17 8q-12 0 -16 16.5t-16 16.5q-10 0 -15.5 11.5t-15.5 11.5q-9 0 -27.5 16.5t-27.5 16.5q-19 0 -56 16q-30 12 -30 20zM674 764q5 -8 12 -8q6 0 19.5 6 t19.5 6q9 0 27 -18q21 -20 50 -78t29 -80q0 -1 -9 8.5t-19 21t-12 15.5q-18 34 -64.5 77t-52.5 50zM834 571q1 -3 9 -21.5t13.5 -33.5t5.5 -24q-2 -5 -6 -5q-5 0 -9.5 14.5t-8.5 41t-4 28.5z" />
<glyph unicode="&#xe0;" horiz-adv-x="1067" d="M266 485q0 13 41 31q18 8 39.5 18.5t30 13.5t31 8t61.5 9q12 0 12 -18q-1 -15 -41.5 -27.5t-89.5 -21.5t-59 -15q-6 -2 -17 -2q-8 0 -8 4zM276 1323q0 7 13 20q11 11 20 11q16 0 60 -41q41 -41 61 -49q12 -2 17.5 -13.5t13.5 -13.5q10 0 41 -27q20 -20 20 -28 q0 -7 -10 -17t-16 -10q-9 0 -47 35q-39 39 -74 59q-99 55 -99 74zM281 252q0 18 16.5 36.5t40.5 22.5q5 1 20.5 5.5t28 7t21.5 2.5q13 0 20 -7q0 -9 -19 -36.5t-38 -44.5q-22 -19 -45 -19q-25 0 -39 17q-6 6 -6 16zM309 891q0 9 32.5 31t47.5 22q13 3 28.5 18.5t31.5 18.5 q30 6 40 6q3 0 31 -4l33 -6q40 -6 63.5 -19t73.5 -53q71 -60 86 -90q15 -33 21 -33q7 0 40.5 -69t41.5 -99q9 -35 14 -43q8 -8 10.5 -151t11.5 -148q7 -14 7 -18q0 -10 -13 -26t-51 -54q-28 -31 -41 -31q-20 0 -29 324q-3 144 -14.5 209t-40.5 94q-6 6 -20 27 q-15 23 -66.5 56t-95.5 48q-64 23 -119 23q-32 0 -43 -11q-8 -8 -34.5 -16t-39.5 -8q-6 0 -6 2z" />
<glyph unicode="&#xe1;" horiz-adv-x="972" d="M252 193q0 6 2 12q1 19 16.5 42t26.5 23q3 0 9.5 -11.5t10.5 -27.5l7 -22v-6q0 -5 1 -9t1 -6q0 -8 -58 -8q-16 0 -16 13zM291 492q0 15 14 27t40.5 24t29.5 14q12 19 110 25h9q41 0 41 -29q0 -5 -3 -14q0 -11 -9.5 -19t-20.5 -8q-25 0 -45 4q-8 2 -27 2 q-31 0 -78.5 -12.5t-60.5 -13.5zM358 635q0 12 35 33q30 18 51 18q15 0 23 -4q10 -4 19.5 -5.5t12.5 -2t5 -5.5t2 -18q0 -10 -7.5 -14t-27.5 -4q-34 0 -74 -4q-8 -2 -20 -2q-19 0 -19 8zM391 883q-3 0 8 7q7 4 29 16q8 5 12 7q63 29 129 29q61 0 105 -20q37 -17 69.5 -47.5 t32.5 -47.5q0 -14 8 -14q20 0 42 -92t22 -170q0 -34 -6 -55q-7 -14 -9 -94.5t-6 -154t-16 -77.5q-15 -18 -23 -18q-12 0 -12 43q0 11 4 65l13 217q2 23 2 66q0 93 -23.5 158t-77.5 124q-70 76 -159 76q-40 0 -76 -8q-55 -10 -68 -10zM690 1331q0 5 10 15q14 14 37 26t35 14 q13 0 35 -26q20 -23 20 -35q0 -14 -34 -25q-21 -6 -33 -6q-21 0 -60 27q-10 7 -10 10z" />
<glyph unicode="&#xe2;" horiz-adv-x="958" d="M258 412l21 24q13 15 37.5 20.5t35.5 16.5q25 25 72 25q9 0 59 -4q19 -3 19 -27q0 -20 -15 -29q-7 -5 -26 -8.5t-49.5 -6.5t-53 -4.5t-58 -4t-42.5 -2.5zM305 217q0 21 10 21q1 0 4 -1t5 -1q15 0 50.5 6.5t43.5 9.5q8 0 8 -8q0 -9 -42.5 -32.5t-59.5 -23.5q-9 0 -14 9 t-5 20zM481 805q0 5 29 18q32 13 49 13t64 -15q46 -14 71 -47q43 -60 74 -262q33 -217 49 -293q4 -8 4 -20q0 -14 -8 -25.5t-25.5 -26t-19.5 -16.5l-8 29q-3 34 -8.5 135.5t-12.5 181.5t-18 123q-3 13 -29 60.5t-28 54.5q0 12 -52.5 41t-85.5 35q-45 6 -45 14zM602 1214 q0 13 16 23q17 10 27 10q12 0 25 -12.5t39 -46.5q43 -61 74.5 -111.5t31.5 -56.5q0 -8 -25 -21.5t-40 -13.5q-1 0 -3.5 1t-3.5 1q-17 20 -43 63t-49 74q-49 66 -49 90z" />
<glyph unicode="&#xe3;" horiz-adv-x="1026" d="M229 778q-2 0 14.5 19.5t41 39t41.5 19.5q8 0 10 -2q2 0 7 1t7 1q1 0 3 1t3 1q145 23 219 23q155 0 179 -70q14 -43 14 -152q0 -60 -6 -63q-1 0 -3.5 6t-4.5 14.5t-2 14.5q-2 90 -69 159.5t-163 69.5q-49 0 -96 -20q-57 -23 -96 -23q-31 0 -31 -10q0 -6 -28 -17.5 t-40 -11.5zM264 410q0 3 15 6q8 0 28 16q17 13 56 24t69 11q33 0 33 -12q0 -9 -54.5 -27.5t-99.5 -26.5q-6 -2 -18 -2q-11 0 -20 4t-9 7zM276 178q0 8 37 19q8 4 27 4q29 0 29 -17q0 -6 -2 -8q-3 -5 -20 -7.5t-17 -12.5q0 -11 -11 -11q-10 0 -30 17q-13 13 -13 16zM324 1335 q0 13 25 20t61 7q71 0 92 -21q14 -14 22 -14q21 -2 131 -55q47 32 96 55t72 23q15 0 15 -11q0 -22 -60 -82q-34 -28 -74 -46.5t-63 -18.5h-8q-13 3 -19 14t-14 13q-9 0 -61 41q-57 45 -84 56t-78 11q-53 0 -53 8zM745 285q0 33 4 97t5 89q3 61 4 61l6 -24q4 -19 7 -117.5 t13 -120.5q4 -12 4 -20q0 -13 -5 -27t-13 -30t-10 -21q-15 44 -15 113zM840 1159q0 1 4 25q2 9 5.5 25t5.5 21.5t6.5 16t11 18t16.5 15.5q12 10 17.5 21t9.5 17t16 9q16 0 16 -37q0 -22 -10.5 -39.5t-40.5 -46.5q-6 -6 -19.5 -21t-21.5 -22.5t-12 -7.5t-4 6z" />
<glyph unicode="&#xe4;" horiz-adv-x="950" d="M258 401q0 9 30 28t48 20q16 1 47.5 15.5t56.5 14.5q24 0 29.5 -4t5.5 -22q0 -27 -24 -33q-123 -21 -183 -21zM287 1112q0 9 39 29l6 4q3 1 16 8.5t21 7.5q7 0 24 -14q19 -16 19 -43q0 -38 -29 -70l-27 -28v28q0 24 -7 36t-32 22q-30 12 -30 20zM291 188q0 8 18 23 q15 13 37.5 22t40.5 9q23 0 23 -13q0 -20 -23.5 -36.5t-54.5 -16.5q-41 0 -41 12zM436 815q0 12 39 27.5t70 15.5h12q29 0 41 16q13 19 20 19q5 0 12 -6t19 -18t23 -21q64 -52 87 -120t42 -253q5 -51 17.5 -115.5t15.5 -123.5v-19q0 -28 -7 -48.5t-14 -29t-26 -26t-27 -25.5 q-20 112 -25 322q-1 29 -2 68.5t-1.5 55.5t-2 40.5t-4 34.5t-7 25.5t-11.5 26.5t-17 25q-10 0 -10 14q-2 5 -20.5 24t-41.5 38q-39 31 -54.5 39t-43.5 8h-37q-41 0 -47 6zM627 1124q0 6 14 6q13 0 47 17q28 14 41 14q12 0 23 -16q14 -17 14 -41q0 -25 -21 -43 q-22 -19 -24 -17q-22 50 -59 60q-35 9 -35 20z" />
<glyph unicode="&#xe5;" horiz-adv-x="954" d="M295 199q0 1 1 7t1 11q3 35 35 53q36 19 43 19q6 0 6 -8q0 -11 16 -11q17 0 17 -16q0 -23 -31 -47q-33 -25 -61 -25q-15 0 -21 3.5t-6 13.5zM305 604q0 10 20.5 23.5t34.5 13.5q13 -3 13 -6q0 -8 -17 -19q-28 -22 -43 -22q-8 0 -8 10zM313 446q4 11 32 19t56 8 q35 0 35 -10q0 -9 -15.5 -14t-62.5 -9q-10 -2 -24 -2q-21 0 -21 8zM350 1151q0 41 53 41q19 0 25.5 -6.5t11.5 -26.5q4 -20 4 -26q0 -14 -8 -21.5t-28 -11.5q-6 -2 -17 -2q-18 0 -26 14q-15 21 -15 39zM440 825q47 13 86 13q73 0 113 -45q24 -30 36 -65.5t25 -121.5 q7 -50 25.5 -122.5t26.5 -86.5q8 -13 8 -37q0 -12 16.5 -49t16.5 -47t15 -20.5t15 -16.5q0 -9 -18 -22q-50 -35 -62 -35q-9 0 -14 8q-17 20 -31 96t-18 177q-7 126 -25 182q-15 42 -67 105t-72 63q-22 0 -76 24zM477 1411q0 2 4 6q6 6 17 6q18 0 67 -37q33 -26 33 -38 q0 -17 10 -17q12 0 22.5 -41t10.5 -90q0 -63 -10 -63t-10 51q0 50 -26.5 102.5t-64.5 73.5q-6 -2 -29.5 17t-23.5 30z" />
<glyph unicode="&#xe6;" horiz-adv-x="1366" d="M276 500q0 6 6 11t13 5q8 0 26.5 13t32.5 32q33 41 58 41q14 0 23.5 -14.5t10.5 -40.5q0 -18 -26 -25.5t-58 -11.5t-40 -12q-26 -13 -35 -13q-11 0 -11 15zM297 248q0 21 23.5 41.5t50.5 21.5q14 0 28.5 10.5t18.5 10.5q8 0 16 -17q0 -1 1 -3t1 -3q0 -23 -42 -53.5 t-72 -30.5q-7 0 -15 4q-10 7 -10 19zM369 901q0 4 30 19q35 18 56 18q16 0 43 -8q1 0 3 -1t3 -1q29 -7 62.5 -33t33.5 -41q0 -9 10.5 -15.5t10.5 -9.5t-9 -12q-16 -16 -30 -16t-25 14q-12 17 -82 48.5t-94 33.5q-12 0 -12 4zM782 393q0 11 6 17t41 6q43 0 43 -8 q0 -17 38 -52.5t65 -44.5q31 -12 31 -20q0 -12 -48 -12q-42 0 -85.5 17.5t-65.5 43.5q-25 29 -25 53zM809 666v8q0 29 18 41q20 10 45 10q34 0 59 -16t25 -45q0 -22 -13 -26.5t-83 -4.5q-35 0 -41.5 4.5t-9.5 28.5zM963 920q0 8 22 8q61 0 133 -33q18 -9 31.5 -21t13.5 -18 t4 -10t7 -4q11 0 34 -50.5t33 -97.5q6 -30 6 -59q0 -92 -63 -92q-8 63 -15.5 105t-26 93t-46.5 80q-20 20 -62.5 53t-50.5 33q-11 0 -20 13zM1141 274q0 10 12 19q31 24 45 24q20 0 31 -47q4 -12 4 -30q0 -15 -19 -29q-16 -16 -30 -16t-31 38q-12 30 -12 41z" />
<glyph unicode="&#xe7;" horiz-adv-x="1017" d="M338 367q0 2 1 6.5t1 7.5q3 16 6 16q2 0 8 -16q3 -11 15 -24t22 -21.5t28 -21.5t21 -15q46 -42 150 -49q49 -6 49 -14q0 -9 -43 -27q-32 -14 -72 -14q-50 0 -90.5 24t-62.5 68q-33 67 -33 80zM381 -385q0 2 29 18q32 14 53 35q10 13 14 13q2 0 2 -9q0 -10 -2 -18 q-4 -17 -30.5 -31t-49.5 -14h-8q-8 4 -8 6zM397 733q0 12 57.5 31t96.5 22h12q61 0 145.5 -31t90.5 -55q0 -5 -29 -22q-12 -6 -25 -6q-17 0 -69 18q-75 26 -172 31q-107 7 -107 12zM592 -59q0 20 24 26q8 2 23 2q51 0 84 -37q27 -30 27 -104q0 -45 -13 -74q-14 44 -54.5 97 t-70.5 65q-20 6 -20 25zM799 215q0 24 26 47q19 19 33 19q19 0 31 -54q2 -6 2 -18q0 -21 -33 -57q-32 -35 -41 -35q-6 0 -14 61q-4 32 -4 37z" />
<glyph unicode="&#xe8;" horiz-adv-x="1005" d="M342 778q0 9 27 26t65 32q30 12 41 12q12 0 49 -21l101 -20q14 -14 26 -14q17 0 56.5 -42.5t72.5 -97t33 -84.5q0 -17 7 -42.5t7 -34.5q0 -23 -28 -33q-21 -6 -29 -6q-7 0 -10 6q-34 97 -53.5 131t-69.5 84q-57 55 -106 79.5t-103 24.5q-23 0 -33 -2t-30 -2q-23 0 -23 4z M365 358q0 19 4 19q2 0 8 -6q13 -13 37 -13q14 0 40 -21.5t42 -21.5q11 0 30.5 -16t32.5 -16t32 -12.5t19 -20.5q0 -6 -26 -6q-33 0 -84 8t-66 16q-66 35 -69 90zM375 1182q0 10 8 10q5 0 90 -31q1 0 3 -1t3 -1q88 -34 109 -51q27 -26 63.5 -38t53.5 -28q12 -12 12 -16 q0 -7 -21 -25l-22 -22q-158 96 -189 127q-9 9 -55.5 37t-54.5 39zM379 553q0 9 22 20q26 13 48 13q23 0 40 -17q11 -15 11 -20q0 -9 -6 -15t-15 -6q-4 0 -16 4q-4 4 -25.5 6.5t-40 5.5t-18.5 9zM799 160q0 61 45 80q19 8 28 8q11 0 11 -15q0 -14 -2 -24q-4 -31 -25 -54.5 t-39 -23.5t-18 29z" />
<glyph unicode="&#xe9;" horiz-adv-x="1026" d="M354 385q6 21 47 21q61 0 101 -31q10 -9 45 -26.5t43 -31.5q1 -5 25 -7.5t24 -6.5q0 -3 -6 -6q-15 -10 -78 -10q-67 0 -96 10q-36 10 -70.5 39.5t-34.5 48.5zM416 610q0 22 11.5 28.5t51.5 6.5q30 0 44 -6t26 -23q14 -17 14 -24q0 -6 -16 -6q-5 0 -26 1t-36 1 q-69 0 -69 22zM524 850q0 2 4 6q10 10 35 10q30 0 88 -12q43 -9 115 -72.5t98 -115.5q33 -62 33 -119q0 -46 -20 -60q-17 -14 -27 -14t-16 33q-6 29 -23.5 55t-24.5 41q-57 132 -208 209q-54 28 -54 39zM770 1243q0 19 25 19q21 0 28 10q5 10 19 10q19 0 35 -22 q10 -10 10 -23q0 -10 -23 -27q-28 -22 -41 -22q-15 0 -35 20q-18 18 -18 35zM795 240q0 26 19 46.5t44 20.5q14 0 19.5 -5t5.5 -21q0 -51 -60 -66q-6 -2 -14 -2q-14 0 -14 27z" />
<glyph unicode="&#xea;" horiz-adv-x="964" d="M322 365q0 14 34 14q29 0 64 -10.5t49 -24.5q20 -22 53.5 -41.5t50.5 -19.5q25 0 25 -7q0 -3 -6.5 -6t-20 -5.5t-30.5 -2.5q-49 0 -113 25t-72 47q-4 9 -19 13.5t-15 17.5zM332 600q0 13 14 27q12 12 21 12q6 0 6 -6t-2 -10q-3 -6 -3.5 -16.5t-4.5 -15t-15 -5.5 q-16 0 -16 14zM502 815q0 10 57 10q79 0 186 -90q47 -38 82 -190q13 -57 13 -68q0 -13 -13 -26t-20 -13q-12 0 -12 35v29q0 30 -9 30t-38 56q-26 52 -101.5 127.5t-107.5 83.5q-37 9 -37 16zM569 1333q0 14 21.5 36t34.5 22q3 0 6.5 -3.5t3.5 -7.5q0 -12 31 -43 q23 -24 47 -57.5t38.5 -58.5t40.5 -72t39 -68l-22 -22q-15 -15 -21 -15t-14.5 17t-17.5 22q-15 14 -51.5 73t-53.5 75q-10 9 -34.5 47t-36.5 45q-11 0 -11 10zM745 236q0 20 25 32q26 13 35 13q10 0 16 -23q2 -2 2 -8q0 -16 -17.5 -38t-31.5 -22q-8 0 -14 13q-15 18 -15 33z " />
<glyph unicode="&#xeb;" horiz-adv-x="1032" d="M281 1085q0 9 28 25q22 14 41 14q22 0 25 -41q0 -26 -21 -47q-17 -14 -20 -14q-7 0 -29 25q-24 24 -24 38zM358 344q0 12 9 21q20 14 36 14q33 0 50 -53q6 -20 15 -35t15 -17q9 -4 9 -8q-11 -6 -17 -6q-7 0 -17 1t-17 2l-7 1q-30 7 -42 16t-23 31t-11 33zM391 580 q0 5 8 16q13 21 46 34t63 13q41 0 41 -22q0 -8 -39 -21.5t-78 -19.5q-8 -1 -19 -3t-14 -2q-8 0 -8 5zM535 801h51q59 0 67 4q2 2 6 2q18 0 65.5 -32t63.5 -48q53 -50 70 -113q5 -22 17 -46.5t12 -30.5q0 -14 -35 -25q-15 -6 -29 -6q-18 0 -28 15.5t-19 56.5q-15 53 -28 53 q-15 0 -15 14q0 22 -60 78t-95 65zM702 1126q0 13 35 13q37 0 49 -15q17 -17 17 -37q-13 -51 -25 -51q-5 0 -16.5 21t-16.5 37q1 5 -10 10t-22 10.5t-11 11.5zM813 260q0 17 33 35q33 20 43 20q8 0 8 -16q-2 -12 -28 -43t-40 -31q-6 0 -10 11q-6 15 -6 24z" />
<glyph unicode="&#xec;" horiz-adv-x="735" d="M246 1171q0 7 2 11q7 18 22 18t113 -98q96 -99 96 -113q0 -6 -8 -6q-12 4 -37 23.5t-57.5 47t-46.5 38.5q-54 41 -69 55t-15 24zM303 676q9 4 27 13.5t28.5 14t28 9t35.5 4.5q21 0 33 -2q15 -3 31.5 -4.5t25.5 -2t10 -1.5q2 -3 -30 -35q-29 -29 -43 -29q-5 0 -13 4 q-10 5 -34 10.5t-56 11t-43 7.5zM506 588q0 15 24 39q30 30 39 30q6 -15 8 -219t7 -217q4 -32 4 -37q0 -16 -21 -34q-20 -17 -30 -17q-6 0 -8 106.5t-5 212.5t-12 105q-6 18 -6 31z" />
<glyph unicode="&#xed;" horiz-adv-x="702" d="M203 670q55 43 88 43q10 0 14 -2q5 -2 32.5 -4t49 -6t21.5 -13q0 -8 -13 -16q-5 -10 -53 -10q-23 0 -139 8zM403 348q0 184 3 219.5t22 57.5q20 23 56 49t48 26q5 0 5 -10q0 -13 -15 -67q-33 -110 -33 -418v-72q-69 -31 -81 -33q-5 0 -5 248zM457 1153q0 12 6 21 q20 20 37 20q19 0 26 -20q6 -19 23 -27q16 -5 16 -29q0 -33 -26 -45q-24 -8 -29 -8q-12 0 -32.5 31.5t-20.5 56.5z" />
<glyph unicode="&#xee;" horiz-adv-x="946" d="M377 711q0 9 24 18q28 14 50 33q22 22 63 22t41 -20q0 -16 -25 -35q-26 -21 -41.5 -27t-52.5 -6q-59 0 -59 15zM520 322q0 128 6 202q9 93 15.5 116.5t27.5 41.5q28 25 43 25q13 0 13 -15q-27 -96 -27 -411v-93q-3 -3 -11 -11.5t-15.5 -16t-16 -15.5t-15.5 -13t-10 -5 q-10 10 -10 195zM559 1253q0 9 18.5 21.5t47.5 21.5q17 7 20 7q7 0 12.5 -7t14.5 -28q0 -1 5 -11t9 -20t4 -16q16 -48 123 -252l-27 -29q-18 -18 -26 -18q-17 0 -39 49q-20 42 -33 55q-17 20 -73 119t-56 108z" />
<glyph unicode="&#xef;" horiz-adv-x="819" d="M207 1016q0 1 16 14q7 5 29.5 12t40.5 7q31 0 31 -19q0 -10 -5 -18q-9 -47 -24 -47q-13 0 -27 14q-24 21 -45 29q-16 3 -16 8zM276 645q42 45 97.5 82t87.5 37q46 0 53 -10q0 -13 -15 -33.5t-26 -20.5q-8 -5 -26.5 -21t-39 -26t-45.5 -10q-3 0 -9 1t-9 1h-68zM446 551 q0 35 4 48t17 26q19 19 47.5 36t40.5 17q7 -23 9.5 -197.5t4.5 -191.5q4 -40 4 -47q0 -19 -6.5 -30t-25.5 -30q-42 -45 -52 -45t-22.5 103.5t-17.5 224.5q-3 59 -3 86zM504 1030l33 31q36 31 49 31q4 0 10 -2t10.5 -5t14 -8.5t16.5 -9.5l10 -6q43 -23 43 -43q0 -8 -2 -14 q-5 -16 -18 -38t-25 -22t-18 23q-5 18 -16 30.5t-28.5 19t-35 9t-43.5 4.5z" />
<glyph unicode="&#xf1;" horiz-adv-x="1073" d="M252 678l53 41q44 33 76 33q23 0 57 -11q8 -3 8 -8q0 -9 -18 -22t-33 -13q-3 0 -7.5 1t-6.5 1q-17 0 -37 -12q-18 -10 -55 -10h-37zM418 612q0 47 14 54q12 4 14 4q18 0 21 -25q0 -20 -14.5 -39.5t-26.5 -19.5q-8 0 -8 26zM426 289v8q2 12 19 41.5t24 30.5v-19 q0 -12 -1 -43t-1 -47q0 -37 4 -49q6 -21 6 -45q0 -58 -22 -64q-5 -2 -12 31.5t-12 79t-5 76.5zM451 1208q0 9 24 9q58 0 129 -27q18 -7 37 -24t43 -17q27 0 27 -12q0 -7 -9.5 -13.5t-25.5 -9.5q-6 -1 -31 -5.5t-33 -6.5q-4 -4 -10 -4q-19 0 -72 45t-61 45q-18 7 -18 20z M682 690q0 4 4 8q10 7 35 7q49 0 92 -19q42 -20 61 -65q17 -41 17 -119q0 -76 -2 -135q-5 -146 -8.5 -180.5t-18.5 -47.5q-15 -12 -18 -12q-4 0 -4 14v15q0 65 -9 209q-6 112 -12.5 152.5t-23.5 70.5q-20 39 -43 61.5t-43 24.5q-12 0 -19.5 5t-7.5 11zM825 1106q0 19 6.5 30 t28.5 33q39 35 45 35q6 6 21 -61q8 -35 8 -49q0 -4 -42.5 -34.5t-49.5 -29.5q-11 0 -15 53q0 4 -1 12t-1 11z" />
<glyph unicode="&#xf2;" horiz-adv-x="1028" d="M279 430q0 40 40 114t62 74q1 0 -1.5 -9t-10.5 -31q-11 -37 -11 -74q0 -62 17 -121t41 -74q12 -6 12 -14q0 -14 -27 -14q-35 0 -75.5 49.5t-46.5 99.5zM387 1270q0 6 10.5 11.5t27 12t24.5 11.5q21 16 30 16q5 0 10.5 -4.5t17 -15t25.5 -19.5q18 -17 100.5 -63.5 t98.5 -63.5q0 -2 -29 -39q-16 -22 -34 -22t-51 27.5t-48 31.5q-18 10 -63.5 42t-77.5 46q-41 16 -41 29zM494 879q2 10 10 10q6 0 11 -5t5 -10q0 -8 -10 -8q-16 0 -16 13zM547 856q1 6 17 11t16 16q0 16 28 16q35 0 97 -27q36 -18 65 -45.5t96 -103.5q9 -10 14 -30t13 -27 q10 -10 10 -84q0 -76 -12 -103q-6 -16 -10 -16q-3 0 -9 63q-7 80 -20 99q-8 16 -8 22q0 4 2 6q0 11 -24 46t-50 63q-23 23 -73.5 47.5t-73.5 24.5q-29 0 -53.5 7t-24.5 15z" />
<glyph unicode="&#xf3;" horiz-adv-x="1050" d="M276 389q0 67 70 143q14 17 23 17q4 0 4 -6q0 -10 -15 -31q-26 -42 -26 -94q0 -69 39 -111q20 -20 20 -35q0 -6 -8 -6q-14 0 -40 17t-32 32q-9 22 -20 33q-15 19 -15 41zM553 813q0 12 37 12q52 0 82 -10q43 -12 98 -50t70 -67l47 -86q37 -67 37 -163q0 -72 -21.5 -138 t-58.5 -100q-21 -18 -29 -18q-4 0 -4 6q0 14 16 47q11 25 19 56.5t12 41.5q4 4 4 47q0 92 -10 105q-4 6 -8 55q-3 30 -29.5 77t-60.5 81q-17 18 -73.5 46.5t-74.5 28.5t-35.5 10t-17.5 19zM729 1262q0 3 10 10q20 10 31 10q18 0 61 -22q50 -24 50 -33t-35 -29q-6 0 -18 -8 t-19 -8t-10 6q-16 22 -43 43q-27 24 -27 31z" />
<glyph unicode="&#xf4;" horiz-adv-x="950" d="M266 418q0 18 19.5 44t19.5 36q0 12 17 33.5t26 21.5q6 0 6 -16q0 -33 -6 -45t-6 -33q0 -43 21.5 -101t39.5 -69q21 -13 21 -21q0 -10 -10 -10q-24 0 -78 50.5t-64 86.5q-6 12 -6 23zM369 788q4 8 31.5 12t33.5 11q13 8 58 8q83 0 96 -16q11 -15 43 -15q48 0 113.5 -84.5 t74.5 -158.5l8 -56l-45 68q-145 218 -360 221q-53 0 -53 10zM578 1202q0 14 28 33q21 16 39 16q15 0 23 -14t15.5 -36t14.5 -32q4 -8 58.5 -90t54.5 -106q0 -9 -6 -12q-9 -9 -17 -9q-25 0 -67 80q-28 53 -50.5 80t-60.5 55q-32 19 -32 35z" />
<glyph unicode="&#xf5;" horiz-adv-x="1159" d="M346 428q0 39 42.5 91t55.5 52q0 -24 -8 -58t-20 -52q-2 -2 -2 -12q0 -30 19 -93t36 -86q23 -31 23 -43q0 -10 -13 -10q-28 0 -65 37q-63 60 -66 158q-2 4 -2 16zM385 1350q0 6 29 20q27 16 73 16q44 0 64 -14q10 -11 56.5 -20t54.5 -13q6 -6 53 -6q85 0 98 13q6 6 10 6 q5 0 8 -6q0 -12 -14 -19q-15 -2 -21.5 -14t-19.5 -13q-12 -1 -25.5 -7.5t-25.5 -6.5q-17 0 -27 4q-16 6 -59 9t-57 14t-66.5 24t-85.5 13q-12 0 -16 -2q-8 -2 -21 -2q-8 0 -8 4zM567 858q0 7 33 10q83 9 94 9q49 0 88 -17q44 -20 102 -81t83 -113q16 -32 26.5 -85t10.5 -94 q0 -43 -13 -43q-5 0 -8.5 12t-3.5 27q0 51 -41 141.5t-70 100.5q-8 4 -8 14q0 11 -25 31t-40 21q-17 0 -25 8q-6 6 -58.5 21t-95.5 22q-49 9 -49 16zM913 1198v8q0 48 18 112t34 64q15 0 20 -59q2 -12 2 -29q0 -16 -6.5 -26.5t-28.5 -32.5z" />
<glyph unicode="&#xf6;" horiz-adv-x="1034" d="M295 360q0 32 27 109q4 13 12 22t14 9t6 -11q0 -18 -10 -43q-4 -12 -4 -22q0 -35 25.5 -82t48.5 -76l6 -6q12 -15 12 -18q0 -4 -14 -4q-32 0 -65 21t-48 52q-10 20 -10 49zM334 1192q0 8 12 14q1 0 4.5 1t5.5 1q18 0 39.5 -11t30.5 -26q6 -9 6 -32q0 -25 -5.5 -45.5 t-14.5 -20.5q-6 2 -25.5 53.5t-30.5 51.5q-22 0 -22 14zM465 805q0 2 1.5 3.5t5.5 4t7 4.5q37 21 121 21q63 0 84 -15q7 -4 45 -14q38 -7 103 -75.5t65 -100.5q0 -14 13.5 -63t13.5 -72q0 -13 -2 -19q-10 -43 -21 -43q-4 0 -4 10q0 57 -51.5 125.5t-145.5 137.5 q-54 41 -88 75q-23 23 -34 23q-7 0 -27 -10q-23 -13 -35 -13q-9 0 -27 7q-24 9 -24 14zM801 1227q0 6 18 12q20 4 29 4q27 0 43 -13t16 -36q0 -14 -6 -29q-6 -16 -22 -16q-15 0 -15 14q-1 6 -32 30t-31 34z" />
<glyph unicode="&#xf7;" horiz-adv-x="1284" d="M256 709q0 8 15.5 14t35.5 6q30 0 35 8q13 10 147 19q94 6 105 22q11 15 24 15q1 0 3.5 -1t3.5 -1q6 -3 10 -3q7 0 16.5 6.5t16.5 6.5q6 0 10 -2l108 -23q36 -10 129.5 -15t126.5 -28q-11 -7 -22.5 -11.5t-22.5 -8t-30 -5.5t-34.5 -3.5t-47.5 -2t-57 -1t-74.5 -1.5 t-89.5 -2q-215 -6 -293 -6q-98 0 -111 10q-4 2 -4 7zM653 360q4 1 23.5 4.5t36 8t20.5 8.5q8 8 15 8q16 0 22 -55q0 -3 1 -8.5t1 -8.5q0 -28 -11.5 -46.5t-25.5 -18.5t-26 18q0 6 -13 26.5t-27.5 41t-15.5 22.5zM674 1067q0 5 10 7t22.5 4t16.5 7q5 11 31 11q38 0 59 -21 q23 -23 23 -39q2 -10 -23.5 -36.5t-46.5 -26.5q-16 0 -25 18l-43 47q-24 21 -24 29zM1075 547v45q0 50 5.5 62.5t35.5 33.5q42 26 43 25v-8q0 -10 -4 -72q-6 -53 -11.5 -67.5t-25.5 -26.5q-27 -17 -35 -17t-8 25z" />
<glyph unicode="&#xf8;" horiz-adv-x="1443" d="M317 -137q0 3 11 20q22 34 57 63t51 29q8 0 8 -8q0 -5 -8.5 -16.5t-19.5 -18.5q-11 -8 -34 -41.5t-48 -35.5q-17 0 -17 8zM328 557q0 16 8 47q0 1 1 4t1 4q25 89 74 144v-23q0 -31 5 -60t17.5 -72t14.5 -52l-31 -39q-7 -7 -15 -15.5t-12 -13t-8 -7.5t-8 -3q-15 0 -31 37 t-16 49zM590 197q0 9 14 25t14 24q0 10 15.5 16.5t15.5 16.5q0 14 8 14q6 0 43 -29q38 -34 62 -37q26 -6 26 -12q0 -13 -49 -22q-30 -9 -73 -9q-63 0 -76 13zM672 1118l8 4q45 13 65 13q7 0 28.5 -3.5t45.5 -3.5h19q44 0 54.5 -3t10.5 -17q0 -18 -14 -18q-1 0 -33 4 q-32 5 -127 14q-57 3 -57 10zM1108 936q0 10 8 10q15 0 69 60.5t54 78.5q0 21 13 34.5t44 25.5q35 14 52 14q16 0 16 -12q0 -18 -29.5 -52t-40.5 -38q-10 0 -10 -6q0 -14 -84 -101q-24 -24 -70 -24q-22 0 -22 10zM1118 864q0 8 23 8h14q27 -1 36 -11t30 -58q26 -62 26 -133 q0 -58 -14 -121q-35 -163 -70 -238q-6 -16 -18 -16q-8 0 -8 10q0 4 10 29q10 20 22.5 127t12.5 166v22q-7 56 -25 122t-27 75q-12 12 -12 18zM1137 1223q0 12 24 30l6 4l7 5q1 0 4 2t4 2q15 12 20 12q1 0 17 -8l30 -19q41 -20 41 -34q0 -9 -28 -25q-56 -27 -64 -27 q-6 0 -22 13l-4 4q-5 3 -10.5 7.5t-11 10t-9.5 12t-4 11.5z" />
<glyph unicode="&#xf9;" horiz-adv-x="1077" d="M201 762q0 4 8 12q38 35 80.5 56.5t75.5 21.5q47 0 47 -8q0 -7 -7.5 -10.5t-19.5 -8.5t-18 -12q-16 -18 -69 -36.5t-81 -18.5q-16 0 -16 4zM352 436q0 46 29 228l4 24q9 64 31 84q19 16 28 16q11 0 11 -28v-60q0 -98 9.5 -204t20.5 -123q15 -21 15 -31q0 -14 -37 -33 l-39 -20l-10 10q-36 39 -49 65t-13 72zM420 1346q0 5 6 8q10 10 23 10q2 0 22 -10q6 0 17 -9t20.5 -18.5t20.5 -21.5t12 -13q111 -103 144.5 -136.5t33.5 -41.5q0 -6 -5 -7.5t-28 -4.5q-12 -3 -219 190q-47 44 -47 54zM702 797q5 3 25 17.5t30.5 20.5t29 12.5t36.5 6.5 q15 0 23 -2q14 -3 30 -4.5t24 -2t9 -1.5q5 -5 -30 -33q-33 -23 -62 -23q-18 0 -45 3zM848 205q0 190 16 278q13 76 21 179q4 55 11 76t22 34q19 16 28 16q8 0 8 -20q0 -6 -2 -37.5t-2 -54.5q0 -63 -12 -194t-12 -191v-64q0 -30 -5 -40.5t-26 -28.5q-37 -29 -41 -29 q-6 0 -6 76z" />
<glyph unicode="&#xfa;" horiz-adv-x="1124" d="M248 786q0 22 43 43t78 21q10 -3 10 -12q0 -1 -4 -9q-18 -22 -52 -38.5t-57 -16.5q-18 0 -18 12zM346 524q0 72 10 164q6 44 13 59.5t30 30.5q36 25 47 25q13 0 13 -27q0 -21 -2 -35q-15 -144 -15 -198q0 -61 17 -119l6 -23q14 -55 14 -65q0 -7 -3 -8.5t-11 -1.5 q-25 0 -58 20t-45 43q-16 26 -16 135zM737 782q5 4 16.5 13t16.5 13t16 10.5t20 9.5t22 5.5t28 2.5h8q62 0 62 -9q0 -8 -39 -43q-27 -24 -62 -24q-31 0 -88 22zM784 1313q0 13 29 39t43 26q16 0 45 -26q25 -22 25 -31q0 -3 -1.5 -5.5t-6 -6t-8.5 -6t-12.5 -8t-14.5 -9.5 q-35 -24 -45 -24q-5 0 -17 8q-37 27 -37 43zM879 246q0 104 8 227q9 169 17 215t32 68q24 24 37 24q8 -11 8 -67q0 -82 -10 -117q-19 -59 -19 -143q0 -66 13 -123q16 -69 16 -97q0 -43 -35 -81q-14 -18 -29 -30.5t-20 -12.5q-18 0 -18 137z" />
<glyph unicode="&#xfb;" horiz-adv-x="1169" d="M180 741q0 14 58 41t75 27q15 0 31 11t35 11q18 0 18 -6q0 -7 -39 -41q-36 -33 -53.5 -40.5t-62.5 -8.5h-21q-41 0 -41 6zM350 418q0 20 4 114q4 124 9 152t26 47q22 19 31 19q8 0 8 -15q0 -16 -4 -26q-4 -13 -18 -125q-3 -27 -3 -56q0 -111 50 -188q14 -20 14 -37 q0 -16 -25 -16q-4 0 -28 4q-39 9 -51.5 32t-12.5 95zM567 1212q0 6 13 13q9 6 18 6q13 0 53 -43q64 -68 81.5 -91t17.5 -38q0 -19 -11 -19q-16 0 -94 78q-78 81 -78 94zM768 741q0 16 29 39q36 29 77 29q24 0 64 -6q17 -3 29 -9.5t12 -11.5q0 -4 -12 -4q-11 -4 -32.5 -17 t-44 -20.5t-52.5 -7.5q-62 0 -70 8zM899 305q0 125 12 184q3 17 10.5 84t18 105.5t29.5 42.5q20 10 28 10q13 0 13 -26q0 -8 -4 -54q-11 -130 -19 -164q-6 -28 -6.5 -95t-7.5 -118t-31 -69q-3 -2 -9 -7t-11 -7.5t-9 -2.5q-14 0 -14 117z" />
<glyph unicode="&#xfc;" horiz-adv-x="1153" d="M158 758l37 39q34 35 90.5 64.5t91.5 29.5q33 0 33 -6q0 -4 -14 -16.5t-31.5 -27.5t-20.5 -18q-15 -14 -30.5 -24t-26 -15.5t-29 -10t-27 -6t-35 -4.5t-38.5 -5zM297 1212q0 12 23 22t55 15h10q25 0 39 -15t14 -36t-12 -39q-20 -26 -31 -26q-12 0 -24 30q-6 17 -18 24 t-28.5 10t-25.5 9q-2 2 -2 6zM350 436v8q14 77 25 236q4 64 10.5 84t26.5 37l6 6q3 2 7 5t7 5.5t7 4t7 1.5q7 0 7 -16q0 -17 -2 -31q-15 -121 -17 -170v-20q0 -82 25.5 -170t50.5 -88q6 0 6 -4q0 -7 -6 -13q-16 -16 -39 -16q-14 0 -34 16.5t-31 16.5q-15 0 -35.5 40 t-20.5 68zM758 1237q0 9 28.5 19t49.5 10q2 0 5.5 -1t4.5 -1q4 -2 16.5 -5.5t16.5 -5.5q17 -4 26.5 -22t9.5 -41q0 -27 -12 -39q-1 1 -28 20.5t-56 37.5t-41 18q-20 3 -20 10zM760 784q0 8 24 29q45 38 75 54t61 16h12q43 -3 43 -13q0 -15 -40 -50.5t-58 -35.5q-5 0 -41 -5 t-52 -5q-24 0 -24 10zM936 274q0 99 5 221.5t11 139.5q9 13 11.5 85.5t25.5 78.5q17 14 23 14q4 0 4 -8q0 -5 -3.5 -27t-4.5 -39q-29 -284 -29 -377q0 -71 12 -98q0 -15 -19 -46.5t-32 -31.5q-4 0 -4 88z" />
<glyph unicode="&#xfd;" horiz-adv-x="1294" d="M172 -154q-2 5 12 18.5t35 26.5q42 27 66 27q6 0 34 -4q14 -4 33 -4q7 0 19 2t18 2q7 0 13 -7.5t6 -12.5q0 -18 -20 -31.5t-50 -19.5t-53 -8.5t-39 -2.5q-46 0 -74 14zM289 694q2 9 22.5 31.5t38.5 32.5q5 6 40.5 12t75.5 11t48 7q4 7 10 7q8 0 17 -9q0 -14 -45 -53 q-36 -35 -53 -41t-76 -6q-78 0 -78 8zM510 653q0 29 29 39q20 8 20 19q0 10 4 10q13 0 74 -111t65 -112q19 -19 19 -33q0 -15 -21 -39q-22 -26 -22 -41q0 -14 -8 -14q-15 0 -58 68.5t-90 168.5q-12 24 -12 45zM545 907q0 10 8 21q22 33 142.5 134t138.5 101q12 -4 51 -29 t39 -38q0 -9 -23 -23.5t-27 -21.5q-15 -29 -49 -50q-13 -8 -56.5 -46t-83.5 -68.5t-54 -30.5q-4 0 -6 2q0 3 -12.5 11.5t-30.5 15.5q-37 14 -37 22zM715 -231q0 7 35.5 77t35.5 80q0 22 11 27q7 4 57.5 108t50.5 115q168 360 211 496q6 16 25 31.5t30 15.5q7 0 7 -6 q0 -9 -11 -25q-14 -22 -32.5 -89.5t-18.5 -92.5q0 -2 1 -3.5t1 -2.5q2 -2 2 -6q0 -10 -6 -13q-15 -10 -35 -82q-7 -26 -27 -74.5t-47.5 -113t-43.5 -105.5q2 -4 -44.5 -60t-44.5 -60q-3 -10 -24 -31.5t-23 -38.5q-3 -21 -51 -84t-59 -63zM901 723q9 6 32.5 25t34.5 25.5 t35.5 14t53.5 7.5h18q80 -4 80 -13q0 -4 -16 -10q-8 0 -14.5 -10t-14.5 -10q-12 -5 -27 -14t-29 -13t-38 -4q-21 0 -35 2h-80zM901 1212q0 10 31 52q18 24 35 24q18 0 59 -20q25 -9 25 -23t-43 -41q-38 -24 -50 -24q-7 0 -30 10q-27 14 -27 22z" />
<glyph unicode="&#xff;" horiz-adv-x="1386" d="M172 -242q0 9 45 54l4 6q34 37 53 37q1 0 37 -9q16 -4 33 -4q25 0 71 7.5t56 7.5q0 -13 -42.5 -42.5t-63.5 -39.5q-43 -25 -117 -25q-76 0 -76 8zM303 580q0 15 94 88q28 20 52 20h14q17 0 31 4q16 4 22 4q21 0 21 -10q0 -9 -19 -22q-21 -15 -41 -35q-12 -12 -55 -27 t-90 -24q-12 -3 -21 -3q-8 0 -8 5zM520 571q0 20 49 66q45 39 54 39q5 0 12 -10q13 -16 20 -68q9 -82 45 -188q13 -37 13 -45q0 -14 -21 -35q-27 -27 -33 -27q-9 0 -44 67.5t-54 121.5q-24 71 -33 71q-8 0 -8 8zM537 1124q0 3 16 6q15 3 31 3q25 0 48.5 -6t29.5 -13 q4 -8 4 -22q0 -25 -7 -51.5t-16 -26.5q-6 0 -14 18q-12 28 -56 60q-36 26 -36 32zM965 -10q0 5 9 33l9 28q24 54 45 117q4 13 59.5 144t67.5 208q4 34 18 54t33 22q4 0 4 -10q0 -11 -2 -15q-54 -293 -168 -481q-60 -100 -75 -100zM985 1087q0 18 47 21q6 0 18 1t15 1 q22 0 31 -6t14 -21q2 -6 2 -16q0 -23 -29 -37q-3 -6 -10 -6q-14 0 -45 25t-35 24q-8 0 -8 14zM1022 662q0 8 22 30q33 33 60 33q15 0 45 -10q24 -9 42.5 -21t18.5 -18q0 -4 -6 -4q-12 -2 -37 -20.5t-49 -18.5q-14 0 -24 2q-1 0 -3.5 1t-3.5 1q-58 13 -63 19q-2 3 -2 6z" />
<glyph unicode="&#x152;" horiz-adv-x="1642" d="M285 455q0 127 22 163q15 22 15 39q1 15 37.5 55t48.5 40q0 -4 -10.5 -28.5t-10.5 -27.5q-33 -56 -33 -137q0 -72 27 -140.5t70 -103.5q30 -24 30 -34q0 -7 -10 -7q-15 0 -39 9q-31 10 -52 24t-52 43q-16 12 -27 12q-16 0 -16 93zM424 1055q0 2 154 41q26 0 32 -6 q9 -9 58 -13q32 -3 40.5 -7t8.5 -17q0 -1 -1 -8t-1 -11q-4 -37 -8 -41q-15 0 -64 17.5t-57 27.5q-2 9 -82 9t-80 8zM819 1118q0 5 29 41q18 23 35 28.5t71 10.5q74 6 353 6q174 0 174 -4q0 -3 -35 -47q-33 -39 -49 -39q-6 0 -8 2q-26 8 -112.5 14.5t-156.5 6.5q-45 0 -73 -4 q-93 -17 -203 -17q-25 0 -25 2zM973 737q0 21 4 41q2 14 3.5 31.5t1.5 21t7 9.5t15.5 6.5t31.5 1.5h19q18 0 21 -5.5t3 -29.5v-8q0 -27 -33.5 -55.5t-56.5 -28.5q-9 0 -12.5 3t-3.5 13zM1010 659q0 4 6 13t22.5 13.5t20.5 12.5q0 13 36.5 29.5t80.5 22.5q57 7 63 16 q3 6 14 6q7 0 9 -2q3 -1 23 -3t32 -6.5t12 -12.5q0 -9 -8 -17q-7 -2 -37.5 -23.5t-50.5 -21.5h-8q-2 0 -7.5 1t-7.5 1q-24 0 -85 -16.5t-83 -16.5q-32 0 -32 4zM1014 328q0 1 1 2.5t3.5 4.5t3.5 5q10 11 24 19.5t24.5 13.5t31 10t28.5 6.5t33 5t31 4.5q2 2 27 2q46 0 115 -5 t69 -9q0 -6 -27.5 -30.5t-34.5 -24.5q-5 0 -17.5 -15.5t-22.5 -15.5q-6 0 -15 6q-24 12 -155 12q-119 0 -119 9zM1276 547q0 16 2 28q3 38 10 55t27 32q30 24 39 24q7 0 10 -27q0 -5 1 -14.5t1 -13.5q0 -32 -8.5 -50.5t-30.5 -35.5q-36 -29 -41 -29q-10 0 -10 31zM1368 139 q0 17 9 61.5t9 57.5q0 23 16 48.5t36 25.5q6 0 10 15t14 15q19 0 19 -86v-77q-22 -22 -56 -51.5t-45 -32.5q-12 0 -12 24zM1405 977q0 9 14 41q12 29 45.5 75t42.5 46q4 0 4 -15q0 -29 -9 -70t-17 -38q-6 -1 -35.5 -24t-38.5 -23q-6 0 -6 8z" />
<glyph unicode="&#x153;" horiz-adv-x="1503" d="M244 391q0 49 24 76q22 31 29 31q6 0 6 -19q0 -16 -2 -26v-17q0 -47 26 -98t62 -76q-3 0 -8 -1t-8 -1q-38 0 -71 22.5t-46 51.5q-12 27 -12 57zM317 766q0 1 17 8q21 21 90 21q39 0 79 -7t54 -16q43 -24 43 -49q0 -13 -10 -18q-6 -3 -10 -3q-10 0 -25 11q-49 46 -176 49 h-23q-39 3 -39 4zM788 598q0 2 1.5 4l4.5 6t5 8q23 35 39 35q14 0 14 -37q0 -39 -25 -39q-14 0 -28 11q-11 7 -11 12zM840 326q0 36 3.5 45t20.5 12h10q11 0 20 -7t13.5 -14t11 -20.5t7.5 -15.5q26 -58 73 -90q21 -14 35.5 -31t14.5 -25q0 -6 -9 -6q-17 0 -67 16t-68 27 q-40 25 -52.5 45.5t-12.5 63.5zM938 836q6 12 127 12h12q1 -1 36 -35.5t47.5 -48t39 -41.5t41.5 -48.5t23 -37.5q20 -39 20 -47q0 -9 -12 -21t-25 -12q-11 0 -19.5 10t-8.5 25q0 23 -37 79t-72 87q-33 27 -76 47t-69 20q-27 0 -27 11zM1262 160q0 29 12 41q38 30 49 30 q13 0 23 -26q6 -15 6 -29q0 -27 -23 -45t-49 -18q-18 6 -18 47z" />
<glyph unicode="&#x178;" horiz-adv-x="1439" d="M182 1040q5 4 23.5 19.5t24 20t19.5 14.5t25.5 17t26.5 15q9 4 18.5 9t14.5 7.5t9.5 4.5t8.5 2q12 0 31 -19q14 -11 14 -26q0 -40 -139 -55zM369 993q0 15 40.5 47.5t49.5 32.5q19 -8 37.5 -38.5t27.5 -39.5q15 -14 37 -55t35 -55q1 -4 27 -35t50.5 -66t24.5 -51 q0 -7 -6 -10q-12 -12 -18 -27.5t-21 -31.5q-16 -19 -22 -19q-5 0 -17 12q-68 78 -148.5 185.5t-94.5 144.5q-2 2 -2 6zM541 1311q0 10 37 10q51 0 61 -10q2 -2 2 -8q0 -17 -13.5 -46.5t-21.5 -29.5q-12 1 -38.5 35.5t-26.5 48.5zM752 102q0 6 4 56q6 52 6 135v59q0 36 6 54 t29 53q20 30 40.5 57t34 43t15.5 14v-8q0 -21 -6 -71q-13 -110 -13 -265v-53l-51 -49q-10 -9 -24 -22.5t-21 -19t-12 -5.5q-8 0 -8 22zM827 1376q0 11 35 23q27 10 41 10q13 0 23 -5t22.5 -16t20.5 -16l-62 -92q0 1 -1 3t-1 3q-30 73 -57 78q-21 6 -21 12zM999 1083 q0 12 21 21q23 10 37 24q9 9 33 9q48 0 88 -21q9 -6 36 -6q19 0 27 2q32 4 33 4q8 0 8 -2q0 -3 -6.5 -8.5t-20.5 -15.5t-20 -15q-39 -33 -84 -33q-33 0 -94 15q-58 12 -58 26z" />
<glyph unicode="&#x2c6;" horiz-adv-x="1257" d="M621 1425q0 14 24 35q27 21 33 21q4 0 7 -5t9 -13.5t17 -14.5q25 -12 80.5 -59t101.5 -95q11 -12 53 -45t74.5 -62t32.5 -40q4 -7 14 -17t10 -16q0 -11 -22 -33l-6 -6q-27 -24 -35 -24q-12 0 -33 24l-4 6q-43 51 -185 188t-163 144q-8 3 -8 12z" />
<glyph unicode="&#x2dc;" horiz-adv-x="1337" d="M213 1145q0 13 27.5 51.5t42.5 44.5q2 2 8 2q4 0 28 -6q19 -7 76 -22.5t97 -31t65 -36.5q49 -43 115 -43q68 0 166 49q70 36 75 41q25 19 60.5 32t62.5 31q36 25 47 25q0 -15 -59 -74q-52 -52 -78.5 -71t-48.5 -19q-15 0 -51 -24q-35 -26 -85.5 -44t-88.5 -18 q-33 0 -80 16.5t-47 28.5q0 8 -15 8q-1 0 -5.5 5.5t-11 11t-11.5 6.5q-9 0 -46.5 14.5t-64.5 28.5q-16 8 -47 8q-37 0 -76 -10q-24 -6 -45 -6q-8 0 -10 2zM1081 1022q0 26 25 145q12 54 29 54q18 0 24 -72q0 -8 1 -19t1 -14q0 -19 -6.5 -30t-28.5 -35q-37 -37 -43 -37 q-2 0 -2 8z" />
<glyph unicode="&#x2000;" horiz-adv-x="839" />
<glyph unicode="&#x2001;" horiz-adv-x="1679" />
<glyph unicode="&#x2002;" horiz-adv-x="839" />
<glyph unicode="&#x2003;" horiz-adv-x="1679" />
<glyph unicode="&#x2004;" horiz-adv-x="559" />
<glyph unicode="&#x2005;" horiz-adv-x="419" />
<glyph unicode="&#x2006;" horiz-adv-x="279" />
<glyph unicode="&#x2007;" horiz-adv-x="279" />
<glyph unicode="&#x2008;" horiz-adv-x="209" />
<glyph unicode="&#x2009;" horiz-adv-x="335" />
<glyph unicode="&#x200a;" horiz-adv-x="93" />
<glyph unicode="&#x2010;" d="M250 612q0 18 32.5 24t145.5 11l168 8q1 0 -3.5 -4.5t-11.5 -10.5t-12 -9q-43 -26 -49 -35q-2 -4 -14 -4q-22 0 -49 8q-42 10 -80 10q-17 0 -53 -4q-16 -2 -41 -2q-33 0 -33 8zM584 528q0 35 6.5 44.5t22.5 12t26 13.5q7 10 16 10q13 0 13 -30q0 -19 -2 -31 q-8 -50 -33 -62q-23 -10 -33 -10t-13 11t-3 42z" />
<glyph unicode="&#x2011;" d="M250 612q0 18 32.5 24t145.5 11l168 8q1 0 -3.5 -4.5t-11.5 -10.5t-12 -9q-43 -26 -49 -35q-2 -4 -14 -4q-22 0 -49 8q-42 10 -80 10q-17 0 -53 -4q-16 -2 -41 -2q-33 0 -33 8zM584 528q0 35 6.5 44.5t22.5 12t26 13.5q7 10 16 10q13 0 13 -30q0 -19 -2 -31 q-8 -50 -33 -62q-23 -10 -33 -10t-13 11t-3 42z" />
<glyph unicode="&#x2012;" d="M250 612q0 18 32.5 24t145.5 11l168 8q1 0 -3.5 -4.5t-11.5 -10.5t-12 -9q-43 -26 -49 -35q-2 -4 -14 -4q-22 0 -49 8q-42 10 -80 10q-17 0 -53 -4q-16 -2 -41 -2q-33 0 -33 8zM584 528q0 35 6.5 44.5t22.5 12t26 13.5q7 10 16 10q13 0 13 -30q0 -19 -2 -31 q-8 -50 -33 -62q-23 -10 -33 -10t-13 11t-3 42z" />
<glyph unicode="&#x2013;" horiz-adv-x="1257" d="M231 713q0 22 51.5 38t116.5 19q85 7 90 12q16 2 62 2q48 0 167.5 -6t172.5 -6q70 0 106 8q28 4 37 4q21 0 21 -8q0 -12 -27 -33q-33 -26 -160 -26h-43q-37 0 -37 -8q0 -9 -282 -9h-100q-175 0 -175 13zM991 528q0 14 6 35q6 19 8 45t8.5 39.5t26.5 24.5q10 5 19.5 15.5 t16 18t9.5 7.5q8 0 13 -66v-26q0 -26 -5 -42t-11.5 -21.5t-21 -16t-24.5 -19.5q-19 -16 -30 -16q-15 0 -15 22z" />
<glyph unicode="&#x2014;" horiz-adv-x="1712" d="M229 752q0 12 25.5 28.5t54.5 22.5q12 3 233.5 9t233.5 9q5 8 199 8q285 0 371 -12q51 -8 133 -8h51l-70 -70h-409q-744 0 -820 6q-2 2 -2 7zM1534 637q0 59 5 76t28 37l14 12l6 -88q0 -50 -8 -94q-23 -8 -23 -17q0 -10 -10 -10q-12 0 -12 84z" />
<glyph unicode="&#x2018;" horiz-adv-x="874" d="M434 1030q0 14 45.5 55t65.5 50q15 5 25.5 31t29.5 30q1 0 4 1t4 1q6 1 13 2t11 1.5t7 0.5q6 0 6 -6q-4 -13 -41.5 -55.5t-42.5 -55.5q-7 -19 -50 -37t-77 -18zM492 813q1 18 9.5 57t8.5 58q0 12 -4 12q-1 -1 -4 2t-5.5 7.5t-2.5 8.5q0 18 16 23l74 31q70 28 100 28 q25 0 25 -24q0 -15 -15 -53q-22 -60 -67 -95q-31 -24 -68 -40.5t-57 -16.5q-8 0 -10 2zM504 1233q0 18 55 37q38 12 45 12q8 0 8 -6q-2 -11 -39.5 -32t-54.5 -21q-14 3 -14 10z" />
<glyph unicode="&#x2019;" horiz-adv-x="913" d="M236 1243q44 36 92 84q325 -8 370 -18q-50 -68 -143 -80q-16 -2 -45 -2q-24 0 -58.5 4t-50.5 4h-18q-4 -2 -21 -2q-21 0 -72.5 5t-53.5 5zM557 807q0 10 25 41q29 37 39 102q3 23 14.5 71.5t11.5 78.5v14q-2 4 -2 14q0 17 13 37t32.5 40t20.5 22q8 14 18 14q12 0 19 -18 q6 -18 6 -72q0 -75 -11 -82q-10 -7 -10 -25q0 -20 -26 -71t-45 -70l-60 -65q-28 -35 -41 -35q-4 0 -4 4z" />
<glyph unicode="&#x201c;" horiz-adv-x="1486" d="M340 1266l9 11q60 80 91 99q14 9 27 22t16 21q9 23 27 40.5t31 17.5q10 0 10 -15q-2 -21 -33 -55.5t-31 -54.5q0 -9 -18.5 -28.5t-34.5 -31.5q-32 -28 -67 -28q-7 0 -16 1t-11 1zM346 1477q1 6 47.5 33.5t57.5 29.5q22 -6 22 -18q0 -15 -36 -32t-68 -17q-11 0 -23 4z M412 1239q0 10 20 10q11 0 24 10.5t19 10.5q12 0 23 -17q6 -9 6 -16q0 -23 -37 -23q-18 0 -39 9q-16 5 -16 16zM504 1157q3 1 39 19.5t73 34.5t52 16q10 0 10 -8q0 -6 -6 -15q-10 -18 -10 -47q0 -28 10 -33q6 -3 6 -10q0 -11 -18 -21.5t-42 -13.5q-18 -2 -44 -18.5 t-39 -16.5q-9 0 -19 7q-4 6 -6 26t-3.5 45t-2.5 35zM995 1280q-5 0 31 41.5t79.5 82.5t59.5 40q0 -61 -14.5 -84t-73.5 -41q-62 -18 -71 -31q-4 -8 -11 -8zM995 1481q0 10 35 24q50 23 68 23q6 0 26 -4q21 -6 21 -13q0 -11 -29 -28q-23 -17 -76 -17q-19 0 -32 4.5t-13 10.5z M1024 1253q88 28 92 41q0 6 8 6q5 0 17 -4q6 -3 23 -5.5t29.5 -5.5t12.5 -9q0 -10 -24 -25q-22 -16 -35 -16q-4 0 -6 2q-13 16 -101 16h-16zM1137 1100q0 23 4 39q8 37 16 47.5t43 23.5q114 43 127 43q10 0 10 -8q0 -21 -43.5 -70t-64.5 -55q-41 -13 -62 -30 q-13 -13 -20 -13q-10 0 -10 23z" />
<glyph unicode="&#x201d;" horiz-adv-x="1431" d="M186 1380q-1 0 6 8.5t17.5 19t17.5 15.5q37 26 88 29q1 0 5 -1t6 -1q20 0 118.5 15.5t128.5 15.5l11 -4q0 -22 -23 -40t-49 -18q-31 0 -164.5 -15.5t-150.5 -21.5q-4 -2 -11 -2zM573 1176q0 29 2 49q7 93 23 125q8 13 14 32.5t14 30.5t25 17q8 -8 8 -23q0 -11 -8 -41 t-12 -51q-8 -46 -27 -113q-6 -18 -15.5 -37.5t-16.5 -19.5t-7 31zM920 1407q34 26 99 48t122 22q84 0 90 6v-8q0 -16 -9.5 -25.5t-33 -19.5t-31.5 -15q-42 -26 -156 -26q-81 0 -81 18zM1096 918q0 7 22 43q16 22 24 48t21 42q19 25 40.5 111.5t21.5 142.5v34q0 27 4.5 38.5 t19.5 23.5q17 13 19 16q7 -24 10 -49q0 -4 1 -13.5t1 -13.5q0 -11 -2 -39t-2 -47q0 -24 2 -36q0 -33 -27 -86.5t-30 -65.5q-12 -13 -26 -42t-23 -50t-13 -21q-5 0 -33 -24q-17 -17 -26 -17q-4 0 -4 5z" />
<glyph unicode="&#x2022;" horiz-adv-x="806" d="M340 909q0 9 20 15q23 8 23 16q0 18 39 18q29 0 66.5 -11t62.5 -29q27 -20 46 -41t33 -49t22 -49t22 -62l-94 -92l6 53q0 3 1 10t1 10q0 62 -35 112.5t-86 59.5q-25 4 -43.5 15t-46.5 12q-37 0 -37 12z" />
<glyph unicode="&#x2026;" horiz-adv-x="1675" d="M285 332q0 9 18 18q20 10 31 10q12 0 47 -12q62 -20 100 -76q19 -29 19 -43q0 -17 -27 -41q-21 -18 -27 -18q-5 0 -16 14q-16 32 -16 43q0 42 -84 76q-45 17 -45 29zM831 346q0 2 19 8q12 2 37 2q29 0 57 -6.5t35 -15.5q4 -8 4 -27q0 -30 -8.5 -61t-18.5 -31q-7 0 -16 23 q-14 28 -66 69q-43 34 -43 39zM1362 303q0 19 55 25q7 0 21 1t18 1q27 0 37.5 -7.5t15.5 -25.5q2 -6 2 -18q0 -28 -32 -43q-3 -9 -13 -9q-16 0 -51.5 29t-40.5 29q-2 0 -7 7t-5 11z" />
<glyph unicode="&#x202f;" horiz-adv-x="335" />
<glyph unicode="&#x205f;" horiz-adv-x="419" />
<glyph unicode="&#x20ac;" horiz-adv-x="1730" d="M223 723q0 10 9.5 17.5t17.5 7.5q12 0 12 -11q0 -1 -1 -3t-1 -3q-7 -18 -27 -18q-10 0 -10 10zM238 1018q0 4 2 6q6 12 24 12q25 0 25 -18q0 -14 -10 -14q-5 0 -17.5 5t-17.5 5q-6 0 -6 4zM641 770h31q76 0 86 -10q0 -10 -33 -32t-57 -28q-13 0 -18 12t-6 32.5t-3 25.5z M676 406q0 8 137 8q175 0 197 -11q28 -14 104 -14q44 0 64 8q8 4 12 4q6 0 6 -4q0 -11 -43 -30t-92 -29q-101 -23 -191 -23q-73 0 -106 17q-31 15 -59.5 39t-28.5 35zM688 1067q0 17 57 59q55 39 115 39q27 0 27 -14q0 -16 -27 -16q-16 0 -37.5 -16t-34.5 -17q-17 0 -55 -23 q-24 -16 -39 -16q-6 0 -6 4zM797 700q0 8 37 37q39 29 137 29q85 0 129 -21q51 -23 51 -34q0 -8 -23 -21t-30 -20q-4 -2 -21 -2q-34 0 -131 12t-104 12q-45 0 -45 8zM872 1063q0 5 7 22l3 4q4 4 7 8t8 7.5t8 3.5q17 0 103 -21q62 -15 67 -20q2 -4 28.5 -14.5t26.5 -18.5 q0 -10 -28 -10q-26 0 -33 10t-31 10h-12q-19 0 -74.5 6.5t-66.5 6.5q-13 0 -13 6zM983 1485q0 8 55 14q28 4 49 9t35.5 7.5t40.5 2.5q35 0 62 -2q77 -3 107.5 -10t74.5 -31l55 -31l11 -25q-14 -14 -87 -53q-12 -6 -20 -6q-16 0 -37 24q-19 22 -47.5 23t-42.5 10 q-29 36 -176 49q-80 6 -80 19zM1092 537q0 16 2 26q4 38 31 66t59 30q15 0 19.5 -6t4.5 -28q0 -20 -15.5 -34t-37 -26.5t-29.5 -25.5q-20 -23 -26 -23q-8 0 -8 21zM1122 924q0 18 49 51q36 22 50 22q15 0 18 -20q0 -14 -42 -40t-64 -26q-5 0 -9 4q-2 2 -2 9zM1325 385 q0 10 23 33q31 31 41 31q4 0 8.5 -2t9.5 -6.5t10 -9.5l13.5 -13.5t15.5 -14.5l43 -45l-37 -30q-41 -33 -53 -33q-13 0 -29 29q-13 29 -35 47q-10 7 -10 14zM1352 1243q0 23 45 56.5t88 48.5q0 -4 1 -12.5t1 -12.5l-33 -33q-23 -23 -50.5 -39t-41.5 -16q-10 0 -10 8z" />
<glyph unicode="&#x2122;" horiz-adv-x="1421" d="M213 1178q27 18 31 18h18q11 0 45 -1t53 -1q52 0 62 2q10 4 24 4h11q8 -2 47 -2h53l-14 -16h-3q-2 -1 -7.5 -1.5t-10.5 -0.5h-12.5h-11.5h-9q-125 2 -210 2q-38 0 -66 -4zM416 868v54q0 10 1 31.5t1 31.5v21h22l-4 -70q0 -1 -1 -10t-1 -15q-6 -110 -10 -127q-8 39 -8 84z M573 1083v27q2 40 15 59l10 15q-2 -2 -2 -10q0 -17 -2 -27q-3 -50 -12 -55zM711 1208q7 4 36 19.5t52 27t30 11.5h35q-5 -4 -20 -23.5t-30.5 -34t-27.5 -14.5zM823 842l4 24q2 -5 16.5 -24.5t14.5 -26.5q0 -6 -9 -18t-9 -19q-17 4 -17 64zM846 1196l10 10q0 2 4.5 7.5 t7.5 5.5t6 -15l5 -8q14 -28 16 -53l2 -13q26 -89 62 -140q8 -12 16 -19q2 -2 2 -6q0 -3 -6 -9q0 -2 -6 -8q-1 1 -6 4.5t-7 6.5t-2 8q-3 11 -42.5 95.5t-59.5 123.5q-2 4 -2 10zM1137 1194q7 3 36 19t52 27t30 11h35q-5 -4 -20 -23.5t-30.5 -33.5t-27.5 -14zM1239 797 q0 29 6 73q-2 4 -2 62q0 40 1 108l1 68q0 34 10 54t18.5 24t16.5 4q-5 0 -18 -174l-6 -105q0 -68 -11 -86q-4 -1 -12 -22z" />
<glyph unicode="&#x25fc;" horiz-adv-x="829" d="M0 0v829h829v-829h-829z" />
<glyph unicode="&#xfb01;" horiz-adv-x="1378" d="M246 858q0 3 3 8t6.5 8.5t4.5 2.5q4 -4 4 -9q0 -14 -12 -14q-6 0 -6 4zM518 850v27q0 108 66 165q26 23 82 23q30 0 30 -12q0 -11 -10 -11q-6 0 -23.5 -32.5t-25.5 -57.5q-3 -17 -37 -32q-15 -6 -28.5 -17.5t-30.5 -29t-23 -23.5zM584 209q0 9 4 49q7 53 12 168 q3 75 19 96t67 21h16q-4 -80 -36 -205l-4 -14q-5 -21 -21 -42t-25 -46q-19 -54 -26 -54q-6 0 -6 27zM608 842q0 8 13.5 19t27.5 11q9 0 13 -2q19 -4 39.5 -7t35.5 -4.5t43 -3t41 -2t50.5 -1.5t52.5 -2q86 -3 118.5 -8.5t32.5 -18.5q0 -6 -8 -18q-14 -17 -16 -17q-4 0 -17 13 q-17 17 -82 20q-170 13 -344 21zM651 1362q0 8 40 26t77 27q30 6 82 6q115 0 170 -22q41 -18 41 -31q0 -12 -49 -37q-38 -18 -49 -18q-13 0 -37 12q-40 19 -156 25q-119 4 -119 12zM881 1106q8 1 15.5 8.5t11.5 14t11.5 21.5l10.5 21q20 35 33 53.5t38.5 40.5t59.5 38 q20 8 26 8q11 0 11 -15q0 -12 -15 -53q-21 -57 -34 -73.5t-43 -22.5q-13 -3 -23 -8.5t-10 -10.5q0 -8 -19 -8q-9 0 -30 -19t-23 -20zM1106 283q0 8 2 14q10 40 18.5 171t10.5 234q2 51 5.5 64.5t20.5 19.5q18 9 31 9t17.5 -16t9.5 -66q10 -123 10 -301v-62q-2 -1 -13.5 -12 t-24 -21.5t-27.5 -22t-28.5 -19t-21.5 -7.5q-10 0 -10 15z" />
<glyph unicode="&#xfb02;" horiz-adv-x="1286" d="M291 852q0 6 17.5 20.5t23.5 14.5q4 0 4 -4q0 -8 -13.5 -24.5t-23.5 -16.5q-5 0 -8 10zM526 209q0 23 2 37q7 51 7 106v29q0 34 11 57t11 56q0 41 12 41q2 0 4 -1t5.5 -2t5.5 -2q6 -2 28.5 -5t38 -9t15.5 -18q0 -7 -2 -11q-9 -28 -27 -129q-15 -84 -31 -118.5t-39 -34.5 q-9 0 -16.5 -11t-15.5 -12q-9 0 -9 27zM627 813q0 2 4 14q1 14 36.5 19t39.5 10q7 10 18 10q19 0 53 -30q33 -29 33 -52q0 -11 -14 -32q-9 -15 -19 -15t-55 23q-64 31 -72 31q-10 0 -17 6.5t-7 15.5zM651 1165q0 6 20.5 12t53.5 7q30 1 53 8.5t33 7.5q18 0 47 -10 q46 -12 123.5 -41.5t73.5 -38.5q0 -10 26 -10q29 0 56 -45q28 -43 28 -94q0 -27 -10 -82q-26 -115 -39 -512q-4 -134 -9 -172.5t-17 -44.5q-3 -3 -9 -3q-8 0 -8 50q0 59 2 110q4 180 10 230q7 68 7 118q0 194 -39 252l-27 54q-2 12 -13.5 16.5t-13.5 11.5q0 23 -70.5 78 t-99.5 55q-21 0 -65 16.5t-72 16.5q-41 0 -41 10zM741 578q0 6 11 24l22 45q33 55 49 55q11 0 11 -36q0 -32 -8 -44.5t-40 -33.5q-27 -17 -36 -17t-9 7z" />
<glyph unicode="&#xfb03;" horiz-adv-x="1703" d="M178 905q0 3 17 23q21 24 32 24t11 -14q0 -17 -12.5 -30t-26.5 -13q-7 0 -9 2q-12 3 -12 8zM440 188q0 32 15.5 121t15.5 103q0 58 12 114q10 56 22 66.5t70 15.5q9 0 13.5 -4t7.5 -23.5t3.5 -48.5t0.5 -90v-43q0 -65 -4 -98t-12 -45t-23 -12q-6 2 -55 -43.5t-55 -44.5 q-11 0 -11 32zM477 905q0 12 39 35q42 27 82 27q59 0 59 -54q-1 -12 -19 -15t-77 -5h-22q-62 0 -62 12zM526 1206q0 6 57 20.5t85 14.5q36 0 86 -16t63 -33q12 -15 12 -21t-16 -22l-8 -8l-29 8l-20 -4q-24 22 -77 37.5t-108 15.5h-22q-23 0 -23 8zM856 63q0 33 4 58 q4 29 10 133.5t14.5 185.5t20.5 90q10 13 49 13h19l-6 -113q-21 -330 -33 -330q-10 -2 -39.5 -28.5t-36.5 -26.5q-2 0 -2 18zM979 868q0 30 45 88q16 19 68 19q32 0 32 -10q-8 -14 -50 -44t-52 -47q-19 -22 -31 -22q-4 0 -8 4t-4 12zM1053 836q0 7 20 24q31 27 47 27 q15 0 15 10q0 12 27.5 18.5t27.5 16.5q0 8 12 8q19 0 68 -22q15 -7 35 -20.5t35.5 -20.5t33.5 -7h8l5 1q5 1 8 1q33 0 97 -11t64 -17q-11 -14 -40 -40t-46 -26q-4 0 -8 4q-105 30 -256 35q-91 3 -122 6.5t-31 12.5zM1159 1227q0 4 19 20q20 17 55 17q23 0 45 -11 q38 -21 213 -41q53 -7 59 -16q0 -7 -27.5 -27.5t-54.5 -40t-26 -24.5q-4 -4 -6 -4q-7 0 -27 20q-26 29 -100 64t-111 35q-39 0 -39 8zM1466 1036q0 24 37 47q41 23 53 23q11 0 11 -8q0 -17 -9 -31t-18 -14q-11 -1 -24 -17t-27 -16q-23 0 -23 16zM1489 176v47q0 86 12 252.5 t12 224.5q0 19 8.5 31t34.5 25l23 12v-18q8 -99 8 -138q0 -205 -6 -235q-5 -19 -10 -113q-14 -19 -45 -50.5t-37 -37.5z" />
<glyph unicode="&#xfb04;" horiz-adv-x="1792" d="M219 811q0 8 41 33q10 6 21 15t17 13.5t9 4.5q6 0 6 -15q0 -3 -4 -31q-3 -22 -9 -30t-19 -8q-19 0 -43 8q-19 6 -19 10zM535 88l22 385q2 30 8 36t41 9q49 4 53 6q35 -6 35 -57q0 -28 -12 -55q-8 -22 -16 -121q-4 -57 -10.5 -78t-22.5 -33q-11 -9 -28.5 -25.5t-38.5 -37 t-31 -29.5zM586 799q0 22 31 51t53 29q13 0 19.5 -8.5t7.5 -18t1 -27.5v-39h-41q-68 0 -71 13zM623 1133q0 10 28 22q19 8 47 8q57 0 114.5 -31.5t57.5 -62.5q0 -13 -9 -22t-23 -9t-29 9q-3 2 -27 17t-36 21.5t-33 17.5t-38.5 16t-31.5 5q-20 0 -20 9zM942 72q6 246 25 299 q6 18 10.5 58.5t9.5 55.5q7 7 43 7q47 0 53 -9q2 -2 2 -10q0 -16 -10 -43q-8 -18 -16.5 -137.5t-26.5 -134.5q-7 -13 -16.5 -22t-14.5 -9q-7 -1 -18 -11t-24.5 -25.5t-16.5 -18.5zM1036 745q0 25 42.5 49.5t82.5 24.5q13 0 17 -2q6 -1 17.5 -2.5t16 -3t12 -4.5t12 -8.5 t9.5 -14.5q10 -20 10 -24q0 -9 -14 -17q-1 -4 -40 -8t-81 -4q-84 0 -84 14zM1194 1141q0 2 4 6q8 8 100 8q35 0 68 -7t55 -15.5t51 -27.5t41.5 -28.5t42.5 -35.5t39 -33q4 0 16.5 -27t14.5 -39l21 -201q0 -3 1 -21t1 -32q0 -36 -2 -136.5t-2 -141.5q0 -72 -3 -99 q-3 -28 -4.5 -81t-1.5 -92v-38l-41 -28q2 61 2 319q-3 410 -14 424q-13 18 -20 66q-15 111 -115 172q-87 53 -126 65.5t-108 14.5q-20 3 -20 8zM1202 580q0 14 16.5 33.5t16.5 31.5t16.5 34.5t24.5 22.5q5 0 20 -38q0 -7 7.5 -23.5t7.5 -24.5q0 -12 -25 -12q-23 0 -55 -24 q-24 -17 -25 -17q-4 0 -4 17z" />
</font>
</defs>
</svg>
